<svg viewBox="0 0 1091.4000244140625 400" xmlns="http://www.w3.org/2000/svg"><g><g><g><g><g><line x1="52.25" y1="376" x2="47.25" y2="376" style="visibility: inherit;" fill="rgb(0, 0, 0)" stroke="rgb(204, 204, 204)" stroke-width="1px"></line><line x1="52.25" y1="347.0769230769231" x2="47.25" y2="347.0769230769231" style="visibility: inherit;" fill="rgb(0, 0, 0)" stroke="rgb(204, 204, 204)" stroke-width="1px"></line><line x1="52.25" y1="318.15384615384613" x2="47.25" y2="318.15384615384613" style="visibility: inherit;" fill="rgb(0, 0, 0)" stroke="rgb(204, 204, 204)" stroke-width="1px"></line><line x1="52.25" y1="289.2307692307692" x2="47.25" y2="289.2307692307692" style="visibility: inherit;" fill="rgb(0, 0, 0)" stroke="rgb(204, 204, 204)" stroke-width="1px"></line><line x1="52.25" y1="260.3076923076923" x2="47.25" y2="260.3076923076923" style="visibility: inherit;" fill="rgb(0, 0, 0)" stroke="rgb(204, 204, 204)" stroke-width="1px"></line><line x1="52.25" y1="231.3846153846154" x2="47.25" y2="231.3846153846154" style="visibility: inherit;" fill="rgb(0, 0, 0)" stroke="rgb(204, 204, 204)" stroke-width="1px"></line><line x1="52.25" y1="202.46153846153848" x2="47.25" y2="202.46153846153848" style="visibility: inherit;" fill="rgb(0, 0, 0)" stroke="rgb(204, 204, 204)" stroke-width="1px"></line><line x1="52.25" y1="173.53846153846155" x2="47.25" y2="173.53846153846155" style="visibility: inherit;" fill="rgb(0, 0, 0)" stroke="rgb(204, 204, 204)" stroke-width="1px"></line><line x1="52.25" y1="144.61538461538464" x2="47.25" y2="144.61538461538464" style="visibility: inherit;" fill="rgb(0, 0, 0)" stroke="rgb(204, 204, 204)" stroke-width="1px"></line><line x1="52.25" y1="115.69230769230768" x2="47.25" y2="115.69230769230768" style="visibility: inherit;" fill="rgb(0, 0, 0)" stroke="rgb(204, 204, 204)" stroke-width="1px"></line><line x1="52.25" y1="86.76923076923077" x2="47.25" y2="86.76923076923077" style="visibility: inherit;" fill="rgb(0, 0, 0)" stroke="rgb(204, 204, 204)" stroke-width="1px"></line><line x1="52.25" y1="57.84615384615387" x2="47.25" y2="57.84615384615387" style="visibility: inherit;" fill="rgb(0, 0, 0)" stroke="rgb(204, 204, 204)" stroke-width="1px"></line><line x1="52.25" y1="28.923076923076906" x2="47.25" y2="28.923076923076906" style="visibility: inherit;" fill="rgb(0, 0, 0)" stroke="rgb(204, 204, 204)" stroke-width="1px"></line><line x1="52.25" y1="0" x2="47.25" y2="0" style="visibility: inherit;" fill="rgb(0, 0, 0)" stroke="rgb(204, 204, 204)" stroke-width="1px"></line></g><g transform="translate(42.25, 0)"><text x="0" y="376" dx="0em" dy="0.3em" style="text-anchor: end; visibility: hidden; font-family: &quot;Helvetica Neue&quot;, sans-serif; font-size: 12px; font-weight: 200;" fill="rgb(50, 49, 63)" stroke="none" stroke-width="1px">-0.2</text><text x="0" y="347.0769230769231" dx="0em" dy="0.3em" style="text-anchor: end; visibility: inherit; font-family: &quot;Helvetica Neue&quot;, sans-serif; font-size: 12px; font-weight: 200;" fill="rgb(50, 49, 63)" stroke="none" stroke-width="1px">0</text><text x="0" y="318.15384615384613" dx="0em" dy="0.3em" style="text-anchor: end; visibility: inherit; font-family: &quot;Helvetica Neue&quot;, sans-serif; font-size: 12px; font-weight: 200;" fill="rgb(50, 49, 63)" stroke="none" stroke-width="1px">0.2</text><text x="0" y="289.2307692307692" dx="0em" dy="0.3em" style="text-anchor: end; visibility: inherit; font-family: &quot;Helvetica Neue&quot;, sans-serif; font-size: 12px; font-weight: 200;" fill="rgb(50, 49, 63)" stroke="none" stroke-width="1px">0.4</text><text x="0" y="260.3076923076923" dx="0em" dy="0.3em" style="text-anchor: end; visibility: inherit; font-family: &quot;Helvetica Neue&quot;, sans-serif; font-size: 12px; font-weight: 200;" fill="rgb(50, 49, 63)" stroke="none" stroke-width="1px">0.6</text><text x="0" y="231.3846153846154" dx="0em" dy="0.3em" style="text-anchor: end; visibility: inherit; font-family: &quot;Helvetica Neue&quot;, sans-serif; font-size: 12px; font-weight: 200;" fill="rgb(50, 49, 63)" stroke="none" stroke-width="1px">0.8</text><text x="0" y="202.46153846153848" dx="0em" dy="0.3em" style="text-anchor: end; visibility: inherit; font-family: &quot;Helvetica Neue&quot;, sans-serif; font-size: 12px; font-weight: 200;" fill="rgb(50, 49, 63)" stroke="none" stroke-width="1px">1</text><text x="0" y="173.53846153846155" dx="0em" dy="0.3em" style="text-anchor: end; visibility: inherit; font-family: &quot;Helvetica Neue&quot;, sans-serif; font-size: 12px; font-weight: 200;" fill="rgb(50, 49, 63)" stroke="none" stroke-width="1px">1.2</text><text x="0" y="144.61538461538464" dx="0em" dy="0.3em" style="text-anchor: end; visibility: inherit; font-family: &quot;Helvetica Neue&quot;, sans-serif; font-size: 12px; font-weight: 200;" fill="rgb(50, 49, 63)" stroke="none" stroke-width="1px">1.4</text><text x="0" y="115.69230769230768" dx="0em" dy="0.3em" style="text-anchor: end; visibility: inherit; font-family: &quot;Helvetica Neue&quot;, sans-serif; font-size: 12px; font-weight: 200;" fill="rgb(50, 49, 63)" stroke="none" stroke-width="1px">1.6</text><text x="0" y="86.76923076923077" dx="0em" dy="0.3em" style="text-anchor: end; visibility: inherit; font-family: &quot;Helvetica Neue&quot;, sans-serif; font-size: 12px; font-weight: 200;" fill="rgb(50, 49, 63)" stroke="none" stroke-width="1px">1.8</text><text x="0" y="57.84615384615387" dx="0em" dy="0.3em" style="text-anchor: end; visibility: inherit; font-family: &quot;Helvetica Neue&quot;, sans-serif; font-size: 12px; font-weight: 200;" fill="rgb(50, 49, 63)" stroke="none" stroke-width="1px">2</text><text x="0" y="28.923076923076906" dx="0em" dy="0.3em" style="text-anchor: end; visibility: inherit; font-family: &quot;Helvetica Neue&quot;, sans-serif; font-size: 12px; font-weight: 200;" fill="rgb(50, 49, 63)" stroke="none" stroke-width="1px">2.2</text><text x="0" y="0" dx="0em" dy="0.3em" style="text-anchor: end; visibility: hidden; font-family: &quot;Helvetica Neue&quot;, sans-serif; font-size: 12px; font-weight: 200;" fill="rgb(50, 49, 63)" stroke="none" stroke-width="1px">2.4</text></g><line x1="52.25" y1="0" x2="52.25" y2="376" fill="rgb(0, 0, 0)" stroke="rgb(204, 204, 204)" stroke-width="1px"></line></g></g><g transform="translate(52, 0)" clip-path="url(#clip_0)"><clipPath id="clip_0"><rect width="1039" height="376"></rect></clipPath><g><g><g><line x1="0" y1="0" x2="0" y2="376" fill="rgb(0, 0, 0)" stroke="rgb(60, 60, 60)" stroke-width="1px" opacity="0.25"></line><line x1="74.22500000000001" y1="0" x2="74.22500000000001" y2="376" fill="rgb(0, 0, 0)" stroke="rgb(60, 60, 60)" stroke-width="1px" opacity="0.25"></line><line x1="148.45000000000002" y1="0" x2="148.45000000000002" y2="376" fill="rgb(0, 0, 0)" stroke="rgb(60, 60, 60)" stroke-width="1px" opacity="0.25"></line><line x1="222.675" y1="0" x2="222.675" y2="376" fill="rgb(0, 0, 0)" stroke="rgb(60, 60, 60)" stroke-width="1px" opacity="0.25"></line><line x1="296.90000000000003" y1="0" x2="296.90000000000003" y2="376" fill="rgb(0, 0, 0)" stroke="rgb(60, 60, 60)" stroke-width="1px" opacity="0.25"></line><line x1="371.12500000000006" y1="0" x2="371.12500000000006" y2="376" fill="rgb(0, 0, 0)" stroke="rgb(60, 60, 60)" stroke-width="1px" opacity="0.25"></line><line x1="445.35" y1="0" x2="445.35" y2="376" fill="rgb(0, 0, 0)" stroke="rgb(60, 60, 60)" stroke-width="1px" opacity="0.25"></line><line x1="519.575" y1="0" x2="519.575" y2="376" fill="rgb(0, 0, 0)" stroke="rgb(60, 60, 60)" stroke-width="1px" opacity="0.25"></line><line x1="593.8000000000001" y1="0" x2="593.8000000000001" y2="376" fill="rgb(0, 0, 0)" stroke="rgb(60, 60, 60)" stroke-width="1px" opacity="0.25"></line><line x1="668.0250000000001" y1="0" x2="668.0250000000001" y2="376" fill="rgb(0, 0, 0)" stroke="rgb(60, 60, 60)" stroke-width="1px" opacity="0.25"></line><line x1="742.2500000000001" y1="0" x2="742.2500000000001" y2="376" fill="rgb(0, 0, 0)" stroke="rgb(60, 60, 60)" stroke-width="1px" opacity="0.25"></line><line x1="816.475" y1="0" x2="816.475" y2="376" fill="rgb(0, 0, 0)" stroke="rgb(60, 60, 60)" stroke-width="1px" opacity="0.25"></line><line x1="890.7" y1="0" x2="890.7" y2="376" fill="rgb(0, 0, 0)" stroke="rgb(60, 60, 60)" stroke-width="1px" opacity="0.25"></line><line x1="964.9250000000001" y1="0" x2="964.9250000000001" y2="376" fill="rgb(0, 0, 0)" stroke="rgb(60, 60, 60)" stroke-width="1px" opacity="0.25"></line><line x1="1039.15" y1="0" x2="1039.15" y2="376" fill="rgb(0, 0, 0)" stroke="rgb(60, 60, 60)" stroke-width="1px" opacity="0.25"></line></g><g><line x1="0" y1="376" x2="1039.15" y2="376" fill="rgb(0, 0, 0)" stroke="rgb(60, 60, 60)" stroke-width="1px" opacity="0.25"></line><line x1="0" y1="347.0769230769231" x2="1039.15" y2="347.0769230769231" fill="rgb(0, 0, 0)" stroke="rgb(60, 60, 60)" stroke-width="1px" opacity="0.25"></line><line x1="0" y1="318.15384615384613" x2="1039.15" y2="318.15384615384613" fill="rgb(0, 0, 0)" stroke="rgb(60, 60, 60)" stroke-width="1px" opacity="0.25"></line><line x1="0" y1="289.2307692307692" x2="1039.15" y2="289.2307692307692" fill="rgb(0, 0, 0)" stroke="rgb(60, 60, 60)" stroke-width="1px" opacity="0.25"></line><line x1="0" y1="260.3076923076923" x2="1039.15" y2="260.3076923076923" fill="rgb(0, 0, 0)" stroke="rgb(60, 60, 60)" stroke-width="1px" opacity="0.25"></line><line x1="0" y1="231.3846153846154" x2="1039.15" y2="231.3846153846154" fill="rgb(0, 0, 0)" stroke="rgb(60, 60, 60)" stroke-width="1px" opacity="0.25"></line><line x1="0" y1="202.46153846153848" x2="1039.15" y2="202.46153846153848" fill="rgb(0, 0, 0)" stroke="rgb(60, 60, 60)" stroke-width="1px" opacity="0.25"></line><line x1="0" y1="173.53846153846155" x2="1039.15" y2="173.53846153846155" fill="rgb(0, 0, 0)" stroke="rgb(60, 60, 60)" stroke-width="1px" opacity="0.25"></line><line x1="0" y1="144.61538461538464" x2="1039.15" y2="144.61538461538464" fill="rgb(0, 0, 0)" stroke="rgb(60, 60, 60)" stroke-width="1px" opacity="0.25"></line><line x1="0" y1="115.69230769230768" x2="1039.15" y2="115.69230769230768" fill="rgb(0, 0, 0)" stroke="rgb(60, 60, 60)" stroke-width="1px" opacity="0.25"></line><line x1="0" y1="86.76923076923077" x2="1039.15" y2="86.76923076923077" fill="rgb(0, 0, 0)" stroke="rgb(60, 60, 60)" stroke-width="1px" opacity="0.25"></line><line x1="0" y1="57.84615384615387" x2="1039.15" y2="57.84615384615387" fill="rgb(0, 0, 0)" stroke="rgb(60, 60, 60)" stroke-width="1px" opacity="0.25"></line><line x1="0" y1="28.923076923076906" x2="1039.15" y2="28.923076923076906" fill="rgb(0, 0, 0)" stroke="rgb(60, 60, 60)" stroke-width="1px" opacity="0.25"></line><line x1="0" y1="0" x2="1039.15" y2="0" fill="rgb(0, 0, 0)" stroke="rgb(60, 60, 60)" stroke-width="1px" opacity="0.25"></line></g></g></g><g><g><line x1="0" y1="347.0769230769231" x2="1039.15" y2="347.0769230769231" fill="rgb(0, 0, 0)" stroke="rgb(153, 153, 153)" stroke-width="1.5px"></line></g></g><g><g><line x1="74.22500000000001" y1="0" x2="74.22500000000001" y2="376" fill="rgb(0, 0, 0)" stroke="rgb(153, 153, 153)" stroke-width="1.5px"></line></g></g><g><g><g><g><g><path stroke="rgb(255, 112, 67)" stroke-width="2px" d="M74.89302500000001,14.048314608060366L75.57589500000002,14.07818203706006L76.941635,14.03342531165299L78.30737500000001,14.097437034365214L78.990245,14.096499301985943L79.67311500000001,14.09355523374893L80.69742000000001,14.118057557456439L81.38029,14.161320722742062L82.06316,14.195906424422219L82.74603,14.2149209908942L83.4289,14.264251663170796L84.11177000000002,14.291786418187542L84.79464000000002,14.29958260136516L85.47751000000001,14.344046148879045L86.50181500000001,14.392709913372698L87.18468500000002,14.432405687240134L87.86755500000001,14.452533003214455L88.550425,14.46728305390576L89.23329500000001,14.555024872392323L89.916165,14.61532115816135L90.599035,14.638050415844418L91.28190500000001,14.713985118600988L92.30621000000001,14.894690234778182L92.98908,15.032819633586541L94.35482000000002,15.252303018632688L96.40343000000001,15.724480197757373L97.08630000000001,16.171975129677207L98.110605,16.668350506200284L98.793475,17.53826501642959L99.47634500000001,18.474830413948155L100.84208500000001,19.98255604817615L101.524955,21.090576009757513L102.207825,22.75013455275871L102.89069500000001,24.52914965610495L103.91500000000002,26.405008371207714L105.28074000000001,29.369605582900135L105.96361000000002,31.530887649473698L106.64648000000001,33.718152771333564L107.32935,35.85775946072357L108.01222000000001,37.9921340587569L108.69509000000001,39.711152335577424L110.402265,42.73168407858134L111.08513500000001,44.96431585832522L112.45087500000001,49.53526629237956L113.13374500000002,53.34546482601348L113.81661500000001,57.31601384834221L114.499485,58.92732398618023L115.52379000000002,62.45976790464243L116.20666000000001,65.57329125078076L117.57240000000002,68.63577831588526L118.25527000000001,68.8189890854324L118.93814,70.75318535542112L119.62101000000001,72.17444706554068L120.30388,73.79050696801079L121.328185,76.11914626994741L122.01105500000001,77.1118567664385L122.69392500000002,79.07598883567664L123.37679500000002,79.83396226009938L124.05966500000001,82.52232316270988L124.74253500000002,83.16890727958395L126.108275,85.79790964367629L127.13258,87.49733911952347L127.81545000000001,89.51983215213403L128.49832,90.33917789798869L129.18119000000002,90.788341703252L129.86406,93.57560649876723L130.54693,95.9234433576438L131.2298,97.86748013342645L131.91267,99.0293233884243L133.619845,102.04649329922415L134.302715,103.11180761119198L135.668455,105.11735048045841L136.35132500000003,106.25345595430946L137.034195,108.68027354605891L137.71706500000002,108.67798538265902L138.74137000000002,110.16013328586979L139.42424000000003,112.1830499926964L140.78998,113.99445201193771L141.47285000000002,114.37406698376458L142.15572000000003,115.11866919886L142.83859,114.90348210379807L143.52146000000002,116.71980573754553L144.54576500000002,118.63481327674646L145.22863500000003,120.40255025265955L146.594375,119.9835401801414L147.27724500000002,124.6109394438721L147.960115,125.58503093856822L148.642985,126.41297649465949L149.32585500000002,126.89948977534513L150.35016000000002,129.36602930268828L151.03303,132.00153720770223L151.7159,132.69737310094158L153.08164,132.58837349482354L153.76451,134.0682602031798L154.44738,135.8043685974938L155.13025000000002,137.7172212843226L156.15455500000002,138.68416642397023L156.83742500000002,140.69749428961916L157.52029500000003,140.74457636784828L158.203165,140.25167561267304L158.88603500000002,140.21154863331333L159.56890500000003,140.85768893270173L160.251775,141.86810512809123L160.93464500000002,142.70608127166958L161.95895000000002,144.4598890032455L162.64182000000002,143.4405377356782L163.32469,145.46811471458335L164.00756,147.3827019375053L164.69043000000002,148.01591055365398L165.3733,148.1617371421759L166.05617,147.55808785861345L166.73904000000002,147.86274272981652L168.446215,149.94983810286516L169.129085,151.43486301867333L171.177695,155.02472126391586L171.860565,156.2312017123478L173.56774000000001,157.89513907949512L174.25061000000002,160.2560010302823L175.61635000000004,160.91304938854574L176.98209000000003,162.39912472284914L177.66496000000004,163.81178890536475L178.34783000000002,164.44794842890283L179.37213500000001,165.70250057660067L180.05500500000002,166.2058246104868L180.73787500000003,167.50434472192418L182.10361500000002,167.9970880519327L182.78648500000003,170.34277231428575L183.469355,170.75847044822626L184.15222500000002,170.93139423135693L185.85940000000002,174.7074648323651L186.54227,174.7678375995111L187.22514,177.69584900886903L187.90801000000002,178.19612406573123L188.59088,179.83385342151323L189.27375,180.73002461253458L189.95662000000002,179.96049072905925L191.663795,182.48434790892742L192.346665,184.0896660749745L193.71240500000002,185.20651606156375L194.39527500000003,185.1261286756815L195.76101500000001,185.80356874593625L196.78532,188.1642953014699L197.46819000000002,188.7707575914138L198.83393,187.98138155680144L199.51680000000002,188.14876871468294L200.19967000000003,190.05639681958314L201.56541,192.17730157864142L202.589715,194.3047442073073L203.27258500000002,194.23737718163912L203.95545500000003,194.6638094477868L205.32119500000002,197.67960198571686L206.00406500000003,197.41477982358532L206.686935,196.92126788452643L207.369805,197.44149918685505L208.39411,198.79337273528574L209.07698000000002,200.08900948688398L209.75985,200.74395662831577L210.44272,202.6991095404144L211.12559000000002,202.46301375070036L212.49133000000003,202.33572022598736L213.17420000000004,204.54879761762928L215.56424500000003,205.96549642148275L218.29572500000003,207.1194687278521L218.978595,207.625779321968L220.68577000000002,210.5107769886041L221.36864000000003,211.2232419552803L222.05151,213.12120522871018L223.41725000000002,214.79916570901284L224.10012,213.00824052835992L224.78299,213.1428292786577L225.807295,213.6721749348892L226.49016500000002,214.30135521047342L228.53877500000002,215.85743126217645L229.221645,214.61441107359008L229.904515,216.74118535746254L230.587385,218.27828694736888L231.61169000000004,220.96294515390906L232.29456000000002,222.9060313874833L232.97743000000003,226.07659530578474L233.66030000000003,224.39223901271794L234.34317000000004,223.86039710683076L235.02604000000002,224.05267061836528L235.70891000000003,223.30334291761247L236.39178000000004,221.3714908750088L238.09895500000002,226.2240164568149L238.78182500000003,226.8840982866819L239.46469500000003,225.80413266045755L240.83043500000002,228.2570975103276L241.51330500000003,229.34636645508667L242.196175,226.89275668992775L243.22048,232.0149433329217L243.90335000000002,233.70890590359917L244.58622000000003,232.9456260087545L245.26909,233.0842446660625L246.63483000000002,233.87539374224568L247.3177,234.3843553085047L249.024875,236.50313772534378L249.70774500000005,237.82370179390708L250.39061500000003,237.96577674216738L251.75635500000004,238.54609524968367L252.43922500000002,239.55943787690325L253.12209500000003,238.6979797380485L253.80496500000004,238.4025461970161L254.82927000000004,241.88745523544037L255.51214000000002,243.84908029376294L256.19501,244.1953839449721L256.87788,244.66120348275754L257.56075000000004,245.66599533407214L258.24362,244.74813991272825L258.92649,242.4190932160602L259.60936000000004,244.48077377079915L260.633665,247.20651612886417L261.999405,246.9098828153941L262.682275,247.70875135624743L263.36514500000004,249.14072709924272L264.048015,249.0734171396961L265.41375500000004,248.72859888188705L266.43806000000006,251.78889952066527L267.12093000000004,254.86047262114693L268.48667000000006,255.18837843129785L269.85241,255.22501870635233L271.21815000000004,255.1218682565873L272.242455,256.8326017090981L272.925325,258.3028829812131L273.608195,260.4468898504907L274.291065,260.07066513799316L275.656805,261.0328282127632L276.339675,261.3109897491019L277.022545,260.26216766796136L278.04685,262.26871424835514L278.72972000000004,264.3280419152428L279.41259,266.54185586039307L280.09546,265.99566610741294L280.77833000000004,264.61063320138817L284.53411500000004,266.0565717766303L285.89985500000006,268.9558441526387L286.58272500000004,268.2189951719092L287.94846500000006,270.15805341535446L288.63133500000004,270.3326549339924L289.65564,275.22015750184534L290.33851,276.9038677880734L291.02138,276.28068262569906L291.70425,277.83773141321143L292.38712,275.8019194106945L293.06999,277.62742198022033L293.75286,278.0554549889627L294.43573,277.15369610492644L295.460035,280.0254785366037L297.508645,282.0925690591946L298.19151500000004,282.7238243405085L298.874385,280.7746799239415L299.557255,282.4640397917109L300.24012500000003,281.68254306582946L301.94730000000004,284.23234823423553L302.63017,284.37413632320124L303.31304000000006,286.1328368098955L303.99591000000004,286.20743657097665L304.67878,286.91451205303616L305.36165000000005,287.066025047749L306.04452000000003,287.4525953944026L307.068825,291.6795635305986L307.751695,294.15881097262127L308.434565,292.67049638458644L309.117435,293.9084646483436L309.800305,294.56643072798744L310.483175,293.8588686504977L311.166045,292.7949684452425L311.848915,292.3943989161727L312.87322,296.5361201840777L314.23896,296.6898281474104L314.92183000000006,297.31787029179003L316.28757,296.76541599426673L317.65331000000003,296.1947057404528L319.36048500000004,300.5554988918824L320.0433550000001,301.6894090496375L320.72622500000006,303.3612227669008L321.40909500000004,304.5808666660163L322.0919650000001,303.0396321878023L322.77483500000005,302.7944724827887L323.45770500000003,303.09377102993295L324.48201,303.76612739574483L325.16488000000004,305.5208764473064L325.84775,306.8318804538847L326.53062,305.9715919608144L327.21349000000004,307.35916792743706L327.89636,306.8074508355732L328.57923,306.5893323916966L329.26210000000003,306.68262478426817L330.28640500000006,310.6285264149558L330.96927500000004,312.1048819263085L331.652145,313.19701839828014L332.33501500000006,314.0132128868955L333.01788500000004,313.2452755000405L333.700755,312.5689167771925L334.38362500000005,310.06093276337685L335.06649500000003,310.61670274658695L336.09080000000006,314.2175632039437L336.77367000000004,315.9993958196112L337.4565400000001,316.1427464538991L338.13941000000005,314.57548128964504L338.82228000000003,314.7840467619098L339.50515000000007,313.07937632456907L340.18802000000005,313.9203283529655L340.87089000000003,313.7739214999643L341.895195,317.5732780187917L343.260935,316.96228939645425L343.943805,317.9434473636463L345.309545,318.54847570563874L345.992415,318.72581039574135L346.67528500000003,319.2091709188237L347.69959000000006,320.8535471345415L348.38246000000004,322.339454563813L349.06533,323.2680975575005L349.74820000000005,322.08540691835975L351.11394,322.15909322809387L351.79681000000005,322.5392528209529L353.503985,324.62188404631036L354.18685500000004,326.4420776421329L354.8697250000001,327.88740136031237L355.55259500000005,327.96016852647114L356.23546500000003,326.5396197097442L357.60120500000005,326.0543598291518L358.28407500000003,323.14176077587854L359.30838,325.7791566859139L359.99125000000004,327.16447997522306L361.35699,328.2536742309494L362.03986000000003,329.9292261905712L362.72273,329.0674426665405L363.4056,327.5140762028166L364.08847000000003,326.4980396346949L365.79564500000004,329.6737945268573L366.478515,330.0560383213038L367.16138500000005,330.8879050271427L368.527125,329.45213887020856L369.20999500000005,328.43760537001896L370.91717,331.20464389031406L372.28291,332.0392898901465L372.96578000000005,333.34718894589L373.64865000000003,333.3135522049962L375.01439000000005,332.3325358315151L375.69726,332.45660510012704L376.721565,333.7216309082231L378.087305,334.8691729427868L378.77017500000005,335.1684820339286L379.45304500000003,333.34128139893664L380.135915,332.29343891521876L380.81878500000005,332.99580966185954L381.501655,333.30777983471455L382.52596000000005,334.9731949548818L383.89170000000007,335.9100241172849L385.25744000000003,335.180427716379L386.62318000000005,333.7965860917321L388.330355,335.371625850769L390.378965,336.6382624402522L391.06183500000003,337.8114027373306L392.42757500000005,336.4367586580609L393.1104450000001,335.52213675929966L394.13475000000005,336.76879541277896L394.81762000000003,337.6715918085209L395.50049,338.3825600005847L396.86623000000003,338.69283766448314L397.5491,339.4805064841865L398.23197000000005,338.70603508390764L398.91484,335.6482973989574L399.93914500000005,334.9437615855725L400.62201500000003,336.0809288547336L401.30488500000007,337.57536189114444L401.98775500000005,337.50290574505703L402.67062500000003,337.26970104638065L403.35349500000007,338.14801081575945L404.03636500000005,337.97759328771275L404.719235,336.29743572214585L406.42641000000003,337.67666051379143L407.10928,338.0656094334157L407.79215,338.2915168842958L408.47502000000003,339.0243926953202L409.15789,338.06478150918866L409.84076,336.81062075498113L410.5236300000001,337.26298069817807L411.54793500000005,338.791430122219L412.23080500000003,339.85829700072514L412.913675,340.50658908051656L413.59654500000005,340.2865293087002L414.27941500000003,339.94669694991603L414.962285,339.9604806665237L415.64515500000005,340.2640548647712L416.328025,340.5498742723305L417.35233000000005,339.97564086285877L418.03520000000003,340.65736722697636L418.71807000000007,341.4216984169977L419.40094000000005,341.8219727871274L420.76668000000006,340.4346467649337L421.44955000000004,340.1384951955545L424.522465,340.022294308241L425.205335,339.53419919158154L425.888205,339.65840607307814L426.571075,339.4675040063913L427.253945,338.8916167957486L427.936815,337.6843522523812L428.96112000000005,339.15403438877433L429.64399000000003,339.89284548875355L431.00973000000005,341.4430523612484L431.6926,341.96372344805184L432.37547,342.32022430313276L434.76551500000005,341.91532275931854L435.44838500000003,341.8843239968275L436.81412500000005,341.8150835006435L438.86273500000004,342.6583787033053L439.545605,342.8775564238575L440.56991,343.30692590459915L441.25278000000003,343.1463677073449L441.93565,343.27090199545756L442.61852000000005,343.6154038919048L443.30139,343.7503415280556L443.98426,343.9065504208972L444.66713000000004,343.86525493660804L445.35,343.8237153596099L446.37430500000005,343.7685115139457L447.74004500000007,343.0087774754031L448.42291500000005,342.8864073280464L449.105785,342.74948958530615L449.78865500000006,342.8068917002447L450.47152500000004,343.1919004086356L451.154395,343.4366579038735L452.17870000000005,343.7118529158228L453.54444000000007,343.99140355085467L454.22731000000005,344.2023784565177L454.9101800000001,344.27185627228573L455.59305000000006,344.2376969315846L460.03170500000004,343.2021056805992L461.397445,342.30493448942565L462.08031500000004,342.8797719978395L462.763185,343.86148806324525L463.78749000000005,343.9938509624014L464.47036,344.00874654325395L465.15323000000006,344.0580132174231L465.83610000000004,344.42341942365624L466.51897,344.6899550211354L467.20184000000006,344.97458738764897L467.88471000000004,344.77409753334064L468.56758,344.2394209498213L469.59188500000005,343.19719268048084L470.2747550000001,343.65345800571055L470.95762500000006,343.7642930693266L471.64049500000004,343.64322654563136L472.3233650000001,344.10680470835854L473.00623500000006,344.0034149181989L474.3719750000001,343.98112853672836L475.39628000000005,344.30763328854283L476.07915,343.9123700743421L477.44489000000004,343.84104350306234L478.12776,344.05171600959363L478.81063,343.8059589572877L479.49350000000004,342.7536999482636L480.17637,342.7535182016786L481.20067500000005,343.564938230744L481.883545,344.27887698708145L482.56641500000006,344.35780942305973L483.24928500000004,343.80583420682217L483.932155,343.9927460719748L484.61502500000006,343.46163410592465L485.29789500000004,343.4696738240485L485.980765,343.88371860488445L487.00507000000005,344.440852396559L487.6879400000001,344.8014057192585L488.37081000000006,345.0403328754533L489.05368000000004,345.06205045504925L489.7365500000001,344.6998855408367L490.41942000000006,344.01206274432576L491.10229000000004,343.57994844951736L492.80946500000005,343.9099268586363L493.492335,344.0927971276963L494.175205,344.14209054136836L494.85807500000004,344.54382229718766L495.540945,344.863381496233L496.223815,345.18110239964767L496.90668500000004,345.09907968617705L497.589555,343.73135121927993L498.61386000000005,343.79742477144754L499.29673,344.29883109949066L499.97960000000006,344.56778672887106L500.66247000000004,345.18146091696934L501.34534,345.3142165919749L502.02821000000006,344.7071621530235L503.39395,344.5217378784544L504.418255,343.59947120612054L505.1011250000001,343.6054903287372L506.4668650000001,343.8626156130334L507.1497350000001,342.9931359530674L507.83260500000006,343.1351776367675L508.5154750000001,343.50323631718186L509.1983450000001,343.83028568424055L510.22265000000004,343.99040168237894L510.90552,344.67448623581976L511.58839000000006,344.980954569741L512.27126,345.3249421751559L512.9541300000001,345.3861927173174L513.6370000000001,344.03357661761356L514.31987,343.8331213840923L516.027045,344.3753633088243L517.392785,344.4438383383147L518.0756550000001,344.8267071099634L518.7585250000001,344.8413609576694L520.807135,344.5429167644892L523.88005,344.7108253538942L524.5629200000001,344.9221728726275L525.24579,345.17179577782804L525.92866,345.1511928625087L526.61153,345.0458290897119L527.635835,345.0619459688205L528.318705,344.8156292796777L529.0015750000001,344.79772971954895L531.050185,344.6235148345188L531.733055,344.4787716514873L532.415925,344.54120459561665L533.44023,344.1287504408298L534.80597,343.9547555944369L535.4888400000001,343.56703045832927L536.17171,344.0205955712986L537.53745,344.47766008636995L538.22032,344.65111324654237L539.244625,344.98188587842577L539.9274950000001,345.0567733471836L540.610365,345.1472735908315L541.2932350000001,345.2739651874254L541.9761050000001,345.20575548104205L542.658975,345.3538944694138L543.341845,344.60485958661286L544.0247150000001,344.6568814355013L545.04902,344.5810953424179L545.7318900000001,344.5275516152173L546.41476,344.8244104223401L547.0976300000001,345.150887042194L547.7805000000001,345.33102683442473L548.46337,345.3746835838507L550.853415,345.00014147923434L551.536285,344.6992210864831L552.2191550000001,344.3935390846432L552.902025,344.63636223066084L553.5848950000001,343.8110510246786L554.267765,344.0218737555413L554.950635,344.432545691166L555.633505,344.5048254587392L556.65781,344.13486053373185L557.34068,344.4159583922693L558.0235500000001,344.80740512377525L558.70642,345.18538237767245L559.3892900000001,345.3603174402341L560.07216,345.750091969542L561.4379,345.6092084554268L562.4622050000002,345.5938684227221L563.145075,345.32411138240184L563.8279450000001,345.0879829930837L564.5108150000001,345.01364456712497L565.1936850000001,345.05259596741695L565.876555,345.18030326191024L566.5594250000001,345.31542146829673L567.242295,345.30064175709526L568.2666,345.47161485731493L568.94947,345.6941302903517L569.63234,345.6477712555313L570.3152100000001,345.3200692847444L570.99808,344.94041140352743L571.68095,344.8881973987248L572.36382,344.98940000144586L573.04669,345.23937450129404L574.070995,345.57774065589535L574.7538650000001,345.3052903003524L575.436735,345.25815706313296L576.8024750000001,345.3326306660305L578.168215,345.0046211400917L579.87539,345.38854604501347L581.9240000000001,345.4839599545207L582.6068700000001,345.1557351887239L583.28974,344.81274967890596L583.97261,344.5634570876089L584.6554800000001,344.44442647407266L585.679785,344.71604522522944L586.362655,345.16614138022595L587.0455250000001,345.1143558147604L587.728395,345.15391399539305L588.4112650000001,344.8297888196424L589.094135,345.0081495199749L589.777005,345.0738079013913L590.459875,344.27280679992697L592.8499200000001,344.9783598351819L593.53279,345.37005839101835L594.2156600000001,345.60438096802085L595.5814,345.8360088377725L596.26427,346.0007907165881L597.288575,346.21481050014194L597.971445,346.2769867133526L598.654315,346.04480515887445L599.3371850000001,345.9034551235856L600.0200550000001,345.8205307801718L600.702925,345.67921591122337L601.3857950000001,345.8562727573523L603.09297,346.1666412335823L603.7758400000001,346.2756333043643L604.45871,346.3902206576264L605.1415800000001,346.4392182488655L605.8244500000001,346.4868245410685L607.19019,346.52662052227186L607.8730600000001,346.5816299628389L608.897365,346.39648851039425L609.5802350000001,346.30111644401984L610.263105,346.22992958853007L610.9459750000001,345.50834544070943L611.6288450000001,345.36044998530656L612.311715,345.7323233912007L612.994585,345.94211777464704L613.6774550000001,346.19757884352714L614.70176,346.09047433386445L615.38463,346.1191281006669L616.0675000000001,345.8261624106405L616.75037,345.6919962338406L618.11611,345.0814425946812L618.79898,345.37120144674424L619.4818500000001,345.61158131116633L620.506155,346.03048321699964L621.189025,346.20014479423776L621.8718950000001,346.1908951082586L622.554765,346.2786001213416L623.2376350000001,346.4513877585499L625.286245,346.19652852308104L626.3105500000001,346.16475444417165L627.6762900000001,345.99404868527216L628.3591600000001,345.6692171289699L629.0420300000001,345.62384298133986L629.7249,345.96465999435725L630.4077700000001,345.88844490953016L631.09064,345.8694106814038L632.797815,346.07604616134455L633.480685,346.1154445496835L634.1635550000001,345.4133006134367L634.846425,345.4129947475909L635.529295,345.2603037395392L636.212165,345.3114943958158L636.895035,345.30889421535846L637.91934,345.7035700252804L639.28508,345.4940580992744L639.9679500000001,345.4839553488905L640.6508200000001,344.96398406990215L641.33369,345.191466438762L642.01656,345.54755063670837L642.6994300000001,345.7747537976886L643.723735,346.11831024970235L644.4066050000001,346.3837280179047L645.089475,346.4702391791334L645.7723450000001,346.29456325899577L646.4552150000001,345.76455540813083L647.138085,345.77631706739476L647.820955,345.9324757541304L648.5038250000001,345.71712951594185L649.52813,345.380494256449L650.211,345.53807713344554L650.8938700000001,345.66302558839925L651.57674,345.85492211719566L652.2596100000001,345.99298945473834L652.94248,346.13354106765235L653.62535,346.10696590498145L654.30822,345.84187561994133L655.332525,345.6197150301151L656.6982650000001,345.66969780539443L657.381135,345.70583022667563L658.0640050000001,345.2767889497082L658.746875,345.63927880750805L659.429745,345.4607429237307L660.112615,345.5974978403625L661.1369200000001,345.4333227143971L661.81979,345.5677847702308L663.1855300000001,345.3445539639869L663.8684000000001,345.19594272863054L664.55127,345.0538029989762L665.2341400000001,345.3219391447999L665.91701,345.50121747693225L666.941315,345.8939198347837L668.307055,346.09511906450905L668.9899250000001,346.35383056888077L669.6727950000001,346.5280074097254L670.355665,346.5484630052997L671.7214050000001,346.36548394469935L672.74571,346.2970040407826L673.4285800000001,346.2198186922378L674.11145,345.93301878598095L675.4771900000001,345.5517908776943L676.16006,345.2893521546716L676.84293,345.436091109524L677.5258000000001,345.64385126197925L678.550105,346.01446525415076L679.2329750000001,346.1666441407725L679.9158450000001,346.3053683867135L680.5987150000001,346.3207323804086L681.2815850000001,346.37048950830155L681.9644550000002,346.18000908379724L682.647325,346.19396493740015L683.3301950000001,346.3315575187792L684.3545,346.4687989617199L685.7202400000001,346.62414300383875L686.40311,346.71293014459553L687.76885,346.739049991906L688.45172,346.7792779142627L689.13459,346.7679845849119L690.1588950000001,346.8475710778036L691.5246350000001,346.84162131666807L692.2075050000001,346.8883608585565L692.8903750000001,346.9128095424351L693.573245,346.8845677046434L694.938985,346.81429841937893L696.64616,346.81556753249794L698.0119000000001,346.63961954729547L698.6947700000001,346.523626032182L699.37764,346.2531522572137L700.0605100000001,345.91080963213284L700.74338,345.9232415363365L703.8162950000001,346.18962448625496L704.4991650000001,346.41672456579875L705.182035,346.5093816824267L705.864905,346.3871567875038L706.5477750000001,346.14264975093226L708.2549500000001,346.278853975503L708.93782,346.4269137185807L709.6206900000001,346.47780338377186L710.3035600000001,346.3568836202326L710.98643,346.1716432023568L711.6693,345.8953685415745L712.3521700000001,345.77356327789784L713.376475,346.07212067611215L714.0593450000001,346.0391693112133L714.7422150000001,345.8036643124975L716.1079550000001,345.78268842488825L716.7908250000002,345.583138605115L717.473695,345.715543148703L718.1565650000001,345.83932082463804L719.18087,346.06418979267596L719.86374,346.19973914912305L720.5466100000001,345.8744670852709L721.22948,345.06592463557973L721.9123500000001,344.63185275167945L722.59522,345.03151428122675L723.27809,345.36777151958375L723.96096,344.86228200626874L724.9852650000001,344.69853610250703L725.668135,344.9248328708197L726.3510050000001,345.26735156216813L727.0338750000001,345.44550644237336L727.7167450000001,345.70971541275014L729.0824850000001,346.0675616265272L729.765355,346.1999353206486L730.78966,346.3996116838652L731.4725300000001,346.276928107135L732.1554000000001,346.21419495252474L732.8382700000001,345.9160764652033L733.5211400000002,346.084668167339L734.20401,346.2121994847417L734.8868800000001,346.3877321424699L735.5697500000001,346.59618820120056L736.594055,346.7157055128018L737.2769250000001,346.79978430299434L738.6426650000001,346.82524442082195L739.3255350000001,346.7846661635418L740.008405,346.7845609592306L740.691275,346.84610322386794L742.39845,346.798879562786L743.0813200000001,346.74711633716043L743.7641900000001,346.6171761607538L744.4470600000001,346.45218521411755L745.1299300000001,345.8194609290004L745.8128000000002,345.84839236861615L747.1785400000001,345.3534166471958L748.202845,345.5828830622178L749.5685850000001,345.9829774474549L750.251455,346.11949395436886L750.9343250000001,346.19686933200404L751.6171950000002,346.1295369345092L752.300065,346.09371140400197L752.9829350000001,346.0418500311765L754.69011,346.1838837279664L756.0558500000001,346.2065195068911L757.42159,346.23034104706016L758.1044600000001,346.2556378345147L758.78733,346.2631931400341L759.8116350000001,344.7091258683963L760.494505,345.0263451456984L761.8602450000001,345.63880662452476L762.5431150000001,345.83426928969845L763.225985,345.78507098985824L764.591725,346.048209230547L765.61603,346.3465591541636L766.2989000000001,346.54040981709244L766.98177,346.6456895764026L768.34751,346.764995942303L769.03038,346.74530037479906L769.7132500000001,346.6643326632495L770.3961200000001,346.7100766391369L771.420425,346.71799408177026L772.1032950000001,346.71725363279L772.786165,346.7909054633769L773.4690350000001,346.7423320121985L774.151905,346.6516965134051L774.834775,346.68047110090066L775.517645,346.75759164377695L776.2005150000001,346.83006883700614L777.9076900000001,346.8949605780812L779.2734300000001,346.92310489275945L779.9563,346.93622108566785L781.32204,346.9253737512904L782.0049100000001,346.83262428750356L783.029215,346.25843612158616L783.712085,346.40934350345276L784.3949550000001,346.46091214988036L785.077825,346.5301019638223L785.760695,346.5952799982761L786.443565,346.59992177765025L787.126435,346.6739007566965L787.809305,346.7419641356331L788.8336100000001,346.5386512377106L789.51648,346.3473174057427L790.8822200000001,345.81709597141145L791.56509,345.8038811696024L792.24796,345.81981110624105L792.9308300000001,346.1193461261328L793.6137,346.3324087028791L794.6380050000001,346.40298195903654L796.0037450000001,346.3679940803358L797.3694850000002,346.5108121335306L798.052355,346.54257594592235L799.4180950000001,346.3068554610515L800.4424,346.1275684126824L801.1252700000001,345.83979823750684L801.80814,345.8647063199426L802.4910100000001,345.9555172674184L803.17388,345.9464229807497L803.85675,346.12569300921206L805.2224900000001,346.1551514031515L806.246795,346.3133839395474L806.9296650000001,346.5277288390412L808.2954050000001,346.564273051834L808.978275,346.6872472697511L809.6611450000001,346.7743509754754L810.344015,346.82849536142817L812.05119,346.84653806204494L812.7340600000001,346.7065872346867L813.4169300000001,346.7993122751655L814.0998000000001,346.8639438321096L815.4655400000001,346.80011676353325L816.14841,346.77696570356414L816.8312800000001,346.76441683920365L817.8555850000001,346.6114196191283L818.538455,346.35191419173054L819.2213250000001,346.34499059804773L819.9041950000001,346.32437649309657L821.269935,346.0409332324543L821.9528050000001,346.25375548657644L822.635675,346.28138896526707L823.6599800000001,346.35305037756314L824.34285,346.43563940047034L825.0257200000001,346.51163956331266L825.7085900000001,346.6342063325777L826.39146,346.6597779307377L827.07433,346.71107287797537L827.7572000000001,346.7451695876164L828.44007,346.78897874139915L829.4643750000001,346.83987513119496L830.1472450000001,346.8903436892703L830.8301150000001,346.94042763764116L831.5129850000001,346.9750638661369L832.1958550000002,346.9557110468578L832.878725,346.8332931937525L834.2444650000001,346.8803958518098L835.26877,346.8448200293861L835.9516400000001,346.75477144902834L836.63451,346.7077093473267L837.3173800000001,346.58466755204705L838.00025,346.26718583157106L839.36599,345.4362365465237L840.0488600000001,345.60288847978916L841.073165,345.98469359368L841.7560350000001,346.11320561020136L842.4389050000001,346.31868767923174L845.170385,345.9603098387529L845.8532550000001,345.86630548268613L846.87756,346.16397627001345L847.5604300000001,346.43230633227046L848.2433000000001,346.52395153549736L848.9261700000001,346.6302383775764L849.60904,346.4991068010527L850.2919100000001,346.13077930393115L850.97478,345.96239392627655L851.6576500000001,345.8868520506079L852.6819550000001,346.0167567445549L853.364825,346.24148353637764L854.0476950000001,346.4209718084081L854.7305650000001,346.5586361494072L855.413435,346.6769412950062L856.096305,346.72963085147046L856.7791750000001,346.7729074554214L857.462045,346.71730702613587L858.4863500000001,346.7489534513571L859.1692200000001,346.4922545796561L859.8520900000001,346.2412779266883L860.5349600000001,346.3440473308162L861.2178300000002,346.4985596394995L861.9007,346.5656573474818L862.5835700000001,346.6030348751654L864.2907450000001,346.38799316231206L865.6564850000001,346.5891066418276L866.3393550000001,346.65662861209836L867.0222250000002,346.671724162339L867.705095,346.7898474008489L868.3879650000001,346.73817431035377L870.09514,346.593275872256L871.4608800000001,346.64743952199876L872.1437500000001,346.63515633989334L872.82662,346.3363349916552L873.5094900000001,346.0332928692661L874.8752300000001,346.1715478193976L875.899535,346.24867093023806L876.5824050000001,346.4597383766532L877.2652750000001,346.552745541605L877.9481450000001,346.6809908141308L879.3138850000001,346.6989187338718L879.996755,346.64720395180575L880.6796250000001,346.7262772126663L881.7039300000001,346.6853609812268L883.0696700000001,346.3949563893727L883.7525400000002,346.1654618536494L884.43541,346.1209645480642L886.4840200000001,346.01088755171793L887.5083250000001,346.2051729817514L888.191195,346.35547151139707L888.8740650000001,346.45977006027437L889.5569350000001,346.6034982911446L890.239805,346.7319688396194L890.922675,346.7303610053429L891.6055450000001,346.76663931596966L892.288415,346.7931295609488L893.3127200000001,346.43440046259155L893.9955900000001,346.1326639338315L894.6784600000001,346.1659992862974L895.3613300000001,346.2504823590932L896.72707,346.4056896044682L897.4099400000001,346.4824513791745L898.0928100000001,346.5878868619235L899.7999850000001,346.72834050229346L900.482855,346.7452770318206L901.1657250000001,346.6710373339997L901.848595,346.39197107146936L902.531465,346.2524362686184L903.2143350000001,346.4035812603868L903.8972050000001,346.59359538998933L904.92151,346.57871861850185L905.6043800000001,346.72864395691664L906.2872500000001,346.8008307737872L906.9701200000001,346.6015892184512L908.3358600000001,346.64924789300363L909.01873,346.65342309397016L909.7016000000001,346.67666613106786L910.725905,346.7580343004697L911.4087750000001,346.8288869833029L912.0916450000001,346.8989086386005L912.7745150000001,346.8663581158334L913.457385,346.85727241892874L914.1402550000001,346.8510790087835L914.823125,346.6987796551206L915.5059950000001,346.37903515692324L916.5303000000001,346.36187359004987L917.21317,346.2373943685463L917.8960400000001,346.0218349033439L919.26178,346.0885169680988L919.94465,346.2909209512242L920.6275200000001,346.2670654372453L921.3103900000001,346.2443723324814L922.3346950000001,346.3364009169222L923.0175650000001,346.5489881112186L923.7004350000001,346.6830169432707L926.4319150000001,346.59319209928015L927.1147850000001,346.67267151967656L928.1390900000001,346.66588187571796L928.8219600000001,346.71290341369627L930.1877000000001,346.73100021296057L930.8705700000002,346.7909399358461L931.55344,346.84481180241767L932.2363100000001,346.8299832811568L932.9191800000001,346.77817877694036L934.6263550000001,346.8596813891033L935.3092250000001,346.8799031637751L935.9920950000001,346.73916474421145L936.674965,346.52417660961294L937.3578350000001,346.2495866927856L938.040705,346.12023351157444L938.7235750000001,346.2807973251167L939.74788,346.0815418059115L940.4307500000001,346.30797250369784L941.1136200000001,346.3710004169871L941.7964900000001,346.4071778503917L942.47936,346.3631310631322L943.1622300000001,346.34577223235976L943.8451,346.28759827383203L944.5279700000001,346.2455347664916" style="fill: none;" fill="none"></path></g></g></g></g><g opacity="0.2"><g><g><g><path stroke="rgb(255, 112, 67)" stroke-width="2px" d="M74.89302500000001,14.048314608060366L75.57589500000002,14.096102494459899L76.941635,13.990458855262148L78.30737500000001,14.172714820274962L78.990245,14.095274998591492L79.67311500000001,14.089482527512757L80.69742000000001,14.153096272395203L81.38029,14.22439883305475L82.06316,14.246913616473819L82.74603,14.243155406071594L83.4289,14.337800246018617L84.11177000000002,14.332938707791811L84.79464000000002,14.311251420241149L85.47751000000001,14.410654361431398L86.50181500000001,14.465648357684756L87.18468500000002,14.491921351506164L87.86755500000001,14.48271545997028L88.550425,14.489404384906436L89.23329500000001,14.686624233539249L89.916165,14.705760075495789L90.599035,14.672143055842469L91.28190500000001,14.827884674072266L92.30621000000001,15.165744341336733L92.98908,15.240012095524719L94.35482000000002,15.581526536207946L96.40343000000001,16.432743952824524L97.08630000000001,16.843216382540163L98.110605,17.412912808931765L98.793475,18.84313598045935L99.47634500000001,19.879677992600648L100.84208500000001,22.244143999539858L101.524955,22.752605731670656L102.207825,25.239472169142516L102.89069500000001,27.197672183697023L103.91500000000002,29.21879636324371L105.28074000000001,33.81650132399335L105.96361000000002,34.772810715895446L106.64648000000001,36.99905043381909L107.32935,39.06716948289136L108.01222000000001,41.19369594867413L108.69509000000001,42.28967974736139L110.402265,47.262481689453125L111.08513500000001,48.31326352632965L112.45087500000001,56.39169194148138L113.13374500000002,59.06076262547418L113.81661500000001,63.27183738121619L114.499485,61.34428919278656L115.52379000000002,67.75843378213733L116.20666000000001,70.24357626988336L117.57240000000002,73.22950891348029L118.25527000000001,69.0938052397508L118.93814,73.65447976039007L119.62101000000001,74.30633963071381L120.30388,76.21459682171161L121.328185,79.6121052228487L122.01105500000001,78.60092251117413L122.69392500000002,82.0221869395329L123.37679500000002,80.97092239673322L124.05966500000001,86.55486451662506L124.74253500000002,84.13878345489502L126.108275,89.74141318981464L127.13258,90.04648333329425L127.81545000000001,92.5535717010498L128.49832,91.56819651677057L129.18119000000002,91.46208741114691L129.86406,97.7565036920401L130.54693,99.44519864595856L131.2298,100.7835352971004L131.91267,100.77208827092096L133.619845,106.57224816542407L134.302715,104.70977907914386L135.668455,108.1256647843581L136.35132500000003,107.957614165086L137.034195,112.32049993368298L137.71706500000002,108.67455313755914L138.74137000000002,112.38335514068604L139.42424000000003,115.21742505293628L140.78998,116.71155504079968L141.47285000000002,114.94348944150482L142.15572000000003,116.23557252150317L142.83859,114.58070146120514L143.52146000000002,119.44429118816669L144.54576500000002,121.50732458554782L145.22863500000003,123.05415571652927L146.594375,119.3550250713642L147.27724500000002,131.55203833946817L147.960115,127.04616818061243L148.642985,127.65489482879639L149.32585500000002,127.62925969637357L150.35016000000002,133.0658385937031L151.03303,135.9547990652231L151.7159,133.74112694080063L153.08164,132.42487408564645L153.76451,136.28809026571423L154.44738,138.40853118896484L155.13025000000002,140.58650031456582L156.15455500000002,140.13458413344165L156.83742500000002,143.71748608809253L157.52029500000003,140.81519948519193L158.203165,139.51232447991006L158.88603500000002,140.1513581642738L159.56890500000003,141.8268993817843L160.251775,143.38372942117545L160.93464500000002,143.96304548703708L161.95895000000002,147.0906006006094L162.64182000000002,141.91151083432712L163.32469,148.50948018294116L164.00756,150.25458277188815L164.69043000000002,148.9657234778771L165.3733,148.3804770249587L166.05617,146.6526139332698L166.73904000000002,148.3197250366211L168.446215,153.08048116243802L169.129085,153.66240039238565L171.177695,160.40950863177963L171.860565,158.0409223849957L173.56774000000001,160.39104513021618L174.25061000000002,163.79729395646316L175.61635000000004,161.8986219259409L176.98209000000003,164.6282377243042L177.66496000000004,165.93078517913818L178.34783000000002,165.40218771420993L179.37213500000001,167.58432879814737L180.05500500000002,166.96081066131592L180.73787500000003,169.45212488908035L182.10361500000002,168.73620304694543L182.78648500000003,173.86129870781534L183.469355,171.38201764913708L184.15222500000002,171.19077990605282L185.85940000000002,180.37157073387735L186.54227,174.85839675023007L187.22514,182.08786612290604L187.90801000000002,178.94653665102445L188.59088,182.29044745518613L189.27375,182.07428139906665L189.95662000000002,178.80618990384616L191.663795,186.27013367872974L192.346665,186.49764332404504L193.71240500000002,186.8817910414476L194.39527500000003,185.00554759685812L195.76101500000001,186.81972885131836L196.78532,191.70538513477032L197.46819000000002,189.68045102632962L198.83393,186.7973175048828L199.51680000000002,188.39984945150522L200.19967000000003,192.9178389769334L201.56541,195.35865871722882L202.589715,197.49590815030612L203.27258500000002,194.13632664313684L203.95545500000003,195.30345784700833L205.32119500000002,202.20329079261194L206.00406500000003,197.017546580388L206.686935,196.18099997593808L207.369805,198.221846140348L208.39411,200.82118305793176L209.07698000000002,202.03246461428128L209.75985,201.7263773404635L210.44272,205.6318389085623L211.12559000000002,202.10887006612924L212.49133000000003,202.1447799389179L213.17420000000004,207.86841370509222L215.56424500000003,208.090544627263L218.29572500000003,208.8504271874061L218.978595,208.38524521314181L220.68577000000002,214.83827348855826L221.36864000000003,212.29193940529458L222.05151,215.968150138855L223.41725000000002,217.31610642946683L224.10012,210.32185275738058L224.78299,213.3447124041044L225.807295,214.46619341923642L226.49016500000002,215.24512562384973L228.53877500000002,218.19154533973108L229.221645,212.74988079071048L229.904515,219.9313467832712L230.587385,220.58393933222845L231.61169000000004,224.9899324637193L232.29456000000002,225.82066073784463L232.97743000000003,230.83244118323694L233.66030000000003,221.86570457311777L234.34317000000004,223.06263424799994L235.02604000000002,224.34108088566708L235.70891000000003,222.17935136648325L236.39178000000004,218.47371281110324L238.09895500000002,233.50280482952414L238.78182500000003,227.87422103148242L239.46469500000003,224.184184221121L240.83043500000002,231.93654478513278L241.51330500000003,230.98026987222525L242.196175,223.2123420421894L243.22048,239.6982232974126L243.90335000000002,236.2498497596154L244.58622000000003,231.8007061664875L245.26909,233.2921726520245L246.63483000000002,235.06211735652045L247.3177,235.14779765789328L249.024875,239.68131135060239L249.70774500000005,239.80454789675198L250.39061500000003,238.17888916455783L251.75635500000004,239.41657301095816L252.43922500000002,241.0794518177326L253.12209500000003,237.4057925297664L253.80496500000004,237.95939588546756L254.82927000000004,247.11481879307675L255.51214000000002,246.79151788124673L256.19501,244.7148394217858L256.87788,245.35993278943576L257.56075000000004,247.1731831110441L258.24362,243.37135678071243L258.92649,238.92552317105807L259.60936000000004,247.57329460290762L260.633665,251.29512966596167L261.999405,246.46493284518903L262.682275,248.9070541675274L263.36514500000004,251.28869071373572L264.048015,248.9724522003761L265.41375500000004,248.21137149517352L266.43806000000006,256.3793504788325L267.12093000000004,259.4678322718694L268.48667000000006,255.6802371465243L269.85241,255.27997911893408L271.21815000000004,254.9671425819397L272.242455,259.3987018878643L272.925325,260.5083048893855L273.608195,263.6629001544072L274.291065,259.50632806924676L275.656805,262.47607282491833L276.339675,261.72823205361L277.022545,258.68893454625055L278.04685,265.2785341189458L278.72972000000004,267.4170334155743L279.41259,269.8625767781184L280.09546,265.17638147794287L280.77833000000004,262.5330838423509L284.53411500000004,268.2254796394935L285.89985500000006,273.30475271665136L286.58272500000004,267.11372170081506L287.94846500000006,273.0666407805223L288.63133500000004,270.5945572119493L289.65564,282.5514113536248L290.33851,279.42943321741546L291.02138,275.3459048821376L291.70425,280.1733045944801L292.38712,272.74820140691907L293.06999,280.36567583450903L293.75286,278.69750450207636L294.43573,275.801057778872L295.460035,284.3331521841196L297.508645,285.193204843081L298.19151500000004,283.67070726247937L298.874385,277.85096329909106L299.557255,284.998079593365L300.24012500000003,280.5102979770074L301.94730000000004,288.0570559868446L302.63017,284.5868184566498L303.31304000000006,288.77088753993695L303.99591000000004,286.3193362125984L304.67878,287.9751252761254L305.36165000000005,287.2932945398184L306.04452000000003,288.03245091438293L307.068825,298.02001573489264L307.751695,297.87768213565533L308.434565,290.4380245025341L309.117435,295.76541704397937L309.800305,295.5533798474532L310.483175,292.79752553426306L311.166045,291.1991181373596L311.848915,291.793544622568L312.87322,302.7487020859352L314.23896,296.9203900924096L314.92183000000006,298.2599335083595L316.28757,295.93673454798187L317.65331000000003,295.3386403597318L319.36048500000004,307.0966886190268L320.0433550000001,303.39027428627014L320.72622500000006,305.8689433427957L321.40909500000004,306.4103325146895L322.0919650000001,300.7277804704813L322.77483500000005,302.4267329252683L323.45770500000003,303.54271885064935L324.48201,304.7746619444627L325.16488000000004,308.1530000246488L325.84775,308.79838646375214L326.53062,304.681159221209L327.21349000000004,309.440531877371L327.89636,305.9798751977774L328.57923,306.2621547258817L329.26210000000003,306.8225633731255L330.28640500000006,316.5473788609871L330.96927500000004,314.31941519333765L331.652145,314.83522310623755L332.33501500000006,315.2375046198185L333.01788500000004,312.0933694197581L333.700755,311.5543786929204L334.38362500000005,306.2989567426535L335.06649500000003,311.4503577214021L336.09080000000006,319.6188538899788L336.77367000000004,318.6721447431124L337.4565400000001,316.35777240533093L338.13941000000005,312.224583543264L338.82228000000003,315.096894970307L339.50515000000007,310.522370668558L340.18802000000005,315.18175639556006L340.87089000000003,313.5543112204625L341.895195,323.2723127970329L343.260935,316.0458064629481L343.943805,319.4151843144343L345.309545,319.4560182186273L345.992415,318.99181243089527L346.67528500000003,319.9342117034472L347.69959000000006,323.32011145811816L348.38246000000004,324.5683157077202L349.06533,324.66106204803174L349.74820000000005,320.31137095964874L351.11394,322.269622692695L351.79681000000005,323.10949221024146L353.503985,327.7458308843466L354.18685500000004,329.17236803586667L354.8697250000001,330.0553869375816L355.55259500000005,328.0693192757093L356.23546500000003,324.40879648465375L357.60120500000005,325.32647000826324L358.28407500000003,318.7728621959686L359.30838,329.735250550967L359.99125000000004,329.2424649091867L361.35699,329.88746561453894L362.03986000000003,332.442554130004L362.72273,327.7747673804943L363.4056,325.1840265072309L364.08847000000003,324.9739847825124L365.79564500000004,334.43742686510086L366.478515,330.6294040129735L367.16138500000005,332.1357050859011L368.527125,327.2984896348073L369.20999500000005,326.91580511973456L370.91717,335.3552016707567L372.28291,333.29125888989523L372.96578000000005,335.3090375295052L373.64865000000003,333.2630970936555L375.01439000000005,330.86101127129336L375.69726,332.642709003045L376.721565,335.6191696203672L378.087305,336.59048599463244L378.77017500000005,335.61744567064136L379.45304500000003,330.60048044644867L380.135915,330.7216751896418L380.81878500000005,334.0493657818207L381.501655,333.77573509399707L382.52596000000005,337.4713176351327L383.89170000000007,337.31526786088943L385.25744000000003,334.08603311502014L386.62318000000005,331.72082365476166L388.330355,337.73418548932443L390.378965,338.538217324477L391.06183500000003,339.5711131829482L392.42757500000005,334.3747925391564L393.1104450000001,334.15020391115775L394.13475000000005,338.6387833929979L394.81762000000003,339.0257864021338L395.50049,339.4490122886804L396.86623000000003,339.15825416033084L397.5491,340.66200971374144L398.23197000000005,337.5443279834894L398.91484,331.06169087153216L399.93914500000005,333.88695786549494L400.62201500000003,337.7866797584754L401.30488500000007,339.8170114457607L401.98775500000005,337.39422152592584L402.67062500000003,336.91989399836615L403.35349500000007,339.46547546982765L404.03636500000005,337.72196699564273L404.719235,333.77719937379544L406.42641000000003,339.74549770125975L407.10928,338.6490328128521L407.79215,338.63037806061595L408.47502000000003,340.12370641185686L409.15789,336.6253647299913L409.84076,334.92937962366983L410.5236300000001,337.9415206129734L411.54793500000005,341.08410425828055L412.23080500000003,341.45859731848424L412.913675,341.4790272002037L413.59654500000005,339.95643965097577L414.27941500000003,339.43694841173976L414.962285,339.98115624143526L415.64515500000005,340.7194161621424L416.328025,340.9786033836695L417.35233000000005,339.11429074865123L418.03520000000003,341.6799567731527L418.71807000000007,342.56819520202964L419.40094000000005,342.422384342322L420.76668000000006,338.35365773164307L421.44955000000004,339.69426784148584L424.522465,339.84799297727074L425.205335,338.8020565165923L425.888205,339.8447163953231L426.571075,339.18115090636104L427.253945,338.0277859797844L427.936815,335.8734554373301L428.96112000000005,341.35855759336397L429.64399000000003,341.0010621387225L431.00973000000005,343.7683626699906L431.6926,342.744730078257L432.37547,342.8549755857541L434.76551500000005,341.3079704435972L435.44838500000003,341.83782585309103L436.81412500000005,341.7112227563675L438.86273500000004,343.92332150729806L439.545605,343.20632300468594L440.56991,343.9509801257115L441.25278000000003,342.90553041146353L441.93565,343.45770342762654L442.61852000000005,344.13215673657567L443.30139,343.9527479822819L443.98426,344.14086376015956L444.66713000000004,343.8033117101743L445.35,343.7614059941127L446.37430500000005,343.6857057454494L447.74004500000007,341.8691764175892L448.42291500000005,342.7028521070114L449.105785,342.54411297119583L449.78865500000006,342.8929948726526L450.47152500000004,343.7694134712219L451.154395,343.80379414673035L452.17870000000005,344.1246454337469L453.54444000000007,344.41072950340237L454.22731000000005,344.51884081501225L454.9101800000001,344.37607299593776L455.59305000000006,344.186457920533L460.03170500000004,341.648718804121L461.397445,340.95917770266533L462.08031500000004,343.74202826046024L462.763185,345.3340621613539L463.78749000000005,344.1923953111355L464.47036,344.0310899145328L465.15323000000006,344.13191322867686L465.83610000000004,344.97152873300587L466.51897,345.0897584173542L467.20184000000006,345.4015359374193L467.88471000000004,344.4733627518782L468.56758,343.43740607454225L469.59188500000005,341.6338502764702L470.2747550000001,344.33785599355514L470.95762500000006,343.93054566475064L471.64049500000004,343.4616267600885L472.3233650000001,344.8021719524494L473.00623500000006,343.84833023295954L474.3719750000001,343.94769896452243L475.39628000000005,344.79739041626453L476.07915,343.319475253041L477.44489000000004,343.7340536461427L478.12776,344.3677247693905L478.81063,343.43732337882886L479.49350000000004,341.17531143472746L480.17637,342.75324558180114L481.20067500000005,344.7820682743421L481.883545,345.3497851215876L482.56641500000006,344.47620807702725L483.24928500000004,342.9778713824657L483.932155,344.2731138697037L484.61502500000006,342.6649661568495L485.29789500000004,343.48173340123435L485.980765,344.5047857761383L487.00507000000005,345.2765530840709L487.6879400000001,345.34223570330784L488.37081000000006,345.3987236097455L489.05368000000004,345.09462682444314L489.7365500000001,344.15663816951786L490.41942000000006,342.9803285495593L491.10229000000004,342.93177700730473L492.80946500000005,344.40489447231477L493.492335,344.3671025312864L494.175205,344.2160306618764L494.85807500000004,345.1464199309166L495.540945,345.3427202948011L496.223815,345.65768375476966L496.90668500000004,344.9760456159711L497.589555,341.67975851893425L498.61386000000005,343.89653509969895L499.29673,345.0509405915554L499.97960000000006,344.9712201729417L500.66247000000004,346.10197219911674L501.34534,345.51335010448327L502.02821000000006,343.7965804945964L503.39395,344.2436014666007L504.418255,342.2160711976198L505.1011250000001,343.6145190126621L506.4668650000001,344.2483035394779L507.1497350000001,341.68891646311835L507.83260500000006,343.34824016231755L508.5154750000001,344.0553243378034L509.1983450000001,344.3208597348287L510.22265000000004,344.2305756795865L510.90552,345.700613065981L511.58839000000006,345.440657070623L512.27126,345.8409235832783L512.9541300000001,345.47806853055954L513.6370000000001,342.00465246805777L514.31987,343.5324385338105L516.027045,345.18872619592224L517.392785,344.5465508825504L518.0756550000001,345.4010102674365L518.7585250000001,344.8633417292283L520.807135,344.0952504747189L523.88005,344.96268823800176L524.5629200000001,345.23919415072754L525.24579,345.54623013562883L525.92866,345.12028848952974L526.61153,344.8877834305167L527.635835,345.0861212874834L528.318705,344.44615424596344L529.0015750000001,344.77088037935584L531.050185,344.36219250697354L531.733055,344.26165687694L532.415925,344.6348540118107L533.44023,343.5100692086495L534.80597,343.69376332484757L535.4888400000001,342.98544275416776L536.17171,344.70094324075257L537.53745,345.163256858977L538.22032,344.911292986801L539.244625,345.4780448262508L539.9274950000001,345.16910455032036L540.610365,345.2830239563034L541.2932350000001,345.4640025823162L541.9761050000001,345.1034409214671L542.658975,345.5761029519714L543.341845,343.48130726241146L544.0247150000001,344.73491420883397L545.04902,344.4674162027928L545.7318900000001,344.4472360244164L546.41476,345.26969863302435L547.0976300000001,345.6406019719747L547.7805000000001,345.6012365227708L548.46337,345.44016870798976L550.853415,344.4383283223097L551.536285,344.2478404973562L552.2191550000001,343.93501608188336L552.902025,345.00059694968735L553.5848950000001,342.5730842157052L554.267765,344.3381078518354L554.950635,345.048553594603L555.633505,344.6132451100991L556.65781,343.57991314622075L557.34068,344.8376051800755L558.0235500000001,345.3945752210342L558.70642,345.7523482585183L559.3892900000001,345.6227200340766L560.07216,346.3347537635037L561.4379,345.39788318425417L562.4622050000002,345.5708583736649L563.145075,344.9194758219215L563.8279450000001,344.73379040910646L564.5108150000001,344.90213692818696L565.1936850000001,345.11102306785494L565.876555,345.3718642036502L566.5594250000001,345.51809877787645L567.242295,345.278472190293L568.2666,345.7280745076445L568.94947,346.02790343990694L569.63234,345.5782327033006L570.3152100000001,344.82851632856404L570.99808,344.37092458170196L571.68095,344.80987639152085L572.36382,345.1412039055274L573.04669,345.6143362510663L574.070995,346.0852898877974L574.7538650000001,344.89661476703793L575.436735,345.1874572073038L576.8024750000001,345.44434107037694L578.168215,344.5126068511835L579.87539,345.96443340239614L581.9240000000001,345.6270808187815L582.6068700000001,344.6633980400287L583.28974,344.29827141417906L583.97261,344.18951820066343L584.6554800000001,344.2658805537682L585.679785,345.1234733519646L586.362655,345.8412856127207L587.0455250000001,345.03667746656214L587.728395,345.21325126634196L588.4112650000001,344.3436010560164L589.094135,345.27569057047367L589.777005,345.172295473516L590.459875,343.0713051477304L592.8499200000001,346.03668938806425L593.53279,345.95760622477303L594.2156600000001,345.9558648335246L595.5814,346.1834506424001L596.26427,346.2479635348114L597.288575,346.5358401754728L597.971445,346.3702510331686L598.654315,345.6965328271572L599.3371850000001,345.6914300706524L600.0200550000001,345.6961442650511L600.702925,345.46724360780075L601.3857950000001,346.1218580265458L603.09297,346.6321939479273L603.7758400000001,346.4391214105372L604.45871,346.5621016875196L605.1415800000001,346.5127146357241L605.8244500000001,346.55823397937303L607.19019,346.5863144940768L607.8730600000001,346.6641441236895L608.897365,346.1187763317273L609.5802350000001,346.15805834445814L610.263105,346.1231493052955L610.9459750000001,344.42596921897854L611.6288450000001,345.13860680220216L612.311715,346.29013350004186L612.994585,346.2568093498166L613.6774550000001,346.5807704468473L614.70176,345.92981756937047L615.38463,346.1621087508706L616.0675000000001,345.38671387560095L616.75037,345.49074696864074L618.11611,344.1656121359422L618.79898,345.80583972483873L619.4818500000001,345.97215110779956L620.506155,346.65883607574955L621.189025,346.4546371600949L621.8718950000001,346.17702057928994L622.554765,346.4101576409661L623.2376350000001,346.71056921436235L625.286245,345.81423966987774L626.3105500000001,346.1170933258075L627.6762900000001,345.73799004692296L628.3591600000001,345.18196979451636L629.0420300000001,345.5557817598948L629.7249,346.4758855138834L630.4077700000001,345.77412228228957L631.09064,345.84085933921426L632.797815,346.38599938125566L633.480685,346.17454213219196L634.1635550000001,344.3600847090666L634.846425,345.41253594882215L635.529295,345.0312672274617L636.212165,345.3882803802307L636.895035,345.30499394467245L637.91934,346.2955837401633L639.28508,345.17979021026537L639.9679500000001,345.4688012233147L640.6508200000001,344.18402715141957L641.33369,345.53268999205187L642.01656,346.0816769336279L642.6994300000001,346.115558539159L643.723735,346.6336449277229L644.4066050000001,346.78185467020825L645.089475,346.6000059209764L645.7723450000001,346.03104937878936L646.4552150000001,344.96954363183335L647.138085,345.79395955629076L647.820955,346.1667137842339L648.5038250000001,345.3941101586589L649.52813,344.87554136720985L650.211,345.77445144894034L650.8938700000001,345.8504482708298L651.57674,346.1427669103902L652.2596100000001,346.20009046105235L652.94248,346.3443684870234L653.62535,346.0671031609751L654.30822,345.44424019238124L655.332525,345.2864741453758L656.6982650000001,345.74467196831336L657.381135,345.7600288585975L658.0640050000001,344.633227034257L658.746875,346.18301359420786L659.429745,345.1929390980647L660.112615,345.80263021531016L661.1369200000001,345.187060025449L661.81979,345.76947785398136L663.1855300000001,345.00970775462116L663.8684000000001,344.9730258755959L664.55127,344.8405934044948L665.2341400000001,345.7241433635354L665.91701,345.77013497513076L666.941315,346.4829733715608L668.307055,346.3969179090972L668.9899250000001,346.74189782543823L669.6727950000001,346.7892726709923L670.355665,346.57914639866124L671.7214050000001,346.09101535379887L672.74571,346.1942841849075L673.4285800000001,346.1040406694206L674.11145,345.50281892659575L675.4771900000001,344.9799490152643L676.16006,344.89569407013744L676.84293,345.6561995418026L677.5258000000001,345.9554914906621L678.550105,346.570386242408L679.2329750000001,346.3949124707052L679.9158450000001,346.5134547556249L680.5987150000001,346.3437783709512L681.2815850000001,346.4451252001409L681.9644550000002,345.89428844704076L682.647325,346.2148987178046L683.3301950000001,346.53794639084776L684.3545,346.67466112613107L685.7202400000001,346.85715906701694L686.40311,346.84611085573067L687.76885,346.77822976287166L688.45172,346.83961979779775L689.13459,346.75104459088584L690.1588950000001,346.9669508171411L691.5246350000001,346.8326966749647L692.2075050000001,346.9584701713891L692.8903750000001,346.94948256825313L693.573245,346.8422049479559L694.938985,346.7088944914822L696.64616,346.81747120217636L698.0119000000001,346.37569756949176L698.6947700000001,346.34963575951184L699.37764,345.84744159476116L700.0605100000001,345.3972956945117L700.74338,345.9418893926419L703.8162950000001,346.5891989111327L704.4991650000001,346.75737468511437L705.182035,346.64836735736867L705.864905,346.20381944511945L706.5477750000001,345.7758891960749L708.2549500000001,346.48316031235913L708.93782,346.6490033331972L709.6206900000001,346.5541378815587L710.3035600000001,346.17550397492374L710.98643,345.8937825755431L711.6693,345.480956550401L712.3521700000001,345.59085538238287L713.376475,346.51995677343353L714.0593450000001,345.989742263865L714.7422150000001,345.4504068144239L716.1079550000001,345.7512245934743L716.7908250000002,345.2838138754551L717.473695,345.91414996408497L718.1565650000001,346.02498733854065L719.18087,346.4014932447328L719.86374,346.4030631837937L720.5466100000001,345.38655898949276L721.22948,343.85311096104294L721.9123500000001,343.9807449258291L722.59522,345.63100657554776L723.27809,345.87215737711927L723.96096,344.1040477362963L724.9852650000001,344.4529172468644L725.668135,345.2642780232888L726.3510050000001,345.78112959919065L727.0338750000001,345.7127387626813L727.7167450000001,346.1060288683153L729.0824850000001,346.6043309471928L729.765355,346.3984958618306L730.78966,346.69912622869015L731.4725300000001,346.0929027420397L732.1554000000001,346.12009522060936L732.8382700000001,345.4688987342211L733.5211400000002,346.33755572054247L734.20401,346.4034964608458L734.8868800000001,346.6510311290622L735.5697500000001,346.90887228929654L736.594055,346.89498148020357L737.2769250000001,346.9259024882832L738.6426650000001,346.8634345975633L739.3255350000001,346.72379877762154L740.008405,346.78440315276384L740.691275,346.9384166208239L742.39845,346.72804407116314L743.0813200000001,346.6694714987221L743.7641900000001,346.4222658961438L744.4470600000001,346.20469879416316L745.1299300000001,344.8703745013246L745.8128000000002,345.8917895280398L747.1785400000001,344.61095306506525L748.202845,345.92708268475076L749.5685850000001,346.5831190253106L750.251455,346.32426871473973L750.9343250000001,346.3129323984568L751.6171950000002,346.0285383382669L752.300065,346.0399731082412L752.9829350000001,345.9640579719383L754.69011,346.39693427315126L756.0558500000001,346.24047317527805L757.42159,346.26607335731387L758.1044600000001,346.29358301569636L758.78733,346.27452609831323L759.8116350000001,342.3780249609397L760.494505,345.50217406165143L761.8602450000001,346.55749884276435L762.5431150000001,346.12746328745897L763.225985,345.7112735400979L764.591725,346.4429165915801L765.61603,346.79408403958837L766.2989000000001,346.8311858114858L766.98177,346.8036092153679L768.34751,346.94395549115364L769.03038,346.7157570235431L769.7132500000001,346.5428810959252L770.3961200000001,346.77869260296796L771.420425,346.72987024572035L772.1032950000001,346.71614295931965L772.786165,346.9013832092572L773.4690350000001,346.669471835431L774.151905,346.515743265215L774.834775,346.723632982144L775.517645,346.8732724580914L776.2005150000001,346.93878462684984L777.9076900000001,346.99229818969394L779.2734300000001,346.96532136477674L779.9563,346.95589537503054L781.32204,346.90910274972424L782.0049100000001,346.69350009182324L783.029215,345.39715387271L783.712085,346.63570457625275L784.3949550000001,346.53826511952167L785.077825,346.6338866847352L785.760695,346.6930470499568L786.443565,346.6068844467115L787.126435,346.7848692252659L787.809305,346.84405920403793L788.8336100000001,346.233681890827L789.51648,346.0603166577908L790.8822200000001,345.0217638199146L791.56509,345.78405896688884L792.24796,345.84370601119906L792.9308300000001,346.5686486559705L793.6137,346.65200256799847L794.6380050000001,346.50884184327265L796.0037450000001,346.31551226228476L797.3694850000002,346.7250392133227L798.052355,346.59022166451007L799.4180950000001,345.95327473374516L800.4424,345.85863784012884L801.1252700000001,345.4081429747435L801.80814,345.90206844359636L802.4910100000001,346.0917336886319L803.17388,345.9327815507467L803.85675,346.39459805190563L805.2224900000001,346.19933899406055L806.246795,346.55073274414127L806.9296650000001,346.8492461882818L808.2954050000001,346.6190893710233L808.978275,346.8717085966267L809.6611450000001,346.9050065340617L810.344015,346.90971194035734L812.05119,346.8736021129701L812.7340600000001,346.4966609936494L813.4169300000001,346.93839983588373L814.0998000000001,346.9608911675258L815.4655400000001,346.70437616066863L816.14841,346.74223911361054L816.8312800000001,346.74559354266296L817.8555850000001,346.38192378901516L818.538455,345.96265605063394L819.2213250000001,346.33460520752345L819.9041950000001,346.2934553356698L821.269935,345.6157683414909L821.9528050000001,346.5729888677597L822.635675,346.322839183303L823.6599800000001,346.46054249600724L824.34285,346.5595229348311L825.0257200000001,346.6256398075762L825.7085900000001,346.81805648647537L826.39146,346.69813532797764L827.07433,346.7880152988319L827.7572000000001,346.79631465207785L828.44007,346.85469247207334L829.4643750000001,346.9162197158887L830.1472450000001,346.9660465263833L830.8301150000001,347.0155535601975L831.5129850000001,347.0270182088806L832.1958550000002,346.9266818179391L832.878725,346.64966641409467L834.2444650000001,346.9510498388957L835.26877,346.79145629575044L835.9516400000001,346.6196985784918L836.63451,346.6371161947743L837.3173800000001,346.40010485912745L838.00025,345.79096325085715L839.36599,344.18981261895254L840.0488600000001,345.85286637968744L841.073165,346.5574012645162L841.7560350000001,346.3059736349835L842.4389050000001,346.6269107827774L845.170385,345.42274307803467L845.8532550000001,345.725298948586L846.87756,346.6104824510045L847.5604300000001,346.8348014256559L848.2433000000001,346.6614193403377L848.9261700000001,346.7896686406949L849.60904,346.30240943626717L850.2919100000001,345.57828805824886L850.97478,345.7098158597946L851.6576500000001,345.77353923710496L852.6819550000001,346.2116137854755L853.364825,346.57857372411166L854.0476950000001,346.6902042164539L854.7305650000001,346.7651326609059L855.413435,346.85439901340465L856.096305,346.80866518616676L856.7791750000001,346.8378223613478L857.462045,346.63390638220767L858.4863500000001,346.79642308918903L859.1692200000001,346.10720627210463L859.8520900000001,345.8648129472366L860.5349600000001,346.49820143700794L861.2178300000002,346.7303281025245L861.9007,346.66630390945534L862.5835700000001,346.6591011666908L864.2907450000001,346.0654305930321L865.6564850000001,346.8907768611008L866.3393550000001,346.7579115675046L867.0222250000002,346.69436748769994L867.705095,346.96703225861376L868.3879650000001,346.66066467461104L870.09514,346.3759282151094L871.4608800000001,346.72868499661297L872.1437500000001,346.6167315667352L872.82662,345.888102969298L873.5094900000001,345.5787296856825L874.8752300000001,346.3789302445948L875.899535,346.3643555964988L876.5824050000001,346.77633954627584L877.2652750000001,346.6922562890328L877.9481450000001,346.8733587229195L879.3138850000001,346.7258106134832L879.996755,346.5696317787067L880.6796250000001,346.84488710395703L881.7039300000001,346.6239866340676L883.0696700000001,345.9593495015915L883.7525400000002,345.8212200500644L884.43541,346.05421858968646L886.4840200000001,345.8457720571986L887.5083250000001,346.4966011268015L888.191195,346.58091930586556L888.8740650000001,346.6162178835903L889.5569350000001,346.81909063745L890.239805,346.92467466233154L890.922675,346.7279492539282L891.6055450000001,346.82105678190976L892.288415,346.8328649284175L893.3127200000001,345.8963068150557L893.9955900000001,345.6800591406914L894.6784600000001,346.2160023149963L895.3613300000001,346.3772069682869L896.72707,346.6385004725307L897.4099400000001,346.597594041234L898.0928100000001,346.746040086047L899.7999850000001,346.9390209628484L900.482855,346.77068182611123L901.1657250000001,346.5596777872684L901.848595,345.97337167767375L902.531465,346.043134064342L903.2143350000001,346.6302987480393L903.8972050000001,346.8786165843933L904.92151,346.55640346127063L905.6043800000001,346.95353196453874L906.2872500000001,346.90911099909306L906.9701200000001,346.30272688544716L908.3358600000001,346.7207359048323L909.01873,346.65968589542L909.7016000000001,346.71153068671435L910.725905,346.8800865545726L911.4087750000001,346.9351660075526L912.0916450000001,347.003941121547L912.7745150000001,346.81753233168274L913.457385,346.84364387357175L914.1402550000001,346.84178889356554L914.823125,346.47033062462623L915.5059950000001,345.89941840962723L916.5303000000001,346.33613123973976L917.21317,346.05067553629095L917.8960400000001,345.6984957055404L919.26178,346.1885400652312L919.94465,346.59452692591225L920.6275200000001,346.23128216627697L921.3103900000001,346.2103326753355L922.3346950000001,346.47444379358336L923.0175650000001,346.8678689026632L923.7004350000001,346.8840601913488L926.4319150000001,346.45845483329435L927.1147850000001,346.7918906502712L928.1390900000001,346.65569740978L928.8219600000001,346.7834357206638L930.1877000000001,346.7581454118571L930.8705700000002,346.88084952017437L931.55344,346.925619602275L932.2363100000001,346.8077404992655L932.9191800000001,346.70047202061573L934.6263550000001,346.9819353073477L935.3092250000001,346.91023582578276L935.9920950000001,346.52805711486593L936.674965,346.20169440771525L937.3578350000001,345.8377018175446L938.040705,345.92620373975774L938.7235750000001,346.52164304543L939.74788,345.78265852710376L940.4307500000001,346.6476185503774L941.1136200000001,346.465542286921L941.7964900000001,346.4614440004986L942.47936,346.2970608822428L943.1622300000001,346.3197339862012L943.8451,346.20033733604043L944.5279700000001,346.18243950548083" style="fill: none;" fill="none"></path></g></g></g></g></g></g><g transform="translate(52, 376)" clip-path="url(#clip_1)"><clipPath id="clip_1"><rect width="1039" height="24"></rect></clipPath><g><g><line x1="0" y1="0" x2="0" y2="5" style="visibility: inherit;" fill="rgb(0, 0, 0)" stroke="rgb(204, 204, 204)" stroke-width="1px"></line><line x1="74.22500000000001" y1="0" x2="74.22500000000001" y2="5" style="visibility: inherit;" fill="rgb(0, 0, 0)" stroke="rgb(204, 204, 204)" stroke-width="1px"></line><line x1="148.45000000000002" y1="0" x2="148.45000000000002" y2="5" style="visibility: inherit;" fill="rgb(0, 0, 0)" stroke="rgb(204, 204, 204)" stroke-width="1px"></line><line x1="222.675" y1="0" x2="222.675" y2="5" style="visibility: inherit;" fill="rgb(0, 0, 0)" stroke="rgb(204, 204, 204)" stroke-width="1px"></line><line x1="296.90000000000003" y1="0" x2="296.90000000000003" y2="5" style="visibility: inherit;" fill="rgb(0, 0, 0)" stroke="rgb(204, 204, 204)" stroke-width="1px"></line><line x1="371.12500000000006" y1="0" x2="371.12500000000006" y2="5" style="visibility: inherit;" fill="rgb(0, 0, 0)" stroke="rgb(204, 204, 204)" stroke-width="1px"></line><line x1="445.35" y1="0" x2="445.35" y2="5" style="visibility: inherit;" fill="rgb(0, 0, 0)" stroke="rgb(204, 204, 204)" stroke-width="1px"></line><line x1="519.575" y1="0" x2="519.575" y2="5" style="visibility: inherit;" fill="rgb(0, 0, 0)" stroke="rgb(204, 204, 204)" stroke-width="1px"></line><line x1="593.8000000000001" y1="0" x2="593.8000000000001" y2="5" style="visibility: inherit;" fill="rgb(0, 0, 0)" stroke="rgb(204, 204, 204)" stroke-width="1px"></line><line x1="668.0250000000001" y1="0" x2="668.0250000000001" y2="5" style="visibility: inherit;" fill="rgb(0, 0, 0)" stroke="rgb(204, 204, 204)" stroke-width="1px"></line><line x1="742.2500000000001" y1="0" x2="742.2500000000001" y2="5" style="visibility: inherit;" fill="rgb(0, 0, 0)" stroke="rgb(204, 204, 204)" stroke-width="1px"></line><line x1="816.475" y1="0" x2="816.475" y2="5" style="visibility: inherit;" fill="rgb(0, 0, 0)" stroke="rgb(204, 204, 204)" stroke-width="1px"></line><line x1="890.7" y1="0" x2="890.7" y2="5" style="visibility: inherit;" fill="rgb(0, 0, 0)" stroke="rgb(204, 204, 204)" stroke-width="1px"></line><line x1="964.9250000000001" y1="0" x2="964.9250000000001" y2="5" style="visibility: inherit;" fill="rgb(0, 0, 0)" stroke="rgb(204, 204, 204)" stroke-width="1px"></line><line x1="1039.15" y1="0" x2="1039.15" y2="5" style="visibility: inherit;" fill="rgb(0, 0, 0)" stroke="rgb(204, 204, 204)" stroke-width="1px"></line></g><g transform="translate(0, 8)"><text x="0" y="0" dx="0em" dy="0.95em" style="text-anchor: middle; visibility: hidden; font-family: &quot;Helvetica Neue&quot;, sans-serif; font-size: 12px; font-weight: 200;" fill="rgb(50, 49, 63)" stroke="none" stroke-width="1px">-5k</text><text x="74.22500000000001" y="0" dx="0em" dy="0.95em" style="text-anchor: middle; visibility: inherit; font-family: &quot;Helvetica Neue&quot;, sans-serif; font-size: 12px; font-weight: 200;" fill="rgb(50, 49, 63)" stroke="none" stroke-width="1px">0</text><text x="148.45000000000002" y="0" dx="0em" dy="0.95em" style="text-anchor: middle; visibility: inherit; font-family: &quot;Helvetica Neue&quot;, sans-serif; font-size: 12px; font-weight: 200;" fill="rgb(50, 49, 63)" stroke="none" stroke-width="1px">5k</text><text x="222.675" y="0" dx="0em" dy="0.95em" style="text-anchor: middle; visibility: inherit; font-family: &quot;Helvetica Neue&quot;, sans-serif; font-size: 12px; font-weight: 200;" fill="rgb(50, 49, 63)" stroke="none" stroke-width="1px">10k</text><text x="296.90000000000003" y="0" dx="0em" dy="0.95em" style="text-anchor: middle; visibility: inherit; font-family: &quot;Helvetica Neue&quot;, sans-serif; font-size: 12px; font-weight: 200;" fill="rgb(50, 49, 63)" stroke="none" stroke-width="1px">15k</text><text x="371.12500000000006" y="0" dx="0em" dy="0.95em" style="text-anchor: middle; visibility: inherit; font-family: &quot;Helvetica Neue&quot;, sans-serif; font-size: 12px; font-weight: 200;" fill="rgb(50, 49, 63)" stroke="none" stroke-width="1px">20k</text><text x="445.35" y="0" dx="0em" dy="0.95em" style="text-anchor: middle; visibility: inherit; font-family: &quot;Helvetica Neue&quot;, sans-serif; font-size: 12px; font-weight: 200;" fill="rgb(50, 49, 63)" stroke="none" stroke-width="1px">25k</text><text x="519.575" y="0" dx="0em" dy="0.95em" style="text-anchor: middle; visibility: inherit; font-family: &quot;Helvetica Neue&quot;, sans-serif; font-size: 12px; font-weight: 200;" fill="rgb(50, 49, 63)" stroke="none" stroke-width="1px">30k</text><text x="593.8000000000001" y="0" dx="0em" dy="0.95em" style="text-anchor: middle; visibility: inherit; font-family: &quot;Helvetica Neue&quot;, sans-serif; font-size: 12px; font-weight: 200;" fill="rgb(50, 49, 63)" stroke="none" stroke-width="1px">35k</text><text x="668.0250000000001" y="0" dx="0em" dy="0.95em" style="text-anchor: middle; visibility: inherit; font-family: &quot;Helvetica Neue&quot;, sans-serif; font-size: 12px; font-weight: 200;" fill="rgb(50, 49, 63)" stroke="none" stroke-width="1px">40k</text><text x="742.2500000000001" y="0" dx="0em" dy="0.95em" style="text-anchor: middle; visibility: inherit; font-family: &quot;Helvetica Neue&quot;, sans-serif; font-size: 12px; font-weight: 200;" fill="rgb(50, 49, 63)" stroke="none" stroke-width="1px">45k</text><text x="816.475" y="0" dx="0em" dy="0.95em" style="text-anchor: middle; visibility: inherit; font-family: &quot;Helvetica Neue&quot;, sans-serif; font-size: 12px; font-weight: 200;" fill="rgb(50, 49, 63)" stroke="none" stroke-width="1px">50k</text><text x="890.7" y="0" dx="0em" dy="0.95em" style="text-anchor: middle; visibility: inherit; font-family: &quot;Helvetica Neue&quot;, sans-serif; font-size: 12px; font-weight: 200;" fill="rgb(50, 49, 63)" stroke="none" stroke-width="1px">55k</text><text x="964.9250000000001" y="0" dx="0em" dy="0.95em" style="text-anchor: middle; visibility: inherit; font-family: &quot;Helvetica Neue&quot;, sans-serif; font-size: 12px; font-weight: 200;" fill="rgb(50, 49, 63)" stroke="none" stroke-width="1px">60k</text><text x="1039.15" y="0" dx="0em" dy="0.95em" style="text-anchor: middle; visibility: hidden; font-family: &quot;Helvetica Neue&quot;, sans-serif; font-size: 12px; font-weight: 200;" fill="rgb(50, 49, 63)" stroke="none" stroke-width="1px">65k</text></g><line x1="0" y1="0" x2="1039.15" y2="0" fill="rgb(0, 0, 0)" stroke="rgb(204, 204, 204)" stroke-width="1px"></line></g></g></g></g></svg>