<svg viewBox="0 0 1091.4000244140625 400" xmlns="http://www.w3.org/2000/svg"><g><g><g><g><g><line x1="52.25" y1="376" x2="47.25" y2="376" style="visibility: inherit;" fill="rgb(0, 0, 0)" stroke="rgb(204, 204, 204)" stroke-width="1px"></line><line x1="52.25" y1="347.0769230769231" x2="47.25" y2="347.0769230769231" style="visibility: inherit;" fill="rgb(0, 0, 0)" stroke="rgb(204, 204, 204)" stroke-width="1px"></line><line x1="52.25" y1="318.15384615384613" x2="47.25" y2="318.15384615384613" style="visibility: inherit;" fill="rgb(0, 0, 0)" stroke="rgb(204, 204, 204)" stroke-width="1px"></line><line x1="52.25" y1="289.2307692307692" x2="47.25" y2="289.2307692307692" style="visibility: inherit;" fill="rgb(0, 0, 0)" stroke="rgb(204, 204, 204)" stroke-width="1px"></line><line x1="52.25" y1="260.3076923076923" x2="47.25" y2="260.3076923076923" style="visibility: inherit;" fill="rgb(0, 0, 0)" stroke="rgb(204, 204, 204)" stroke-width="1px"></line><line x1="52.25" y1="231.3846153846154" x2="47.25" y2="231.3846153846154" style="visibility: inherit;" fill="rgb(0, 0, 0)" stroke="rgb(204, 204, 204)" stroke-width="1px"></line><line x1="52.25" y1="202.46153846153848" x2="47.25" y2="202.46153846153848" style="visibility: inherit;" fill="rgb(0, 0, 0)" stroke="rgb(204, 204, 204)" stroke-width="1px"></line><line x1="52.25" y1="173.53846153846155" x2="47.25" y2="173.53846153846155" style="visibility: inherit;" fill="rgb(0, 0, 0)" stroke="rgb(204, 204, 204)" stroke-width="1px"></line><line x1="52.25" y1="144.61538461538464" x2="47.25" y2="144.61538461538464" style="visibility: inherit;" fill="rgb(0, 0, 0)" stroke="rgb(204, 204, 204)" stroke-width="1px"></line><line x1="52.25" y1="115.69230769230768" x2="47.25" y2="115.69230769230768" style="visibility: inherit;" fill="rgb(0, 0, 0)" stroke="rgb(204, 204, 204)" stroke-width="1px"></line><line x1="52.25" y1="86.76923076923077" x2="47.25" y2="86.76923076923077" style="visibility: inherit;" fill="rgb(0, 0, 0)" stroke="rgb(204, 204, 204)" stroke-width="1px"></line><line x1="52.25" y1="57.84615384615387" x2="47.25" y2="57.84615384615387" style="visibility: inherit;" fill="rgb(0, 0, 0)" stroke="rgb(204, 204, 204)" stroke-width="1px"></line><line x1="52.25" y1="28.923076923076906" x2="47.25" y2="28.923076923076906" style="visibility: inherit;" fill="rgb(0, 0, 0)" stroke="rgb(204, 204, 204)" stroke-width="1px"></line><line x1="52.25" y1="0" x2="47.25" y2="0" style="visibility: inherit;" fill="rgb(0, 0, 0)" stroke="rgb(204, 204, 204)" stroke-width="1px"></line></g><g transform="translate(42.25, 0)"><text x="0" y="376" dx="0em" dy="0.3em" style="text-anchor: end; visibility: hidden; font-family: &quot;Helvetica Neue&quot;, sans-serif; font-size: 12px; font-weight: 200;" fill="rgb(50, 49, 63)" stroke="none" stroke-width="1px">-0.1</text><text x="0" y="347.0769230769231" dx="0em" dy="0.3em" style="text-anchor: end; visibility: inherit; font-family: &quot;Helvetica Neue&quot;, sans-serif; font-size: 12px; font-weight: 200;" fill="rgb(50, 49, 63)" stroke="none" stroke-width="1px">0</text><text x="0" y="318.15384615384613" dx="0em" dy="0.3em" style="text-anchor: end; visibility: inherit; font-family: &quot;Helvetica Neue&quot;, sans-serif; font-size: 12px; font-weight: 200;" fill="rgb(50, 49, 63)" stroke="none" stroke-width="1px">0.1</text><text x="0" y="289.2307692307692" dx="0em" dy="0.3em" style="text-anchor: end; visibility: inherit; font-family: &quot;Helvetica Neue&quot;, sans-serif; font-size: 12px; font-weight: 200;" fill="rgb(50, 49, 63)" stroke="none" stroke-width="1px">0.2</text><text x="0" y="260.3076923076923" dx="0em" dy="0.3em" style="text-anchor: end; visibility: inherit; font-family: &quot;Helvetica Neue&quot;, sans-serif; font-size: 12px; font-weight: 200;" fill="rgb(50, 49, 63)" stroke="none" stroke-width="1px">0.3</text><text x="0" y="231.3846153846154" dx="0em" dy="0.3em" style="text-anchor: end; visibility: inherit; font-family: &quot;Helvetica Neue&quot;, sans-serif; font-size: 12px; font-weight: 200;" fill="rgb(50, 49, 63)" stroke="none" stroke-width="1px">0.4</text><text x="0" y="202.46153846153848" dx="0em" dy="0.3em" style="text-anchor: end; visibility: inherit; font-family: &quot;Helvetica Neue&quot;, sans-serif; font-size: 12px; font-weight: 200;" fill="rgb(50, 49, 63)" stroke="none" stroke-width="1px">0.5</text><text x="0" y="173.53846153846155" dx="0em" dy="0.3em" style="text-anchor: end; visibility: inherit; font-family: &quot;Helvetica Neue&quot;, sans-serif; font-size: 12px; font-weight: 200;" fill="rgb(50, 49, 63)" stroke="none" stroke-width="1px">0.6</text><text x="0" y="144.61538461538464" dx="0em" dy="0.3em" style="text-anchor: end; visibility: inherit; font-family: &quot;Helvetica Neue&quot;, sans-serif; font-size: 12px; font-weight: 200;" fill="rgb(50, 49, 63)" stroke="none" stroke-width="1px">0.7</text><text x="0" y="115.69230769230768" dx="0em" dy="0.3em" style="text-anchor: end; visibility: inherit; font-family: &quot;Helvetica Neue&quot;, sans-serif; font-size: 12px; font-weight: 200;" fill="rgb(50, 49, 63)" stroke="none" stroke-width="1px">0.8</text><text x="0" y="86.76923076923077" dx="0em" dy="0.3em" style="text-anchor: end; visibility: inherit; font-family: &quot;Helvetica Neue&quot;, sans-serif; font-size: 12px; font-weight: 200;" fill="rgb(50, 49, 63)" stroke="none" stroke-width="1px">0.9</text><text x="0" y="57.84615384615387" dx="0em" dy="0.3em" style="text-anchor: end; visibility: inherit; font-family: &quot;Helvetica Neue&quot;, sans-serif; font-size: 12px; font-weight: 200;" fill="rgb(50, 49, 63)" stroke="none" stroke-width="1px">1</text><text x="0" y="28.923076923076906" dx="0em" dy="0.3em" style="text-anchor: end; visibility: inherit; font-family: &quot;Helvetica Neue&quot;, sans-serif; font-size: 12px; font-weight: 200;" fill="rgb(50, 49, 63)" stroke="none" stroke-width="1px">1.1</text><text x="0" y="0" dx="0em" dy="0.3em" style="text-anchor: end; visibility: hidden; font-family: &quot;Helvetica Neue&quot;, sans-serif; font-size: 12px; font-weight: 200;" fill="rgb(50, 49, 63)" stroke="none" stroke-width="1px">1.2</text></g><line x1="52.25" y1="0" x2="52.25" y2="376" fill="rgb(0, 0, 0)" stroke="rgb(204, 204, 204)" stroke-width="1px"></line></g></g><g transform="translate(52, 0)" clip-path="url(#clip_0)"><clipPath id="clip_0"><rect width="1039" height="376"></rect></clipPath><g><g><g><line x1="0" y1="0" x2="0" y2="376" fill="rgb(0, 0, 0)" stroke="rgb(60, 60, 60)" stroke-width="1px" opacity="0.25"></line><line x1="74.22500000000001" y1="0" x2="74.22500000000001" y2="376" fill="rgb(0, 0, 0)" stroke="rgb(60, 60, 60)" stroke-width="1px" opacity="0.25"></line><line x1="148.45000000000002" y1="0" x2="148.45000000000002" y2="376" fill="rgb(0, 0, 0)" stroke="rgb(60, 60, 60)" stroke-width="1px" opacity="0.25"></line><line x1="222.675" y1="0" x2="222.675" y2="376" fill="rgb(0, 0, 0)" stroke="rgb(60, 60, 60)" stroke-width="1px" opacity="0.25"></line><line x1="296.90000000000003" y1="0" x2="296.90000000000003" y2="376" fill="rgb(0, 0, 0)" stroke="rgb(60, 60, 60)" stroke-width="1px" opacity="0.25"></line><line x1="371.12500000000006" y1="0" x2="371.12500000000006" y2="376" fill="rgb(0, 0, 0)" stroke="rgb(60, 60, 60)" stroke-width="1px" opacity="0.25"></line><line x1="445.35" y1="0" x2="445.35" y2="376" fill="rgb(0, 0, 0)" stroke="rgb(60, 60, 60)" stroke-width="1px" opacity="0.25"></line><line x1="519.575" y1="0" x2="519.575" y2="376" fill="rgb(0, 0, 0)" stroke="rgb(60, 60, 60)" stroke-width="1px" opacity="0.25"></line><line x1="593.8000000000001" y1="0" x2="593.8000000000001" y2="376" fill="rgb(0, 0, 0)" stroke="rgb(60, 60, 60)" stroke-width="1px" opacity="0.25"></line><line x1="668.0250000000001" y1="0" x2="668.0250000000001" y2="376" fill="rgb(0, 0, 0)" stroke="rgb(60, 60, 60)" stroke-width="1px" opacity="0.25"></line><line x1="742.2500000000001" y1="0" x2="742.2500000000001" y2="376" fill="rgb(0, 0, 0)" stroke="rgb(60, 60, 60)" stroke-width="1px" opacity="0.25"></line><line x1="816.475" y1="0" x2="816.475" y2="376" fill="rgb(0, 0, 0)" stroke="rgb(60, 60, 60)" stroke-width="1px" opacity="0.25"></line><line x1="890.7" y1="0" x2="890.7" y2="376" fill="rgb(0, 0, 0)" stroke="rgb(60, 60, 60)" stroke-width="1px" opacity="0.25"></line><line x1="964.9250000000001" y1="0" x2="964.9250000000001" y2="376" fill="rgb(0, 0, 0)" stroke="rgb(60, 60, 60)" stroke-width="1px" opacity="0.25"></line><line x1="1039.15" y1="0" x2="1039.15" y2="376" fill="rgb(0, 0, 0)" stroke="rgb(60, 60, 60)" stroke-width="1px" opacity="0.25"></line></g><g><line x1="0" y1="376" x2="1039.15" y2="376" fill="rgb(0, 0, 0)" stroke="rgb(60, 60, 60)" stroke-width="1px" opacity="0.25"></line><line x1="0" y1="347.0769230769231" x2="1039.15" y2="347.0769230769231" fill="rgb(0, 0, 0)" stroke="rgb(60, 60, 60)" stroke-width="1px" opacity="0.25"></line><line x1="0" y1="318.15384615384613" x2="1039.15" y2="318.15384615384613" fill="rgb(0, 0, 0)" stroke="rgb(60, 60, 60)" stroke-width="1px" opacity="0.25"></line><line x1="0" y1="289.2307692307692" x2="1039.15" y2="289.2307692307692" fill="rgb(0, 0, 0)" stroke="rgb(60, 60, 60)" stroke-width="1px" opacity="0.25"></line><line x1="0" y1="260.3076923076923" x2="1039.15" y2="260.3076923076923" fill="rgb(0, 0, 0)" stroke="rgb(60, 60, 60)" stroke-width="1px" opacity="0.25"></line><line x1="0" y1="231.3846153846154" x2="1039.15" y2="231.3846153846154" fill="rgb(0, 0, 0)" stroke="rgb(60, 60, 60)" stroke-width="1px" opacity="0.25"></line><line x1="0" y1="202.46153846153848" x2="1039.15" y2="202.46153846153848" fill="rgb(0, 0, 0)" stroke="rgb(60, 60, 60)" stroke-width="1px" opacity="0.25"></line><line x1="0" y1="173.53846153846155" x2="1039.15" y2="173.53846153846155" fill="rgb(0, 0, 0)" stroke="rgb(60, 60, 60)" stroke-width="1px" opacity="0.25"></line><line x1="0" y1="144.61538461538464" x2="1039.15" y2="144.61538461538464" fill="rgb(0, 0, 0)" stroke="rgb(60, 60, 60)" stroke-width="1px" opacity="0.25"></line><line x1="0" y1="115.69230769230768" x2="1039.15" y2="115.69230769230768" fill="rgb(0, 0, 0)" stroke="rgb(60, 60, 60)" stroke-width="1px" opacity="0.25"></line><line x1="0" y1="86.76923076923077" x2="1039.15" y2="86.76923076923077" fill="rgb(0, 0, 0)" stroke="rgb(60, 60, 60)" stroke-width="1px" opacity="0.25"></line><line x1="0" y1="57.84615384615387" x2="1039.15" y2="57.84615384615387" fill="rgb(0, 0, 0)" stroke="rgb(60, 60, 60)" stroke-width="1px" opacity="0.25"></line><line x1="0" y1="28.923076923076906" x2="1039.15" y2="28.923076923076906" fill="rgb(0, 0, 0)" stroke="rgb(60, 60, 60)" stroke-width="1px" opacity="0.25"></line><line x1="0" y1="0" x2="1039.15" y2="0" fill="rgb(0, 0, 0)" stroke="rgb(60, 60, 60)" stroke-width="1px" opacity="0.25"></line></g></g></g><g><g><line x1="0" y1="347.0769230769231" x2="1039.15" y2="347.0769230769231" fill="rgb(0, 0, 0)" stroke="rgb(153, 153, 153)" stroke-width="1.5px"></line></g></g><g><g><line x1="74.22500000000001" y1="0" x2="74.22500000000001" y2="376" fill="rgb(0, 0, 0)" stroke="rgb(153, 153, 153)" stroke-width="1.5px"></line></g></g><g><g><g><g><g><path stroke="rgb(255, 112, 67)" stroke-width="2px" d="M74.89302500000001,316.3265042671791L75.57589500000002,317.1554399029567L76.941635,316.6823892801111L78.30737500000001,317.01547792297686L78.990245,317.44104092778355L79.67311500000001,317.0764608630144L80.69742000000001,316.4848335462518L81.38029,316.64024984255093L82.06316,316.5531723680606L82.74603,316.52125917380056L83.4289,315.9697846840154L84.11177000000002,315.48264973863917L84.79464000000002,315.6435623981818L85.47751000000001,315.1303840079532L86.50181500000001,314.70478584793307L87.18468500000002,314.9998778343756L87.86755500000001,314.41044573351235L88.550425,314.2140568968913L89.23329500000001,315.1376878573332L89.916165,314.9451475557958L90.599035,314.456291481517L91.28190500000001,313.8485993664654L92.30621000000001,313.91626699029644L92.98908,314.13370737549315L94.35482000000002,314.08733112947243L96.40343000000001,314.6293226791451L97.08630000000001,314.0310212012082L98.110605,312.3359193720804L98.793475,311.1420195606815L99.47634500000001,310.366732929372L100.84208500000001,308.93876948969955L101.524955,306.2153520778929L102.207825,303.4613188132256L102.89069500000001,300.6103194094815L103.91500000000002,296.8758907280556L105.28074000000001,294.5369891122986L105.96361000000002,291.42420028698706L106.64648000000001,290.3031817007985L107.32935,288.90356371125785L108.01222000000001,287.35643565868645L108.69509000000001,285.09203917560114L110.402265,280.92361665309744L111.08513500000001,278.402917009798L112.45087500000001,275.80981175527654L113.13374500000002,273.094664818011L113.81661500000001,271.878204022731L114.499485,269.949748050797L115.52379000000002,267.92812747176674L116.20666000000001,264.92710894773666L117.57240000000002,263.08720212329393L118.25527000000001,262.1011520545877L118.93814,259.7018297056695L119.62101000000001,258.55696618934775L120.30388,256.12130450878624L121.328185,255.32796560239882L122.01105500000001,253.33900329179744L122.69392500000002,252.5189541143605L123.37679500000002,250.31747674718048L124.05966500000001,249.212725351897L124.74253500000002,247.31199930990712L126.108275,245.09087821589276L127.13258,243.81715084850913L127.81545000000001,242.46345119413115L128.49832,241.63158182252965L129.18119000000002,240.99492004254404L129.86406,239.08031442880917L130.54693,237.83330661359372L131.2298,237.81210876333634L131.91267,236.36502595441294L133.619845,233.6890839613666L134.302715,234.3824298602043L135.668455,233.22653314371328L136.35132500000003,232.21861219392028L137.034195,229.66862715932749L137.71706500000002,229.41580705344188L138.74137000000002,229.08727567493622L139.42424000000003,228.04525943091107L140.78998,227.6361847095204L141.47285000000002,226.21180996089103L142.15572000000003,225.02315606073967L142.83859,223.46506285582763L143.52146000000002,223.27686335072707L144.54576500000002,221.67063425987286L145.22863500000003,222.84861816402636L146.594375,220.35264781010733L147.27724500000002,219.5820724366278L147.960115,217.78360756074562L148.642985,218.3157320489596L149.32585500000002,217.0434529071195L150.35016000000002,215.72991789811786L151.03303,214.21479005384498L151.7159,213.9737748971282L153.08164,213.57372817222466L153.76451,211.7224967235393L154.44738,210.80824674827718L155.13025000000002,209.19866087327426L156.15455500000002,207.4469572203757L156.83742500000002,206.297690581662L157.52029500000003,205.588481019459L158.203165,204.16086123341708L158.88603500000002,203.00956291666722L159.56890500000003,201.80790866487038L160.251775,202.01041529451268L160.93464500000002,201.05123035557818L161.95895000000002,201.89043735991112L162.64182000000002,200.64521799174295L163.32469,198.44407269309826L164.00756,198.5970453227306L164.69043000000002,199.00320837250894L165.3733,197.5964036306831L166.05617,195.94671907871597L166.73904000000002,194.8783169274354L168.446215,195.65199015646124L169.129085,193.36535647438873L171.177695,192.4256532109929L171.860565,189.857650051314L173.56774000000001,188.53298318053115L174.25061000000002,187.2273146921134L175.61635000000004,184.164652083372L176.98209000000003,183.2112476450991L177.66496000000004,182.6981502711603L178.34783000000002,181.70258761377417L179.37213500000001,180.9087611253934L180.05500500000002,179.19458657964557L180.73787500000003,177.89100153814755L182.10361500000002,175.79237354463018L182.78648500000003,175.63353179631503L183.469355,173.78948662445745L184.15222500000002,173.70479625323892L185.85940000000002,172.35715808876353L186.54227,171.5878743480279L187.22514,171.53892802256L187.90801000000002,170.7432576783572L188.59088,170.54093578588493L189.27375,169.1816708934811L189.95662000000002,170.11485208090724L191.663795,167.98287535869872L192.346665,167.0770140863975L193.71240500000002,165.78684090517007L194.39527500000003,164.5804669463848L195.76101500000001,164.6032989889603L196.78532,162.69140843296452L197.46819000000002,162.50707243803706L198.83393,160.51018021748908L199.51680000000002,160.33378161705633L200.19967000000003,158.16481596613033L201.56541,158.31745025331855L202.589715,158.27148722070734L203.27258500000002,155.49307867745148L203.95545500000003,155.61407283231603L205.32119500000002,154.8810676183631L206.00406500000003,154.22512946496695L206.686935,152.96701957703266L207.369805,153.15529206026892L208.39411,152.20721966036507L209.07698000000002,151.32399674842384L209.75985,151.4817741300808L210.44272,150.1420730124066L211.12559000000002,149.14176344785298L212.49133000000003,148.93455549701895L213.17420000000004,148.12251959769685L215.56424500000003,146.259882696259L218.29572500000003,144.86722024134687L218.978595,146.4484278890145L220.68577000000002,144.96069433012596L221.36864000000003,143.20350719889626L222.05151,141.52042908036162L223.41725000000002,140.84461470811408L224.10012,138.82792267102232L224.78299,138.6789433386129L225.807295,136.52642924850093L226.49016500000002,135.9029788963812L228.53877500000002,136.35416341885525L229.221645,137.7252091801349L229.904515,136.74014432921038L230.587385,135.24525926480953L231.61169000000004,132.93361370637484L232.29456000000002,132.4308194982859L232.97743000000003,131.55932931845962L233.66030000000003,132.0778249693341L234.34317000000004,132.50681293790865L235.02604000000002,131.8603595652073L235.70891000000003,129.3897080240459L236.39178000000004,130.26517693093894L238.09895500000002,128.72733178440848L238.78182500000003,128.72812387721058L239.46469500000003,126.74406406232583L240.83043500000002,127.85254271595997L241.51330500000003,127.06361623039669L242.196175,126.64920562808365L243.22048,125.51636613972391L243.90335000000002,123.1272076901914L244.58622000000003,123.81579129596204L245.26909,123.63947477757725L246.63483000000002,124.29998741546837L247.3177,121.84721982753936L249.024875,120.19871651190826L249.70774500000005,120.76187264724786L250.39061500000003,118.78120565481129L251.75635500000004,118.1626191143223L252.43922500000002,117.20200050818175L253.12209500000003,116.4291404505484L253.80496500000004,118.67696287750675L254.82927000000004,115.60467001142558L255.51214000000002,113.99708234367552L256.19501,113.99532118589656L256.87788,114.36759614805197L257.56075000000004,114.06043973252298L258.24362,112.36318691643686L258.92649,112.75954974657941L259.60936000000004,113.01702047153913L260.633665,110.77434391697545L261.999405,110.0182046660845L262.682275,110.15398090159817L263.36514500000004,110.09790993378118L264.048015,108.61025367534722L265.41375500000004,108.20887525936064L266.43806000000006,106.31755253387473L267.12093000000004,103.82698966781396L268.48667000000006,104.33682625401997L269.85241,104.6034359435929L271.21815000000004,104.50796757436257L272.242455,104.35244210584995L272.925325,101.1546105753057L273.608195,100.1397578108253L274.291065,100.21855038515997L275.656805,103.29175075909706L276.339675,102.99394617689376L277.022545,101.06651640890442L278.04685,98.41675260821637L278.72972000000004,96.47320880205609L279.41259,95.6214688861578L280.09546,96.03391722154032L280.77833000000004,95.73121869887223L284.53411500000004,93.32928335860561L285.89985500000006,91.47549823547206L286.58272500000004,93.48738954210398L287.94846500000006,92.2777192054682L288.63133500000004,93.69363491425338L289.65564,90.67236554116579L290.33851,89.62591336203423L291.02138,87.5636745078869L291.70425,88.01613292504084L292.38712,88.22866268630833L293.06999,88.41512583209379L293.75286,88.91998150746315L294.43573,88.57448294181268L295.460035,86.04861623298308L297.508645,85.98710988542916L298.19151500000004,85.73407105187238L298.874385,86.64328364158388L299.557255,85.73479751766706L300.24012500000003,86.42758449603633L301.94730000000004,83.75839346049548L302.63017,81.1547882383503L303.31304000000006,81.16452936085687L303.99591000000004,80.63985264153848L304.67878,80.16785687394804L305.36165000000005,81.73165087903567L306.04452000000003,81.98221615326656L307.068825,79.81399464416467L307.751695,78.35587200270413L308.434565,78.18835567772487L309.117435,78.2253894876614L309.800305,79.24970037444405L310.483175,80.59129029748607L311.166045,81.61238617213456L311.848915,81.28189838512793L312.87322,79.13836980030754L314.23896,76.61437399669592L314.92183000000006,75.9448773793502L316.28757,76.68281361468752L317.65331000000003,76.47716338501783L319.36048500000004,75.56781767141973L320.0433550000001,73.76468545946614L320.72622500000006,74.21541812593699L321.40909500000004,75.15391582776692L322.0919650000001,74.99001105789256L322.77483500000005,75.24534682591644L323.45770500000003,74.65189186888404L324.48201,73.62775389691825L325.16488000000004,72.38451216974084L325.84775,71.67786629138402L326.53062,71.39141547349516L327.21349000000004,72.51636892450608L327.89636,72.189250394292L328.57923,71.58035535719011L329.26210000000003,72.62973285472304L330.28640500000006,70.46922947160414L330.96927500000004,70.3715069365025L331.652145,69.23218449872167L332.33501500000006,69.8257688467221L333.01788500000004,70.29981003357221L333.700755,70.83966892865635L334.38362500000005,70.43657397893548L335.06649500000003,71.88451873874538L336.09080000000006,70.29718131606688L336.77367000000004,69.54126775640879L337.4565400000001,69.42175211948717L338.13941000000005,70.41107862717979L338.82228000000003,70.29731727189835L339.50515000000007,70.24870658980478L340.18802000000005,70.9072513093704L340.87089000000003,70.06449948839042L341.895195,68.69430139990584L343.260935,67.99007312486498L343.943805,67.7050797647646L345.309545,67.20005124983123L345.992415,68.3314016875396L346.67528500000003,68.9512666611397L347.69959000000006,67.4761941796578L348.38246000000004,66.37501566574429L349.06533,66.30377523924335L349.74820000000005,66.57541045534174L351.11394,66.83663603197533L351.79681000000005,66.6396927480069L353.503985,66.50187375075166L354.18685500000004,65.3777994894271L354.8697250000001,65.82333611150295L355.55259500000005,64.97067690587784L356.23546500000003,65.22538393142486L357.60120500000005,65.53539788275248L358.28407500000003,65.93754127857352L359.30838,64.90165640119608L359.99125000000004,65.4001066536402L361.35699,64.93287425618468L362.03986000000003,64.5542903707368L362.72273,64.8183622743407L363.4056,65.03575070552802L364.08847000000003,64.91074958126637L365.79564500000004,65.03223780065849L366.478515,64.27987599854794L367.16138500000005,63.553378603232204L368.527125,64.11957076686343L369.20999500000005,64.30209632904268L370.91717,63.92038943147759L372.28291,63.553821688014466L372.96578000000005,63.58931522491048L373.64865000000003,62.726418220076255L375.01439000000005,63.72163898394439L375.69726,63.238082525545394L376.721565,63.00689393953098L378.087305,63.94886970464216L378.77017500000005,63.96388763981133L379.45304500000003,64.13008813691226L380.135915,64.19050927722327L380.81878500000005,63.61764914848726L381.501655,63.15604249319574L382.52596000000005,62.328910976123325L383.89170000000007,62.186310695828354L385.25744000000003,62.827753918623785L386.62318000000005,63.330517326149845L388.330355,62.6693839277944L390.378965,63.11759785780339L391.06183500000003,63.44547840063268L392.42757500000005,62.81695199258445L393.1104450000001,62.105803648882215L394.13475000000005,61.404034328611544L394.81762000000003,61.277706077372784L395.50049,60.86787662775629L396.86623000000003,62.33142681870413L397.5491,62.87553133019861L398.23197000000005,63.14304185227144L398.91484,62.57654477454264L399.93914500000005,62.15804821200629L400.62201500000003,61.74976053848496L401.30488500000007,61.97636403816949L401.98775500000005,62.40705258310487L402.67062500000003,62.154597344118145L403.35349500000007,61.4333105457531L404.03636500000005,61.472107674732456L404.719235,61.534685110069745L406.42641000000003,61.19890681024816L407.10928,60.70270648943165L407.79215,60.30674184996718L408.47502000000003,60.128108355313486L409.15789,60.63004107144383L409.84076,60.734711807172914L410.5236300000001,60.8957586955849L411.54793500000005,60.678007356633145L412.23080500000003,60.82243686731147L412.913675,61.04663817864264L413.59654500000005,60.80783420441736L414.27941500000003,60.46806292593317L414.962285,61.2859368907387L415.64515500000005,61.28543903474929L416.328025,61.10830445408084L417.35233000000005,61.296757046603375L418.03520000000003,60.97755165626921L418.71807000000007,60.66813784401887L419.40094000000005,60.34494595174448L420.76668000000006,61.25136586417506L421.44955000000004,61.24505028773581L424.522465,60.90722844299904L425.205335,60.6062908891825L425.888205,61.4671181156628L426.571075,61.68888111062739L427.253945,61.35036969960777L427.936815,61.12760982612167L428.96112000000005,60.365194958032134L429.64399000000003,60.123881062202884L431.00973000000005,60.784694431576895L431.6926,61.063291875151435L432.37547,60.719581975348206L434.76551500000005,60.611600482440736L435.44838500000003,60.527158559822055L436.81412500000005,61.02666093014841L438.86273500000004,60.933384564446044L439.545605,60.97566319199922L440.56991,60.35262529345789L441.25278000000003,60.41107260438184L441.93565,60.36754957083599L442.61852000000005,60.085994671935566L443.30139,59.9170617325953L443.98426,60.48376696673756L444.66713000000004,60.784490949273334L445.35,61.063169785769276L446.37430500000005,60.68020956376927L447.74004500000007,60.23429840554485L448.42291500000005,60.00604397276089L449.105785,60.321014390013545L449.78865500000006,60.4510513513402L450.47152500000004,60.78450771111022L451.154395,61.06317984287148L452.17870000000005,60.42478141505654L453.54444000000007,59.86489959549391L454.22731000000005,59.823703844679926L454.9101800000001,59.838285552141144L455.59305000000006,60.04352347056687L460.03170500000004,59.911232038648336L461.397445,60.04799220452156L462.08031500000004,59.93355941009651L462.763185,60.316822810364556L463.78749000000005,60.193102220576804L464.47036,60.11886986670413L465.15323000000006,60.05468432330531L465.83610000000004,60.33055246926489L466.51897,60.26028530494193L467.20184000000006,59.7072566404002L467.88471000000004,60.0435044394215L468.56758,60.53997956395898L469.59188500000005,60.48418600873299L470.2747550000001,60.17562956154802L470.95762500000006,60.1476854292365L471.64049500000004,60.07197366082465L472.3233650000001,59.98724744182795L473.00623500000006,59.72027668540545L474.3719750000001,59.69763094067724L475.39628000000005,59.54650678471506L476.07915,59.534423711238105L477.44489000000004,59.23244052622829L478.12776,59.463881429994785L478.81063,59.79923486620373L479.49350000000004,60.07903834802937L480.17637,60.266573463999066L481.20067500000005,60.300496217681655L481.883545,60.085061817992596L482.56641500000006,60.09334478310325L483.24928500000004,60.78602569099138L483.932155,61.06409063080014L484.61502500000006,60.93619625376175L485.29789500000004,60.72191602261461L485.980765,60.278968411927394L487.00507000000005,59.875656240590956L487.6879400000001,59.98734756773763L488.37081000000006,59.62209231397674L489.05368000000004,59.81556308069378L489.7365500000001,59.833401093749444L490.41942000000006,59.627968876558384L491.10229000000004,59.42611123034459L492.80946500000005,59.4228941164651L493.492335,59.499555268237714L494.175205,59.27047164525186L494.85807500000004,59.4081017855097L495.540945,59.1763003976655L496.223815,59.23370845890804L496.90668500000004,59.36639774262807L497.589555,59.446011312860094L498.61386000000005,59.257991403100675L499.29673,59.0076358523209L499.97960000000006,59.230754178675795L500.66247000000004,58.97164738659063L501.34534,58.97337304733901L502.02821000000006,58.85651786573817L503.39395,59.37586454282592L504.418255,59.766070864977735L505.1011250000001,59.45002713437128L506.4668650000001,59.29970005395694L507.1497350000001,59.05231406970893L507.83260500000006,59.00212692613462L508.5154750000001,58.9130624551662L509.1983450000001,58.898922930534695L510.22265000000004,59.106581136579166L510.90552,58.97573498143288L511.58839000000006,59.01512476219398L512.27126,58.86191586777687L512.9541300000001,59.08437689892446L513.6370000000001,59.25714577976373L514.31987,59.26256266129269L516.027045,59.24616665913476L517.392785,59.27562821578954L518.0756550000001,59.391549596757045L518.7585250000001,59.73618273938689L520.807135,59.3731489699918L523.88005,59.587598758403544L524.5629200000001,59.44118831740121L525.24579,59.392641210749446L525.92866,59.304567657733514L526.61153,58.9766363160756L527.635835,58.838822800105845L528.318705,58.89367829544818L529.0015750000001,58.88729243470391L531.050185,59.04065065425681L531.733055,58.995128876863305L532.415925,58.75167388960398L533.44023,58.66454618627324L534.80597,58.553324275249906L535.4888400000001,58.50624415551016L536.17171,58.83167471361486L537.53745,58.79114499657902L538.22032,58.766827166357416L539.244625,58.457503127300924L539.9274950000001,58.409452308791174L540.610365,58.49851239573519L541.2932350000001,58.66984592175038L541.9761050000001,58.615449405561094L542.658975,58.602464522721846L543.341845,59.34133001086491L544.0247150000001,59.313073199953465L545.04902,59.040684930432576L545.7318900000001,58.97549641569452L546.41476,59.21147051670005L547.0976300000001,59.353054977303316L547.7805000000001,59.39870649571566L548.46337,59.485042695788025L550.853415,59.45825299573113L551.536285,59.501124464721954L552.2191550000001,59.48754818816684L552.902025,59.184669081310176L553.5848950000001,58.88505103914633L554.267765,58.76422550287299L554.950635,58.51488741823516L555.633505,58.601072619351214L556.65781,58.41699568812214L557.34068,58.66022815933326L558.0235500000001,58.47214203898562L558.70642,58.43788178687731L559.3892900000001,58.47627092463728L560.07216,58.499304407293266L561.4379,58.45417920786184L562.4622050000002,58.64324600902637L563.145075,58.61914248480099L563.8279450000001,58.624326501341045L564.5108150000001,58.70603522716431L565.1936850000001,58.519272410759584L565.876555,58.3679155629672L566.5594250000001,58.35569977019088L567.242295,58.3090711365756L568.2666,58.28109395640638L568.94947,58.40185125322898L569.63234,58.78868510332143L570.3152100000001,59.217274307325965L570.99808,59.14039533085554L571.68095,58.858486788873506L572.36382,58.76793308378461L573.04669,58.59571028268135L574.070995,58.492376602019476L574.7538650000001,58.450022524697545L575.436735,58.640751999127815L576.8024750000001,58.51940163188732L578.168215,58.525182831643235L579.87539,58.587603736320716L581.9240000000001,58.487512674203L582.6068700000001,58.4471041680078L583.28974,58.50145738018978L583.97261,58.43582486052446L584.6554800000001,58.4946897956998L585.679785,58.6871984928045L586.362655,58.704459264092804L587.0455250000001,58.63621741096654L587.728395,58.909658666888674L588.4112650000001,59.32915760341598L589.094135,59.266477493333355L589.777005,59.30746084738411L590.459875,58.939073071916425L592.8499200000001,59.15031735248357L593.53279,59.06092889579935L594.2156600000001,58.909051374814396L595.5814,59.01441375617242L596.26427,59.352711499036616L597.288575,59.00552262085756L597.971445,58.77756316287474L598.654315,58.69973277711L599.3371850000001,58.57443622975194L600.0200550000001,58.55820359036204L600.702925,58.50917174457737L601.3857950000001,58.51904489925738L603.09297,58.603567107964466L603.7758400000001,58.61498127523919L604.45871,58.81831866955304L605.1415800000001,58.99926639516633L605.8244500000001,58.77380942746004L607.19019,58.71712666693651L607.8730600000001,58.72241616857201L608.897365,58.764889027502875L609.5802350000001,59.73351805465711L610.263105,59.46979460612846L610.9459750000001,59.07577248511262L611.6288450000001,58.89830450152806L612.311715,58.51674339732796L612.994585,58.36639815490821L613.6774550000001,58.53162519243028L614.70176,58.453925547868835L615.38463,58.54484936605604L616.0675000000001,58.795892550917415L616.75037,58.65178512091063L618.11611,58.447423189057815L618.79898,58.40340434584533L619.4818500000001,58.35734690884243L620.506155,58.3100594197665L621.189025,58.37993137329545L621.8718950000001,58.539745123462694L622.554765,58.55704195346283L623.2376350000001,58.56742005146276L625.286245,58.43610330533869L626.3105500000001,58.25906881068971L627.6762900000001,58.15284811390035L628.3591600000001,58.10876872270086L629.0420300000001,58.20021166603112L629.7249,58.29437658997887L630.4077700000001,58.25263109737301L631.09064,58.20793077493522L632.797815,58.37759947542162L633.480685,58.34186398658824L634.1635550000001,58.261470508464356L634.846425,58.17394215943938L635.529295,58.258961859149565L636.212165,58.368918968000685L636.895035,58.35630181321096L637.91934,58.368377651412516L639.28508,58.35597702325816L639.9679500000001,58.36818277744078L640.6508200000001,58.198670362875646L641.33369,58.214853492186364L642.01656,58.22456336977285L642.6994300000001,58.466177348223425L643.723735,58.47360213036956L644.4066050000001,58.615600604581346L645.089475,58.62220137320935L645.7723450000001,58.60651570331078L646.4552150000001,58.597104301371644L647.138085,58.57180443333385L647.820955,58.635222828410406L648.5038250000001,59.02695249540483L649.52813,59.144099717551626L650.211,59.214388050839716L650.8938700000001,59.11901744588852L651.57674,59.17968566096755L652.2596100000001,59.19644045893966L652.94248,59.10824889074837L653.62535,58.83919892480924L654.30822,58.67776894524576L655.332525,58.639856246532645L656.6982650000001,58.381320575405994L657.381135,58.619176960628295L658.0640050000001,58.585048028887854L658.746875,58.46633311866793L659.429745,58.512994750585904L660.112615,58.855371201735636L661.1369200000001,58.78571675837611L661.81979,58.645679645385826L663.1855300000001,58.64024879769204L663.8684000000001,58.55839886897536L664.55127,58.39139143789663L665.2341400000001,58.2911869792494L665.91701,58.48649848703508L666.941315,58.466148682581206L668.307055,58.61112853590845L668.9899250000001,58.560572842980605L669.6727950000001,58.707082190097594L670.355665,58.59849890441882L671.7214050000001,58.769130089111286L672.74571,59.26448658782482L673.4285800000001,59.10977741012994L674.11145,58.977652745563375L675.4771900000001,58.85908568467278L676.16006,58.74864629018879L676.84293,58.5841382065239L677.5258000000001,58.64262309232441L678.550105,58.500878156729925L679.2329750000001,58.317586748398696L679.9158450000001,58.286203323500274L680.5987150000001,58.14948269051126L681.2815850000001,58.08709644179322L681.9644550000002,58.010365534612845L682.647325,58.02327917512838L683.3301950000001,57.99172820148817L684.3545,58.03174290632899L685.7202400000001,58.09505088718305L686.40311,58.09373651774587L687.76885,58.28943679003271L688.45172,58.26931334848064L689.13459,58.33583759944855L690.1588950000001,58.96521193607765L691.5246350000001,58.85162119898132L692.2075050000001,58.66556928287474L692.8903750000001,58.573591160085016L693.573245,58.34156152353745L694.938985,58.16304458365937L696.64616,58.11488660455632L698.0119000000001,58.027039632270714L698.6947700000001,57.993984475773516L699.37764,57.954498355000965L700.0605100000001,58.00940499843665L700.74338,58.04234898449806L703.8162950000001,58.06211537613484L704.4991650000001,58.05432908004167L705.182035,58.01035814443617L705.864905,58.02327474102242L706.5477750000001,58.109616119074474L708.2549500000001,58.043530367855794L708.93782,58.043178075074195L709.6206900000001,58.101911988430174L710.3035600000001,58.15679846751914L710.98643,58.28797480194697L711.6693,58.2487900245539L712.3521700000001,58.205626131243775L713.376475,58.17972779525769L714.0593450000001,58.08559737356569L714.7422150000001,57.98981996260102L716.1079550000001,58.22708685694579L716.7908250000002,58.251556415502705L717.473695,58.30553041278756L718.1565650000001,58.41651312705767L719.18087,58.3652121775699L719.86374,58.314778581002884L720.5466100000001,58.4810073170118L721.22948,58.60039068969252L721.9123500000001,58.71131987125051L722.59522,58.69928596008509L723.27809,58.57416813953694L723.96096,58.55804273623306L724.9852650000001,58.41083078512548L725.668135,58.32250361446097L726.3510050000001,58.269507312062274L727.0338750000001,58.237709530622965L727.7167450000001,58.15968557273453L729.0824850000001,58.23076177605134L729.765355,58.2930536291168L730.78966,58.15359287388122L731.4725300000001,58.28605144576426L732.1554000000001,58.24763601084419L732.8382700000001,58.44072177491665L733.5211400000002,58.556573233359984L734.20401,58.586784950476556L734.8868800000001,58.68351029664558L735.5697500000001,58.54505661039798L736.594055,58.63882026572418L737.2769250000001,58.793322905894456L738.6426650000001,58.59129804487196L739.3255350000001,58.78446260025737L740.008405,59.01825191153853L740.691275,59.00133576230769L742.39845,58.696452731845625L743.0813200000001,58.49387678249303L743.7641900000001,58.50986792200678L744.4470600000001,58.28368144961513L745.1299300000001,58.18726872412981L745.8128000000002,58.20801250893891L747.1785400000001,58.27940406884932L748.202845,58.34189203166977L749.5685850000001,58.438330098386984L750.251455,58.37830236036746L750.9343250000001,58.617366031605115L751.6171950000002,58.58396147147397L752.300065,58.662163182369795L752.9829350000001,58.70908420890731L754.69011,58.73723682482978L756.0558500000001,58.75412839438326L757.42159,58.70531804709043L758.1044600000001,58.75463015461395L758.78733,58.58772852517899L759.8116350000001,58.33039781151848L760.494505,58.41178053942201L761.8602450000001,58.20517599319004L762.5431150000001,58.17945771242552L763.225985,58.22297892879055L764.591725,58.28838392076028L765.61603,58.425871362916666L766.2989000000001,58.27258267211073L766.98177,58.200255588702476L768.34751,58.21580462768247L769.03038,58.32337849804503L769.7132500000001,58.328977531237626L770.3961200000001,58.31269082007782L771.420425,58.263619635432406L772.1032950000001,58.29312221367002L772.786165,58.310823760612664L773.4690350000001,58.16425495277872L774.151905,58.11561282602793L774.834775,58.20431812802741L775.517645,58.100351573227556L776.2005150000001,58.09691692937258L777.9076900000001,58.409235615058606L779.2734300000001,58.360845670370395L779.9563,58.25321338765832L781.32204,58.18863401803105L782.0049100000001,58.11058723830507L783.029215,58.02446001251991L783.712085,58.01208283499841L784.3949550000001,58.04395568643508L785.077825,58.043433266221825L785.760695,57.98416762927002L786.443565,57.94860824709883L787.126435,58.02551706477067L787.809305,58.24850511824758L788.8336100000001,58.28405350335919L789.51648,58.20713808745154L790.8822200000001,58.27887941595685L791.56509,58.204033635010205L792.24796,58.257370613416754L792.9308300000001,58.2107744845614L793.6137,58.300714281097044L794.6380050000001,58.315379001068834L796.0037450000001,58.147335070178144L797.3694850000002,58.105460896467605L798.052355,58.04103723429171L799.4180950000001,57.9630838790365L800.4424,57.91631186588353L801.1252700000001,57.888248657991596L801.80814,57.87141073325654L802.4910100000001,57.861307978415425L803.17388,57.85524632551079L803.85675,57.851609333767954L805.2224900000001,57.88872629667196L806.246795,58.166430657388275L806.9296650000001,58.23480882684356L808.2954050000001,58.1579451504669L808.978275,58.072527786691296L809.6611450000001,58.04092349950122L810.344015,58.002314796111875L812.05119,57.959496547204026L812.7340600000001,57.953458624733514L813.4169300000001,57.949835871251196L814.0998000000001,58.04590666613643L815.4655400000001,58.10354914306754L816.14841,58.23637907620065L816.8312800000001,58.21783258910614L817.8555850000001,58.20670469684933L818.538455,58.23932711944491L819.2213250000001,58.35713812417782L819.9041950000001,58.66361277891622L821.269935,58.65100867781024L821.9528050000001,58.64344621714662L822.635675,58.44241984679934L823.6599800000001,58.22355957761653L824.34285,58.09224341610678L825.0257200000001,58.09205203510015L825.7085900000001,58.956484202392744L826.39146,58.96427513682028L827.07433,58.71351551450272L827.7572000000001,58.720249477111736L828.44007,58.64569153877795L829.4643750000001,58.5420114867527L830.1472450000001,58.5387487445625L830.8301150000001,58.57609025719802L831.5129850000001,58.51990374467897L832.1958550000002,58.38794739019312L832.878725,58.505262471450635L834.2444650000001,58.43810791528091L835.26877,58.29957073460457L835.9516400000001,58.11820397922429L836.63451,58.04868308394572L837.3173800000001,58.12486112482844L838.00025,58.20986710730767L839.36599,58.37876127484509L840.0488600000001,58.342561066242354L841.073165,58.34048707215601L841.7560350000001,58.319596544628894L842.4389050000001,58.26776307016303L845.170385,58.23666298548346L845.8532550000001,58.21800293467578L846.87756,58.18715387731686L847.5604300000001,58.09005302280127L848.2433000000001,58.1103839301922L848.9261700000001,58.08329021247607L849.60904,58.008081797022555L850.2919100000001,57.98260977462462L850.97478,57.96732656118593L851.6576500000001,57.958156633122655L852.6819550000001,57.97230080736L853.364825,57.94148815395289L854.0476950000001,57.94265358878289L854.7305650000001,58.002298138705726L855.413435,58.05773099973487L856.096305,58.012399296252056L856.7791750000001,58.162036141237195L857.462045,58.21252598607754L858.4863500000001,58.2428198929818L859.1692200000001,58.103799605326L859.8520900000001,58.07933961755634L860.5349600000001,58.04501059802027L861.2178300000002,58.142310660147416L861.9007,58.12209238152451L862.5835700000001,58.208205861325325L864.2907450000001,58.318819238230674L865.6564850000001,58.28694281739945L866.3393550000001,58.22851780695106L867.0222250000002,58.15417053853139L867.705095,58.08990915060531L868.3879650000001,58.03170618677427L870.09514,58.055729697500624L871.4608800000001,58.03084464598686L872.1437500000001,57.996267484003226L872.82662,57.97552118681307L873.5094900000001,57.963073408498985L874.8752300000001,57.97525087258589L875.899535,57.92361206201309L876.5824050000001,57.912274906744756L877.2652750000001,57.88582648250838L877.9481450000001,57.86995742796654L879.3138850000001,57.86043599524146L879.996755,57.85472313560638L880.6796250000001,57.85129541982536L881.7039300000001,57.849238790356765L883.0696700000001,57.84800481267558L883.7525400000002,57.847264426066886L884.43541,57.90576548312657L886.4840200000001,57.881920828337456L887.5083250000001,57.88726016653936L888.191195,57.87081763838512L888.8740650000001,57.900251279442216L889.5569350000001,57.9179114640765L890.239805,57.96780673280654L890.922675,57.91914557814545L891.6055450000001,57.889948885348815L892.288415,57.89207700074621L893.3127200000001,57.873707738909275L893.9955900000001,57.862686181807135L894.6784600000001,57.856073247545794L895.3613300000001,57.85210548698899L896.72707,57.84972483065491L897.4099400000001,57.848296436854525L898.0928100000001,57.847439400574274L899.7999850000001,57.92552349470526L900.482855,57.89377563528467L901.1657250000001,57.9336722086573L901.848595,57.97726317955511L902.531465,57.92481944619459L903.2143350000001,57.91299933725361L903.8972050000001,57.98450558778825L904.92151,57.92916489113446L905.6043800000001,57.93525963109187L906.2872500000001,58.0764600799904L906.9701200000001,58.35766234747962L908.3358600000001,58.70322647084697L909.01873,58.67477689296868L909.7016000000001,58.736305462140876L910.725905,58.59637984077045L911.4087750000001,58.492778336872846L912.0916450000001,58.784296064482874L912.7745150000001,58.546582782075404L913.457385,58.50219925960545L914.1402550000001,58.436269988173876L914.823125,58.51460300336481L915.5059950000001,58.48301139237907L916.5303000000001,58.38545810988853L917.21317,58.28762698244452L917.8960400000001,58.13068385900357L919.26178,58.115116300838224L919.94465,58.32191079096344L920.6275200000001,58.210206328938796L921.3103900000001,58.37896480782382L922.3346950000001,58.38197544818024L923.0175650000001,58.42308099034369L923.7004350000001,58.89966739256482L926.4319150000001,58.49790810507574L927.1147850000001,58.315804717406195L928.1390900000001,58.304787131778994L928.8219600000001,58.27852355352843L930.1877000000001,58.24311927550275L930.8705700000002,58.28082199771222L931.55344,58.40168807801251L932.2363100000001,58.27771883224352L932.9191800000001,58.301581731756755L934.6263550000001,58.217655024490114L935.3092250000001,58.16729900013013L935.9920950000001,58.2156837014133L936.674965,58.0875178903849L937.3578350000001,58.01061840376781L938.040705,57.98413173867186L938.7235750000001,57.94858671273994L939.74788,57.94691272405515L940.4307500000001,57.94590833084425L941.1136200000001,57.964951825992955L941.7964900000001,57.93707876513264L942.47936,57.92035492861646L943.1622300000001,57.8906744956314L943.8451,57.87286623584038L944.5279700000001,57.881827411041115" style="fill: none;" fill="none"></path></g></g></g></g><g opacity="0.2"><g><g><g><path stroke="rgb(255, 112, 67)" stroke-width="2px" d="M74.89302500000001,316.3265042671791L75.57589500000002,317.6528012844232L76.941635,316.2282606821794L78.30737500000001,317.4071901669869L78.990245,317.99665598685925L79.67311500000001,316.57211538461536L80.69742000000001,315.6387970172442L81.38029,316.8668482945516L82.06316,316.4247500071159L82.74603,316.4738717996157L83.4289,315.1475747823715L84.11177000000002,314.75459828743567L84.79464000000002,315.88440597974335L85.47751000000001,314.3616217924998L86.50181500000001,314.06688888256366L87.18468500000002,315.4423076923077L87.86755500000001,313.5265470101283L88.550425,313.91952350506415L89.23329500000001,316.52299359211554L89.916165,314.65635470243603L90.599035,313.7230341801277L91.28190500000001,312.937081190256L92.30621000000001,314.01776709006384L92.98908,314.4598653774995L94.35482000000002,314.01776709006384L96.40343000000001,315.4423076923077L97.08630000000001,313.13357051519245L98.110605,309.7932692307692L98.793475,309.35117094333356L99.47634500000001,309.2038034108969L100.84208500000001,306.7968248037192L101.524955,302.13022650205176L102.207825,299.330269245001L102.89069500000001,296.3338205080766L103.91500000000002,291.27424786641046L105.28074000000001,291.0286367489741L105.96361000000002,286.7550170971797L106.64648000000001,288.6216538319221L107.32935,286.80413673474237L108.01222000000001,285.0357435849997L108.69509000000001,281.6954444555136L110.402265,274.6709828743568L111.08513500000001,274.62186754666845L112.45087500000001,271.92015387461737L113.13374500000002,269.02194441281836L113.81661500000001,270.05351283000067L114.499485,267.0570640930763L115.52379000000002,264.8956966033349L116.20666000000001,260.4255811617925L117.57240000000002,260.3273418866671L118.25527000000001,260.62207695154046L118.93814,256.1028461823097L119.62101000000001,256.83967091487006L120.30388,252.46781198795026L121.328185,254.13795724281897L122.01105500000001,250.35555982589722L122.69392500000002,251.28888034820557L123.37679500000002,247.01526069641116L124.05966500000001,247.5555982589722L124.74253500000002,244.46091024692242L126.108275,241.75919657487137L127.13258,241.90655979743372L127.81545000000001,240.43290171256433L128.49832,240.38377776512735L129.18119000000002,240.03992737256564L129.86406,236.20840600820688L130.54693,235.96279489077054L131.2298,237.78031198795026L131.91267,234.19440174102786L133.619845,229.6751709717971L134.302715,235.4224487084609L135.668455,231.49268806897678L136.35132500000003,230.70673076923077L137.034195,225.84364960743832L137.71706500000002,229.03657689461343L138.74137000000002,228.59447860717776L139.42424000000003,226.48223506487332L140.78998,227.02257262743436L141.47285000000002,224.075247837947L142.15572000000003,223.2401752105126L142.83859,221.12792304845956L143.52146000000002,222.99456409307626L144.54576500000002,219.26129062359152L145.22863500000003,224.61559402025662L146.594375,216.6086922792288L147.27724500000002,218.4262093764085L147.960115,215.08591024692242L148.642985,219.11391878128055L149.32585500000002,215.1350341943594L150.35016000000002,213.7596153846154L151.03303,211.9420982874357L151.7159,213.61225216205304L153.08164,212.9736580848694L153.76451,208.9456495505113L154.44738,209.43687178538397L155.13025000000002,206.7842820607699L156.15455500000002,204.81940174102786L156.83742500000002,204.57379062359152L157.52029500000003,204.5246666761545L158.203165,202.01943155435416L158.88603500000002,201.28261544154242L159.56890500000003,200.0054272871751L160.251775,202.3141752389761L160.93464500000002,199.61245294717642L161.95895000000002,203.1492478664105L162.64182000000002,198.7773889394907L163.32469,195.14235474513129L164.00756,198.82650426717905L164.69043000000002,199.61245294717642L165.3733,195.48619651794436L166.05617,193.4721922507653L166.73904000000002,193.2757137005146L168.446215,196.81250000000003L169.129085,189.93540595127988L171.177695,191.0160983158992L171.860565,186.00564531179577L173.56774000000001,186.5459828743568L174.25061000000002,185.26881195948673L175.61635000000004,179.57065817025992L176.98209000000003,181.7811409876897L177.66496000000004,181.92850421025204L178.34783000000002,180.20924362769495L179.37213500000001,179.71802139282227L180.05500500000002,176.6233247610239L180.73787500000003,175.9356239759005L182.10361500000002,172.64443155435416L182.78648500000003,175.3952691738422L183.469355,171.02341886667105L184.15222500000002,173.57776069641113L185.85940000000002,170.33570084205041L186.54227,170.4339487369244L187.22514,171.46550853435812L187.90801000000002,169.54975216205307L188.59088,170.23745294717642L189.27375,167.14277355487533L189.95662000000002,171.51462386204648L191.663795,164.78491027538595L192.346665,165.71822217794568L193.71240500000002,163.85158113332898L194.39527500000003,162.7709060082069L195.76101500000001,164.6375470528236L196.78532,159.82357259897086L197.46819000000002,162.23056844564587L198.83393,157.5148418866671L199.51680000000002,160.0691837164072L200.19967000000003,154.91136748974142L201.56541,158.54640168410083L202.589715,158.2025426717905L203.27258500000002,151.32546586256763L203.95545500000003,155.79556406461276L205.32119500000002,153.78155979743372L206.00406500000003,153.24122223487268L206.686935,151.07985474513126L207.369805,153.4377007851234L208.39411,150.7851110605093L209.07698000000002,149.99916238051196L209.75985,151.7184402025663L210.44272,148.13252133589526L211.12559000000002,147.64129910102258L212.49133000000003,148.62374357076794L213.17420000000004,146.9044657487136L215.56424500000003,143.46592734410214L218.29572500000003,142.77822655897876L218.978595,148.8202393605159L220.68577000000002,142.72909399179312L221.36864000000003,140.56772650205173L222.05151,138.99581190255972L223.41725000000002,139.8308931497427L224.10012,135.80288461538464L224.78299,138.4554743399987L225.807295,133.29765811333291L226.49016500000002,134.96780336820163L228.53877500000002,137.0309402025663L229.221645,139.78177782205435L229.904515,135.2625470528236L230.587385,133.00293166820822L231.61169000000004,129.46614536872278L232.29456000000002,131.67662818615256L232.97743000000003,130.25209404872018L233.66030000000003,132.85556844564587L234.34317000000004,133.15029489077054L235.02604000000002,130.89067950615518L235.70891000000003,125.68373071230374L236.39178000000004,131.57838029127856L238.09895500000002,126.42056406461276L238.78182500000003,128.7293120164138L239.46469500000003,123.76797433999869L240.83043500000002,129.51526069641113L241.51330500000003,125.88022650205173L242.196175,126.0275897246141L243.22048,123.81710690718432L243.90335000000002,119.54347001589264L244.58622000000003,124.84866670461804L245.26909,123.375L246.63483000000002,125.29075637230508L247.3177,118.16806844564587L249.024875,117.72596153846155L249.70774500000005,121.6066068502573L250.39061500000003,115.81020516615649L251.75635500000004,117.23473930358887L252.43922500000002,115.76107259897088L253.12209500000003,115.2698503640982L253.80496500000004,122.04869651794434L254.82927000000004,110.99623071230377L255.51214000000002,111.58570084205041L256.19501,113.99267944922815L256.87788,114.9260085912851L257.56075000000004,113.59970510922943L258.24362,109.81730769230768L258.92649,113.35409399179315L259.60936000000004,113.40322655897876L260.633665,107.41032908512994L261.999405,108.88399578974798L262.682275,110.35764525486871L263.36514500000004,110.01380348205566L264.048015,106.37876928769623L265.41375500000004,107.60680763538068L266.43806000000006,103.48056844564587L267.12093000000004,100.09114536872278L268.48667000000006,105.10158113332898L269.85241,105.00335047795221L271.21815000000004,104.36476502051721L272.242455,104.11915390308087L272.925325,96.35786327948938L273.608195,98.6174786641048L274.291065,100.33673924666186L275.656805,107.90155132000262L276.339675,102.54723930358887L277.022545,98.17537175692047L278.04685,94.44210690718432L278.72972000000004,93.55789309281573L279.41259,94.34385901231036L280.09546,96.65258972461407L280.77833000000004,95.27717091487006L284.53411500000004,89.72638034820557L285.89985500000006,88.69482055077191L286.58272500000004,96.5052265020517L287.94846500000006,90.46321370051459L288.63133500000004,95.81750847743109L289.65564,86.14046148153449L290.33851,88.05623509333685L291.02138,84.47031622666577L291.70425,88.69482055077191L292.38712,88.54745732820953L293.06999,88.69482055077191L293.75286,89.67726502051721L294.43573,88.05623509333685L295.460035,82.25981616973877L297.508645,85.8948503640982L298.19151500000004,85.35451280153717L298.874385,88.00710252615124L299.557255,84.37206833179181L300.24012500000003,87.46676496359021L301.94730000000004,79.75460690718427L302.63017,77.24938040513257L303.31304000000006,81.1791410446167L303.99591000000004,79.85283756256104L304.67878,79.45986322256232L305.36165000000005,84.07734188666706L306.04452000000003,82.35806406461273L307.068825,76.5616623805119L307.751695,76.16868804051325L308.434565,77.93708119025592L309.117435,78.28094020256628L309.800305,80.78616670461798L310.483175,82.60367518204907L311.166045,83.14402998410736L311.848915,80.78616670461798L312.87322,75.9230769230769L314.23896,72.8283802912785L314.92183000000006,74.9406324533316L316.28757,77.7897179676936L317.65331000000003,76.16868804051325L319.36048500000004,74.20379910102253L320.0433550000001,71.05998714153583L320.72622500000006,74.89151712564319L321.40909500000004,76.5616623805119L322.0919650000001,74.74415390308087L322.77483500000005,75.62835047795221L323.45770500000003,73.76170943333551L324.48201,72.09154693896954L325.16488000000004,70.51964957897479L325.84775,70.61789747384876L326.53062,70.9617392466618L327.21349000000004,74.20379910102253L327.89636,71.69857259897083L328.57923,70.66701280153717L329.26210000000003,74.20379910102253L330.28640500000006,67.22847439692572L330.96927500000004,70.2249231338501L331.652145,67.52320084205036L332.33501500000006,70.71614536872272L333.01788500000004,71.01087181384747L333.700755,71.64945727128247L334.38362500000005,69.83193155435413L335.06649500000003,74.0564358784602L336.09080000000006,67.91617518204907L336.77367000000004,68.40739741692175L337.4565400000001,69.24247866410474L338.13941000000005,71.89506838871881L338.82228000000003,70.12667523897613L339.50515000000007,70.17579056666449L340.18802000000005,71.89506838871881L340.87089000000003,68.80037175692047L341.895195,66.63900426717902L343.260935,66.93373071230377L343.943805,67.27758972461407L345.309545,66.44250847743109L345.992415,70.02842734410211L346.67528500000003,69.88106412153974L347.69959000000006,65.263585457435L348.38246000000004,64.72324789487396L349.06533,66.196914599492L349.74820000000005,66.98286327948932L351.11394,67.22847439692572L351.79681000000005,66.34427782205432L353.503985,66.29514525486871L354.18685500000004,63.69168809744025L354.8697250000001,66.4916410446167L355.55259500000005,63.69168809744025L356.23546500000003,65.6074444697453L357.60120500000005,66.00041880974402L358.28407500000003,66.54075637230505L359.30838,63.347829085129945L359.99125000000004,66.14778203230634L361.35699,64.23202566000128L362.03986000000003,63.986414542565L362.72273,65.21447012974664L363.4056,65.36183335230902L364.08847000000003,64.72324789487396L365.79564500000004,65.21447012974664L366.478515,63.15133329538196L367.16138500000005,62.463632510258606L368.527125,64.9688590123103L369.20999500000005,64.57588467231159L370.91717,63.347829085129945L372.28291,63.00397007281964L372.96578000000005,63.64255553025464L373.64865000000003,61.43207271282489L375.01439000000005,65.21447012974664L375.69726,62.51274783794696L376.721565,62.66011106050934L378.087305,65.36183335230902L378.77017500000005,63.986414542565L379.45304500000003,64.37938888256366L380.135915,64.28114098768964L380.81878500000005,62.7583589553833L381.501655,62.463632510258606L382.52596000000005,61.088213700514586L383.89170000000007,61.972410275385926L385.25744000000003,63.78991875281696L386.62318000000005,64.08466243743896L388.330355,61.67768383026123L390.378965,63.78991875281696L391.06183500000003,63.93729921487659L392.42757500000005,61.874162380511905L393.1104450000001,61.03908113332892L394.13475000000005,60.351380348205566L394.81762000000003,61.088213700514586L395.50049,60.2531324533316L396.86623000000003,64.52675210512604L397.5491,63.69168809744025L398.23197000000005,63.544307635380676L398.91484,61.726799157949586L399.93914500000005,61.5303033682016L400.62201500000003,61.13732902820294L401.30488500000007,62.31626928769623L401.98775500000005,63.053085400507996L402.67062500000003,61.77591448563794L403.35349500000007,60.351380348205566L404.03636500000005,61.5303033682016L404.719235,61.62855126307562L406.42641000000003,60.69523936051587L407.10928,59.95840600820685L407.79215,59.71279489077057L408.47502000000003,59.860158113332886L409.15789,61.382940145639225L409.84076,60.8917179107666L410.5236300000001,61.13732902820294L411.54793500000005,60.351380348205566L412.23080500000003,61.03908113332892L412.913675,61.382940145639225L413.59654500000005,60.44962824307953L414.27941500000003,59.95840600820685L414.962285,62.51274783794696L415.64515500000005,61.28469225076526L416.328025,60.84260258307819L417.35233000000005,61.57943593538727L418.03520000000003,60.498743570767886L418.71807000000007,60.20401712564319L419.40094000000005,59.860158113332886L420.76668000000006,62.610995732820925L421.44955000000004,61.235576923076906L424.522465,60.40049567589392L425.205335,60.15488455845758L425.888205,62.7583589553833L426.571075,62.02152560307428L427.253945,60.84260258307819L427.936815,60.79347001589264L428.96112000000005,59.22157265589789L429.64399000000003,59.76191021845892L431.00973000000005,61.77591448563794L431.6926,61.481188040513246L432.37547,60.20401712564319L434.76551500000005,60.44962824307953L435.44838500000003,60.40049567589392L436.81412500000005,61.77591448563794L438.86273500000004,60.79347001589264L439.545605,61.03908113332892L440.56991,59.418068445645815L441.25278000000003,60.498743570767886L441.93565,60.302265020517154L442.61852000000005,59.6636623235849L443.30139,59.6636623235849L443.98426,61.33382481795087L444.66713000000004,61.235576923076906L445.35,61.481188040513246L446.37430500000005,60.105769230769226L447.74004500000007,59.56543166820819L448.42291500000005,59.6636623235849L449.105785,60.79347001589264L449.78865500000006,60.64610679333026L450.47152500000004,61.28469225076526L451.154395,61.481188040513246L452.17870000000005,59.46718377333417L453.54444000000007,59.0250768661499L454.22731000000005,59.76191021845892L454.9101800000001,59.860158113332886L455.59305000000006,60.351380348205566L460.03170500000004,59.71279489077057L461.397445,60.2531324533316L462.08031500000004,59.76191021845892L462.763185,60.8917179107666L463.78749000000005,60.007521335895206L464.47036,60.007521335895206L465.15323000000006,59.95840600820685L465.83610000000004,60.744354688204226L466.51897,60.15488455845758L467.20184000000006,58.877713643587526L467.88471000000004,60.54787613795355L468.56758,61.28469225076526L469.59188500000005,60.40049567589392L470.2747550000001,59.71279489077057L470.95762500000006,60.105769230769226L471.64049500000004,59.95840600820685L472.3233650000001,59.860158113332886L473.00623500000006,59.31982055077185L474.3719750000001,59.6636623235849L475.39628000000005,59.31982055077185L476.07915,59.516299101022526L477.44489000000004,58.77946574871356L478.12776,59.81104278564453L478.81063,60.302265020517154L479.49350000000004,60.498743570767886L480.17637,60.54787613795355L481.20067500000005,60.351380348205566L481.883545,59.76191021845892L482.56641500000006,60.105769230769226L483.24928500000004,61.82504705282355L483.932155,61.481188040513246L484.61502500000006,60.744354688204226L485.29789500000004,60.40049567589392L485.980765,59.614546995896546L487.00507000000005,59.27068798358624L487.6879400000001,60.15488455845758L488.37081000000006,59.07420943333551L489.05368000000004,60.105769230769226L489.7365500000001,59.860158113332886L490.41942000000006,59.31982055077185L491.10229000000004,59.123324761023866L492.80946500000005,59.418068445645815L493.492335,59.614546995896546L494.175205,58.926846210773135L494.85807500000004,59.614546995896546L495.540945,58.82859831589917L496.223815,59.31982055077185L496.90668500000004,59.56543166820819L497.589555,59.56543166820819L498.61386000000005,58.97596153846149L499.29673,58.632102526151186L499.97960000000006,59.56543166820819L500.66247000000004,58.58298719846283L501.34534,58.97596153846149L502.02821000000006,58.68123509333685L503.39395,60.15488455845758L504.418255,60.351380348205566L505.1011250000001,58.97596153846149L506.4668650000001,59.07420943333551L507.1497350000001,58.68123509333685L507.83260500000006,58.926846210773135L508.5154750000001,58.77946574871356L509.1983450000001,58.877713643587526L510.22265000000004,59.418068445645815L510.90552,58.77946574871356L511.58839000000006,59.07420943333551L512.27126,58.632102526151186L512.9541300000001,59.418068445645815L513.6370000000001,59.516299101022526L514.31987,59.27068798358624L516.027045,59.22157265589789L517.392785,59.31982055077185L518.0756550000001,59.56543166820819L518.7585250000001,60.2531324533316L520.807135,58.82859831589917L523.88005,59.90927344102124L524.5629200000001,59.22157265589789L525.24579,59.31982055077185L525.92866,59.17245732820953L526.61153,58.48473930358887L527.635835,58.632102526151186L528.318705,58.97596153846149L529.0015750000001,58.877713643587526L531.050185,59.27068798358624L531.733055,58.926846210773135L532.415925,58.3864914087149L533.44023,58.53385463127722L534.80597,58.3864914087149L535.4888400000001,58.435623975900455L536.17171,59.31982055077185L537.53745,58.73035042102521L538.22032,58.73035042102521L539.244625,57.99351706871619L539.9274950000001,58.33737608102649L540.610365,58.632102526151186L541.2932350000001,58.926846210773135L541.9761050000001,58.53385463127722L542.658975,58.58298719846283L543.341845,60.44962824307953L544.0247150000001,59.27068798358624L545.04902,58.632102526151186L545.7318900000001,58.877713643587526L546.41476,59.56543166820819L547.0976300000001,59.56543166820819L547.7805000000001,59.46718377333417L548.46337,59.614546995896546L550.853415,59.418068445645815L551.536285,59.56543166820819L552.2191550000001,59.46718377333417L552.902025,58.73035042102521L553.5848950000001,58.435623975900455L554.267765,58.58298719846283L554.950635,58.140880291278506L555.633505,58.73035042102521L556.65781,58.140880291278506L557.34068,59.0250768661499L558.0235500000001,58.19001285846417L558.70642,58.3864914087149L559.3892900000001,58.53385463127722L560.07216,58.53385463127722L561.4379,58.3864914087149L562.4622050000002,58.926846210773135L563.145075,58.58298719846283L563.8279450000001,58.632102526151186L564.5108150000001,58.82859831589917L565.1936850000001,58.23912818615253L565.876555,58.140880291278506L566.5594250000001,58.33737608102649L567.242295,58.23912818615253L568.2666,58.23912818615253L568.94947,58.58298719846283L569.63234,59.368935878460206L570.3152100000001,59.860158113332886L570.99808,59.0250768661499L571.68095,58.435623975900455L572.36382,58.632102526151186L573.04669,58.33737608102649L574.070995,58.33737608102649L574.7538650000001,58.3864914087149L575.436735,58.926846210773135L576.8024750000001,58.33737608102649L578.168215,58.53385463127722L579.87539,58.68123509333685L581.9240000000001,58.33737608102649L582.6068700000001,58.3864914087149L583.28974,58.58298719846283L583.97261,58.33737608102649L584.6554800000001,58.58298719846283L585.679785,58.97596153846149L586.362655,58.73035042102521L587.0455250000001,58.53385463127722L587.728395,59.31982055077185L588.4112650000001,59.95840600820685L589.094135,59.17245732820953L589.777005,59.368935878460206L590.459875,58.3864914087149L592.8499200000001,59.46718377333417L593.53279,58.926846210773135L594.2156600000001,58.68123509333685L595.5814,59.17245732820953L596.26427,59.860158113332886L597.288575,58.48473930358887L597.971445,58.435623975900455L598.654315,58.58298719846283L599.3371850000001,58.3864914087149L600.0200550000001,58.53385463127722L600.702925,58.435623975900455L601.3857950000001,58.53385463127722L603.09297,58.73035042102521L603.7758400000001,58.632102526151186L604.45871,59.123324761023866L605.1415800000001,59.27068798358624L605.8244500000001,58.435623975900455L607.19019,58.632102526151186L607.8730600000001,58.73035042102521L608.897365,58.82859831589917L609.5802350000001,61.18646159538855L610.263105,59.07420943333551L610.9459750000001,58.48473930358887L611.6288450000001,58.632102526151186L612.311715,57.94440174102783L612.994585,58.140880291278506L613.6774550000001,58.77946574871356L614.70176,58.33737608102649L615.38463,58.68123509333685L616.0675000000001,59.17245732820953L616.75037,58.435623975900455L618.11611,58.140880291278506L618.79898,58.33737608102649L619.4818500000001,58.288260753338136L620.506155,58.23912818615253L621.189025,58.48473930358887L621.8718950000001,58.77946574871356L622.554765,58.58298719846283L623.2376350000001,58.58298719846283L625.286245,58.23912818615253L626.3105500000001,57.99351706871619L627.6762900000001,57.99351706871619L628.3591600000001,58.042649635901796L629.0420300000001,58.33737608102649L629.7249,58.435623975900455L630.4077700000001,58.19001285846417L631.09064,58.140880291278506L632.797815,58.632102526151186L633.480685,58.288260753338136L634.1635550000001,58.140880291278506L634.846425,58.042649635901796L635.529295,58.3864914087149L636.212165,58.53385463127722L636.895035,58.33737608102649L637.91934,58.3864914087149L639.28508,58.33737608102649L639.9679500000001,58.3864914087149L640.6508200000001,57.94440174102783L641.33369,58.23912818615253L642.01656,58.23912818615253L642.6994300000001,58.82859831589917L643.723735,58.48473930358887L644.4066050000001,58.82859831589917L645.089475,58.632102526151186L645.7723450000001,58.58298719846283L646.4552150000001,58.58298719846283L647.138085,58.53385463127722L647.820955,58.73035042102521L648.5038250000001,59.614546995896546L649.52813,59.31982055077185L650.211,59.31982055077185L650.8938700000001,58.97596153846149L651.57674,59.27068798358624L652.2596100000001,59.22157265589789L652.94248,58.97596153846149L653.62535,58.435623975900455L654.30822,58.435623975900455L655.332525,58.58298719846283L656.6982650000001,57.99351706871619L657.381135,58.97596153846149L658.0640050000001,58.53385463127722L658.746875,58.288260753338136L659.429745,58.58298719846283L660.112615,59.368935878460206L661.1369200000001,58.68123509333685L661.81979,58.435623975900455L663.1855300000001,58.632102526151186L663.8684000000001,58.435623975900455L664.55127,58.140880291278506L665.2341400000001,58.140880291278506L665.91701,58.77946574871356L666.941315,58.435623975900455L668.307055,58.82859831589917L668.9899250000001,58.48473930358887L669.6727950000001,58.926846210773135L670.355665,58.435623975900455L671.7214050000001,59.0250768661499L672.74571,60.007521335895206L673.4285800000001,58.877713643587526L674.11145,58.77946574871356L675.4771900000001,58.68123509333685L676.16006,58.58298719846283L676.84293,58.33737608102649L677.5258000000001,58.73035042102521L678.550105,58.288260753338136L679.2329750000001,58.042649635901796L679.9158450000001,58.23912818615253L680.5987150000001,57.94440174102783L681.2815850000001,57.99351706871619L681.9644550000002,57.89526917384222L682.647325,58.042649635901796L683.3301950000001,57.94440174102783L684.3545,58.09176496359015L685.7202400000001,58.19001285846417L686.40311,58.09176496359015L687.76885,58.58298719846283L688.45172,58.23912818615253L689.13459,58.435623975900455L690.1588950000001,59.90927344102124L691.5246350000001,58.68123509333685L692.2075050000001,58.3864914087149L692.8903750000001,58.435623975900455L693.573245,57.99351706871619L694.938985,57.89526917384222L696.64616,58.042649635901796L698.0119000000001,57.89526917384222L698.6947700000001,57.94440174102783L699.37764,57.89526917384222L700.0605100000001,58.09176496359015L700.74338,58.09176496359015L703.8162950000001,58.09176496359015L704.4991650000001,58.042649635901796L705.182035,57.94440174102783L705.864905,58.042649635901796L706.5477750000001,58.23912818615253L708.2549500000001,57.94440174102783L708.93782,58.042649635901796L709.6206900000001,58.19001285846417L710.3035600000001,58.23912818615253L710.98643,58.48473930358887L711.6693,58.19001285846417L712.3521700000001,58.140880291278506L713.376475,58.140880291278506L714.0593450000001,57.94440174102783L714.7422150000001,57.84615384615387L716.1079550000001,58.58298719846283L716.7908250000002,58.288260753338136L717.473695,58.3864914087149L718.1565650000001,58.58298719846283L719.18087,58.288260753338136L719.86374,58.23912818615253L720.5466100000001,58.73035042102521L721.22948,58.77946574871356L721.9123500000001,58.877713643587526L722.59522,58.68123509333685L723.27809,58.3864914087149L723.96096,58.53385463127722L724.9852650000001,58.19001285846417L725.668135,58.19001285846417L726.3510050000001,58.19001285846417L727.0338750000001,58.19001285846417L727.7167450000001,58.042649635901796L729.0824850000001,58.33737608102649L729.765355,58.3864914087149L730.78966,57.94440174102783L731.4725300000001,58.48473930358887L732.1554000000001,58.19001285846417L732.8382700000001,58.73035042102521L733.5211400000002,58.73035042102521L734.20401,58.632102526151186L734.8868800000001,58.82859831589917L735.5697500000001,58.33737608102649L736.594055,58.77946574871356L737.2769250000001,59.0250768661499L738.6426650000001,58.288260753338136L739.3255350000001,59.07420943333551L740.008405,59.368935878460206L740.691275,58.97596153846149L742.39845,58.23912818615253L743.0813200000001,58.19001285846417L743.7641900000001,58.53385463127722L744.4470600000001,57.94440174102783L745.1299300000001,58.042649635901796L745.8128000000002,58.23912818615253L747.1785400000001,58.3864914087149L748.202845,58.435623975900455L749.5685850000001,58.58298719846283L750.251455,58.288260753338136L750.9343250000001,58.97596153846149L751.6171950000002,58.53385463127722L752.300065,58.77946574871356L752.9829350000001,58.77946574871356L754.69011,58.77946574871356L756.0558500000001,58.77946574871356L757.42159,58.632102526151186L758.1044600000001,58.82859831589917L758.78733,58.33737608102649L759.8116350000001,57.94440174102783L760.494505,58.53385463127722L761.8602450000001,57.89526917384222L762.5431150000001,58.140880291278506L763.225985,58.288260753338136L764.591725,58.3864914087149L765.61603,58.632102526151186L766.2989000000001,58.042649635901796L766.98177,58.09176496359015L768.34751,58.23912818615253L769.03038,58.48473930358887L769.7132500000001,58.33737608102649L770.3961200000001,58.288260753338136L771.420425,58.19001285846417L772.1032950000001,58.33737608102649L772.786165,58.33737608102649L773.4690350000001,57.94440174102783L774.151905,58.042649635901796L774.834775,58.33737608102649L775.517645,57.94440174102783L776.2005150000001,58.09176496359015L777.9076900000001,58.877713643587526L779.2734300000001,58.288260753338136L779.9563,58.09176496359015L781.32204,58.09176496359015L782.0049100000001,57.99351706871619L783.029215,57.89526917384222L783.712085,57.99351706871619L784.3949550000001,58.09176496359015L785.077825,58.042649635901796L785.760695,57.89526917384222L786.443565,57.89526917384222L787.126435,58.140880291278506L787.809305,58.58298719846283L788.8336100000001,58.33737608102649L789.51648,58.09176496359015L790.8822200000001,58.3864914087149L791.56509,58.09176496359015L792.24796,58.33737608102649L792.9308300000001,58.140880291278506L793.6137,58.435623975900455L794.6380050000001,58.33737608102649L796.0037450000001,57.89526917384222L797.3694850000002,58.042649635901796L798.052355,57.94440174102783L799.4180950000001,57.84615384615387L800.4424,57.84615384615387L801.1252700000001,57.84615384615387L801.80814,57.84615384615387L802.4910100000001,57.84615384615387L803.17388,57.84615384615387L803.85675,57.84615384615387L805.2224900000001,57.94440174102783L806.246795,58.58298719846283L806.9296650000001,58.33737608102649L808.2954050000001,58.042649635901796L808.978275,57.94440174102783L809.6611450000001,57.99351706871619L810.344015,57.94440174102783L812.05119,57.89526917384222L812.7340600000001,57.94440174102783L813.4169300000001,57.94440174102783L814.0998000000001,58.19001285846417L815.4655400000001,58.19001285846417L816.14841,58.435623975900455L816.8312800000001,58.19001285846417L817.8555850000001,58.19001285846417L818.538455,58.288260753338136L819.2213250000001,58.53385463127722L819.9041950000001,59.123324761023866L821.269935,58.632102526151186L821.9528050000001,58.632102526151186L822.635675,58.140880291278506L823.6599800000001,57.89526917384222L824.34285,57.89526917384222L825.0257200000001,58.09176496359015L825.7085900000001,60.2531324533316L826.39146,58.97596153846149L827.07433,58.33737608102649L827.7572000000001,58.73035042102521L828.44007,58.53385463127722L829.4643750000001,58.3864914087149L830.1472450000001,58.53385463127722L830.8301150000001,58.632102526151186L831.5129850000001,58.435623975900455L832.1958550000002,58.19001285846417L832.878725,58.68123509333685L834.2444650000001,58.33737608102649L835.26877,58.09176496359015L835.9516400000001,57.84615384615387L836.63451,57.94440174102783L837.3173800000001,58.23912818615253L838.00025,58.33737608102649L839.36599,58.632102526151186L840.0488600000001,58.288260753338136L841.073165,58.33737608102649L841.7560350000001,58.288260753338136L842.4389050000001,58.19001285846417L845.170385,58.19001285846417L845.8532550000001,58.19001285846417L846.87756,58.140880291278506L847.5604300000001,57.94440174102783L848.2433000000001,58.140880291278506L848.9261700000001,58.042649635901796L849.60904,57.89526917384222L850.2919100000001,57.94440174102783L850.97478,57.94440174102783L851.6576500000001,57.94440174102783L852.6819550000001,57.99351706871619L853.364825,57.89526917384222L854.0476950000001,57.94440174102783L854.7305650000001,58.09176496359015L855.413435,58.140880291278506L856.096305,57.94440174102783L856.7791750000001,58.3864914087149L857.462045,58.288260753338136L858.4863500000001,58.288260753338136L859.1692200000001,57.89526917384222L859.8520900000001,58.042649635901796L860.5349600000001,57.99351706871619L861.2178300000002,58.288260753338136L861.9007,58.09176496359015L862.5835700000001,58.33737608102649L864.2907450000001,58.48473930358887L865.6564850000001,58.23912818615253L866.3393550000001,58.140880291278506L867.0222250000002,58.042649635901796L867.705095,57.99351706871619L868.3879650000001,57.94440174102783L870.09514,58.09176496359015L871.4608800000001,57.99351706871619L872.1437500000001,57.94440174102783L872.82662,57.94440174102783L873.5094900000001,57.94440174102783L874.8752300000001,57.99351706871619L875.899535,57.84615384615387L876.5824050000001,57.89526917384222L877.2652750000001,57.84615384615387L877.9481450000001,57.84615384615387L879.3138850000001,57.84615384615387L879.996755,57.84615384615387L880.6796250000001,57.84615384615387L881.7039300000001,57.84615384615387L883.0696700000001,57.84615384615387L883.7525400000002,57.84615384615387L884.43541,57.99351706871619L886.4840200000001,57.84615384615387L887.5083250000001,57.89526917384222L888.191195,57.84615384615387L888.8740650000001,57.94440174102783L889.5569350000001,57.94440174102783L890.239805,58.042649635901796L890.922675,57.84615384615387L891.6055450000001,57.84615384615387L892.288415,57.89526917384222L893.3127200000001,57.84615384615387L893.9955900000001,57.84615384615387L894.6784600000001,57.84615384615387L895.3613300000001,57.84615384615387L896.72707,57.84615384615387L897.4099400000001,57.84615384615387L898.0928100000001,57.84615384615387L899.7999850000001,58.042649635901796L900.482855,57.84615384615387L901.1657250000001,57.99351706871619L901.848595,58.042649635901796L902.531465,57.84615384615387L903.2143350000001,57.89526917384222L903.8972050000001,58.09176496359015L904.92151,57.84615384615387L905.6043800000001,57.94440174102783L906.2872500000001,58.288260753338136L906.9701200000001,58.77946574871356L908.3358600000001,59.22157265589789L909.01873,58.632102526151186L909.7016000000001,58.82859831589917L910.725905,58.3864914087149L911.4087750000001,58.33737608102649L912.0916450000001,59.22157265589789L912.7745150000001,58.19001285846417L913.457385,58.435623975900455L914.1402550000001,58.33737608102649L914.823125,58.632102526151186L915.5059950000001,58.435623975900455L916.5303000000001,58.23912818615253L917.21317,58.140880291278506L917.8960400000001,57.89526917384222L919.26178,58.09176496359015L919.94465,58.632102526151186L920.6275200000001,58.042649635901796L921.3103900000001,58.632102526151186L922.3346950000001,58.3864914087149L923.0175650000001,58.48473930358887L923.7004350000001,59.614546995896546L926.4319150000001,57.89526917384222L927.1147850000001,58.042649635901796L928.1390900000001,58.288260753338136L928.8219600000001,58.23912818615253L930.1877000000001,58.19001285846417L930.8705700000002,58.33737608102649L931.55344,58.58298719846283L932.2363100000001,58.09176496359015L932.9191800000001,58.33737608102649L934.6263550000001,58.09176496359015L935.3092250000001,58.09176496359015L935.9920950000001,58.288260753338136L936.674965,57.89526917384222L937.3578350000001,57.89526917384222L938.040705,57.94440174102783L938.7235750000001,57.89526917384222L939.74788,57.94440174102783L940.4307500000001,57.94440174102783L941.1136200000001,57.99351706871619L941.7964900000001,57.89526917384222L942.47936,57.89526917384222L943.1622300000001,57.84615384615387L943.8451,57.84615384615387L944.5279700000001,57.89526917384222" style="fill: none;" fill="none"></path></g></g></g></g></g><g><g opacity="0.0133374"><span fill="rgb(0, 0, 0)" stroke="none" stroke-width="1px">Alt + Scroll to Zoom</span></g></g></g><g transform="translate(52, 376)" clip-path="url(#clip_1)"><clipPath id="clip_1"><rect width="1039" height="24"></rect></clipPath><g><g><line x1="0" y1="0" x2="0" y2="5" style="visibility: inherit;" fill="rgb(0, 0, 0)" stroke="rgb(204, 204, 204)" stroke-width="1px"></line><line x1="74.22500000000001" y1="0" x2="74.22500000000001" y2="5" style="visibility: inherit;" fill="rgb(0, 0, 0)" stroke="rgb(204, 204, 204)" stroke-width="1px"></line><line x1="148.45000000000002" y1="0" x2="148.45000000000002" y2="5" style="visibility: inherit;" fill="rgb(0, 0, 0)" stroke="rgb(204, 204, 204)" stroke-width="1px"></line><line x1="222.675" y1="0" x2="222.675" y2="5" style="visibility: inherit;" fill="rgb(0, 0, 0)" stroke="rgb(204, 204, 204)" stroke-width="1px"></line><line x1="296.90000000000003" y1="0" x2="296.90000000000003" y2="5" style="visibility: inherit;" fill="rgb(0, 0, 0)" stroke="rgb(204, 204, 204)" stroke-width="1px"></line><line x1="371.12500000000006" y1="0" x2="371.12500000000006" y2="5" style="visibility: inherit;" fill="rgb(0, 0, 0)" stroke="rgb(204, 204, 204)" stroke-width="1px"></line><line x1="445.35" y1="0" x2="445.35" y2="5" style="visibility: inherit;" fill="rgb(0, 0, 0)" stroke="rgb(204, 204, 204)" stroke-width="1px"></line><line x1="519.575" y1="0" x2="519.575" y2="5" style="visibility: inherit;" fill="rgb(0, 0, 0)" stroke="rgb(204, 204, 204)" stroke-width="1px"></line><line x1="593.8000000000001" y1="0" x2="593.8000000000001" y2="5" style="visibility: inherit;" fill="rgb(0, 0, 0)" stroke="rgb(204, 204, 204)" stroke-width="1px"></line><line x1="668.0250000000001" y1="0" x2="668.0250000000001" y2="5" style="visibility: inherit;" fill="rgb(0, 0, 0)" stroke="rgb(204, 204, 204)" stroke-width="1px"></line><line x1="742.2500000000001" y1="0" x2="742.2500000000001" y2="5" style="visibility: inherit;" fill="rgb(0, 0, 0)" stroke="rgb(204, 204, 204)" stroke-width="1px"></line><line x1="816.475" y1="0" x2="816.475" y2="5" style="visibility: inherit;" fill="rgb(0, 0, 0)" stroke="rgb(204, 204, 204)" stroke-width="1px"></line><line x1="890.7" y1="0" x2="890.7" y2="5" style="visibility: inherit;" fill="rgb(0, 0, 0)" stroke="rgb(204, 204, 204)" stroke-width="1px"></line><line x1="964.9250000000001" y1="0" x2="964.9250000000001" y2="5" style="visibility: inherit;" fill="rgb(0, 0, 0)" stroke="rgb(204, 204, 204)" stroke-width="1px"></line><line x1="1039.15" y1="0" x2="1039.15" y2="5" style="visibility: inherit;" fill="rgb(0, 0, 0)" stroke="rgb(204, 204, 204)" stroke-width="1px"></line></g><g transform="translate(0, 8)"><text x="0" y="0" dx="0em" dy="0.95em" style="text-anchor: middle; visibility: hidden; font-family: &quot;Helvetica Neue&quot;, sans-serif; font-size: 12px; font-weight: 200;" fill="rgb(50, 49, 63)" stroke="none" stroke-width="1px">-5k</text><text x="74.22500000000001" y="0" dx="0em" dy="0.95em" style="text-anchor: middle; visibility: inherit; font-family: &quot;Helvetica Neue&quot;, sans-serif; font-size: 12px; font-weight: 200;" fill="rgb(50, 49, 63)" stroke="none" stroke-width="1px">0</text><text x="148.45000000000002" y="0" dx="0em" dy="0.95em" style="text-anchor: middle; visibility: inherit; font-family: &quot;Helvetica Neue&quot;, sans-serif; font-size: 12px; font-weight: 200;" fill="rgb(50, 49, 63)" stroke="none" stroke-width="1px">5k</text><text x="222.675" y="0" dx="0em" dy="0.95em" style="text-anchor: middle; visibility: inherit; font-family: &quot;Helvetica Neue&quot;, sans-serif; font-size: 12px; font-weight: 200;" fill="rgb(50, 49, 63)" stroke="none" stroke-width="1px">10k</text><text x="296.90000000000003" y="0" dx="0em" dy="0.95em" style="text-anchor: middle; visibility: inherit; font-family: &quot;Helvetica Neue&quot;, sans-serif; font-size: 12px; font-weight: 200;" fill="rgb(50, 49, 63)" stroke="none" stroke-width="1px">15k</text><text x="371.12500000000006" y="0" dx="0em" dy="0.95em" style="text-anchor: middle; visibility: inherit; font-family: &quot;Helvetica Neue&quot;, sans-serif; font-size: 12px; font-weight: 200;" fill="rgb(50, 49, 63)" stroke="none" stroke-width="1px">20k</text><text x="445.35" y="0" dx="0em" dy="0.95em" style="text-anchor: middle; visibility: inherit; font-family: &quot;Helvetica Neue&quot;, sans-serif; font-size: 12px; font-weight: 200;" fill="rgb(50, 49, 63)" stroke="none" stroke-width="1px">25k</text><text x="519.575" y="0" dx="0em" dy="0.95em" style="text-anchor: middle; visibility: inherit; font-family: &quot;Helvetica Neue&quot;, sans-serif; font-size: 12px; font-weight: 200;" fill="rgb(50, 49, 63)" stroke="none" stroke-width="1px">30k</text><text x="593.8000000000001" y="0" dx="0em" dy="0.95em" style="text-anchor: middle; visibility: inherit; font-family: &quot;Helvetica Neue&quot;, sans-serif; font-size: 12px; font-weight: 200;" fill="rgb(50, 49, 63)" stroke="none" stroke-width="1px">35k</text><text x="668.0250000000001" y="0" dx="0em" dy="0.95em" style="text-anchor: middle; visibility: inherit; font-family: &quot;Helvetica Neue&quot;, sans-serif; font-size: 12px; font-weight: 200;" fill="rgb(50, 49, 63)" stroke="none" stroke-width="1px">40k</text><text x="742.2500000000001" y="0" dx="0em" dy="0.95em" style="text-anchor: middle; visibility: inherit; font-family: &quot;Helvetica Neue&quot;, sans-serif; font-size: 12px; font-weight: 200;" fill="rgb(50, 49, 63)" stroke="none" stroke-width="1px">45k</text><text x="816.475" y="0" dx="0em" dy="0.95em" style="text-anchor: middle; visibility: inherit; font-family: &quot;Helvetica Neue&quot;, sans-serif; font-size: 12px; font-weight: 200;" fill="rgb(50, 49, 63)" stroke="none" stroke-width="1px">50k</text><text x="890.7" y="0" dx="0em" dy="0.95em" style="text-anchor: middle; visibility: inherit; font-family: &quot;Helvetica Neue&quot;, sans-serif; font-size: 12px; font-weight: 200;" fill="rgb(50, 49, 63)" stroke="none" stroke-width="1px">55k</text><text x="964.9250000000001" y="0" dx="0em" dy="0.95em" style="text-anchor: middle; visibility: inherit; font-family: &quot;Helvetica Neue&quot;, sans-serif; font-size: 12px; font-weight: 200;" fill="rgb(50, 49, 63)" stroke="none" stroke-width="1px">60k</text><text x="1039.15" y="0" dx="0em" dy="0.95em" style="text-anchor: middle; visibility: hidden; font-family: &quot;Helvetica Neue&quot;, sans-serif; font-size: 12px; font-weight: 200;" fill="rgb(50, 49, 63)" stroke="none" stroke-width="1px">65k</text></g><line x1="0" y1="0" x2="1039.15" y2="0" fill="rgb(0, 0, 0)" stroke="rgb(204, 204, 204)" stroke-width="1px"></line></g></g></g></g></svg>