<svg viewBox="0 0 1091.4000244140625 400" xmlns="http://www.w3.org/2000/svg"><g><g><g><g><g><line x1="52.25" y1="376" x2="47.25" y2="376" style="visibility: inherit;" fill="rgb(0, 0, 0)" stroke="rgb(204, 204, 204)" stroke-width="1px"></line><line x1="52.25" y1="344.6666666666667" x2="47.25" y2="344.6666666666667" style="visibility: inherit;" fill="rgb(0, 0, 0)" stroke="rgb(204, 204, 204)" stroke-width="1px"></line><line x1="52.25" y1="313.3333333333333" x2="47.25" y2="313.3333333333333" style="visibility: inherit;" fill="rgb(0, 0, 0)" stroke="rgb(204, 204, 204)" stroke-width="1px"></line><line x1="52.25" y1="282" x2="47.25" y2="282" style="visibility: inherit;" fill="rgb(0, 0, 0)" stroke="rgb(204, 204, 204)" stroke-width="1px"></line><line x1="52.25" y1="250.66666666666669" x2="47.25" y2="250.66666666666669" style="visibility: inherit;" fill="rgb(0, 0, 0)" stroke="rgb(204, 204, 204)" stroke-width="1px"></line><line x1="52.25" y1="219.33333333333334" x2="47.25" y2="219.33333333333334" style="visibility: inherit;" fill="rgb(0, 0, 0)" stroke="rgb(204, 204, 204)" stroke-width="1px"></line><line x1="52.25" y1="188.00000000000003" x2="47.25" y2="188.00000000000003" style="visibility: inherit;" fill="rgb(0, 0, 0)" stroke="rgb(204, 204, 204)" stroke-width="1px"></line><line x1="52.25" y1="156.66666666666669" x2="47.25" y2="156.66666666666669" style="visibility: inherit;" fill="rgb(0, 0, 0)" stroke="rgb(204, 204, 204)" stroke-width="1px"></line><line x1="52.25" y1="125.3333333333334" x2="47.25" y2="125.3333333333334" style="visibility: inherit;" fill="rgb(0, 0, 0)" stroke="rgb(204, 204, 204)" stroke-width="1px"></line><line x1="52.25" y1="94.00000000000006" x2="47.25" y2="94.00000000000006" style="visibility: inherit;" fill="rgb(0, 0, 0)" stroke="rgb(204, 204, 204)" stroke-width="1px"></line><line x1="52.25" y1="62.666666666666686" x2="47.25" y2="62.666666666666686" style="visibility: inherit;" fill="rgb(0, 0, 0)" stroke="rgb(204, 204, 204)" stroke-width="1px"></line><line x1="52.25" y1="31.33333333333337" x2="47.25" y2="31.33333333333337" style="visibility: inherit;" fill="rgb(0, 0, 0)" stroke="rgb(204, 204, 204)" stroke-width="1px"></line><line x1="52.25" y1="0" x2="47.25" y2="0" style="visibility: inherit;" fill="rgb(0, 0, 0)" stroke="rgb(204, 204, 204)" stroke-width="1px"></line></g><g transform="translate(42.25, 0)"><text x="0" y="376" dx="0em" dy="0.3em" style="text-anchor: end; visibility: hidden; font-family: &quot;Helvetica Neue&quot;, sans-serif; font-size: 12px; font-weight: 200;" fill="rgb(50, 49, 63)" stroke="none" stroke-width="1px">-0.2</text><text x="0" y="344.6666666666667" dx="0em" dy="0.3em" style="text-anchor: end; visibility: inherit; font-family: &quot;Helvetica Neue&quot;, sans-serif; font-size: 12px; font-weight: 200;" fill="rgb(50, 49, 63)" stroke="none" stroke-width="1px">0</text><text x="0" y="313.3333333333333" dx="0em" dy="0.3em" style="text-anchor: end; visibility: inherit; font-family: &quot;Helvetica Neue&quot;, sans-serif; font-size: 12px; font-weight: 200;" fill="rgb(50, 49, 63)" stroke="none" stroke-width="1px">0.2</text><text x="0" y="282" dx="0em" dy="0.3em" style="text-anchor: end; visibility: inherit; font-family: &quot;Helvetica Neue&quot;, sans-serif; font-size: 12px; font-weight: 200;" fill="rgb(50, 49, 63)" stroke="none" stroke-width="1px">0.4</text><text x="0" y="250.66666666666669" dx="0em" dy="0.3em" style="text-anchor: end; visibility: inherit; font-family: &quot;Helvetica Neue&quot;, sans-serif; font-size: 12px; font-weight: 200;" fill="rgb(50, 49, 63)" stroke="none" stroke-width="1px">0.6</text><text x="0" y="219.33333333333334" dx="0em" dy="0.3em" style="text-anchor: end; visibility: inherit; font-family: &quot;Helvetica Neue&quot;, sans-serif; font-size: 12px; font-weight: 200;" fill="rgb(50, 49, 63)" stroke="none" stroke-width="1px">0.8</text><text x="0" y="188.00000000000003" dx="0em" dy="0.3em" style="text-anchor: end; visibility: inherit; font-family: &quot;Helvetica Neue&quot;, sans-serif; font-size: 12px; font-weight: 200;" fill="rgb(50, 49, 63)" stroke="none" stroke-width="1px">1</text><text x="0" y="156.66666666666669" dx="0em" dy="0.3em" style="text-anchor: end; visibility: inherit; font-family: &quot;Helvetica Neue&quot;, sans-serif; font-size: 12px; font-weight: 200;" fill="rgb(50, 49, 63)" stroke="none" stroke-width="1px">1.2</text><text x="0" y="125.3333333333334" dx="0em" dy="0.3em" style="text-anchor: end; visibility: inherit; font-family: &quot;Helvetica Neue&quot;, sans-serif; font-size: 12px; font-weight: 200;" fill="rgb(50, 49, 63)" stroke="none" stroke-width="1px">1.4</text><text x="0" y="94.00000000000006" dx="0em" dy="0.3em" style="text-anchor: end; visibility: inherit; font-family: &quot;Helvetica Neue&quot;, sans-serif; font-size: 12px; font-weight: 200;" fill="rgb(50, 49, 63)" stroke="none" stroke-width="1px">1.6</text><text x="0" y="62.666666666666686" dx="0em" dy="0.3em" style="text-anchor: end; visibility: inherit; font-family: &quot;Helvetica Neue&quot;, sans-serif; font-size: 12px; font-weight: 200;" fill="rgb(50, 49, 63)" stroke="none" stroke-width="1px">1.8</text><text x="0" y="31.33333333333337" dx="0em" dy="0.3em" style="text-anchor: end; visibility: inherit; font-family: &quot;Helvetica Neue&quot;, sans-serif; font-size: 12px; font-weight: 200;" fill="rgb(50, 49, 63)" stroke="none" stroke-width="1px">2</text><text x="0" y="0" dx="0em" dy="0.3em" style="text-anchor: end; visibility: hidden; font-family: &quot;Helvetica Neue&quot;, sans-serif; font-size: 12px; font-weight: 200;" fill="rgb(50, 49, 63)" stroke="none" stroke-width="1px">2.2</text></g><line x1="52.25" y1="0" x2="52.25" y2="376" fill="rgb(0, 0, 0)" stroke="rgb(204, 204, 204)" stroke-width="1px"></line></g></g><g transform="translate(52, 0)" clip-path="url(#clip_0)"><clipPath id="clip_0"><rect width="1039" height="376"></rect></clipPath><g><g><g><line x1="0" y1="0" x2="0" y2="376" fill="rgb(0, 0, 0)" stroke="rgb(60, 60, 60)" stroke-width="1px" opacity="0.25"></line><line x1="74.22500000000001" y1="0" x2="74.22500000000001" y2="376" fill="rgb(0, 0, 0)" stroke="rgb(60, 60, 60)" stroke-width="1px" opacity="0.25"></line><line x1="148.45000000000002" y1="0" x2="148.45000000000002" y2="376" fill="rgb(0, 0, 0)" stroke="rgb(60, 60, 60)" stroke-width="1px" opacity="0.25"></line><line x1="222.675" y1="0" x2="222.675" y2="376" fill="rgb(0, 0, 0)" stroke="rgb(60, 60, 60)" stroke-width="1px" opacity="0.25"></line><line x1="296.90000000000003" y1="0" x2="296.90000000000003" y2="376" fill="rgb(0, 0, 0)" stroke="rgb(60, 60, 60)" stroke-width="1px" opacity="0.25"></line><line x1="371.12500000000006" y1="0" x2="371.12500000000006" y2="376" fill="rgb(0, 0, 0)" stroke="rgb(60, 60, 60)" stroke-width="1px" opacity="0.25"></line><line x1="445.35" y1="0" x2="445.35" y2="376" fill="rgb(0, 0, 0)" stroke="rgb(60, 60, 60)" stroke-width="1px" opacity="0.25"></line><line x1="519.575" y1="0" x2="519.575" y2="376" fill="rgb(0, 0, 0)" stroke="rgb(60, 60, 60)" stroke-width="1px" opacity="0.25"></line><line x1="593.8000000000001" y1="0" x2="593.8000000000001" y2="376" fill="rgb(0, 0, 0)" stroke="rgb(60, 60, 60)" stroke-width="1px" opacity="0.25"></line><line x1="668.0250000000001" y1="0" x2="668.0250000000001" y2="376" fill="rgb(0, 0, 0)" stroke="rgb(60, 60, 60)" stroke-width="1px" opacity="0.25"></line><line x1="742.2500000000001" y1="0" x2="742.2500000000001" y2="376" fill="rgb(0, 0, 0)" stroke="rgb(60, 60, 60)" stroke-width="1px" opacity="0.25"></line><line x1="816.475" y1="0" x2="816.475" y2="376" fill="rgb(0, 0, 0)" stroke="rgb(60, 60, 60)" stroke-width="1px" opacity="0.25"></line><line x1="890.7" y1="0" x2="890.7" y2="376" fill="rgb(0, 0, 0)" stroke="rgb(60, 60, 60)" stroke-width="1px" opacity="0.25"></line><line x1="964.9250000000001" y1="0" x2="964.9250000000001" y2="376" fill="rgb(0, 0, 0)" stroke="rgb(60, 60, 60)" stroke-width="1px" opacity="0.25"></line><line x1="1039.15" y1="0" x2="1039.15" y2="376" fill="rgb(0, 0, 0)" stroke="rgb(60, 60, 60)" stroke-width="1px" opacity="0.25"></line></g><g><line x1="0" y1="376" x2="1039.15" y2="376" fill="rgb(0, 0, 0)" stroke="rgb(60, 60, 60)" stroke-width="1px" opacity="0.25"></line><line x1="0" y1="344.6666666666667" x2="1039.15" y2="344.6666666666667" fill="rgb(0, 0, 0)" stroke="rgb(60, 60, 60)" stroke-width="1px" opacity="0.25"></line><line x1="0" y1="313.3333333333333" x2="1039.15" y2="313.3333333333333" fill="rgb(0, 0, 0)" stroke="rgb(60, 60, 60)" stroke-width="1px" opacity="0.25"></line><line x1="0" y1="282" x2="1039.15" y2="282" fill="rgb(0, 0, 0)" stroke="rgb(60, 60, 60)" stroke-width="1px" opacity="0.25"></line><line x1="0" y1="250.66666666666669" x2="1039.15" y2="250.66666666666669" fill="rgb(0, 0, 0)" stroke="rgb(60, 60, 60)" stroke-width="1px" opacity="0.25"></line><line x1="0" y1="219.33333333333334" x2="1039.15" y2="219.33333333333334" fill="rgb(0, 0, 0)" stroke="rgb(60, 60, 60)" stroke-width="1px" opacity="0.25"></line><line x1="0" y1="188.00000000000003" x2="1039.15" y2="188.00000000000003" fill="rgb(0, 0, 0)" stroke="rgb(60, 60, 60)" stroke-width="1px" opacity="0.25"></line><line x1="0" y1="156.66666666666669" x2="1039.15" y2="156.66666666666669" fill="rgb(0, 0, 0)" stroke="rgb(60, 60, 60)" stroke-width="1px" opacity="0.25"></line><line x1="0" y1="125.3333333333334" x2="1039.15" y2="125.3333333333334" fill="rgb(0, 0, 0)" stroke="rgb(60, 60, 60)" stroke-width="1px" opacity="0.25"></line><line x1="0" y1="94.00000000000006" x2="1039.15" y2="94.00000000000006" fill="rgb(0, 0, 0)" stroke="rgb(60, 60, 60)" stroke-width="1px" opacity="0.25"></line><line x1="0" y1="62.666666666666686" x2="1039.15" y2="62.666666666666686" fill="rgb(0, 0, 0)" stroke="rgb(60, 60, 60)" stroke-width="1px" opacity="0.25"></line><line x1="0" y1="31.33333333333337" x2="1039.15" y2="31.33333333333337" fill="rgb(0, 0, 0)" stroke="rgb(60, 60, 60)" stroke-width="1px" opacity="0.25"></line><line x1="0" y1="0" x2="1039.15" y2="0" fill="rgb(0, 0, 0)" stroke="rgb(60, 60, 60)" stroke-width="1px" opacity="0.25"></line></g></g></g><g><g><line x1="0" y1="344.6666666666667" x2="1039.15" y2="344.6666666666667" fill="rgb(0, 0, 0)" stroke="rgb(153, 153, 153)" stroke-width="1.5px"></line></g></g><g><g><line x1="74.22500000000001" y1="0" x2="74.22500000000001" y2="376" fill="rgb(0, 0, 0)" stroke="rgb(153, 153, 153)" stroke-width="1.5px"></line></g></g><g><g><g><g><g><path stroke="rgb(255, 112, 67)" stroke-width="2px" d="M103.91500000000002,-2.025697785376053L105.28074000000001,3.32260711280054L105.96361000000002,7.992137472644572L106.64648000000001,12.898998271256744L107.32935,17.316556183899763L108.01222000000001,20.60375245557873L108.69509000000001,24.689788886089048L110.402265,31.082408662641114L111.08513500000001,35.39980206376049L112.45087500000001,39.31793108939894L113.13374500000002,43.22845892565226L113.81661500000001,45.48623586782065L114.499485,48.14047624928702L115.52379000000002,51.821257445872675L116.20666000000001,54.48611082259089L117.57240000000002,55.85559042468742L118.25527000000001,58.07478251562645L118.93814,61.22221446737257L119.62101000000001,62.84060944341661L120.30388,65.02315152420664L121.328185,66.94290038387538L122.01105500000001,68.3820855723261L122.69392500000002,68.24822453497484L123.37679500000002,71.1267808666152L124.05966500000001,74.41727789980138L124.74253500000002,76.4340680325547L126.108275,78.03925414986526L127.13258,80.91400137806221L127.81545000000001,81.9169877167401L128.49832,83.35770345106869L129.18119000000002,84.49147245312821L129.86406,86.76677179152819L130.54693,88.45777501949703L131.2298,89.26992032302837L131.91267,90.69784159684241L133.619845,93.83803415630695L134.302715,93.08009847204545L135.668455,94.65469195167623L136.35132500000003,96.8919178588414L137.034195,98.58038170793998L137.71706500000002,98.14153346812338L138.74137000000002,99.37822341161342L139.42424000000003,100.53721541903838L140.78998,100.72825821285898L141.47285000000002,102.23040022877137L142.15572000000003,103.93767216062912L142.83859,106.69246020072524L143.52146000000002,106.95796609413918L144.54576500000002,108.03812944387772L145.22863500000003,107.62749303675918L146.594375,110.92604832627711L147.27724500000002,111.16308030751355L147.960115,114.60028288324878L148.642985,113.78161090350272L149.32585500000002,114.77675809305583L150.35016000000002,117.03922608996436L151.03303,119.41307638985916L151.7159,120.8423917705L153.08164,120.81550227090798L153.76451,123.0679272322958L154.44738,123.67408541296552L155.13025000000002,125.87405399156393L156.15455500000002,127.8007476389773L156.83742500000002,128.91518330933852L157.52029500000003,129.334630539192L158.203165,130.94417994628742L158.88603500000002,133.06700740701197L159.56890500000003,133.9150750623916L160.251775,134.85697010279344L160.93464500000002,136.610326833252L161.95895000000002,134.85727698806363L162.64182000000002,135.2924473873979L163.32469,137.9821327721401L164.00756,138.1223307408089L164.69043000000002,139.91952055040167L165.3733,141.49092888043225L166.05617,143.14800107800508L166.73904000000002,144.24777195646493L168.446215,143.4812867509969L169.129085,145.70480325227865L171.177695,147.15593026323648L171.860565,149.77535636172811L173.56774000000001,152.10299902923578L174.25061000000002,154.2245916869303L175.61635000000004,157.522479666038L176.98209000000003,158.94912387496055L177.66496000000004,159.29437075594558L178.34783000000002,160.98871342265303L179.37213500000001,163.14066289220472L180.05500500000002,165.27489513369932L180.73787500000003,166.99881308602812L182.10361500000002,170.73783984975532L182.78648500000003,171.38577721434743L183.469355,172.42234707227095L184.15222500000002,172.29397204926062L185.85940000000002,175.44013193891715L186.54227,176.02239682463576L187.22514,176.005038894342L187.90801000000002,177.90953922100462L188.59088,177.61411825713083L189.27375,179.42352695403437L189.95662000000002,178.5324540643172L191.663795,181.23583901573878L192.346665,181.88689840227164L193.71240500000002,183.70819968614856L194.39527500000003,185.3380011397633L195.76101500000001,186.4815466847837L196.78532,188.3828358916533L197.46819000000002,188.86965379723463L198.83393,190.1755031204733L199.51680000000002,191.32267789780178L200.19967000000003,193.37709253274846L201.56541,193.864366077841L202.589715,194.61757845687512L203.27258500000002,198.06885746523326L203.95545500000003,199.24105687581255L205.32119500000002,199.65829194968597L206.00406500000003,199.99807667763426L206.686935,202.49211071351007L207.369805,201.6242013201247L208.39411,203.02174367657088L209.07698000000002,204.25637096256486L209.75985,204.6010604029326L210.44272,206.14184596491427L211.12559000000002,207.13856774778708L212.49133000000003,207.29156750566688L213.17420000000004,207.88859754876452L215.56424500000003,209.82379370178478L218.29572500000003,212.89776836978814L218.978595,210.98934332816256L220.68577000000002,214.16342539959223L221.36864000000003,216.1249675474946L222.05151,218.6497485631139L223.41725000000002,220.47216060917165L224.10012,220.97373911834111L224.78299,222.18237563627773L225.807295,224.91035125647673L226.49016500000002,225.65429099795034L228.53877500000002,224.40316717066455L229.221645,224.02244817557786L229.904515,224.10400305197354L230.587385,226.1465522408826L231.61169000000004,229.24437792859533L232.29456000000002,230.40593105810123L232.97743000000003,231.99731097772064L233.66030000000003,232.070532589084L234.34317000000004,231.95950603619778L235.02604000000002,231.90543298802118L235.70891000000003,234.615686000673L236.39178000000004,233.92561394847715L238.09895500000002,236.57809657381347L238.78182500000003,236.25141021327002L239.46469500000003,238.97777447332436L240.83043500000002,237.75160432594714L241.51330500000003,238.81038248183944L242.196175,240.51231367375027L243.22048,243.39070440323496L243.90335000000002,245.5764393388709L244.58622000000003,245.5143336999107L245.26909,244.51613528019323L246.63483000000002,243.99861797384105L247.3177,245.9918296537301L249.024875,249.0695178946754L249.70774500000005,247.831608671401L250.39061500000003,251.76552097307885L251.75635500000004,252.83687602862068L252.43922500000002,254.4976908567608L253.12209500000003,255.79266153592238L253.80496500000004,252.4524891067646L254.82927000000004,256.8268602821689L255.51214000000002,259.27560621103413L256.19501,259.21443147818707L256.87788,258.2675943892824L257.56075000000004,258.37112283636895L258.24362,260.637728261529L258.92649,261.4798287993145L259.60936000000004,260.08344902468554L260.633665,263.66657673839427L261.999405,264.8908927730145L262.682275,264.9363129471593L263.36514500000004,264.67535140126074L264.048015,266.4025433898516L265.41375500000004,267.2910090629586L266.43806000000006,270.79182697600095L267.12093000000004,273.38720694342834L268.48667000000006,273.2459219326154L269.85241,273.1830113269632L271.21815000000004,272.98290969954405L272.242455,274.19915140088284L272.925325,279.05740260531036L273.608195,280.37659822771667L274.291065,279.5111420405093L275.656805,274.7407179188043L276.339675,276.13551924494766L277.022545,279.07954097907464L278.04685,282.82163186741303L278.72972000000004,286.1236486188914L279.41259,287.0932403734731L280.09546,286.849650903428L280.77833000000004,286.73588161700036L284.53411500000004,290.85379435837115L285.89985500000006,292.9510214302133L286.58272500000004,290.5523395283932L287.94846500000006,292.2994000679601L288.63133500000004,290.74038812516227L289.65564,295.6795719524111L290.33851,297.1545785144897L291.02138,300.2510071203668L291.70425,298.9949458999768L292.38712,298.1131816325586L293.06999,298.00075186995673L293.75286,297.2417788448414L294.43573,297.7097798551607L295.460035,301.5632917900178L297.508645,301.1374635866856L298.19151500000004,301.76234971910173L298.874385,301.44752552169234L299.557255,302.9947091463666L300.24012500000003,302.0719560299393L301.94730000000004,305.6360454269693L302.63017,308.91252856106235L303.31304000000006,309.37146083107L303.99591000000004,310.4533998822594L304.67878,311.14554827543645L305.36165000000005,308.5252008267197L306.04452000000003,308.51853229371426L307.068825,311.2742961233917L307.751695,313.3545271547276L308.434565,314.1303849334501L309.117435,314.51451186229684L309.800305,313.2357267095043L310.483175,311.15595005472863L311.166045,309.4911340347153L311.848915,309.9495833121472L312.87322,312.78826812124646L314.23896,315.9198568337146L314.92183000000006,317.28701334832016L316.28757,316.004320821988L317.65331000000003,315.6347842585012L319.36048500000004,317.53582676873395L320.0433550000001,319.97400573467684L320.72622500000006,319.69052388415025L321.40909500000004,318.33222627329L322.0919650000001,318.4016237160792L322.77483500000005,318.0777452608683L323.45770500000003,319.20314767484297L324.48201,320.35602347368655L325.16488000000004,322.52089297760324L325.84775,323.35519525203387L326.53062,324.13204642013676L327.21349000000004,322.38231134738106L327.89636,322.442704127186L328.57923,323.34963647879374L329.26210000000003,322.210714978122L330.28640500000006,324.94205707240695L330.96927500000004,325.76259745714225L331.652145,327.13909739587996L332.33501500000006,326.50797549685416L333.01788500000004,326.2043649601971L333.700755,325.05256286351096L334.38362500000005,325.33397202544336L335.06649500000003,323.0208127311046L336.09080000000006,325.2003702210094L336.77367000000004,326.3774531018757L337.4565400000001,327.0008191346341L338.13941000000005,325.78292159711606L338.82228000000003,325.57204973980953L339.50515000000007,325.49655772816243L340.18802000000005,324.8147695436345L340.87089000000003,325.8126375401576L341.895195,327.83015998350936L343.260935,328.7195790855926L343.943805,329.36189849667795L345.309545,329.5832218120081L345.992415,327.92992440400025L346.67528500000003,327.3008659653117L347.69959000000006,329.2390575928837L348.38246000000004,330.8411032929033L349.06533,331.4293470784432L349.74820000000005,330.89240414923864L351.11394,330.7487004102852L351.79681000000005,331.05383723785L353.503985,331.2039751220317L354.18685500000004,332.77794064731825L354.8697250000001,332.23229038904964L355.55259500000005,333.48708059504145L356.23546500000003,333.5179554508995L357.60120500000005,332.77900626978504L358.28407500000003,331.8563112878078L359.30838,333.4307272809708L359.99125000000004,332.91138041682825L361.35699,333.35660346747113L362.03986000000003,333.70640668511794L362.72273,333.39867195630313L363.4056,333.18329862640843L364.08847000000003,333.6122236086123L365.79564500000004,333.26501431861675L366.478515,334.2096105802009L367.16138500000005,335.34082564441064L368.527125,334.8030373835228L369.20999500000005,334.5906361888048L370.91717,334.9308805853246L372.28291,335.7178828452101L372.96578000000005,335.8499759108268L373.64865000000003,336.80161302012857L375.01439000000005,335.46870028012586L375.69726,335.96500290155564L376.721565,336.5080544832557L378.087305,335.5985239257341L378.77017500000005,335.3089317963476L379.45304500000003,335.250067585863L380.135915,334.8815103138431L380.81878500000005,335.60105019598865L381.501655,336.0432992872973L382.52596000000005,337.2713699160445L383.89170000000007,337.5296546420511L385.25744000000003,336.81091003225583L386.62318000000005,336.19533577823444L388.330355,337.29882546025794L390.378965,336.26514186317695L391.06183500000003,335.7300434620478L392.42757500000005,336.5292575942257L393.1104450000001,337.5751460107235L394.13475000000005,338.4046631879847L394.81762000000003,338.77037346525435L395.50049,339.44843266207045L396.86623000000003,337.2935249853019L397.5491,336.31643935926064L398.23197000000005,336.1449974937477L398.91484,337.11635840117367L399.93914500000005,337.78822829830307L400.62201500000003,338.0294770499527L401.30488500000007,337.56856386564925L401.98775500000005,337.26780446391956L402.67062500000003,337.63749555163577L403.35349500000007,338.6719303349435L404.03636500000005,338.7817650667695L404.719235,338.87219208966894L406.42641000000003,339.27366437559056L407.10928,339.77198069718315L407.79215,340.11246042903366L408.47502000000003,340.36790041549665L409.15789,339.782656031392L409.84076,339.7122297242534L410.5236300000001,339.5846390031925L411.54793500000005,339.90552131850427L412.23080500000003,339.59480789215706L412.913675,338.9325547352116L413.59654500000005,339.2268267970094L414.27941500000003,339.9485647122547L414.962285,338.4828374171546L415.64515500000005,338.7656100442583L416.328025,339.18548544797744L417.35233000000005,338.98296683065166L418.03520000000003,339.4567387240056L418.71807000000007,340.02542332382546L419.40094000000005,340.53375129195973L420.76668000000006,339.4200002379791L421.44955000000004,339.0279771543091L424.522465,339.6148988022335L425.205335,340.0225845394886L425.888205,338.6382123252763L426.571075,338.4530714921761L427.253945,339.05120747373155L427.936815,339.382285102719L428.96112000000005,340.289940187542L429.64399000000003,340.63724814010163L431.00973000000005,339.4893715291371L431.6926,339.0414561803629L432.37547,339.579592715233L434.76551500000005,339.8641357092238L435.44838500000003,340.0431748311625L436.81412500000005,339.5913598059161L438.86273500000004,339.8540198843803L439.545605,339.85490867691L440.56991,340.714254552802L441.25278000000003,340.5982268768632L441.93565,340.6785919041286L442.61852000000005,340.9924889115006L443.30139,341.1328098723795L443.98426,340.5035336166326L444.66713000000004,340.0686758239887L445.35,339.70930436828667L446.37430500000005,340.0854373395181L447.74004500000007,340.8340994315189L448.42291500000005,341.2549669939384L449.105785,340.65250166841975L449.78865500000006,340.76545491917113L450.47152500000004,339.99545583885816L451.154395,339.431386714748L452.17870000000005,340.3352763253876L453.54444000000007,341.23376998370463L454.22731000000005,341.3220286199385L454.9101800000001,341.2210848522545L455.59305000000006,340.8477195774929L460.03170500000004,341.1150988315791L461.397445,340.97215904495613L462.08031500000004,341.11438988567295L462.763185,339.9115431065613L463.78749000000005,340.48215778402016L464.47036,340.69047312179123L465.15323000000006,340.8432578801448L465.83610000000004,340.39145230011155L466.51897,340.8202727333069L467.20184000000006,341.5064875818507L467.88471000000004,341.093378557993L468.56758,340.3557201708752L469.59188500000005,340.32703621052093L470.2747550000001,340.88678190278443L470.95762500000006,340.7144046470569L471.64049500000004,340.5838871779072L472.3233650000001,340.9363834723052L473.00623500000006,341.423115461422L474.3719750000001,341.3772876159467L475.39628000000005,341.7168706707826L476.07915,341.78153545425357L477.44489000000004,342.1719696338933L478.12776,342.1084860662199L478.81063,341.54093732086284L479.49350000000004,341.0651712391623L480.17637,340.8879889755754L481.20067500000005,340.6661082725312L481.883545,340.9354613693904L482.56641500000006,341.05248818828767L483.24928500000004,339.8451132597572L483.932155,339.56040428908943L484.61502500000006,339.64577386328943L485.29789500000004,339.79819217502694L485.980765,340.50894010025036L487.00507000000005,341.1747588438259L487.6879400000001,341.19314794525303L488.37081000000006,341.6407114795931L489.05368000000004,341.21513553353674L489.7365500000001,341.30255610183394L490.41942000000006,341.6240203550588L491.10229000000004,341.99197517809057L492.80946500000005,341.8724414645242L493.492335,341.9747158098384L494.175205,342.33238036134827L494.85807500000004,342.09152672210723L495.540945,342.23909770634407L496.223815,342.1307237601477L496.90668500000004,341.83877120303305L497.589555,341.78060580673133L498.61386000000005,342.06588189258565L499.29673,342.5600182162983L499.97960000000006,342.1496635360875L500.66247000000004,342.417933650813L501.34534,342.3984260179608L502.02821000000006,342.76205085201116L503.39395,342.1018347982549L504.418255,341.42263200147846L505.1011250000001,341.78586343261935L506.4668650000001,342.205849625667L507.1497350000001,342.5780471077065L507.83260500000006,342.63536276954414L508.5154750000001,342.71480971175237L509.1983450000001,342.8100394816069L510.22265000000004,342.45232172673155L510.90552,342.7059823440425L511.58839000000006,342.82422517440193L512.27126,342.95495413140344L512.9541300000001,342.5073024818056L513.6370000000001,342.31717163157975L514.31987,342.22004497050756L516.027045,342.14541032512693L517.392785,342.2501170122109L518.0756550000001,341.9814147040337L518.7585250000001,341.328217574562L520.807135,341.98001408469L523.88005,341.6830225093642L524.5629200000001,341.8047876782306L525.24579,341.85435992193743L525.92866,342.1816898222021L526.61153,342.60902157139293L527.635835,342.80598543834594L528.318705,342.6598732866461L529.0015750000001,342.74483505274543L531.050185,342.5884251580279L531.733055,342.89288575116643L532.415925,343.0786289013754L533.44023,343.2230588073431L534.80597,343.4347686789869L535.4888400000001,343.50889851336314L536.17171,342.98938974500476L537.53745,343.06504453029703L538.22032,342.9934188905744L539.244625,343.3661511048707L539.9274950000001,343.56822336445447L540.610365,343.5459711002868L541.2932350000001,343.3178614095884L541.9761050000001,343.49288455691163L542.658975,343.46798500595224L543.341845,342.2782717933917L544.0247150000001,342.3880254210927L545.04902,342.6734309950609L545.7318900000001,342.8610726165755L546.41476,342.5029063821624L547.0976300000001,342.296152582315L547.7805000000001,342.0917213080609L548.46337,341.9796565737298L550.853415,341.9285485331796L551.536285,341.78340935267505L552.2191550000001,341.81716945851343L552.902025,342.2664803025693L553.5848950000001,342.7906236070685L554.267765,343.0856292564149L554.950635,343.3966414671227L555.633505,343.396253538097L556.65781,343.59495477632095L557.34068,343.41068681456886L558.0235500000001,343.5942566627209L558.70642,343.7087731905646L559.3892900000001,343.602772246174L560.07216,343.5530646716289L561.4379,343.5799721450696L562.4622050000002,343.32391527296636L563.145075,343.3302756351821L563.8279450000001,343.48320303214643L564.5108150000001,343.2966603603148L565.1936850000001,343.5206206973354L565.876555,343.6370560914602L566.5594250000001,343.7075369666463L567.242295,343.79295974647175L568.2666,343.7604020989697L568.94947,343.7290159936057L569.63234,343.1418532160604L570.3152100000001,342.5318433331063L570.99808,342.5776995879378L571.68095,342.95308503244615L572.36382,343.14165877765L573.04669,343.2662629558826L574.070995,343.4634624711683L574.7538650000001,343.59014654422367L575.436735,343.3821283939852L576.8024750000001,343.5045338855956L578.168215,343.45415072709966L579.87539,343.3405209749181L581.9240000000001,343.61500140493547L582.6068700000001,343.5775398725446L583.28974,343.5348631805187L583.97261,343.66390552330546L584.6554800000001,343.52607143471755L585.679785,343.1619710224874L586.362655,343.23467817095957L587.0455250000001,343.30328264870076L587.728395,342.80220916989146L588.4112650000001,342.2664987730346L589.094135,342.33418837015006L589.777005,342.29693232943123L590.459875,342.7929070705593L592.8499200000001,342.5444069220277L593.53279,342.7085463117253L594.2156600000001,342.8689170694763L595.5814,342.76781695682297L596.26427,342.22127002735033L597.288575,342.8171714493926L597.971445,343.0837550068475L598.654315,343.0730390029894L599.3371850000001,343.2412171637414L600.0200550000001,343.3745002558071L600.702925,343.557604413469L601.3857950000001,343.49026158823926L603.09297,343.324358948068L603.7758400000001,343.17204091926186L604.45871,342.95850838063024L605.1415800000001,342.73918635003486L605.8244500000001,343.031397266429L607.19019,343.0965176251479L607.8730600000001,343.0371053962577L608.897365,343.04318238315L609.5802350000001,341.21337459097515L610.263105,341.6312669745696L610.9459750000001,342.314546468503L611.6288450000001,342.6284380066773L612.311715,343.2041598957681L612.994585,343.5673815393713L613.6774550000001,343.2885650620421L614.70176,343.40049475583794L615.38463,343.31894856112217L616.0675000000001,342.7354875286441L616.75037,343.06514800953494L618.11611,343.47544214832857L618.79898,343.6951629125808L619.4818500000001,343.6405077852051L620.506155,343.8209572985862L621.189025,343.76756030786106L621.8718950000001,343.4856301437402L622.554765,343.3108596955091L623.2376350000001,343.3287587282668L625.286245,343.5683185786571L626.3105500000001,343.84400683550433L627.6762900000001,344.01383037469077L628.3591600000001,344.0665513923841L629.0420300000001,343.9450461639113L629.7249,343.8590485848623L630.4077700000001,343.91563900310126L631.09064,343.9890177159781L632.797815,343.6290152182743L633.480685,343.6997641250579L634.1635550000001,343.8766315161614L634.846425,344.0187769208259L635.529295,343.842235175455L636.212165,343.79358112760946L636.895035,343.72586219367025L637.91934,343.6462213168689L639.28508,343.76913336536177L639.9679500000001,343.79081150787607L640.6508200000001,344.01802472945076L641.33369,344.01441895830743L642.01656,343.9396639188962L642.6994300000001,343.70258933131913L643.723735,343.5905938850841L644.4066050000001,343.4493684966565L645.089475,343.41354433467194L645.7723450000001,343.4982766430787L646.4552150000001,343.4899209504552L647.138085,343.47532650919123L647.820955,343.3424594847343L648.5038250000001,342.6556528388251L649.52813,342.48810553051766L650.211,342.2922618642314L650.8938700000001,342.5500907977838L651.57674,342.4337598081183L652.2596100000001,342.54348928927885L652.94248,342.6109501664311L653.62535,343.00319714153136L654.30822,343.2190799633174L655.332525,343.3325041274682L656.6982650000001,343.5853760996732L657.381135,343.3593570309941L658.0640050000001,343.4168101179936L658.746875,343.52920166944494L659.429745,343.4934442560079L660.112615,343.0239103622358L661.1369200000001,342.91385796316195L661.81979,343.1330126288149L663.1855300000001,343.1407230970828L663.8684000000001,343.27936698275715L664.55127,343.580205307198L665.2341400000001,343.80350556929955L665.91701,343.50692778081725L666.941315,343.51994503910953L668.307055,343.3989885518985L668.9899250000001,343.28272607421104L669.6727950000001,343.1541129484488L670.355665,343.39854223314205L671.7214050000001,343.1052016913391L672.74571,342.1480192457336L673.4285800000001,342.36103677862076L674.11145,342.66199566839055L675.4771900000001,342.7864955956812L676.16006,343.07726792452684L676.84293,343.4040181717502L677.5258000000001,343.3414941714442L678.550105,343.5815904910854L679.2329750000001,343.7941980112016L679.9158450000001,343.92810618911454L680.5987150000001,344.1180845428438L681.2815850000001,344.19022427485476L681.9644550000002,344.2840652883155L682.647325,344.3167906430425L683.3301950000001,344.382148562743L684.3545,344.3518550780408L685.7202400000001,344.17042878676904L686.40311,344.15277575287394L687.76885,344.0065505222718L688.45172,344.0876003260781L689.13459,343.84790355284724L690.1588950000001,342.5416301642043L691.5246350000001,342.85942244455316L692.2075050000001,343.18681020679634L692.8903750000001,343.4028752619826L693.573245,343.71970105374925L694.938985,344.02910813190584L696.64616,344.1681336849811L698.0119000000001,344.2991985012645L698.6947700000001,344.36885144787357L699.37764,344.4476311186685L700.0605100000001,344.3503159241468L700.74338,344.30186663352737L703.8162950000001,344.2591311278564L704.4991650000001,344.2466259521071L705.182035,344.3201921936404L705.864905,344.3131094858218L706.5477750000001,344.22141768874985L708.2549500000001,344.33414648289215L708.93782,344.32974646223175L709.6206900000001,344.12283471638517L710.3035600000001,344.0171800645563L710.98643,343.73064204930506L711.6693,343.7381716184571L712.3521700000001,343.8426453949414L713.376475,343.99217009731547L714.0593450000001,344.1573297910757L714.7422150000001,344.31425221769155L716.1079550000001,344.015653053968L716.7908250000002,343.9564647615247L717.473695,343.87524536243836L718.1565650000001,343.77232422538157L719.18087,343.81124065582486L719.86374,343.91687047502614L720.5466100000001,343.71269322100017L721.22948,343.36520945849657L721.9123500000001,343.2329870556154L722.59522,343.2090272651727L723.27809,343.4008494642098L723.96096,343.4803104645045L724.9852650000001,343.7002864882468L725.668135,343.86959701813225L726.3510050000001,344.046353983106L727.0338750000001,343.9074019826532L727.7167450000001,343.9819701940813L729.0824850000001,343.98434827760843L729.765355,343.8384084146131L730.78966,344.02161241684564L731.4725300000001,343.7575697972727L732.1554000000001,343.8003519222996L732.8382700000001,343.52774680753714L733.5211400000002,343.30941350122396L734.20401,343.26332187991403L734.8868800000001,343.2362998525762L735.5697500000001,343.5077847088653L736.594055,343.3902894268102L737.2769250000001,343.0756972102622L738.6426650000001,343.2704885251552L739.3255350000001,342.9859878595509L740.008405,342.6229214773082L740.691275,342.74869416239875L742.39845,343.32144154912294L743.0813200000001,343.5260319683317L743.7641900000001,343.5095941037206L744.4470600000001,343.8400721054436L745.1299300000001,344.0585437819433L745.8128000000002,344.11614786186993L747.1785400000001,343.99875109453507L748.202845,343.9715762999972L749.5685850000001,343.8230090530358L750.251455,343.79292277780525L750.9343250000001,343.409285719667L751.6171950000002,343.3428650608008L752.300065,343.2781757576969L752.9829350000001,343.16192671340946L754.69011,343.0969476353064L756.0558500000001,343.1010758837621L757.42159,343.3322245257682L758.1044600000001,343.191783163354L758.78733,343.4061994374227L759.8116350000001,343.7899108169671L760.494505,343.708050008408L761.8602450000001,344.01542424519863L762.5431150000001,344.088124563021L763.225985,344.02923197220616L764.591725,343.9816002340616L765.61603,343.8206256076595L766.2989000000001,344.009261764965L766.98177,344.08444296417525L768.34751,344.0663644390428L769.03038,343.9177986663107L769.7132500000001,343.87263213199026L770.3961200000001,343.86060235362237L771.420425,343.9660785706251L772.1032950000001,343.8421730920022L772.786165,343.85411252561784L773.4690350000001,344.054856029055L774.151905,344.15767902137424L774.834775,344.0394526307876L775.517645,344.18060308624626L776.2005150000001,344.1860449855039L777.9076900000001,343.74281409350095L779.2734300000001,343.80296514287824L779.9563,343.96421755410125L781.32204,344.1096799018148L782.0049100000001,344.1856115371285L783.029215,344.303767807309L783.712085,344.33667139717886L784.3949550000001,344.3124078364334L785.077825,344.33308171540597L785.760695,344.42134439425354L786.443565,344.4504302699281L787.126435,344.3673866988816L787.809305,344.0307546185661L788.8336100000001,343.90243965686113L789.51648,343.9604996733909L790.8822200000001,343.81481424292696L791.56509,343.9914576267075L792.24796,343.94772187028553L792.9308300000001,344.0256280297914L793.6137,343.8996321144876L794.6380050000001,343.86194478769164L796.0037450000001,344.10199215351355L797.3694850000002,344.1938820273011L798.052355,344.31503478085097L799.4180950000001,344.43358375565487L800.4424,344.508017108846L801.1252700000001,344.5510817075648L801.80814,344.57195878473937L802.4910100000001,344.5899056952142L803.17388,344.6051968827304L803.85675,344.6164186614482L805.2224900000001,344.58835327195436L806.246795,344.00594110628356L806.9296650000001,343.9547599674933L808.2954050000001,344.11630277371694L808.978275,344.25833509303527L809.6611450000001,344.31570391462435L810.344015,344.3889947771215L812.05119,344.45393207069276L812.7340600000001,344.4878060316058L813.4169300000001,344.4920392292062L814.0998000000001,344.348611035448L815.4655400000001,344.29074397451035L816.14841,344.13044971013875L816.8312800000001,344.1526243496278L817.8555850000001,344.1361364436029L818.538455,344.15173087240527L819.2213250000001,343.89252994328996L819.9041950000001,343.48102532349185L821.269935,343.4913652094781L821.9528050000001,343.3596838865725L822.635675,343.6753527647434L823.6599800000001,344.008832888065L824.34285,344.21808230026807L825.0257200000001,344.26200611782866L825.7085900000001,342.5313164068826L826.39146,342.6486613771956L827.07433,342.97045879604764L827.7572000000001,343.2030091145427L828.44007,343.33815111731735L829.4643750000001,343.36866572856053L830.1472450000001,343.464610696862L830.8301150000001,343.3464243097782L831.5129850000001,343.44521848809796L832.1958550000002,343.6847091549014L832.878725,343.65090023428445L834.2444650000001,343.6195053615436L835.26877,343.89329051393605L835.9516400000001,344.140001079357L836.63451,344.26412919022744L837.3173800000001,344.2040356023472L838.00025,344.08253678955305L839.36599,343.676914187934L840.0488600000001,343.8425523392604L841.073165,343.74669070232386L841.7560350000001,343.83379793229784L842.4389050000001,343.98204411405175L845.170385,344.05858304285965L845.8532550000001,344.0391153584955L846.87756,344.11292561568297L847.5604300000001,344.2200328167551L848.2433000000001,344.2087315633286L848.9261700000001,344.26425127572156L849.60904,344.3411437025969L850.2919100000001,344.40302321713745L850.97478,344.4593328425072L851.6576500000001,344.45040585974425L852.6819550000001,344.41260858224325L853.364825,344.45116387967414L854.0476950000001,344.4656866144549L854.7305650000001,344.3745684238371L855.413435,344.2919301626343L856.096305,344.3581914264565L856.7791750000001,344.23029564297826L857.462045,344.1237058217176L858.4863500000001,344.1266459607118L859.1692200000001,344.2598439313603L859.8520900000001,344.2472512509256L860.5349600000001,344.29717067867495L861.2178300000002,344.06993591009564L861.9007,344.11996407068165L862.5835700000001,344.0933099380765L864.2907450000001,343.9173756747176L865.6564850000001,343.9714511957256L866.3393550000001,344.0393974088398L867.0222250000002,344.1298104128277L867.705095,344.2286456473168L868.3879650000001,344.3395998493828L870.09514,344.3481681583672L871.4608800000001,344.39473318366424L872.1437500000001,344.4026835904512L872.82662,344.4478574103926L873.5094900000001,344.4796054945664L874.8752300000001,344.40831263908655L875.899535,344.48453962145965L876.5824050000001,344.53530914249626L877.2652750000001,344.571036638792L877.9481450000001,344.59191794871765L879.3138850000001,344.59854694225237L879.996755,344.6038258871661L880.6796250000001,344.61289402411336L881.7039300000001,344.6022821975923L883.0696700000001,344.6065701119927L883.7525400000002,344.6043349921262L884.43541,344.56188967788427L886.4840200000001,344.58160420694634L887.5083250000001,344.53942929978876L888.191195,344.58003652478214L888.8740650000001,344.55144223716457L889.5569350000001,344.55876058390203L890.239805,344.47941730095965L890.922675,344.51798547878593L891.6055450000001,344.5687758105488L892.288415,344.5793678760849L893.3127200000001,344.60019660295205L893.9955900000001,344.6156991417193L894.6784600000001,344.6144318995025L895.3613300000001,344.6200599086563L896.72707,344.62263079297503L897.4099400000001,344.63431413409677L898.0928100000001,344.6414636205847L899.7999850000001,344.52520430230635L900.482855,344.5682286681354L901.1657250000001,344.5087206298582L901.848595,344.48118160566275L902.531465,344.5323187591558L903.2143350000001,344.5505170795538L903.8972050000001,344.4473341364593L904.92151,344.49417149698195L905.6043800000001,344.40658424495683L906.2872500000001,344.20800246392105L906.9701200000001,343.7279848444626L908.3358600000001,343.16696327754846L909.01873,343.3001084127515L909.7016000000001,343.2284732852472L910.725905,343.4121533879594L911.4087750000001,343.50237324244017L912.0916450000001,343.0022872944051L912.7745150000001,343.45395548815526L913.457385,343.5650926371912L914.1402550000001,343.6623211249014L914.823125,343.4541309882283L915.5059950000001,343.4246141290116L916.5303000000001,343.67247645522343L917.21317,343.92469515376155L917.8960400000001,344.12875583546827L919.26178,344.17640334905667L919.94465,343.9468473177392L920.6275200000001,344.0796412368609L921.3103900000001,343.7168907919522L922.3346950000001,343.7249521401423L923.0175650000001,343.619718130642L923.7004350000001,343.03426939023365L926.4319150000001,343.6019487868803L927.1147850000001,343.82015235507333L928.1390900000001,343.8875938319445L928.8219600000001,343.97568258120054L930.1877000000001,344.0426474647876L930.8705700000002,343.9507563012137L931.55344,343.8372911714888L932.2363100000001,343.9735209750782L932.9191800000001,344.0158457468788L934.6263550000001,344.0465066197891L935.3092250000001,344.12988860693105L935.9920950000001,344.08470916148934L936.674965,344.2298725972017L937.3578350000001,344.3175979428777L938.040705,344.3308139993721L938.7235750000001,344.4231885105722L939.74788,344.4450154610375L940.4307500000001,344.4467091730537L941.1136200000001,344.4657773458678L941.7964900000001,344.51026783609575L942.47936,344.5322586255007L943.1622300000001,344.5612836239914L943.8451,344.5811210875541L944.5279700000001,344.5599969978374" style="fill: none;" fill="none"></path></g></g></g></g><g opacity="0.2"><g><g><g><path stroke="rgb(255, 112, 67)" stroke-width="2px" d="M102.89069500000001,-3.625677744547488L103.91500000000002,5.776106198628781L105.28074000000001,11.345064322153746L105.96361000000002,14.99643294016522L106.64648000000001,20.259289423624693L107.32935,23.942893028259334L108.01222000000001,25.534546852111873L108.69509000000001,30.818843523661315L110.402265,40.6713383197785L111.08513500000001,41.875892162323055L112.45087500000001,45.195124626159725L113.13374500000002,49.09425067901611L113.81661500000001,48.87290128072107L114.499485,52.12183682123822L115.52379000000002,57.342429240544675L116.20666000000001,58.483390887578366L117.57240000000002,57.909809827804565L118.25527000000001,61.40357065200806L118.93814,65.94336239496874L119.62101000000001,65.26820190747583L120.30388,68.2969646453858L121.328185,69.82252367337549L122.01105500000001,70.54086335500085L122.69392500000002,68.047432978948L123.37679500000002,75.44461536407476L124.05966500000001,79.35302344957995L124.74253500000002,79.45925323168444L126.108275,80.44703332583117L127.13258,85.2261222203573L127.81545000000001,83.42146722475695L128.49832,85.51877705256152L129.18119000000002,86.19212595621752L129.86406,90.17972079912829L130.54693,90.99427986145025L131.2298,90.48813827832544L131.91267,92.83972350756335L133.619845,98.54832299550378L134.302715,91.94319494565332L135.668455,97.01658217112225L136.35132500000003,100.24775671958929L137.034195,101.11307748158777L137.71706500000002,97.4832611083985L138.74137000000002,101.23325832684839L139.42424000000003,102.27570343017584L140.78998,101.0148224035899L141.47285000000002,104.48361325263983L142.15572000000003,106.49858005841577L142.83859,110.82464226086938L143.52146000000002,107.35622493426007L144.54576500000002,109.65837446848553L145.22863500000003,107.01153842608136L146.594375,115.87388126055401L147.27724500000002,111.5186282793681L147.960115,119.75608674685162L148.642985,112.55360293388372L149.32585500000002,116.2694788773855L150.35016000000002,120.43292808532718L151.03303,122.97385183970135L151.7159,122.98636484146121L153.08164,120.77516802152005L153.76451,126.44656467437747L154.44738,124.58332268397015L155.13025000000002,129.17400685946149L156.15455500000002,130.69078811009732L156.83742500000002,130.5868368148804L157.52029500000003,129.9638013839722L158.203165,133.35850405693057L158.88603500000002,136.25124859809878L159.56890500000003,135.18717654546109L160.251775,136.26981266339627L160.93464500000002,139.24036192893985L161.95895000000002,132.22770222028103L162.64182000000002,135.94520298639935L163.32469,142.01666084925336L164.00756,138.33262769381207L164.69043000000002,142.61530526479092L165.3733,143.84804137547818L166.05617,145.63360937436428L166.73904000000002,145.8974282741547L168.446215,142.33155894279483L169.129085,149.04007800420132L171.177695,149.33262077967328L171.860565,153.7044955094656L173.56774000000001,155.59446303049725L174.25061000000002,157.4069806734721L175.61635000000004,162.46931163469952L176.98209000000003,161.0890901883444L177.66496000000004,159.81224107742312L178.34783000000002,163.53022742271426L179.37213500000001,166.36858709653225L180.05500500000002,168.4762434959412L180.73787500000003,169.5846900145213L182.10361500000002,176.3463799953461L182.78648500000003,172.35768326123562L183.469355,173.9772018591563L184.15222500000002,172.10140951474514L185.85940000000002,180.15937177340192L186.54227,176.89579415321353L187.22514,175.9790019989014L187.90801000000002,180.76628971099856L188.59088,177.17098681132L189.27375,182.13763999938968L189.95662000000002,177.19584472974148L191.663795,185.29091644287112L192.346665,182.86348748207095L193.71240500000002,186.44015161196393L194.39527500000003,187.78270332018536L195.76101500000001,188.19686500231427L196.78532,191.23476970195773L197.46819000000002,189.59988065560663L198.83393,192.13427710533145L199.51680000000002,193.0434400637945L200.19967000000003,196.45871448516849L201.56541,194.59527639547986L202.589715,195.74739702542627L203.27258500000002,203.2457759777705L203.95545500000003,200.99935599168145L205.32119500000002,200.28414456049603L206.00406500000003,200.5077537695567L206.686935,206.23316176732385L207.369805,200.32233723004663L208.39411,205.11805721124017L209.07698000000002,206.10831189155581L209.75985,205.11809456348422L210.44272,208.45302430788678L211.12559000000002,208.63365042209628L212.49133000000003,207.5210671424866L213.17420000000004,208.78414261341098L215.56424500000003,212.72658793131512L218.29572500000003,217.50873037179315L218.978595,208.1267057657242L220.68577000000002,218.92454850673678L221.36864000000003,219.06728076934817L222.05151,222.43692008654278L223.41725000000002,223.2057786782583L224.10012,221.72610688209537L224.78299,223.99533041318261L225.807295,229.00231468677524L226.49016500000002,226.77020061016086L228.53877500000002,222.52648142973584L229.221645,223.4513696829478L229.904515,224.226335366567L230.587385,229.21037602424624L231.61169000000004,233.89111646016443L232.29456000000002,232.14826075236004L232.97743000000003,234.38438085714978L233.66030000000003,232.18036500612897L234.34317000000004,231.79296620686853L235.02604000000002,231.82432341575625L235.70891000000003,238.68106551965082L236.39178000000004,232.89050587018335L238.09895500000002,240.55682051181796L238.78182500000003,235.76138067245486L239.46469500000003,243.06732086340588L240.83043500000002,235.91234910488132L241.51330500000003,240.39854971567792L242.196175,243.06521046161654L243.22048,247.70829049746197L243.90335000000002,248.85504174232483L244.58622000000003,245.42117524147037L245.26909,243.018837650617L246.63483000000002,243.22234201431277L247.3177,248.98164717356366L249.024875,253.68605025609338L249.70774500000005,245.97474483648938L250.39061500000003,257.66638942559564L251.75635500000004,254.4439086119334L252.43922500000002,256.98891309897107L253.12209500000003,257.7351175546646L253.80496500000004,247.44223046302798L254.82927000000004,263.3884170452754L255.51214000000002,262.94872510433197L256.19501,259.12266937891644L256.87788,256.84733875592553L257.56075000000004,258.5264155069987L258.24362,264.0376363992691L258.92649,262.7429796059927L259.60936000000004,257.9888793627421L260.633665,269.04126830895746L261.999405,266.72736682494485L262.682275,265.0044432083766L263.36514500000004,264.2839090824127L264.048015,268.9933313727379L265.41375500000004,268.62370757261914L266.43806000000006,276.04305384556454L267.12093000000004,277.2802768945694L268.48667000000006,273.03399441639584L269.85241,273.08864541848504L271.21815000000004,272.6827572584152L272.242455,276.02351395289105L272.925325,286.3447794119517L273.608195,282.3553916613261L274.291065,278.21295775969827L275.656805,267.58508173624676L276.339675,278.2277212341627L277.022545,283.49557358026505L278.04685,288.43476819992065L278.72972000000004,291.076673746109L279.41259,288.5476280053457L280.09546,286.48426669836044L280.77833000000004,286.56522768735886L284.53411500000004,297.0306634704272L285.89985500000006,296.0968620379766L286.58272500000004,286.954316675663L287.94846500000006,294.91999087731045L288.63133500000004,288.4018702109655L289.65564,303.0883476932844L290.33851,299.36708835760754L291.02138,304.89565002918243L291.70425,297.1108540693919L292.38712,296.79053523143136L293.06999,297.8321072260539L293.75286,296.10331930716836L294.43573,298.4117813706398L295.460035,307.34355969230336L297.508645,300.49872128168744L298.19151500000004,302.6996789177259L298.874385,300.9752892255783L299.557255,305.31548458337784L300.24012500000003,300.6878263552984L301.94730000000004,310.98217952251434L302.63017,313.82725326220196L303.31304000000006,310.0598592360815L303.99591000000004,312.0763084590435L304.67878,312.18377086520195L305.36165000000005,304.59467965364456L306.04452000000003,308.50852949420613L307.068825,315.4079418679078L307.751695,316.4748737017314L308.434565,315.2941716015339L309.117435,315.0907022555669L309.800305,311.31754898031556L310.483175,308.0362850725651L311.166045,306.9939100046953L311.848915,310.637257228295L312.87322,317.04629533489543L314.23896,320.6172399024169L314.92183000000006,319.33774812022847L316.28757,314.0802820324898L317.65331000000003,315.08047941327095L319.36048500000004,320.38739053408307L320.0433550000001,323.6312741835912L320.72622500000006,319.2653011083603L321.40909500000004,316.2947798569997L322.0919650000001,318.50571988026303L322.77483500000005,317.59192757805187L323.45770500000003,320.891251295805L324.48201,322.08533717195195L325.16488000000004,325.76819723347825L325.84775,324.6066486636798L326.53062,325.2973231722911L327.21349000000004,319.7577087382476L327.89636,322.5332932968934L328.57923,324.71003500620526L329.26210000000003,320.5023327271144L330.28640500000006,329.03907021383446L330.96927500000004,326.9934080342452L331.652145,329.20384730398655L332.33501500000006,325.56129264831543L333.01788500000004,325.74894915521145L333.700755,323.3248597184817L334.38362500000005,325.756085768342L335.06649500000003,319.55107378959656L336.09080000000006,328.4697064558665L336.77367000000004,328.14307742317516L337.4565400000001,327.9358681837718L338.13941000000005,323.9560752908389L338.82228000000003,325.2557419538498L339.50515000000007,325.38331971069175L340.18802000000005,323.79208726684254L340.87089000000003,327.3094395349423L341.895195,330.856443648537L343.260935,330.0537077387174L343.943805,330.32537761330605L345.309545,329.91520678500336L345.992415,325.4499782919884L346.67528500000003,326.35727830727893L347.69959000000006,332.1463450342417L348.38246000000004,333.2441718429327L349.06533,332.31171275675297L349.74820000000005,330.08698975543183L351.11394,330.5331448018551L351.79681000000005,331.5115424791972L353.503985,331.4291819483042L354.18685500000004,335.1388889352481L354.8697250000001,331.4138150016467L355.55259500000005,335.3692659040292L356.23546500000003,333.56426773468655L357.60120500000005,331.67058249811333L358.28407500000003,330.4722688148419L359.30838,335.7923512707154L359.99125000000004,332.13236012061435L361.35699,334.0244380434354L362.03986000000003,334.2311115115881L362.72273,332.937069863081L363.4056,332.86023863156635L364.08847000000003,334.25561108191806L365.79564500000004,332.7442003836234L366.478515,335.6265049725771L367.16138500000005,337.0376482407252L368.527125,333.996354992191L369.20999500000005,334.27203439672786L370.91717,335.44124718010426L372.28291,336.89838623503846L372.96578000000005,336.0481155092518L373.64865000000003,338.22906868408126L375.01439000000005,333.46933117012185L375.69726,336.70945683370036L376.721565,337.3226318558057L378.087305,334.2342280894518L378.77017500000005,334.8745436022679L379.45304500000003,335.16177127013606L380.135915,334.3286744058132L380.81878500000005,336.680360019207L381.501655,336.7066729242603L382.52596000000005,339.1134758591652L383.89170000000007,337.91708173106116L385.25744000000003,335.73279311756295L386.62318000000005,335.2719743972023L388.330355,338.95405998329323L390.378965,334.71461646755535L391.06183500000003,334.9273958603541L392.42757500000005,337.72807879249257L393.1104450000001,339.1439786354701L394.13475000000005,339.6489389538765L394.81762000000003,339.31893888115883L395.50049,340.46552145729464L396.86623000000003,334.06116347014904L397.5491,334.85081092019874L398.23197000000005,335.88783469547826L398.91484,338.5733997623126L399.93914500000005,338.7960331439972L400.62201500000003,338.3913501774271L401.30488500000007,336.8771940891941L401.98775500000005,336.81666536132497L402.67062500000003,338.1920321832101L403.35349500000007,340.2235825099051L404.03636500000005,338.9465171645085L404.719235,339.0078326240182L406.42641000000003,339.87587280447286L407.10928,340.5194551795721L407.79215,340.6231800268094L408.47502000000003,340.75106039519113L409.15789,338.904789455235L409.84076,339.6065902635455L410.5236300000001,339.3932529216011L411.54793500000005,340.38684479147196L412.23080500000003,339.12873775263625L412.913675,337.93917499979335L413.59654500000005,339.66823488970596L414.27941500000003,341.03117158512276L414.962285,336.28424647450447L415.64515500000005,339.1897689849138L416.328025,339.8152985535562L417.35233000000005,338.6791889046629L418.03520000000003,340.1673965640366L418.71807000000007,340.87845022355515L419.40094000000005,341.2962432441612L420.76668000000006,337.749373657008L421.44955000000004,338.4399425288041L424.522465,340.49528127412003L425.205335,340.63411314537126L425.888205,336.5616540039579L426.571075,338.17536024252576L427.253945,339.9484114460647L427.936815,339.8789015462001L428.96112000000005,341.6514228147765L429.64399000000003,341.1582100689411L431.00973000000005,337.76755661269027L431.6926,338.3695831572016L432.37547,340.38679751753807L434.76551500000005,340.29095020021003L435.44838500000003,340.3117335140705L436.81412500000005,338.91363726804656L438.86273500000004,340.2480100020766L439.545605,339.8562418657045L440.56991,342.00327336664003L441.25278000000003,340.4241853629549L441.93565,340.7991394450267L442.61852000000005,341.46333442255855L443.30139,341.3432913136979L443.98426,339.5596192330122L444.66713000000004,339.41638913502294L445.35,339.17024718473357L446.37430500000005,340.6496367963652L447.74004500000007,341.95709256952006L448.42291500000005,341.8862683375676L449.105785,339.74880368014175L449.78865500000006,340.93488479529816L450.47152500000004,338.84045721838874L451.154395,338.58528302858275L452.17870000000005,341.6911107413471L453.54444000000007,342.5815104711801L454.22731000000005,341.4544165742894L454.9101800000001,341.06966920072836L455.59305000000006,340.2876716653506L460.03170500000004,341.5161677127083L461.397445,340.75774936502177L462.08031500000004,341.32773614674807L462.763185,338.10727293789387L463.78749000000005,341.3380798002084L464.47036,341.00294612844783L465.15323000000006,341.07243501767516L465.83610000000004,339.71374393006164L466.51897,341.46350338310003L467.20184000000006,342.5358098546664L467.88471000000004,340.4737150222063L468.56758,339.2492325901985L469.59188500000005,340.28401026998955L470.2747550000001,341.7264004411797L470.95762500000006,340.45583876346547L471.64049500000004,340.38811097418267L472.3233650000001,341.4651279139022L473.00623500000006,342.1532134450972L474.3719750000001,341.3085458477338L475.39628000000005,342.22624525303644L476.07915,341.8785326294601L477.44489000000004,342.7576209033529L478.12776,342.01326071470976L478.81063,340.6896142028272L479.49350000000004,340.3515221166114L480.17637,340.6222155801952L481.20067500000005,340.3332872179647L481.883545,341.33949101467925L482.56641500000006,341.2280284166336L483.24928500000004,338.0340508669615L483.932155,339.13334083308774L484.61502500000006,339.7738282245894L485.29789500000004,340.0268196426332L485.980765,341.5750619880855L487.00507000000005,342.1734869591892L487.6879400000001,341.22073159739375L488.37081000000006,342.3120567811032L489.05368000000004,340.5767716144522L489.7365500000001,341.4336869542797L490.41942000000006,342.1062167348961L491.10229000000004,342.54390741263825L492.80946500000005,341.6931408941746L493.492335,342.12812732780975L494.175205,342.868877188613L494.85807500000004,341.73024626324576L495.540945,342.4604541826993L496.223815,341.96816284085315L496.90668500000004,341.400842367361L497.589555,341.6933577122788L498.61386000000005,342.49379602136713L499.29673,343.3012227018674L499.97960000000006,341.53413151577115L500.66247000000004,342.82033882290125L501.34534,342.3691645686825L502.02821000000006,343.30748810308677L503.39395,341.11151071762043L504.418255,340.4038278063138L505.1011250000001,342.33071057933074L506.4668650000001,342.8358289152384L507.1497350000001,343.1363433307658L507.83260500000006,342.7213362623006L508.5154750000001,342.83398012506467L509.1983450000001,342.9528841363887L510.22265000000004,341.9157450944185L510.90552,343.086473270009L511.58839000000006,343.0015894199411L512.27126,343.1510475669056L512.9541300000001,341.83582500740886L513.6370000000001,342.03197535624105L514.31987,342.0743549788992L516.027045,342.03345835705596L517.392785,342.40717704283696L518.0756550000001,341.5783612417678L518.7585250000001,340.34842188035446L520.807135,342.95770884988207L523.88005,341.2375351463755L524.5629200000001,341.98743543153006L525.24579,341.92871828749776L525.92866,342.672684672599L526.61153,343.25001919517916L527.635835,343.10143123877543L528.318705,342.4407050590962L529.0015750000001,342.87227770189446L531.050185,342.3538103159517L531.733055,343.34957664087415L532.415925,343.3572436266889L533.44023,343.43970366629463L534.80597,343.7523334864527L535.4888400000001,343.62009326492745L536.17171,342.21012659246725L537.53745,343.1785267082353L538.22032,342.88598043099046L539.244625,343.92524942631525L539.9274950000001,343.87133175383013L540.610365,343.51259270403534L541.2932350000001,342.9756968735407L541.9761050000001,343.75541927789646L542.658975,343.4306356795132L543.341845,340.4937019745509L544.0247150000001,342.5526558626443L545.04902,343.1015393560131L545.7318900000001,343.1425350488474L546.41476,341.9656570305427L547.0976300000001,341.986021882544L547.7805000000001,341.7850743966798L548.46337,341.81155947223306L550.853415,341.85188647235435L551.536285,341.5657005819182L552.2191550000001,341.867809617271L552.902025,342.940446568653L553.5848950000001,343.57683856381726L554.267765,343.52813773043454L554.950635,343.8631597831845L555.633505,343.3956716445585L556.65781,343.89300663365674L557.34068,343.1342848719408L558.0235500000001,343.8696114349489L558.70642,343.88054798233014L559.3892900000001,343.4437708295882L560.07216,343.4785033098112L561.4379,343.62033335523057L562.4622050000002,342.9398299648116L563.145075,343.3398161785056L563.8279450000001,343.7125941275929L564.5108150000001,343.01684635256726L565.1936850000001,343.8565612028663L565.876555,343.81170918264735L566.5594250000001,343.8132582794254L567.242295,343.92109391621005L568.2666,343.7115656277165L568.94947,343.6819368355597L569.63234,342.2611090497424L570.3152100000001,341.6168285086751L570.99808,342.6464839701851L571.68095,343.5161631992087L572.36382,343.4245193954557L573.04669,343.45316922323155L574.070995,343.7592617440969L574.7538650000001,343.7801726538067L575.436735,343.07010116862756L576.8024750000001,343.68814212301123L578.168215,343.3785759893556L579.87539,343.17007634664577L581.9240000000001,344.0267220499615L582.6068700000001,343.52134757395834L583.28974,343.47084814247984L583.97261,343.8574690374856L584.6554800000001,343.3193203018357L585.679785,342.61582040414214L586.362655,343.3437388936679L587.0455250000001,343.40618936531246L587.728395,342.0505989516775L588.4112650000001,341.46293317774933L589.094135,342.4357227658232L589.777005,342.2410482683529L590.459875,343.5368691822514L592.8499200000001,342.17165669923025L593.53279,342.95475539627176L594.2156600000001,343.10947320610285L595.5814,342.61616678784293L596.26427,341.40144963314134L597.288575,343.711023582456L597.971445,343.4836303430299L598.654315,343.05696499720216L599.3371850000001,343.4934844048694L600.0200550000001,343.5744248939057L600.702925,343.8322606499617L601.3857950000001,343.3892473503947L603.09297,343.07550498781103L603.7758400000001,342.9435638760527L604.45871,342.6382095726828L605.1415800000001,342.41020330414176L605.8244500000001,343.4697136410202L607.19019,343.19419816322625L607.8730600000001,342.94798705292243L608.897365,343.0522978634884L609.5802350000001,338.4686629027128L610.263105,342.25810554996133L610.9459750000001,343.33946570940316L611.6288450000001,343.0992753139387L612.311715,344.0677427294043L612.994585,344.11221400477615L613.6774550000001,342.8703403460483L614.70176,343.5683892965317L615.38463,343.1966292690486L616.0675000000001,341.860295979927L616.75037,343.5596387308712L618.11611,344.09088335651904L618.79898,344.0247440589592L619.4818500000001,343.55852509414154L620.506155,344.0916315686579L621.189025,343.6874648217733L621.8718950000001,343.06273489755887L622.554765,343.04870402316254L623.2376350000001,343.3556072774033L625.286245,343.9276583542426L626.3105500000001,344.2575392207752L627.6762900000001,344.2685656834704L628.3591600000001,344.1456329189241L629.0420300000001,343.762788321202L629.7249,343.7300522162889L630.4077700000001,344.00052463045967L631.09064,344.0990857852933L632.797815,343.08901147171855L633.480685,343.8058874852334L634.1635550000001,344.14193260281655L634.846425,344.23199502782273L635.529295,343.5774225573987L636.212165,343.7206000558411L636.895035,343.62428379276145L637.91934,343.52676000166684L639.28508,343.9535014381011L639.9679500000001,343.82332872164744L640.6508200000001,344.35884456181276L641.33369,344.00901030159247L642.01656,343.82753135977936L642.6994300000001,343.34697744995356L643.723735,343.42260071573156L644.4066050000001,343.23753041401505L645.089475,343.35980809169513L645.7723450000001,343.625375105689L646.4552150000001,343.4773874115199L647.138085,343.4534348472953L647.820955,343.14315894804895L648.5038250000001,341.62544286996126L649.52813,342.23678456805646L650.211,341.9984963648021L650.8938700000001,342.9368341981123L651.57674,342.25926332361996L652.2596100000001,342.70808351101977L652.94248,342.7121414821595L653.62535,343.59156760418165L654.30822,343.54290419599664L655.332525,343.5026403736944L656.6982650000001,343.9646840579808L657.381135,343.02032842797536L658.0640050000001,343.50298974849284L658.746875,343.69778899662197L659.429745,343.4398081358522L660.112615,342.3196095215778L661.1369200000001,342.7487793645511L661.81979,343.4617446272944L663.1855300000001,343.15228879948455L663.8684000000001,343.4873328112687L664.55127,344.03146279385936L665.2341400000001,344.1384559624518L665.91701,343.0620610980938L666.941315,343.53947092654806L668.307055,343.21755382108194L668.9899250000001,343.1083323576798L669.6727950000001,342.96119325980544L670.355665,343.76518616018194L671.7214050000001,342.66519087863463L672.74571,340.7122455773254L673.4285800000001,342.6805630779515L674.11145,343.11343400304514L675.4771900000001,342.9732454866171L676.16006,343.5134264177953L676.84293,343.89414354258525L677.5258000000001,343.24770817098516L678.550105,343.94173497054726L679.2329750000001,344.1131092913759L679.9158450000001,344.12896845598397L680.5987150000001,344.4030520734377L681.2815850000001,344.2984338728711L681.9644550000002,344.4248268085066L682.647325,344.365878675133L683.3301950000001,344.4801854422937L684.3545,344.3064148509875L685.7202400000001,343.89828934986144L686.40311,344.12629620203126L687.76885,343.78721267636865L688.45172,344.2091750317874L689.13459,343.4883583930011L690.1588950000001,340.58222008123994L691.5246350000001,343.33611086507636L692.2075050000001,343.6778918501611L692.8903750000001,343.7269728447621L693.573245,344.19493974139914L694.938985,344.4932187491407L696.64616,344.3766720145941L698.0119000000001,344.49579572568956L698.6947700000001,344.4733308677872L699.37764,344.56580062486074L700.0605100000001,344.2043431323643L700.74338,344.2291926975983L703.8162950000001,344.19502786935L704.4991650000001,344.227868188483L705.182035,344.43054155594047L705.864905,344.3024854240939L706.5477750000001,344.0838799931419L708.2549500000001,344.5032396741056L708.93782,344.3231464312412L709.6206900000001,343.8124670976152L710.3035600000001,343.8586980868131L710.98643,343.3008350264281L711.6693,343.74946597218513L712.3521700000001,343.99935605966795L713.376475,344.2164571508765L714.0593450000001,344.4050693317161L714.7422150000001,344.5496358576153L716.1079550000001,343.5677543083827L716.7908250000002,343.86768232285976L717.473695,343.7534162638088L718.1565650000001,343.6179425197964L719.18087,343.86961530148983L719.86374,344.0753152038281L720.5466100000001,343.4064273399611L721.22948,342.8439838147412L721.9123500000001,343.0346534512937L722.59522,343.1730875795086L723.27809,343.6885827627654L723.96096,343.59950196494657L724.9852650000001,344.0302505238603L725.668135,344.1235628129604L726.3510050000001,344.3114894305666L727.0338750000001,343.698973981974L727.7167450000001,344.09382251122344L729.0824850000001,343.9879154028992L729.765355,343.61949862012017L730.78966,344.29641842019436L731.4725300000001,343.36150586791337L732.1554000000001,343.8645251098399L732.8382700000001,343.1188391353935L733.5211400000002,342.98191354175407L734.20401,343.1941844479491L734.8868800000001,343.1957668115695L735.5697500000001,343.91501199329895L736.594055,343.2140465037276L737.2769250000001,342.60380888544023L738.6426650000001,343.56267549749464L739.3255350000001,342.5592368611445L740.008405,342.078321903944L740.691275,342.9373531900346L742.39845,344.1805626292092L743.0813200000001,343.83291759714484L743.7641900000001,343.48493730680394L744.4470600000001,344.335789108028L745.1299300000001,344.3862512966928L745.8128000000002,344.2025539817599L747.1785400000001,343.82265594353277L748.202845,343.9308141081904L749.5685850000001,343.6001581825937L750.251455,343.7477933649595L750.9343250000001,342.8338301324596L751.6171950000002,343.2432340725015L752.300065,343.1811418030411L752.9829350000001,342.9875531469782L754.69011,342.99947901815176L756.0558500000001,343.1072682564457L757.42159,343.67894748877734L758.1044600000001,342.9811211197327L758.78733,343.7278238485257L759.8116350000001,344.36547788628377L760.494505,343.58525879556936L761.8602450000001,344.4764856003846L762.5431150000001,344.19717503975454L763.225985,343.9408930859839L764.591725,343.91015262684476L765.61603,343.5791636680563L766.2989000000001,344.29221600092325L766.98177,344.19721476299065L768.34751,344.039246651344L769.03038,343.69495000721264L769.7132500000001,343.80488233050954L770.3961200000001,343.8425576860706L771.420425,344.1242928961292L772.1032950000001,343.6563148740679L772.786165,343.8720216760412L773.4690350000001,344.3559712842107L774.151905,344.3119135098532L774.834775,343.86211304490763L775.517645,344.39232876943424L776.2005150000001,344.1942078343903L777.9076900000001,343.0779677554965L779.2734300000001,343.89319171694416L779.9563,344.2060961709358L781.32204,344.32787342338514L782.0049100000001,344.299508990099L783.029215,344.48100221257965L783.712085,344.3860267819837L784.3949550000001,344.27601249531534L785.077825,344.3640925338647L785.760695,344.55373841252486L786.443565,344.49405908344005L787.126435,344.2428213423118L787.809305,343.5258064980929L788.8336100000001,343.70996721430373L789.51648,344.0475896981855L790.8822200000001,343.59628609723103L791.56509,344.2564227023783L792.24796,343.8821182356526L792.9308300000001,344.14248726905015L793.6137,343.71063824153197L794.6380050000001,343.80541379749775L796.0037450000001,344.4620632022464L797.3694850000002,344.33171683798236L798.052355,344.49676391117583L799.4180950000001,344.6114072178607L800.4424,344.6196671386327L801.1252700000001,344.6156786056429L801.80814,344.6032744005012L802.4910100000001,344.61682606092654L803.17388,344.6281336640047L803.85675,344.63325132952497L805.2224900000001,344.54625518771354L806.246795,343.1323228577773L806.9296650000001,343.87798825930804L808.2954050000001,344.35861698305234L808.978275,344.4713835720128L809.6611450000001,344.4017571470079L810.344015,344.4989310708673L812.05119,344.55133801104967L812.7340600000001,344.53861697297543L813.4169300000001,344.49838902560685L814.0998000000001,344.13346874481067L815.4655400000001,344.2039433831039L816.14841,343.89000831358135L816.8312800000001,344.18588630886126L817.8555850000001,344.1114045845655L818.538455,344.17512251560885L819.2213250000001,343.50372854961705L819.9041950000001,342.8637683937947L821.269935,343.5068750384574L821.9528050000001,343.1621619022141L822.635675,344.14885608199984L823.6599800000001,344.50905307304737L824.34285,344.53195641857263L825.0257200000001,344.3278918441695L825.7085900000001,339.93528184046346L826.39146,342.8246788326651L827.07433,343.45315492432564L827.7572000000001,343.5518345922853L828.44007,343.5408641214793L829.4643750000001,343.4144376454254L830.1472450000001,343.6085281493142L830.8301150000001,343.1691447291523L831.5129850000001,343.5934097555776L832.1958550000002,344.0439451551065L832.878725,343.60018685335916L834.2444650000001,343.57241305243224L835.26877,344.30396824252483L835.9516400000001,344.51006692748825L836.63451,344.4503213565331L837.3173800000001,344.1138952205268L838.00025,343.90028857036185L839.36599,343.0684802855055L840.0488600000001,344.09100956624997L841.073165,343.6028982469191L841.7560350000001,343.9644587772588L842.4389050000001,344.2044133866827L845.170385,344.1733914360714L845.8532550000001,344.00991383194923L846.87756,344.22364100146416L847.5604300000001,344.3806936183634L848.2433000000001,344.1917796831888L848.9261700000001,344.34753084431094L849.60904,344.45648234291L850.2919100000001,344.49584248894826L850.97478,344.5437972805618L851.6576500000001,344.4370153855998L852.6819550000001,344.35591266599175L853.364825,344.5089968258205L854.0476950000001,344.4874707166261L854.7305650000001,344.23789113791037L855.413435,344.16797277083L856.096305,344.45758332218975L856.7791750000001,344.0384519677609L857.462045,343.9638210898265L858.4863500000001,344.1310561692032L859.1692200000001,344.4596408873331L859.8520900000001,344.2283622302736L860.5349600000001,344.37204982029897L861.2178300000002,343.72908375722665L861.9007,344.1950063115607L862.5835700000001,344.05332873916876L864.2907450000001,343.65347427967936L865.6564850000001,344.0525644772376L866.3393550000001,344.1413167285112L867.0222250000002,344.2654299188095L867.705095,344.37689849905047L868.3879650000001,344.50603115248185L870.09514,344.36102062184364L871.4608800000001,344.46458072160993L872.1437500000001,344.41460920063156L872.82662,344.51561814030475L873.5094900000001,344.52722762082703L874.8752300000001,344.3013733558667L875.899535,344.5988800950193L876.5824050000001,344.6114634240512L877.2652750000001,344.62462788323563L877.9481450000001,344.6232399136061L879.3138850000001,344.6084904325544L879.996755,344.61174430453684L880.6796250000001,344.6264962295342L881.7039300000001,344.5863644578106L883.0696700000001,344.6130019835934L883.7525400000002,344.6009823123265L884.43541,344.4982217065214L886.4840200000001,344.6111760005394L887.5083250000001,344.47616693905246L888.191195,344.64094736227224L888.8740650000001,344.5085508057382L889.5569350000001,344.56973810400814L890.239805,344.36040237654623L890.922675,344.57583774552523L891.6055450000001,344.64496130819316L892.288415,344.59525597438915L893.3127200000001,344.63143969325273L893.9955900000001,344.63895294987014L894.6784600000001,344.61253103617736L895.3613300000001,344.62850192238693L896.72707,344.6264871194532L897.4099400000001,344.6518391457794L898.0928100000001,344.6521878503166L899.7999850000001,344.35081532488886L900.482855,344.632765216879L901.1657250000001,344.41945857244235L901.848595,344.4398730693695L902.531465,344.6090244893955L903.2143350000001,344.5778145601507L903.8972050000001,344.29255972181755L904.92151,344.564427537766L905.6043800000001,344.27520336691913L906.2872500000001,343.9101297923674L906.9701200000001,343.0079584152748L908.3358600000001,342.32543092717725L909.01873,343.49982611555606L909.7016000000001,343.12102059399086L910.725905,343.68767354202765L911.4087750000001,343.63770302416134L912.0916450000001,342.25215837235254L912.7745150000001,344.13145777878043L913.457385,343.73179836074513L914.1402550000001,343.8081638564666L914.823125,343.14184578321874L915.5059950000001,343.3803388401866L916.5303000000001,344.04426994454116L917.21317,344.3030232015687L917.8960400000001,344.4348468580283L919.26178,344.24787461943924L919.94465,343.60251327076304L920.6275200000001,344.27883211554337L921.3103900000001,343.1727651245892L922.3346950000001,343.73704416242737L923.0175650000001,343.46186711639166L923.7004350000001,342.1560962796211L926.4319150000001,344.45346788185026L927.1147850000001,344.1474577073629L928.1390900000001,343.98875604725134L928.8219600000001,344.10781570508453L930.1877000000001,344.1430947901681L930.8705700000002,343.81291955585283L931.55344,343.66709347690147L932.2363100000001,344.1778656804624L932.9191800000001,344.07933290457976L934.6263550000001,344.0924979291546L935.3092250000001,344.2549615876439L935.9920950000001,344.01693999332684L936.674965,344.4476177507701L937.3578350000001,344.4491859613918L938.040705,344.3506380841136L938.7235750000001,344.56175027737237L939.74788,344.4777558867354L940.4307500000001,344.44924974107806L941.1136200000001,344.494379605089L941.7964900000001,344.5770035714377L942.47936,344.565244809608L943.1622300000001,344.6048211217276L943.8451,344.6108772828981L944.5279700000001,344.52831086326233" style="fill: none;" fill="none"></path></g></g></g></g></g></g><g transform="translate(52, 376)" clip-path="url(#clip_1)"><clipPath id="clip_1"><rect width="1039" height="24"></rect></clipPath><g><g><line x1="0" y1="0" x2="0" y2="5" style="visibility: inherit;" fill="rgb(0, 0, 0)" stroke="rgb(204, 204, 204)" stroke-width="1px"></line><line x1="74.22500000000001" y1="0" x2="74.22500000000001" y2="5" style="visibility: inherit;" fill="rgb(0, 0, 0)" stroke="rgb(204, 204, 204)" stroke-width="1px"></line><line x1="148.45000000000002" y1="0" x2="148.45000000000002" y2="5" style="visibility: inherit;" fill="rgb(0, 0, 0)" stroke="rgb(204, 204, 204)" stroke-width="1px"></line><line x1="222.675" y1="0" x2="222.675" y2="5" style="visibility: inherit;" fill="rgb(0, 0, 0)" stroke="rgb(204, 204, 204)" stroke-width="1px"></line><line x1="296.90000000000003" y1="0" x2="296.90000000000003" y2="5" style="visibility: inherit;" fill="rgb(0, 0, 0)" stroke="rgb(204, 204, 204)" stroke-width="1px"></line><line x1="371.12500000000006" y1="0" x2="371.12500000000006" y2="5" style="visibility: inherit;" fill="rgb(0, 0, 0)" stroke="rgb(204, 204, 204)" stroke-width="1px"></line><line x1="445.35" y1="0" x2="445.35" y2="5" style="visibility: inherit;" fill="rgb(0, 0, 0)" stroke="rgb(204, 204, 204)" stroke-width="1px"></line><line x1="519.575" y1="0" x2="519.575" y2="5" style="visibility: inherit;" fill="rgb(0, 0, 0)" stroke="rgb(204, 204, 204)" stroke-width="1px"></line><line x1="593.8000000000001" y1="0" x2="593.8000000000001" y2="5" style="visibility: inherit;" fill="rgb(0, 0, 0)" stroke="rgb(204, 204, 204)" stroke-width="1px"></line><line x1="668.0250000000001" y1="0" x2="668.0250000000001" y2="5" style="visibility: inherit;" fill="rgb(0, 0, 0)" stroke="rgb(204, 204, 204)" stroke-width="1px"></line><line x1="742.2500000000001" y1="0" x2="742.2500000000001" y2="5" style="visibility: inherit;" fill="rgb(0, 0, 0)" stroke="rgb(204, 204, 204)" stroke-width="1px"></line><line x1="816.475" y1="0" x2="816.475" y2="5" style="visibility: inherit;" fill="rgb(0, 0, 0)" stroke="rgb(204, 204, 204)" stroke-width="1px"></line><line x1="890.7" y1="0" x2="890.7" y2="5" style="visibility: inherit;" fill="rgb(0, 0, 0)" stroke="rgb(204, 204, 204)" stroke-width="1px"></line><line x1="964.9250000000001" y1="0" x2="964.9250000000001" y2="5" style="visibility: inherit;" fill="rgb(0, 0, 0)" stroke="rgb(204, 204, 204)" stroke-width="1px"></line><line x1="1039.15" y1="0" x2="1039.15" y2="5" style="visibility: inherit;" fill="rgb(0, 0, 0)" stroke="rgb(204, 204, 204)" stroke-width="1px"></line></g><g transform="translate(0, 8)"><text x="0" y="0" dx="0em" dy="0.95em" style="text-anchor: middle; visibility: hidden; font-family: &quot;Helvetica Neue&quot;, sans-serif; font-size: 12px; font-weight: 200;" fill="rgb(50, 49, 63)" stroke="none" stroke-width="1px">-5k</text><text x="74.22500000000001" y="0" dx="0em" dy="0.95em" style="text-anchor: middle; visibility: inherit; font-family: &quot;Helvetica Neue&quot;, sans-serif; font-size: 12px; font-weight: 200;" fill="rgb(50, 49, 63)" stroke="none" stroke-width="1px">0</text><text x="148.45000000000002" y="0" dx="0em" dy="0.95em" style="text-anchor: middle; visibility: inherit; font-family: &quot;Helvetica Neue&quot;, sans-serif; font-size: 12px; font-weight: 200;" fill="rgb(50, 49, 63)" stroke="none" stroke-width="1px">5k</text><text x="222.675" y="0" dx="0em" dy="0.95em" style="text-anchor: middle; visibility: inherit; font-family: &quot;Helvetica Neue&quot;, sans-serif; font-size: 12px; font-weight: 200;" fill="rgb(50, 49, 63)" stroke="none" stroke-width="1px">10k</text><text x="296.90000000000003" y="0" dx="0em" dy="0.95em" style="text-anchor: middle; visibility: inherit; font-family: &quot;Helvetica Neue&quot;, sans-serif; font-size: 12px; font-weight: 200;" fill="rgb(50, 49, 63)" stroke="none" stroke-width="1px">15k</text><text x="371.12500000000006" y="0" dx="0em" dy="0.95em" style="text-anchor: middle; visibility: inherit; font-family: &quot;Helvetica Neue&quot;, sans-serif; font-size: 12px; font-weight: 200;" fill="rgb(50, 49, 63)" stroke="none" stroke-width="1px">20k</text><text x="445.35" y="0" dx="0em" dy="0.95em" style="text-anchor: middle; visibility: inherit; font-family: &quot;Helvetica Neue&quot;, sans-serif; font-size: 12px; font-weight: 200;" fill="rgb(50, 49, 63)" stroke="none" stroke-width="1px">25k</text><text x="519.575" y="0" dx="0em" dy="0.95em" style="text-anchor: middle; visibility: inherit; font-family: &quot;Helvetica Neue&quot;, sans-serif; font-size: 12px; font-weight: 200;" fill="rgb(50, 49, 63)" stroke="none" stroke-width="1px">30k</text><text x="593.8000000000001" y="0" dx="0em" dy="0.95em" style="text-anchor: middle; visibility: inherit; font-family: &quot;Helvetica Neue&quot;, sans-serif; font-size: 12px; font-weight: 200;" fill="rgb(50, 49, 63)" stroke="none" stroke-width="1px">35k</text><text x="668.0250000000001" y="0" dx="0em" dy="0.95em" style="text-anchor: middle; visibility: inherit; font-family: &quot;Helvetica Neue&quot;, sans-serif; font-size: 12px; font-weight: 200;" fill="rgb(50, 49, 63)" stroke="none" stroke-width="1px">40k</text><text x="742.2500000000001" y="0" dx="0em" dy="0.95em" style="text-anchor: middle; visibility: inherit; font-family: &quot;Helvetica Neue&quot;, sans-serif; font-size: 12px; font-weight: 200;" fill="rgb(50, 49, 63)" stroke="none" stroke-width="1px">45k</text><text x="816.475" y="0" dx="0em" dy="0.95em" style="text-anchor: middle; visibility: inherit; font-family: &quot;Helvetica Neue&quot;, sans-serif; font-size: 12px; font-weight: 200;" fill="rgb(50, 49, 63)" stroke="none" stroke-width="1px">50k</text><text x="890.7" y="0" dx="0em" dy="0.95em" style="text-anchor: middle; visibility: inherit; font-family: &quot;Helvetica Neue&quot;, sans-serif; font-size: 12px; font-weight: 200;" fill="rgb(50, 49, 63)" stroke="none" stroke-width="1px">55k</text><text x="964.9250000000001" y="0" dx="0em" dy="0.95em" style="text-anchor: middle; visibility: inherit; font-family: &quot;Helvetica Neue&quot;, sans-serif; font-size: 12px; font-weight: 200;" fill="rgb(50, 49, 63)" stroke="none" stroke-width="1px">60k</text><text x="1039.15" y="0" dx="0em" dy="0.95em" style="text-anchor: middle; visibility: hidden; font-family: &quot;Helvetica Neue&quot;, sans-serif; font-size: 12px; font-weight: 200;" fill="rgb(50, 49, 63)" stroke="none" stroke-width="1px">65k</text></g><line x1="0" y1="0" x2="1039.15" y2="0" fill="rgb(0, 0, 0)" stroke="rgb(204, 204, 204)" stroke-width="1px"></line></g></g></g></g></svg>