<svg viewBox="0 0 1091.4000244140625 400" xmlns="http://www.w3.org/2000/svg"><g><g><g><g><g><line x1="52.25" y1="376" x2="47.25" y2="376" style="visibility: inherit;" fill="rgb(0, 0, 0)" stroke="rgb(204, 204, 204)" stroke-width="1px"></line><line x1="52.25" y1="347.0769230769231" x2="47.25" y2="347.0769230769231" style="visibility: inherit;" fill="rgb(0, 0, 0)" stroke="rgb(204, 204, 204)" stroke-width="1px"></line><line x1="52.25" y1="318.15384615384613" x2="47.25" y2="318.15384615384613" style="visibility: inherit;" fill="rgb(0, 0, 0)" stroke="rgb(204, 204, 204)" stroke-width="1px"></line><line x1="52.25" y1="289.2307692307692" x2="47.25" y2="289.2307692307692" style="visibility: inherit;" fill="rgb(0, 0, 0)" stroke="rgb(204, 204, 204)" stroke-width="1px"></line><line x1="52.25" y1="260.3076923076923" x2="47.25" y2="260.3076923076923" style="visibility: inherit;" fill="rgb(0, 0, 0)" stroke="rgb(204, 204, 204)" stroke-width="1px"></line><line x1="52.25" y1="231.3846153846154" x2="47.25" y2="231.3846153846154" style="visibility: inherit;" fill="rgb(0, 0, 0)" stroke="rgb(204, 204, 204)" stroke-width="1px"></line><line x1="52.25" y1="202.46153846153848" x2="47.25" y2="202.46153846153848" style="visibility: inherit;" fill="rgb(0, 0, 0)" stroke="rgb(204, 204, 204)" stroke-width="1px"></line><line x1="52.25" y1="173.53846153846155" x2="47.25" y2="173.53846153846155" style="visibility: inherit;" fill="rgb(0, 0, 0)" stroke="rgb(204, 204, 204)" stroke-width="1px"></line><line x1="52.25" y1="144.61538461538464" x2="47.25" y2="144.61538461538464" style="visibility: inherit;" fill="rgb(0, 0, 0)" stroke="rgb(204, 204, 204)" stroke-width="1px"></line><line x1="52.25" y1="115.69230769230768" x2="47.25" y2="115.69230769230768" style="visibility: inherit;" fill="rgb(0, 0, 0)" stroke="rgb(204, 204, 204)" stroke-width="1px"></line><line x1="52.25" y1="86.76923076923077" x2="47.25" y2="86.76923076923077" style="visibility: inherit;" fill="rgb(0, 0, 0)" stroke="rgb(204, 204, 204)" stroke-width="1px"></line><line x1="52.25" y1="57.84615384615387" x2="47.25" y2="57.84615384615387" style="visibility: inherit;" fill="rgb(0, 0, 0)" stroke="rgb(204, 204, 204)" stroke-width="1px"></line><line x1="52.25" y1="28.923076923076906" x2="47.25" y2="28.923076923076906" style="visibility: inherit;" fill="rgb(0, 0, 0)" stroke="rgb(204, 204, 204)" stroke-width="1px"></line><line x1="52.25" y1="0" x2="47.25" y2="0" style="visibility: inherit;" fill="rgb(0, 0, 0)" stroke="rgb(204, 204, 204)" stroke-width="1px"></line></g><g transform="translate(42.25, 0)"><text x="0" y="376" dx="0em" dy="0.3em" style="text-anchor: end; visibility: hidden; font-family: &quot;Helvetica Neue&quot;, sans-serif; font-size: 12px; font-weight: 200;" fill="rgb(50, 49, 63)" stroke="none" stroke-width="1px">-0.1</text><text x="0" y="347.0769230769231" dx="0em" dy="0.3em" style="text-anchor: end; visibility: inherit; font-family: &quot;Helvetica Neue&quot;, sans-serif; font-size: 12px; font-weight: 200;" fill="rgb(50, 49, 63)" stroke="none" stroke-width="1px">0</text><text x="0" y="318.15384615384613" dx="0em" dy="0.3em" style="text-anchor: end; visibility: inherit; font-family: &quot;Helvetica Neue&quot;, sans-serif; font-size: 12px; font-weight: 200;" fill="rgb(50, 49, 63)" stroke="none" stroke-width="1px">0.1</text><text x="0" y="289.2307692307692" dx="0em" dy="0.3em" style="text-anchor: end; visibility: inherit; font-family: &quot;Helvetica Neue&quot;, sans-serif; font-size: 12px; font-weight: 200;" fill="rgb(50, 49, 63)" stroke="none" stroke-width="1px">0.2</text><text x="0" y="260.3076923076923" dx="0em" dy="0.3em" style="text-anchor: end; visibility: inherit; font-family: &quot;Helvetica Neue&quot;, sans-serif; font-size: 12px; font-weight: 200;" fill="rgb(50, 49, 63)" stroke="none" stroke-width="1px">0.3</text><text x="0" y="231.3846153846154" dx="0em" dy="0.3em" style="text-anchor: end; visibility: inherit; font-family: &quot;Helvetica Neue&quot;, sans-serif; font-size: 12px; font-weight: 200;" fill="rgb(50, 49, 63)" stroke="none" stroke-width="1px">0.4</text><text x="0" y="202.46153846153848" dx="0em" dy="0.3em" style="text-anchor: end; visibility: inherit; font-family: &quot;Helvetica Neue&quot;, sans-serif; font-size: 12px; font-weight: 200;" fill="rgb(50, 49, 63)" stroke="none" stroke-width="1px">0.5</text><text x="0" y="173.53846153846155" dx="0em" dy="0.3em" style="text-anchor: end; visibility: inherit; font-family: &quot;Helvetica Neue&quot;, sans-serif; font-size: 12px; font-weight: 200;" fill="rgb(50, 49, 63)" stroke="none" stroke-width="1px">0.6</text><text x="0" y="144.61538461538464" dx="0em" dy="0.3em" style="text-anchor: end; visibility: inherit; font-family: &quot;Helvetica Neue&quot;, sans-serif; font-size: 12px; font-weight: 200;" fill="rgb(50, 49, 63)" stroke="none" stroke-width="1px">0.7</text><text x="0" y="115.69230769230768" dx="0em" dy="0.3em" style="text-anchor: end; visibility: inherit; font-family: &quot;Helvetica Neue&quot;, sans-serif; font-size: 12px; font-weight: 200;" fill="rgb(50, 49, 63)" stroke="none" stroke-width="1px">0.8</text><text x="0" y="86.76923076923077" dx="0em" dy="0.3em" style="text-anchor: end; visibility: inherit; font-family: &quot;Helvetica Neue&quot;, sans-serif; font-size: 12px; font-weight: 200;" fill="rgb(50, 49, 63)" stroke="none" stroke-width="1px">0.9</text><text x="0" y="57.84615384615387" dx="0em" dy="0.3em" style="text-anchor: end; visibility: inherit; font-family: &quot;Helvetica Neue&quot;, sans-serif; font-size: 12px; font-weight: 200;" fill="rgb(50, 49, 63)" stroke="none" stroke-width="1px">1</text><text x="0" y="28.923076923076906" dx="0em" dy="0.3em" style="text-anchor: end; visibility: inherit; font-family: &quot;Helvetica Neue&quot;, sans-serif; font-size: 12px; font-weight: 200;" fill="rgb(50, 49, 63)" stroke="none" stroke-width="1px">1.1</text><text x="0" y="0" dx="0em" dy="0.3em" style="text-anchor: end; visibility: hidden; font-family: &quot;Helvetica Neue&quot;, sans-serif; font-size: 12px; font-weight: 200;" fill="rgb(50, 49, 63)" stroke="none" stroke-width="1px">1.2</text></g><line x1="52.25" y1="0" x2="52.25" y2="376" fill="rgb(0, 0, 0)" stroke="rgb(204, 204, 204)" stroke-width="1px"></line></g></g><g transform="translate(52, 0)" clip-path="url(#clip_0)"><clipPath id="clip_0"><rect width="1039" height="376"></rect></clipPath><g><g><g><line x1="0" y1="0" x2="0" y2="376" fill="rgb(0, 0, 0)" stroke="rgb(60, 60, 60)" stroke-width="1px" opacity="0.25"></line><line x1="74.22500000000001" y1="0" x2="74.22500000000001" y2="376" fill="rgb(0, 0, 0)" stroke="rgb(60, 60, 60)" stroke-width="1px" opacity="0.25"></line><line x1="148.45000000000002" y1="0" x2="148.45000000000002" y2="376" fill="rgb(0, 0, 0)" stroke="rgb(60, 60, 60)" stroke-width="1px" opacity="0.25"></line><line x1="222.675" y1="0" x2="222.675" y2="376" fill="rgb(0, 0, 0)" stroke="rgb(60, 60, 60)" stroke-width="1px" opacity="0.25"></line><line x1="296.90000000000003" y1="0" x2="296.90000000000003" y2="376" fill="rgb(0, 0, 0)" stroke="rgb(60, 60, 60)" stroke-width="1px" opacity="0.25"></line><line x1="371.12500000000006" y1="0" x2="371.12500000000006" y2="376" fill="rgb(0, 0, 0)" stroke="rgb(60, 60, 60)" stroke-width="1px" opacity="0.25"></line><line x1="445.35" y1="0" x2="445.35" y2="376" fill="rgb(0, 0, 0)" stroke="rgb(60, 60, 60)" stroke-width="1px" opacity="0.25"></line><line x1="519.575" y1="0" x2="519.575" y2="376" fill="rgb(0, 0, 0)" stroke="rgb(60, 60, 60)" stroke-width="1px" opacity="0.25"></line><line x1="593.8000000000001" y1="0" x2="593.8000000000001" y2="376" fill="rgb(0, 0, 0)" stroke="rgb(60, 60, 60)" stroke-width="1px" opacity="0.25"></line><line x1="668.0250000000001" y1="0" x2="668.0250000000001" y2="376" fill="rgb(0, 0, 0)" stroke="rgb(60, 60, 60)" stroke-width="1px" opacity="0.25"></line><line x1="742.2500000000001" y1="0" x2="742.2500000000001" y2="376" fill="rgb(0, 0, 0)" stroke="rgb(60, 60, 60)" stroke-width="1px" opacity="0.25"></line><line x1="816.475" y1="0" x2="816.475" y2="376" fill="rgb(0, 0, 0)" stroke="rgb(60, 60, 60)" stroke-width="1px" opacity="0.25"></line><line x1="890.7" y1="0" x2="890.7" y2="376" fill="rgb(0, 0, 0)" stroke="rgb(60, 60, 60)" stroke-width="1px" opacity="0.25"></line><line x1="964.9250000000001" y1="0" x2="964.9250000000001" y2="376" fill="rgb(0, 0, 0)" stroke="rgb(60, 60, 60)" stroke-width="1px" opacity="0.25"></line><line x1="1039.15" y1="0" x2="1039.15" y2="376" fill="rgb(0, 0, 0)" stroke="rgb(60, 60, 60)" stroke-width="1px" opacity="0.25"></line></g><g><line x1="0" y1="376" x2="1039.15" y2="376" fill="rgb(0, 0, 0)" stroke="rgb(60, 60, 60)" stroke-width="1px" opacity="0.25"></line><line x1="0" y1="347.0769230769231" x2="1039.15" y2="347.0769230769231" fill="rgb(0, 0, 0)" stroke="rgb(60, 60, 60)" stroke-width="1px" opacity="0.25"></line><line x1="0" y1="318.15384615384613" x2="1039.15" y2="318.15384615384613" fill="rgb(0, 0, 0)" stroke="rgb(60, 60, 60)" stroke-width="1px" opacity="0.25"></line><line x1="0" y1="289.2307692307692" x2="1039.15" y2="289.2307692307692" fill="rgb(0, 0, 0)" stroke="rgb(60, 60, 60)" stroke-width="1px" opacity="0.25"></line><line x1="0" y1="260.3076923076923" x2="1039.15" y2="260.3076923076923" fill="rgb(0, 0, 0)" stroke="rgb(60, 60, 60)" stroke-width="1px" opacity="0.25"></line><line x1="0" y1="231.3846153846154" x2="1039.15" y2="231.3846153846154" fill="rgb(0, 0, 0)" stroke="rgb(60, 60, 60)" stroke-width="1px" opacity="0.25"></line><line x1="0" y1="202.46153846153848" x2="1039.15" y2="202.46153846153848" fill="rgb(0, 0, 0)" stroke="rgb(60, 60, 60)" stroke-width="1px" opacity="0.25"></line><line x1="0" y1="173.53846153846155" x2="1039.15" y2="173.53846153846155" fill="rgb(0, 0, 0)" stroke="rgb(60, 60, 60)" stroke-width="1px" opacity="0.25"></line><line x1="0" y1="144.61538461538464" x2="1039.15" y2="144.61538461538464" fill="rgb(0, 0, 0)" stroke="rgb(60, 60, 60)" stroke-width="1px" opacity="0.25"></line><line x1="0" y1="115.69230769230768" x2="1039.15" y2="115.69230769230768" fill="rgb(0, 0, 0)" stroke="rgb(60, 60, 60)" stroke-width="1px" opacity="0.25"></line><line x1="0" y1="86.76923076923077" x2="1039.15" y2="86.76923076923077" fill="rgb(0, 0, 0)" stroke="rgb(60, 60, 60)" stroke-width="1px" opacity="0.25"></line><line x1="0" y1="57.84615384615387" x2="1039.15" y2="57.84615384615387" fill="rgb(0, 0, 0)" stroke="rgb(60, 60, 60)" stroke-width="1px" opacity="0.25"></line><line x1="0" y1="28.923076923076906" x2="1039.15" y2="28.923076923076906" fill="rgb(0, 0, 0)" stroke="rgb(60, 60, 60)" stroke-width="1px" opacity="0.25"></line><line x1="0" y1="0" x2="1039.15" y2="0" fill="rgb(0, 0, 0)" stroke="rgb(60, 60, 60)" stroke-width="1px" opacity="0.25"></line></g></g></g><g><g><line x1="0" y1="347.0769230769231" x2="1039.15" y2="347.0769230769231" fill="rgb(0, 0, 0)" stroke="rgb(153, 153, 153)" stroke-width="1.5px"></line></g></g><g><g><line x1="74.22500000000001" y1="0" x2="74.22500000000001" y2="376" fill="rgb(0, 0, 0)" stroke="rgb(153, 153, 153)" stroke-width="1.5px"></line></g></g><g><g><g><g><g><path stroke="rgb(255, 112, 67)" stroke-width="2px" d="M74.89302500000001,315.83528418724353L75.57589500000002,316.05019337626607L76.941635,315.99067010890747L78.30737500000001,315.0614307654592L78.990245,314.5448498091377L79.67311500000001,314.52980362047913L80.69742000000001,314.5010226400331L81.38029,314.88396868396825L82.06316,315.6256479332305L82.74603,315.6309395632995L83.4289,314.7072356414217L84.11177000000002,315.27758976049654L84.79464000000002,315.8747757064097L85.47751000000001,313.57791508149876L86.50181500000001,313.45906752563985L87.18468500000002,314.1543152823659L87.86755500000001,315.2002080879537L88.550425,315.8472811703071L89.23329500000001,315.6459820787513L89.916165,315.07327087402183L90.599035,315.7710684327844L91.28190500000001,316.111140406602L92.30621000000001,314.9594007884022L92.98908,314.3666077512132L94.35482000000002,314.48250686120684L96.40343000000001,312.2138318751384L97.08630000000001,309.90948480711927L98.110605,306.6209401506417L98.793475,304.1762418195685L99.47634500000001,300.9803255754633L100.84208500000001,296.5084289407729L101.524955,294.06107768630295L102.207825,290.90286697189396L102.89069500000001,287.9862021546477L103.91500000000002,285.33235714839816L105.28074000000001,280.89096807799694L105.96361000000002,279.03173810088185L106.64648000000001,277.38568217508396L107.32935,274.1777306679548L108.01222000000001,272.68523326677746L108.69509000000001,271.23956730300915L110.402265,268.1715010767402L111.08513500000001,265.66259979188385L112.45087500000001,265.3951342264681L113.13374500000002,263.54485660532964L113.81661500000001,262.1399566918277L114.499485,261.47385605876343L115.52379000000002,258.6573905582718L116.20666000000001,257.2622445989448L117.57240000000002,254.165541638727L118.25527000000001,252.75944293953762L118.93814,252.5052469539778L119.62101000000001,250.1717088460229L120.30388,249.8915706080238L121.328185,248.11228425148028L122.01105500000001,246.51419449263187L122.69392500000002,245.889369688297L123.37679500000002,245.84850385667L124.05966500000001,243.09279631718027L124.74253500000002,242.1860282113333L126.108275,239.71638446208294L127.13258,237.4093469266863L127.81545000000001,237.3612440572428L128.49832,234.87627805701223L129.18119000000002,234.87861129256729L129.86406,232.40425737636104L130.54693,232.72733733432963L131.2298,231.23138702736782L131.91267,230.2159228172414L133.619845,227.79895198347322L134.302715,227.11507203213432L135.668455,226.0366859593835L136.35132500000003,222.59952098619482L137.034195,222.48245446699863L137.71706500000002,221.11539406163604L138.74137000000002,220.94356634139118L139.42424000000003,220.62433468421983L140.78998,218.38931533032607L141.47285000000002,218.12898918681023L142.15572000000003,217.69770973875197L142.83859,217.10491301894322L143.52146000000002,215.53100936121288L144.54576500000002,213.840010748728L145.22863500000003,213.51311926215934L146.594375,211.76472624549984L147.27724500000002,210.10657762258163L147.960115,209.07239273878054L148.642985,207.29259802378024L149.32585500000002,205.91034172278114L150.35016000000002,204.6290648652586L151.03303,204.27292266971858L151.7159,205.21852113711418L153.08164,204.07642890893428L153.76451,202.15330181510592L154.44738,201.05837084783386L155.13025000000002,200.02808061064783L156.15455500000002,199.3706142061855L156.83742500000002,197.48282152781474L157.52029500000003,195.42664674007187L158.203165,195.8041452811694L158.88603500000002,194.53733846593346L159.56890500000003,193.9147910859171L160.251775,192.46058063698635L160.93464500000002,192.84557915142256L161.95895000000002,192.36922100018722L162.64182000000002,189.4701120948821L163.32469,189.5776382173409L164.00756,187.95235216117376L164.69043000000002,187.99891725936953L165.3733,185.88513840752037L166.05617,186.60139927117802L166.73904000000002,187.5616771821949L168.446215,185.09227296839333L169.129085,185.02534495990656L171.177695,182.1754052463015L171.860565,181.97840038490716L173.56774000000001,179.69882653042976L174.25061000000002,177.5058343797963L175.61635000000004,176.6026630083897L176.98209000000003,175.70708155559723L177.66496000000004,174.91429850094775L178.34783000000002,173.3382936203628L179.37213500000001,172.05866508893754L180.05500500000002,172.35192385992804L180.73787500000003,171.80086883575098L182.10361500000002,169.97692298555143L182.78648500000003,170.21867857512552L183.469355,168.79182767307637L184.15222500000002,167.4444948969742L185.85940000000002,165.45716186761848L186.54227,165.12931594170053L187.22514,165.14874341117414L187.90801000000002,164.2761998700875L188.59088,163.12391480143768L189.27375,162.90411296824615L189.95662000000002,162.949074631205L191.663795,163.25113194302966L192.346665,160.4457475545366L193.71240500000002,159.58776475938777L194.39527500000003,159.78033234219558L195.76101500000001,159.42430368388182L196.78532,157.89421641607387L197.46819000000002,155.50249735077116L198.83393,153.3208094937428L199.51680000000002,154.21246687511626L200.19967000000003,153.7846698610693L201.56541,154.3139472284373L202.589715,151.78243158239553L203.27258500000002,149.5168657769238L203.95545500000003,149.27750747251136L205.32119500000002,148.70162243981505L206.00406500000003,149.24028454716915L206.686935,147.65755195271367L207.369805,147.29737218208868L208.39411,145.50936006392004L209.07698000000002,145.67443144573826L209.75985,145.10540927708277L210.44272,144.25312760994143L211.12559000000002,145.1957722874004L212.49133000000003,143.93402065510813L213.17420000000004,142.96082775490947L215.56424500000003,140.52992744494725L218.29572500000003,139.13033254799493L218.978595,139.60704568264313L220.68577000000002,135.64892310825059L221.36864000000003,134.86560684628296L222.05151,135.5745504527968L223.41725000000002,135.54799353978206L224.10012,133.74401321535626L224.78299,132.24900110172726L225.807295,130.25165878575464L226.49016500000002,127.40275082447829L228.53877500000002,127.34390861940528L229.221645,128.82156226313015L229.904515,129.80639889633963L230.587385,129.8274872212924L231.61169000000004,126.32300004785395L232.29456000000002,125.35993505373679L232.97743000000003,124.93928579326601L233.66030000000003,125.80688431165294L234.34317000000004,124.1267733270947L235.02604000000002,123.5706298132828L235.70891000000003,123.57097620386887L236.39178000000004,123.76766603637071L238.09895500000002,121.07590392315768L238.78182500000003,119.26435776128085L239.46469500000003,118.43286424712869L240.83043500000002,120.01674076037907L241.51330500000003,119.17902738751127L242.196175,119.16761470286434L243.22048,115.97765942253926L243.90335000000002,113.57246401947162L244.58622000000003,113.21003569435084L245.26909,112.28522143938136L246.63483000000002,114.40257218998846L247.3177,116.10525269040164L249.024875,112.2736046183444L249.70774500000005,111.11424308505599L250.39061500000003,110.57582279688137L251.75635500000004,110.4885517800763L252.43922500000002,109.47339772712218L253.12209500000003,109.47341810827226L253.80496500000004,109.29659446988751L254.82927000000004,106.47896182531821L255.51214000000002,105.69222839242275L256.19501,103.88406523299159L256.87788,104.19423572605172L257.56075000000004,105.75575338373238L258.24362,106.69266397834082L258.92649,106.3902633392093L259.60936000000004,106.85723492660247L260.633665,102.87362129278165L261.999405,100.64064284848865L262.682275,100.89241306458075L263.36514500000004,101.53469742910869L264.048015,101.07516718300423L265.41375500000004,101.91943021421207L266.43806000000006,99.00709231150125L267.12093000000004,96.3361972849533L268.48667000000006,96.99327565363984L269.85241,96.7980559930046L271.21815000000004,97.6633686663688L272.242455,95.5299630978738L272.925325,94.24991975677682L273.608195,91.83139118042578L274.291065,92.030776606308L275.656805,92.56303178081077L276.339675,93.49149769843501L277.022545,93.65559946111142L278.04685,91.19971179317827L278.72972000000004,89.82442363939293L279.41259,88.66522514404744L280.09546,87.43918465401788L280.77833000000004,88.21651932676883L284.53411500000004,86.08927914272971L285.89985500000006,85.95256234225218L286.58272500000004,85.2614194490431L287.94846500000006,85.8095251559887L288.63133500000004,85.17559713728502L289.65564,82.71246770432106L290.33851,81.3328344915173L291.02138,80.97662377183343L291.70425,81.90253154576794L292.38712,81.7507189502316L293.06999,82.50452536193211L293.75286,83.21225028772528L294.43573,83.14566300832848L295.460035,81.27836530612393L297.508645,80.4330738946494L298.19151500000004,80.02414349473918L298.874385,79.30720915099585L299.557255,79.54511354249615L300.24012500000003,79.41276896754812L301.94730000000004,76.62182376104079L302.63017,76.16548226298153L303.31304000000006,76.36325346794325L303.99591000000004,76.08893840302221L304.67878,75.9832946530945L305.36165000000005,77.45252039678081L306.04452000000003,76.6442541133502L307.068825,76.0217507383677L307.751695,76.1394709482509L308.434565,75.266957762385L309.117435,74.27188064286713L309.800305,74.51973523597752L310.483175,75.61159330363955L311.166045,74.87163975551789L311.848915,75.35115991156647L312.87322,72.65225322960777L314.23896,71.32764256135613L314.92183000000006,70.96514621045407L316.28757,72.81077489057901L317.65331000000003,73.26974012778192L319.36048500000004,71.22655859646329L320.0433550000001,71.08133859439204L320.72622500000006,71.0727980132495L321.40909500000004,71.04802753348872L322.0919650000001,69.89353103988736L322.77483500000005,70.10467929757283L323.45770500000003,70.76188964500625L324.48201,69.34852354577407L325.16488000000004,67.89139107331215L325.84775,68.51041752972947L326.53062,69.92322316235021L327.21349000000004,69.00251339217982L327.89636,68.56797810812753L328.57923,69.05391335554282L329.26210000000003,68.67741640204451L330.28640500000006,69.37501051486709L330.96927500000004,69.73462169353564L331.652145,68.7321627748916L332.33501500000006,67.77700879375669L333.01788500000004,68.9330103968689L333.700755,68.97819938786404L334.38362500000005,68.33725468051364L335.06649500000003,67.85444340912892L336.09080000000006,67.87913611829697L336.77367000000004,66.71502527590229L337.4565400000001,65.78077071856688L338.13941000000005,65.06302824816606L338.82228000000003,65.53622891977182L339.50515000000007,65.95769292765937L340.18802000000005,67.03581917033887L340.87089000000003,67.97742825687016L341.895195,67.16697834694435L343.260935,66.58246395401437L343.943805,66.74262368420437L345.309545,66.1117092355471L345.992415,65.69386830420194L346.67528500000003,65.93437908446867L347.69959000000006,64.66397103283447L348.38246000000004,64.4322475946762L349.06533,63.90023574388317L349.74820000000005,63.99365255238081L351.11394,63.97111121737919L351.79681000000005,64.80248038540043L353.503985,64.57429849524084L354.18685500000004,64.12300988914603L354.8697250000001,65.05080932446003L355.55259500000005,65.90222232657209L356.23546500000003,64.95905645009555L357.60120500000005,64.8057877389819L358.28407500000003,64.67452735436422L359.30838,63.90805999477186L359.99125000000004,63.36958815891609L361.35699,64.18613236734865L362.03986000000003,64.04729994841023L362.72273,63.31558852617502L363.4056,63.171295013757515L364.08847000000003,63.98856506015318L365.79564500000004,64.30208432511682L366.478515,64.31336001702022L367.16138500000005,63.49487069841638L368.527125,63.632542947050865L369.20999500000005,63.204277930283524L370.91717,62.691877841450264L372.28291,62.14865663205052L372.96578000000005,62.431836719333205L373.64865000000003,62.4052558777538L375.01439000000005,62.76263213382998L375.69726,63.62546985834791L376.721565,62.45337765921511L378.087305,62.12344710075928L378.77017500000005,62.49530242065879L379.45304500000003,63.465072030445185L380.135915,63.47712014134402L380.81878500000005,63.05207206203562L381.501655,62.65950650532534L382.52596000000005,62.640102196323596L383.89170000000007,62.058645955949544L385.25744000000003,61.768717500750085L386.62318000000005,61.653705716655395L388.330355,61.447155041274414L390.378965,62.16812550086706L391.06183500000003,62.54176248759768L392.42757500000005,62.0978865776886L393.1104450000001,61.87085329389373L394.13475000000005,61.89182305961634L394.81762000000003,62.12054683987327L395.50049,61.687960557255565L396.86623000000003,61.07473015773638L397.5491,61.19801415289754L398.23197000000005,61.25233841891884L398.91484,61.48142187248078L399.93914500000005,61.30448557682007L400.62201500000003,61.591301587321766L401.30488500000007,60.66305614582757L401.98775500000005,60.577684984728364L402.67062500000003,61.13557510099139L403.35349500000007,61.60785277567334L404.03636500000005,61.18386212058539L404.719235,61.22419417265735L406.42641000000003,61.13050282585067L407.10928,61.38866748976557L407.79215,60.954106502066224L408.47502000000003,60.63441772462278L409.15789,60.914180561954026L409.84076,60.66941434537932L410.5236300000001,60.50290158856018L411.54793500000005,60.0689683313945L412.23080500000003,60.10333482221972L412.913675,59.92746582276578L413.59654500000005,60.35246581591565L414.27941500000003,60.391330786781225L414.962285,60.53254034735045L415.64515500000005,60.75480968861609L416.328025,60.27905848045293L417.35233000000005,59.934662466530085L418.03520000000003,59.90486072525124L418.71807000000007,59.92627883843346L419.40094000000005,60.84297586018897L420.76668000000006,60.37125044554733L421.44955000000004,59.872080171737935L424.522465,59.86731134837589L425.205335,60.257427842256845L425.888205,60.236063555611395L426.571075,60.06605524762466L427.253945,60.062294709807134L427.936815,60.94423151408853L428.96112000000005,61.0411235466085L429.64399000000003,61.020660450221385L431.00973000000005,60.536813384390655L431.6926,60.26615127596756L432.37547,60.20199845788818L434.76551500000005,60.635075975039L435.44838500000003,60.69843359138042L436.81412500000005,60.775747319134894L438.86273500000004,60.27196803188997L439.545605,60.00899961749258L440.56991,60.14595190977781L441.25278000000003,60.03163439119976L441.93565,59.7272558281544L442.61852000000005,59.24989534940346L443.30139,59.19926711405162L443.98426,59.28678764668933L444.66713000000004,59.71262472729586L445.35,60.28250644765865L446.37430500000005,59.877779062029674L447.74004500000007,59.831431524601385L448.42291500000005,59.80362300214438L449.105785,59.55115673257046L449.78865500000006,59.63545812692581L450.47152500000004,60.491640670410675L451.154395,60.27834680552917L452.17870000000005,59.71809354075248L453.54444000000007,60.18754328875809L454.22731000000005,60.29237727048667L454.9101800000001,60.355277659523836L455.59305000000006,60.019686236123334L460.03170500000004,60.46674335295518L461.397445,60.47954344008025L462.08031500000004,60.29073459840623L462.763185,59.98096039945278L463.78749000000005,60.07018308992889L464.47036,59.78968420534147L465.15323000000006,59.42489598063992L465.83610000000004,59.34356665074313L466.51897,59.31441518388033L467.20184000000006,59.15938759463745L467.88471000000004,59.714783011963846L468.56758,60.16591084040965L469.59188500000005,59.866773882504106L470.2747550000001,59.43185062898789L470.95762500000006,59.190549703752424L471.64049500000004,58.986823859586195L472.3233650000001,59.06107724703554L473.00623500000006,59.00738483253053L474.3719750000001,59.603928327825486L475.39628000000005,59.883263004902176L476.07915,59.73647744335028L477.44489000000004,59.785949711343335L478.12776,59.87457836116408L478.81063,59.613376079057616L479.49350000000004,60.08541365379165L480.17637,60.014957568683485L481.20067500000005,60.090581391467424L481.883545,59.93946679118869L482.56641500000006,59.750553584046884L483.24928500000004,59.97123815863506L483.932155,59.96610529846373L484.61502500000006,59.805835846361504L485.29789500000004,59.92580920012455L485.980765,59.7227128983331L487.00507000000005,59.65980040628318L487.6879400000001,59.366618728079175L488.37081000000006,59.17105669428253L489.05368000000004,59.23056223687826L489.7365500000001,59.08942279956199L490.41942000000006,58.82790327009735L491.10229000000004,58.80852826154387L492.80946500000005,58.777257125336405L493.492335,58.856738890586485L494.175205,59.081270712610205L494.85807500000004,58.86230428007701L495.540945,58.92741331450617L496.223815,59.14332149803738L496.90668500000004,59.27286640815606L497.589555,59.19340361822793L498.61386000000005,59.008182339346774L499.29673,59.250728201966695L499.97960000000006,59.10152237861507L500.66247000000004,58.79586385957958L501.34534,58.65176790610798L502.02821000000006,58.62425562304992L503.39395,58.56844909526552L504.418255,59.2423224384919L505.1011250000001,59.568055024327464L506.4668650000001,59.29191847203151L507.1497350000001,59.08693738270432L507.83260500000006,58.983601755982306L508.5154750000001,58.725111486L509.1983450000001,58.530718166061035L510.22265000000004,58.41408217409764L510.90552,58.304801420969966L511.58839000000006,58.317831284992565L512.27126,58.38459449243112L512.9541300000001,58.405006285818786L513.6370000000001,58.495844781951746L514.31987,58.64859232660609L516.027045,58.779540011348274L517.392785,59.0349513850673L518.0756550000001,59.32573491842396L518.7585250000001,59.46090588048838L520.807135,59.14903756562774L523.88005,58.824372971787284L524.5629200000001,58.70816563558327L525.24579,58.815283996734536L525.92866,58.93850030245028L526.61153,58.97313092793013L527.635835,58.797420409268966L528.318705,58.55445738894713L529.0015750000001,58.72305904875287L531.050185,59.02070893858536L531.733055,59.14035358346001L532.415925,58.9567061874107L533.44023,58.925109169881466L534.80597,58.88650482828854L535.4888400000001,59.41350974723042L536.17171,59.572522962596054L537.53745,59.451788970992084L538.22032,59.359702444954394L539.244625,59.06866247743312L539.9274950000001,58.79579404994587L540.610365,58.730317440427996L541.2932350000001,58.67138534364193L541.9761050000001,58.655672216645655L542.658975,59.019575997270636L543.341845,59.10037466072151L544.0247150000001,58.89341967581811L545.04902,58.808545842825595L545.7318900000001,58.954110436979136L546.41476,58.72706282567344L547.0976300000001,58.68907870586452L547.7805000000001,58.70558739192887L548.46337,58.577948998643194L550.853415,58.79609930359544L551.536285,58.730500592617716L552.2191550000001,58.71079439290537L552.902025,58.69897067307795L553.5848950000001,58.82941315030672L554.267765,58.78978805859407L554.950635,58.92320273956602L555.633505,59.0621968371741L556.65781,58.9098121396392L557.34068,58.62189242716914L558.0235500000001,58.68492175578689L558.70642,58.44765903890817L559.3892900000001,58.619680880779924L560.07216,58.95868203780162L561.4379,58.886995522166444L562.4622050000002,58.647501614635075L563.145075,58.36626166519221L563.8279450000001,58.41365272055083L564.5108150000001,58.36349593366572L565.1936850000001,58.31374883466043L565.876555,58.46074333813101L566.5594250000001,58.33279811939008L567.242295,58.39357459306956L568.2666,58.4693396352269L568.94947,58.51479866052125L569.63234,58.522421048823674L570.3152100000001,58.605592797704276L570.99808,58.75374029400723L571.68095,58.66578602891525L572.36382,58.8291553906833L573.04669,59.00576842784449L574.070995,59.170688434965086L574.7538650000001,59.07315154528828L575.436735,59.19146527855702L576.8024750000001,59.22315436056874L578.168215,59.3797114146999L579.87539,59.04136870133084L581.9240000000001,58.74012552213378L582.6068700000001,58.69691632374071L583.28974,58.82818054070441L583.97261,58.710450176933534L584.6554800000001,58.56122053857075L585.679785,58.668171649502085L586.362655,58.4572551062127L587.0455250000001,58.3110590491637L587.728395,58.41983030888338L588.4112650000001,58.50473919579048L589.094135,58.57533755480904L589.777005,58.67664185924508L590.459875,59.267938938930115L592.8499200000001,59.13150184766732L593.53279,58.89244296111133L594.2156600000001,58.80795981400149L595.5814,58.83586134583595L596.26427,58.695412528937084L597.288575,58.68974155469704L597.971445,58.66668594327871L598.654315,58.574261156327395L599.3371850000001,58.47950712620707L600.0200550000001,58.28511110321068L600.702925,58.20777264736245L601.3857950000001,58.22031486287847L603.09297,58.36538379711226L603.7758400000001,58.255936263703404L604.45871,58.131322454633164L605.1415800000001,58.03690114231682L605.8244500000001,58.216036406825594L607.19019,58.598604775379215L607.8730600000001,58.71024832266255L608.897365,58.60039858395771L609.5802350000001,58.65237931878471L610.263105,58.80145833773082L610.9459750000001,59.00880322294722L611.6288450000001,58.995666549152986L612.311715,59.04672983390134L612.994585,58.920178068750886L613.6774550000001,58.86389314073597L614.70176,59.026611077876055L615.38463,59.025997393185605L616.0675000000001,58.9273847353968L616.75037,58.887870167597725L618.11611,58.549781954919354L618.79898,58.563064052336756L619.4818500000001,58.62997859981215L620.506155,59.22029485219497L621.189025,59.083262368751946L621.8718950000001,58.765261722586445L622.554765,58.692351912937L623.2376350000001,58.943339368070895L625.286245,58.877789920327984L626.3105500000001,58.70092354255695L627.6762900000001,58.88953705681803L628.3591600000001,58.80621627142551L629.0420300000001,58.77586993126539L629.7249,58.73801599609391L630.4077700000001,58.97073781796507L631.09064,58.95318117508833L632.797815,58.687213006388276L633.480685,58.468679920344414L634.1635550000001,58.239315621743515L634.846425,58.21959451643181L635.529295,58.286353273345014L636.212165,58.28711626534232L636.895035,58.307220191615954L637.91934,58.27998338943058L639.28508,58.2439951770441L639.9679500000001,58.143803933712945L640.6508200000001,58.26053195058796L641.33369,58.21267128686418L642.01656,58.203607915504165L642.6994300000001,58.15887073473863L643.723735,58.13202842627919L644.4066050000001,58.13556917227896L645.089475,58.07874833085384L645.7723450000001,58.0446558259988L646.4552150000001,58.02420032308578L647.138085,58.247715073236634L647.820955,58.26393334527728L648.5038250000001,58.11646767670322L649.52813,58.04764130243308L650.211,58.0259916089463L650.8938700000001,58.032654819728464L651.57674,58.03665274619783L652.2596100000001,58.27483265817915L652.94248,58.712473946291595L653.62535,58.91611343013409L654.30822,58.80250906854093L655.332525,58.45926613753568L656.6982650000001,58.272966510007905L657.381135,58.239785049390434L658.0640050000001,58.16093088399498L658.746875,58.19220980485801L659.429745,58.171677999426265L660.112615,58.17901194304142L661.1369200000001,58.22271146716008L661.81979,58.268577312706725L663.1855300000001,58.17820624198475L663.8684000000001,58.28117333555099L664.55127,58.205409986766654L665.2341400000001,58.35644087144516L665.91701,58.78109190112548L666.941315,58.721496151135796L668.307055,59.01977120001516L668.9899250000001,58.943302046368785L669.6727950000001,58.79917610720639L670.355665,58.85024414863307L671.7214050000001,58.64509692159044L672.74571,58.48270942741527L673.4285800000001,58.38527693091015L674.11145,58.405415748906364L675.4771900000001,58.5550357488292L676.16006,58.664460775657176L676.84293,58.67117050272901L677.5258000000001,58.61624415414832L678.550105,58.56364221392454L679.2329750000001,58.669624654714426L679.9158450000001,58.51707909416393L680.5987150000001,58.386252599884074L681.2815850000001,58.38634812341638L681.9644550000002,58.406058464409966L682.647325,58.476829958031146L683.3301950000001,58.637183432253664L684.3545,58.517260491762784L685.7202400000001,58.661441752492635L686.40311,58.68900521990565L687.76885,58.60729885337895L688.45172,58.460030586488415L689.13459,58.725348256302595L690.1588950000001,58.5308602282426L691.5246350000001,58.49276572730571L692.2075050000001,58.39131071084444L692.8903750000001,58.271492411942745L693.573245,58.21924756367707L694.938985,58.28614510169217L696.64616,58.38522891352619L698.0119000000001,58.385733911601676L698.6947700000001,58.228847174447424L699.37764,58.21331344805412L700.0605100000001,58.24329237016775L700.74338,58.20232753861205L703.8162950000001,58.25634695557778L704.4991650000001,58.210160289858095L705.182035,58.12350300140133L705.864905,58.28764365335172L706.5477750000001,58.42542720247155L708.2549500000001,58.390206753893494L708.93782,58.349428353671385L709.6206900000001,58.89477496851106L710.3035600000001,58.92724959649121L710.98643,58.63235490128045L711.6693,58.534009504254186L712.3521700000001,58.59289973988729L713.376475,58.78542361726653L714.0593450000001,59.03848154861822L714.7422150000001,58.91522909758106L716.1079550000001,58.664441759883914L716.7908250000002,58.69080522434035L717.473695,58.94241135491296L718.1565650000001,59.40775450525547L719.18087,59.25468344961325L719.86374,59.084249396127575L720.5466100000001,58.80514620116247L721.22948,58.63768428418342L721.9123500000001,58.36037126692122L722.59522,58.27257487666412L723.27809,58.20025091143452L723.96096,58.37299155732126L724.9852650000001,58.41769065582827L725.668135,58.60169985093199L726.3510050000001,58.47632421189445L727.0338750000001,58.460044117496864L727.7167450000001,58.548520507832905L729.0824850000001,58.483708868185715L729.765355,58.56271935824611L730.78966,58.354691469308364L731.4725300000001,58.210221709071504L732.1554000000001,58.2217842999039L732.8382700000001,58.13047740742883L733.5211400000002,58.05604714086843L734.20401,58.12927955898209L734.8868800000001,58.33040874584975L735.5697500000001,58.49038541591989L736.594055,58.58637141796197L737.2769250000001,58.4867732831878L738.6426650000001,58.72174774324691L739.3255350000001,58.78413410338311L740.008405,58.86086507741453L740.691275,58.8283053459341L742.39845,58.59263448202148L743.0813200000001,58.549476410648424L743.7641900000001,58.58252685684948L744.4470600000001,58.62201015144444L745.1299300000001,58.724291548301665L745.8128000000002,58.785660386416L747.1785400000001,58.99932445215836L748.202845,59.048924575704575L749.5685850000001,58.783951308908684L750.251455,58.546375928730924L750.9343250000001,58.325232384724984L751.6171950000002,58.38903515227054L752.300065,58.446962943873245L752.9829350000001,58.50137264570907L754.69011,58.671562071734684L756.0558500000001,58.67543128037556L757.42159,58.461610884736785L758.1044600000001,58.23507420037896L758.78733,58.21704966361301L759.8116350000001,58.08833746770466L760.494505,58.08970846605888L761.8602450000001,58.149476354096294L762.5431150000001,58.28358153389331L763.225985,58.24615406372169L764.591725,58.34158815966856L765.61603,58.39884861723664L766.2989000000001,58.47250404972715L766.98177,58.39880673117153L768.34751,58.374234471113596L769.03038,58.39879027302834L769.7132500000001,58.27598014925309L770.3961200000001,58.26123936401285L771.420425,58.154150445894174L772.1032950000001,58.070250963947615L772.786165,58.07885656380461L773.4690350000001,58.33945410669287L774.151905,58.31897676535101L774.834775,58.22809204464659L775.517645,58.17356121222406L776.2005150000001,58.101543554820864L777.9076900000001,58.01903380242942L779.2734300000001,58.02848013581831L779.9563,58.0144949089775L781.32204,57.966804614923376L782.0049100000001,57.93819043849095L783.029215,57.92102193263139L783.712085,57.89107469804037L784.3949550000001,58.030296093285244L785.077825,58.07452977248255L785.760695,58.08142384892557L786.443565,58.22310389971551L787.126435,58.40635637716406L787.809305,58.359118127633735L788.8336100000001,58.40936659801571L789.51648,58.439515680244995L790.8822200000001,58.26111623563344L791.56509,58.15407656886657L792.24796,58.14879805783136L792.9308300000001,58.30282068720976L793.6137,58.29699671366109L794.6380050000001,58.58822877465667L796.0037450000001,58.64507743320405L797.3694850000002,58.6202413393076L798.052355,58.56604052502007L799.4180950000001,58.67106364137169L800.4424,58.75372364225808L801.1252700000001,58.56753848669007L801.80814,58.53441881344963L802.4910100000001,58.632437587555216L803.17388,58.63230356299357L803.85675,58.84836506907999L805.2224900000001,58.683268631808176L806.246795,58.52526548042022L806.9296650000001,58.37151140476351L808.2954050000001,58.37750340634403L808.978275,58.44004389631738L809.6611450000001,58.438275928150574L810.344015,58.28002541125113L812.05119,58.204721232186785L812.7340600000001,58.25778317172268L813.4169300000001,58.15207673052009L814.0998000000001,58.06900673472319L815.4655400000001,57.99951171037077L816.14841,58.07571216960815L816.8312800000001,58.04283412925133L817.8555850000001,58.06240646298687L818.538455,58.32958404620223L819.2213250000001,58.29340170218234L819.9041950000001,58.52712647874438L821.269935,58.41192716170764L821.9528050000001,58.36246059835986L822.635675,58.195237055427015L823.6599800000001,58.13420208761693L824.34285,58.117227238006194L825.0257200000001,58.02844401234057L825.7085900000001,57.955527945865924L826.39146,57.97072359500601L827.07433,58.09773845833888L827.7572000000001,58.19359350741394L828.44007,58.27075266793429L829.4643750000001,58.19915758619669L830.1472450000001,58.195499695103706L830.8301150000001,58.21295109152322L831.5129850000001,58.22342192937492L832.1958550000002,58.249357458960276L832.878725,58.16667432973685L834.2444650000001,58.156356714353535L835.26877,58.248410592098026L835.9516400000001,58.264350656594104L836.63451,58.254261668417485L837.3173800000001,58.18926298648654L838.00025,58.22886209322718L839.36599,58.56700102927056L840.0488600000001,58.51445020792249L841.073165,58.306076952240005L841.7560350000001,58.23999828785537L842.4389050000001,58.14140580019978L845.170385,58.062604176530954L845.8532550000001,58.034969333405L846.87756,57.99874229645417L847.5604300000001,57.97700607428362L848.2433000000001,57.96396434098125L848.9261700000001,58.034730721100175L849.60904,58.07719054917152L850.2919100000001,58.024075025914044L850.97478,58.286939052883156L851.6576500000001,58.30711386414049L852.6819550000001,58.31921875089489L853.364825,58.22823723597304L854.0476950000001,58.27189277399441L854.7305650000001,58.18019551875739L855.413435,58.243067743664994L856.096305,58.26114494753432L856.7791750000001,58.114794638057504L857.462045,58.066283610320966L858.4863500000001,57.99787783572947L859.1692200000001,57.95683437097455L859.8520900000001,57.93220829212157L860.5349600000001,58.07462927660822L861.2178300000002,58.140428840425955L861.9007,58.25850689461578L862.5835700000001,58.21145625328086L864.2907450000001,58.320769473404084L865.6564850000001,58.28811295850346L866.3393550000001,58.150628471513244L867.0222250000002,58.04848475244478L867.705095,58.06579683690296L868.3879650000001,58.17442853455242L870.09514,58.20030839519245L871.4608800000001,58.23548933845075L872.1437500000001,58.295890166556376L872.82662,58.3124845323444L873.5094900000001,58.20455057376739L874.8752300000001,58.120137171746876L875.899535,58.16773357750918L876.5824050000001,58.156992263016946L877.2652750000001,58.130901343246194L877.9481450000001,58.03664847548464L879.3138850000001,58.01939591277721L879.996755,57.96974521720318L880.6796250000001,57.95960782673308L881.7039300000001,57.93387236557675L883.0696700000001,57.89878495780755L883.7525400000002,57.89737864422136L884.43541,57.87688872499439L886.4840200000001,58.00213837838231L887.5083250000001,58.077288170415045L888.191195,58.12237804563472L888.8740650000001,58.09048668174154L889.5569350000001,58.09099799448097L890.239805,58.13060394007431L890.922675,58.23295892753055L891.6055450000001,58.196127473029776L892.288415,58.213327758278865L893.3127200000001,58.24330095630256L893.9955900000001,58.39882158424206L894.6784600000001,58.33494422500627L895.3613300000001,58.198373362490145L896.72707,58.096784713905265L897.4099400000001,58.03583152475426L898.0928100000001,58.01890574233903L899.7999850000001,58.02840329976419L900.482855,58.014448807344934L901.1657250000001,58.006076111893435L901.848595,58.05999778364753L902.531465,58.09235078669991L903.2143350000001,58.56368566545444L903.8972050000001,58.453515700607966L904.92151,58.28916927472545L905.6043800000001,58.15126226124636L906.2872500000001,58.18640863120885L906.9701200000001,58.10925200621176L908.3358600000001,58.475581950187006L909.01873,58.53819018057271L909.7016000000001,58.49716369870379L910.725905,58.51184007173322L911.4087750000001,58.59924421144996L912.0916450000001,58.55344224830549L912.7745150000001,58.48666191246923L913.457385,58.623436473841195L914.1402550000001,58.37146871179124L914.823125,58.357831659485385L915.5059950000001,58.46754000615175L916.5303000000001,58.49406585620193L917.21317,58.56893355105586L917.8960400000001,58.45666443196882L919.26178,58.36964993364228L919.94465,58.317441234646424L920.6275200000001,58.46295877812253L921.3103900000001,58.393079568208805L922.3346950000001,58.4100973312855L923.0175650000001,58.32206354215697L923.7004350000001,58.28888939975519L926.4319150000001,58.19039349421382L927.1147850000001,58.09199679293948L928.1390900000001,58.111550192275104L928.8219600000001,58.12328223187649L930.1877000000001,58.13032145563733L930.8705700000002,58.13454498989381L931.55344,58.117432979372325L932.2363100000001,58.06786661510989L932.9191800000001,58.01848066547706L934.6263550000001,58.08709354267188L935.3092250000001,58.20685268908909L935.9920950000001,58.18046372996491L936.674965,58.08603893439005L937.3578350000001,58.127628504019754L938.040705,58.03468477194872L938.7235750000001,57.959272401630756L939.74788,58.03191555748981L940.4307500000001,57.99691003090504L941.1136200000001,57.97590671495419L941.7964900000001,57.982950856458956L942.47936,58.04612263038683L943.1622300000001,58.16262401064267L943.8451,58.1146342607463L944.5279700000001,58.10548654188386" style="fill: none;" fill="none"></path></g></g></g></g><g opacity="0.2"><g><g><g><path stroke="rgb(255, 112, 67)" stroke-width="2px" d="M74.89302500000001,315.83528418724353L75.57589500000002,316.17913888967956L76.941635,315.9335277722432L78.30737500000001,313.96864529756397L78.990245,313.87040171256433L79.67311500000001,314.5089893249365L80.69742000000001,314.4598653774995L81.38029,315.4423076923077L82.06316,316.71948076211487L82.74603,315.6387970172442L83.4289,313.33005768519183L84.11177000000002,316.1300170971797L84.79464000000002,316.7686047095519L85.47751000000001,310.13712393320526L86.50181500000001,313.28093589269196L87.18468500000002,315.19669657487134L87.86755500000001,316.7686047095519L88.550425,316.8177265020517L89.23329500000001,315.34406410730804L89.916165,314.2142564150003L90.599035,316.8177265020517L91.28190500000001,316.62123717711523L92.30621000000001,313.23181410019214L92.98908,313.4774252176285L94.35482000000002,314.65635470243603L96.40343000000001,308.8108290708982L97.08630000000001,306.45297010128314L98.110605,301.68812821461603L98.793475,300.50919657487134L99.47634500000001,296.18645297563995L100.84208500000001,289.8005854716668L101.524955,290.3900512915391L102.207825,286.1655512773074L102.89069500000001,283.611205137693L103.91500000000002,281.3515897530776L105.28074000000001,274.22888458692114L105.96361000000002,276.2428931639745L106.64648000000001,274.9165983016674L107.32935,269.36580342512866L108.01222000000001,270.44648716999933L108.69509000000001,269.0710683602553L110.402265,263.56940174102783L111.08513500000001,261.89924786641046L112.45087500000001,264.9939358784602L113.13374500000002,260.7694401741028L113.81661500000001,260.03260682179376L114.499485,260.4747051092295L115.52379000000002,254.43269230769232L116.20666000000001,255.16952566000134L117.57240000000002,249.5204871984629L118.25527000000001,250.65029489077057L118.93814,252.12395297563995L119.62101000000001,246.67140168410083L120.30388,249.47136325102588L121.328185,245.44335471666776L122.01105500000001,244.11705985436075L122.69392500000002,244.9521324817951L123.37679500000002,245.78720510922946L124.05966500000001,238.95923500794632L124.74253500000002,240.82587605256302L126.108275,236.01191883820755L127.13258,233.94879062359152L127.81545000000001,237.2890897530776L128.49832,231.14882905666647L129.18119000000002,234.88211114589987L129.86406,228.69272650205173L130.54693,233.2119572712825L131.2298,228.98746156692508L131.91267,228.69272650205173L133.619845,224.17349573282095L134.302715,226.089252105126L135.668455,224.4191068502573L136.35132500000003,217.4437735264118L137.034195,222.30685468820425L137.71706500000002,219.06480345359216L138.74137000000002,220.6858247610239L139.42424000000003,220.14548719846286L140.78998,215.03678629948544L141.47285000000002,217.7384999715365L142.15572000000003,217.0507905666645L142.83859,216.21571793923013L143.52146000000002,213.17015387461737L144.54576500000002,211.30351283000067L145.22863500000003,213.0227820323064L146.594375,209.14213672051065L147.27724500000002,207.61935468820425L147.960115,207.5211154130789L148.642985,204.62290595127988L149.32585500000002,203.8369572712825L150.35016000000002,202.70714957897482L151.03303,203.7387093764085L151.7159,206.63691883820755L153.08164,202.3632905666645L153.76451,199.26861117436337L154.44738,199.41597439692572L155.13025000000002,198.48264525486874L156.15455500000002,198.384414599492L156.83742500000002,194.6511325102586L157.52029500000003,192.3423845584576L158.203165,196.3703930928157L158.88603500000002,192.63712824307956L159.56890500000003,192.9809700158926L160.251775,190.27926496359018L160.93464500000002,193.42307692307693L161.95895000000002,191.65468377333423L162.64182000000002,185.1214487369244L163.32469,189.73892740102914L164.00756,185.5144230769231L164.69043000000002,188.06876490666318L165.3733,182.71447012974667L166.05617,187.67579056666446L166.73904000000002,189.00209404872015L168.446215,181.388166647691L169.129085,184.92495294717642L171.177695,177.90049567589395L171.860565,181.6828930928157L173.56774000000001,176.2794657487136L174.25061000000002,174.21634615384616L175.61635000000004,175.24790595127988L176.98209000000003,174.36370937640854L177.66496000000004,173.7251239189735L178.34783000000002,170.97428629948544L179.37213500000001,170.1392222917997L180.05500500000002,172.7918120164138L180.73787500000003,170.97428629948544L182.10361500000002,167.24100421025204L182.78648500000003,170.58131195948673L183.469355,166.65155132000265L184.15222500000002,165.42349573282095L185.85940000000002,162.47616232358493L186.54227,164.6375470528236L187.22514,165.17788461538464L187.90801000000002,162.9673845584576L188.59088,161.39548719846286L189.27375,162.5744102184589L189.95662000000002,163.01651712564322L191.663795,163.7042179107666L192.346665,156.2376709717971L193.71240500000002,158.30079056666446L194.39527500000003,160.0691837164072L195.76101500000001,158.89026069641113L196.78532,155.59908551436206L197.46819000000002,151.91491875281702L198.83393,150.04827770820032L199.51680000000002,155.54995294717642L200.19967000000003,153.1429743399987L201.56541,155.10786327948938L202.589715,147.98515811333291L203.27258500000002,146.11851706871622L203.95545500000003,148.9184700158926L205.32119500000002,147.83779489077054L206.00406500000003,150.04827770820032L206.686935,145.28345306103049L207.369805,146.75710252615124L208.39411,142.8273418866671L209.07698000000002,145.92203851846548L209.75985,144.25187602409952L210.44272,142.97470510922946L211.12559000000002,146.60973930358887L212.49133000000003,142.04139320666977L213.17420000000004,141.50103840461145L215.56424500000003,136.88357698000394L218.29572500000003,137.0309402025663L218.978595,140.3221153846154L220.68577000000002,129.71173924666186L221.36864000000003,133.69063245333157L222.05151,136.63796586256763L223.41725000000002,135.50815817025992L224.10012,131.03804272871753L224.78299,130.0064829312838L225.807295,127.25564531179577L226.49016500000002,123.12938888256369L228.53877500000002,127.25564531179577L229.221645,131.03804272871753L229.904515,131.28365384615384L230.587385,129.85911970872147L231.61169000000004,121.06626928769626L232.29456000000002,123.91533756256104L232.97743000000003,124.30831190255972L233.66030000000003,127.1082820892334L234.34317000000004,121.6066068502573L235.02604000000002,122.73641454256497L235.70891000000003,123.57149578974801L236.39178000000004,124.06270078512341L238.09895500000002,117.0382607533382L238.78182500000003,116.54703851846551L239.46469500000003,117.18562397590051L240.83043500000002,122.39255553025467L241.51330500000003,117.92245732820953L242.196175,119.15049567589398L243.22048,111.1927265020517L243.90335000000002,109.96467091487006L244.58622000000003,112.66639320666974L245.26909,110.89800005692706L246.63483000000002,117.57859831589923L247.3177,118.6592734410213L249.024875,106.5261325102586L249.70774500000005,109.37520078512341L250.39061500000003,109.76819236461932L251.75635500000004,110.35764525486871L252.43922500000002,107.95066664769098L253.12209500000003,109.47344867999738L253.80496500000004,109.03135901231036L254.82927000000004,102.25251285846417L255.51214000000002,104.51212824307953L256.19501,101.17182049384485L256.87788,104.6594914656419L257.56075000000004,108.09802987025336L258.24362,108.09802987025336L258.92649,105.93666238051196L259.60936000000004,107.55769230769232L260.633665,96.89820084205041L261.999405,97.29117518204913L262.682275,101.27006838871881L263.36514500000004,102.49812397590051L264.048015,100.38587181384747L265.41375500000004,103.18582476102387L266.43806000000006,94.638585457435L267.12093000000004,92.32985474513129L268.48667000000006,97.97889320666974L269.85241,96.5052265020517L271.21815000000004,98.9613376764151L272.242455,92.32985474513129L272.925325,92.32985474513129L273.608195,88.20359831589923L274.291065,92.32985474513129L275.656805,93.361414542565L276.339675,94.8841965748714L277.022545,93.90175210512604L278.04685,87.51588029127856L278.72972000000004,87.7614914087149L279.41259,86.92642740102917L280.09546,85.60012391897345L280.77833000000004,89.38252133589526L284.53411500000004,82.89841886667102L285.89985500000006,85.74748714153583L286.58272500000004,84.22470510922943L287.94846500000006,86.63168371640717L288.63133500000004,84.22470510922943L289.65564,79.0177735548753L290.33851,79.26338467231159L291.02138,80.44230769230768L291.70425,83.29139320666974L292.38712,81.523000056927L293.06999,83.63523497948279L293.75286,84.2738376764151L294.43573,83.0457820892334L295.460035,78.47741875281696L297.508645,79.16513677743762L298.19151500000004,79.41074789487396L298.874385,78.23180763538068L299.557255,79.90197012974664L300.24012500000003,79.21425210512604L301.94730000000004,72.43540595127985L302.63017,75.48097001589264L303.31304000000006,76.65991027538593L303.99591000000004,75.67746580564057L304.67878,75.82482902820294L305.36165000000005,79.6563590123103L306.04452000000003,75.43185468820423L307.068825,75.08799567589392L307.751695,76.31605126307562L308.434565,73.95818798358624L309.117435,72.77926496359015L309.800305,74.89151712564319L310.483175,77.24938040513257L311.166045,73.76170943333551L311.848915,76.07044014563922L312.87322,68.60389320666974L314.23896,69.3407265589787L314.92183000000006,70.42140168410077L316.28757,75.5792179107666L317.65331000000003,73.95818798358624L319.36048500000004,68.16178629948541L320.0433550000001,70.8635085912851L320.72622500000006,71.05998714153583L321.40909500000004,71.01087181384747L322.0919650000001,68.16178629948541L322.77483500000005,70.42140168410077L323.45770500000003,71.74770516615644L324.48201,67.22847439692572L325.16488000000004,65.70569236461932L325.84775,69.43895721435547L326.53062,72.04243161128119L327.21349000000004,67.62144873692438L327.89636,67.91617518204907L328.57923,69.78281622666577L329.26210000000003,68.11267097179706L330.28640500000006,70.42140168410077L330.96927500000004,70.27403846153845L331.652145,67.22847439692572L332.33501500000006,66.34427782205432L333.01788500000004,70.66701280153717L333.700755,69.04598287435675L334.38362500000005,67.37583761948804L335.06649500000003,67.1302265020517L336.09080000000006,67.91617518204907L336.77367000000004,64.9688590123103L337.4565400000001,64.37938888256366L338.13941000000005,63.986414542565L338.82228000000003,66.24602992718036L339.50515000000007,66.58988893949066L340.18802000000005,68.6530085343581L340.87089000000003,69.38984188666706L341.895195,65.95130348205566L343.260935,65.70569236461932L343.943805,66.98286327948932L345.309545,65.16533756256104L345.992415,65.06710690718427L346.67528500000003,66.29514525486871L347.69959000000006,62.7583589553833L348.38246000000004,64.08466243743896L349.06533,63.102217967693605L349.74820000000005,64.13377776512732L351.11394,63.93729921487659L351.79681000000005,66.04953413743237L353.503985,64.23202566000128L354.18685500000004,63.446076980003966L354.8697250000001,66.44250847743109L355.55259500000005,67.17934182974005L356.23546500000003,63.544307635380676L357.60120500000005,64.57588467231159L358.28407500000003,64.47763677743762L359.30838,62.7583589553833L359.99125000000004,62.56188040513257L361.35699,65.41094867999738L362.03986000000003,63.839051320002625L362.72273,62.218021392822266L363.4056,62.954854745131286L364.08847000000003,65.21447012974664L365.79564500000004,64.77236322256232L366.478515,64.3302735548753L367.16138500000005,62.26713672051062L368.527125,63.839051320002625L369.20999500000005,62.56188040513257L370.91717,61.92327770820026L372.28291,61.33382481795087L372.96578000000005,62.856606850257265L373.64865000000003,62.365384615384585L375.01439000000005,63.298696517944336L375.69726,64.9197264451247L376.721565,60.69523936051587L378.087305,61.62855126307562L378.77017500000005,63.053085400507996L379.45304500000003,64.9197264451247L380.135915,63.49519230769232L380.81878500000005,62.41449994307294L381.501655,62.07065817025989L382.52596000000005,62.610995732820925L383.89170000000007,61.18646159538855L385.25744000000003,61.33382481795087L386.62318000000005,61.481188040513246L388.330355,61.13732902820294L390.378965,63.249581190255924L391.06183500000003,63.102217967693605L392.42757500000005,61.43207271282489L393.1104450000001,61.5303033682016L394.13475000000005,61.92327770820026L394.81762000000003,62.463632510258606L395.50049,61.03908113332892L396.86623000000003,60.15488455845758L397.5491,61.382940145639225L398.23197000000005,61.33382481795087L398.91484,61.82504705282355L399.93914500000005,61.03908113332892L400.62201500000003,62.02152560307428L401.30488500000007,59.27068798358624L401.98775500000005,60.44962824307953L402.67062500000003,61.972410275385926L403.35349500000007,62.31626928769623L404.03636500000005,60.54787613795355L404.719235,61.28469225076526L406.42641000000003,60.989965805640566L407.10928,61.77591448563794L407.79215,60.302265020517154L408.47502000000003,60.15488455845758L409.15789,61.33382481795087L409.84076,60.302265020517154L410.5236300000001,60.2531324533316L411.54793500000005,59.418068445645815L412.23080500000003,60.15488455845758L412.913675,59.6636623235849L413.59654500000005,60.989965805640566L414.27941500000003,60.44962824307953L414.962285,60.744354688204226L415.64515500000005,61.088213700514586L416.328025,59.56543166820819L417.35233000000005,59.418068445645815L418.03520000000003,59.860158113332886L418.71807000000007,59.95840600820685L419.40094000000005,62.218021392822266L420.76668000000006,59.6636623235849L421.44955000000004,59.123324761023866L424.522465,59.860158113332886L425.205335,60.84260258307819L425.888205,60.20401712564319L426.571075,59.81104278564453L427.253945,60.05665390308087L427.936815,62.26713672051062L428.96112000000005,61.18646159538855L429.64399000000003,60.989965805640566L431.00973000000005,59.81104278564453L431.6926,59.860158113332886L432.37547,60.105769230769226L434.76551500000005,61.28469225076526L435.44838500000003,60.79347001589264L436.81412500000005,60.8917179107666L438.86273500000004,59.516299101022526L439.545605,59.614546995896546L440.56991,60.351380348205566L441.25278000000003,59.860158113332886L441.93565,59.27068798358624L442.61852000000005,58.53385463127722L443.30139,59.123324761023866L443.98426,59.418068445645815L444.66713000000004,60.351380348205566L445.35,61.13732902820294L446.37430500000005,59.27068798358624L447.74004500000007,59.76191021845892L448.42291500000005,59.76191021845892L449.105785,59.17245732820953L449.78865500000006,59.76191021845892L450.47152500000004,61.77591448563794L451.154395,59.95840600820685L452.17870000000005,58.877713643587526L453.54444000000007,60.8917179107666L454.22731000000005,60.44962824307953L454.9101800000001,60.44962824307953L455.59305000000006,59.516299101022526L460.03170500000004,61.13732902820294L461.397445,60.498743570767886L462.08031500000004,60.007521335895206L462.763185,59.516299101022526L463.78749000000005,60.20401712564319L464.47036,59.368935878460206L465.15323000000006,58.877713643587526L465.83610000000004,59.22157265589789L466.51897,59.27068798358624L467.20184000000006,58.926846210773135L467.88471000000004,60.54787613795355L468.56758,60.84260258307819L469.59188500000005,59.418068445645815L470.2747550000001,58.77946574871356L470.95762500000006,58.82859831589917L471.64049500000004,58.68123509333685L472.3233650000001,59.17245732820953L473.00623500000006,58.926846210773135L474.3719750000001,60.498743570767886L475.39628000000005,60.302265020517154L476.07915,59.516299101022526L477.44489000000004,59.860158113332886L478.12776,60.007521335895206L478.81063,59.22157265589789L479.49350000000004,60.79347001589264L480.17637,59.90927344102124L481.20067500000005,60.20401712564319L481.883545,59.71279489077057L482.56641500000006,59.46718377333417L483.24928500000004,60.302265020517154L483.932155,59.95840600820685L484.61502500000006,59.56543166820819L485.29789500000004,60.105769230769226L485.980765,59.418068445645815L487.00507000000005,59.56543166820819L487.6879400000001,58.926846210773135L488.37081000000006,58.877713643587526L489.05368000000004,59.31982055077185L489.7365500000001,58.877713643587526L490.41942000000006,58.435623975900455L491.10229000000004,58.77946574871356L492.80946500000005,58.73035042102521L493.492335,58.97596153846149L494.175205,59.418068445645815L494.85807500000004,58.53385463127722L495.540945,59.0250768661499L496.223815,59.46718377333417L496.90668500000004,59.46718377333417L497.589555,59.07420943333551L498.61386000000005,58.73035042102521L499.29673,59.614546995896546L499.97960000000006,58.877713643587526L500.66247000000004,58.33737608102649L501.34534,58.435623975900455L502.02821000000006,58.58298719846283L503.39395,58.48473930358887L504.418255,60.2531324533316L505.1011250000001,60.05665390308087L506.4668650000001,58.877713643587526L507.1497350000001,58.77946574871356L507.83260500000006,58.82859831589917L508.5154750000001,58.33737608102649L509.1983450000001,58.23912818615253L510.22265000000004,58.23912818615253L510.90552,58.140880291278506L511.58839000000006,58.33737608102649L512.27126,58.48473930358887L512.9541300000001,58.435623975900455L513.6370000000001,58.632102526151186L514.31987,58.877713643587526L516.027045,58.97596153846149L517.392785,59.418068445645815L518.0756550000001,59.76191021845892L518.7585250000001,59.6636623235849L520.807135,58.68123509333685L523.88005,58.33737608102649L524.5629200000001,58.53385463127722L525.24579,58.97596153846149L525.92866,59.123324761023866L526.61153,59.0250768661499L527.635835,58.53385463127722L528.318705,58.19001285846417L529.0015750000001,58.97596153846149L531.050185,59.46718377333417L531.733055,59.31982055077185L532.415925,58.68123509333685L533.44023,58.877713643587526L534.80597,58.82859831589917L535.4888400000001,60.20401712564319L536.17171,59.81104278564453L537.53745,59.27068798358624L538.22032,59.22157265589789L539.244625,58.632102526151186L539.9274950000001,58.3864914087149L540.610365,58.632102526151186L541.2932350000001,58.58298719846283L541.9761050000001,58.632102526151186L542.658975,59.56543166820819L543.341845,59.22157265589789L544.0247150000001,58.58298719846283L545.04902,58.68123509333685L545.7318900000001,59.17245732820953L546.41476,58.3864914087149L547.0976300000001,58.632102526151186L547.7805000000001,58.73035042102521L548.46337,58.3864914087149L550.853415,59.123324761023866L551.536285,58.632102526151186L552.2191550000001,58.68123509333685L552.902025,58.68123509333685L553.5848950000001,59.0250768661499L554.267765,58.73035042102521L554.950635,59.123324761023866L555.633505,59.27068798358624L556.65781,58.68123509333685L557.34068,58.19001285846417L558.0235500000001,58.77946574871356L558.70642,58.09176496359015L559.3892900000001,58.877713643587526L560.07216,59.46718377333417L561.4379,58.77946574871356L562.4622050000002,58.288260753338136L563.145075,57.94440174102783L563.8279450000001,58.48473930358887L564.5108150000001,58.288260753338136L565.1936850000001,58.23912818615253L565.876555,58.68123509333685L566.5594250000001,58.140880291278506L567.242295,58.48473930358887L568.2666,58.58298719846283L568.94947,58.58298719846283L569.63234,58.53385463127722L570.3152100000001,58.73035042102521L570.99808,58.97596153846149L571.68095,58.53385463127722L572.36382,59.07420943333551L573.04669,59.27068798358624L574.070995,59.418068445645815L574.7538650000001,58.926846210773135L575.436735,59.368935878460206L576.8024750000001,59.27068798358624L578.168215,59.614546995896546L579.87539,58.53385463127722L581.9240000000001,58.288260753338136L582.6068700000001,58.632102526151186L583.28974,59.0250768661499L583.97261,58.53385463127722L584.6554800000001,58.33737608102649L585.679785,58.82859831589917L586.362655,58.140880291278506L587.0455250000001,58.09176496359015L587.728395,58.58298719846283L588.4112650000001,58.632102526151186L589.094135,58.68123509333685L589.777005,58.82859831589917L590.459875,60.15488455845758L592.8499200000001,58.926846210773135L593.53279,58.53385463127722L594.2156600000001,58.68123509333685L595.5814,58.877713643587526L596.26427,58.48473930358887L597.288575,58.68123509333685L597.971445,58.632102526151186L598.654315,58.435623975900455L599.3371850000001,58.33737608102649L600.0200550000001,57.99351706871619L600.702925,58.09176496359015L601.3857950000001,58.23912818615253L603.09297,58.58298719846283L603.7758400000001,58.09176496359015L604.45871,57.94440174102783L605.1415800000001,57.89526917384222L605.8244500000001,58.48473930358887L607.19019,59.17245732820953L607.8730600000001,58.877713643587526L608.897365,58.435623975900455L609.5802350000001,58.73035042102521L610.263105,59.0250768661499L610.9459750000001,59.31982055077185L611.6288450000001,58.97596153846149L612.311715,59.123324761023866L612.994585,58.73035042102521L613.6774550000001,58.77946574871356L614.70176,59.27068798358624L615.38463,59.0250768661499L616.0675000000001,58.77946574871356L616.75037,58.82859831589917L618.11611,58.042649635901796L618.79898,58.58298719846283L619.4818500000001,58.73035042102521L620.506155,60.105769230769226L621.189025,58.877713643587526L621.8718950000001,58.288260753338136L622.554765,58.58298719846283L623.2376350000001,59.31982055077185L625.286245,58.77946574871356L626.3105500000001,58.435623975900455L627.6762900000001,59.17245732820953L628.3591600000001,58.68123509333685L629.0420300000001,58.73035042102521L629.7249,58.68123509333685L630.4077700000001,59.31982055077185L631.09064,58.926846210773135L632.797815,58.288260753338136L633.480685,58.140880291278506L634.1635550000001,57.89526917384222L634.846425,58.19001285846417L635.529295,58.3864914087149L636.212165,58.288260753338136L636.895035,58.33737608102649L637.91934,58.23912818615253L639.28508,58.19001285846417L639.9679500000001,57.99351706871619L640.6508200000001,58.435623975900455L641.33369,58.140880291278506L642.01656,58.19001285846417L642.6994300000001,58.09176496359015L643.723735,58.09176496359015L644.4066050000001,58.140880291278506L645.089475,57.99351706871619L645.7723450000001,57.99351706871619L646.4552150000001,57.99351706871619L647.138085,58.58298719846283L647.820955,58.288260753338136L648.5038250000001,57.89526917384222L649.52813,57.94440174102783L650.211,57.99351706871619L650.8938700000001,58.042649635901796L651.57674,58.042649635901796L652.2596100000001,58.632102526151186L652.94248,59.368935878460206L653.62535,59.22157265589789L654.30822,58.632102526151186L655.332525,57.94440174102783L656.6982650000001,57.99351706871619L657.381135,58.19001285846417L658.0640050000001,58.042649635901796L658.746875,58.23912818615253L659.429745,58.140880291278506L660.112615,58.19001285846417L661.1369200000001,58.288260753338136L661.81979,58.33737608102649L663.1855300000001,58.042649635901796L663.8684000000001,58.435623975900455L664.55127,58.09176496359015L665.2341400000001,58.58298719846283L665.91701,59.418068445645815L666.941315,58.632102526151186L668.307055,59.46718377333417L668.9899250000001,58.82859831589917L669.6727950000001,58.58298719846283L670.355665,58.926846210773135L671.7214050000001,58.33737608102649L672.74571,58.23912818615253L673.4285800000001,58.23912818615253L674.11145,58.435623975900455L675.4771900000001,58.77946574871356L676.16006,58.82859831589917L676.84293,58.68123509333685L677.5258000000001,58.53385463127722L678.550105,58.48473930358887L679.2329750000001,58.82859831589917L679.9158450000001,58.288260753338136L680.5987150000001,58.19001285846417L681.2815850000001,58.3864914087149L681.9644550000002,58.435623975900455L682.647325,58.58298719846283L683.3301950000001,58.877713643587526L684.3545,58.33737608102649L685.7202400000001,58.877713643587526L686.40311,58.73035042102521L687.76885,58.48473930358887L688.45172,58.23912818615253L689.13459,59.123324761023866L690.1588950000001,58.23912818615253L691.5246350000001,58.435623975900455L692.2075050000001,58.23912818615253L692.8903750000001,58.09176496359015L693.573245,58.140880291278506L694.938985,58.3864914087149L696.64616,58.53385463127722L698.0119000000001,58.3864914087149L698.6947700000001,57.99351706871619L699.37764,58.19001285846417L700.0605100000001,58.288260753338136L700.74338,58.140880291278506L703.8162950000001,58.33737608102649L704.4991650000001,58.140880291278506L705.182035,57.99351706871619L705.864905,58.53385463127722L706.5477750000001,58.632102526151186L708.2549500000001,58.33737608102649L708.93782,58.288260753338136L709.6206900000001,59.71279489077057L710.3035600000001,58.97596153846149L710.98643,58.19001285846417L711.6693,58.3864914087149L712.3521700000001,58.68123509333685L713.376475,59.07420943333551L714.0593450000001,59.418068445645815L714.7422150000001,58.73035042102521L716.1079550000001,58.288260753338136L716.7908250000002,58.73035042102521L717.473695,59.31982055077185L718.1565650000001,60.105769230769226L719.18087,59.0250768661499L719.86374,58.82859831589917L720.5466100000001,58.3864914087149L721.22948,58.3864914087149L721.9123500000001,57.94440174102783L722.59522,58.140880291278506L723.27809,58.09176496359015L723.96096,58.632102526151186L724.9852650000001,58.48473930358887L725.668135,58.877713643587526L726.3510050000001,58.288260753338136L727.0338750000001,58.435623975900455L727.7167450000001,58.68123509333685L729.0824850000001,58.3864914087149L729.765355,58.68123509333685L730.78966,58.042649635901796L731.4725300000001,57.99351706871619L732.1554000000001,58.23912818615253L732.8382700000001,57.99351706871619L733.5211400000002,57.94440174102783L734.20401,58.23912818615253L734.8868800000001,58.632102526151186L735.5697500000001,58.73035042102521L736.594055,58.73035042102521L737.2769250000001,58.33737608102649L738.6426650000001,59.07420943333551L739.3255350000001,58.877713643587526L740.008405,58.97596153846149L740.691275,58.77946574871356L742.39845,58.23912818615253L743.0813200000001,58.48473930358887L743.7641900000001,58.632102526151186L744.4470600000001,58.68123509333685L745.1299300000001,58.877713643587526L745.8128000000002,58.877713643587526L747.1785400000001,59.31982055077185L748.202845,59.123324761023866L749.5685850000001,58.3864914087149L750.251455,58.19001285846417L750.9343250000001,57.99351706871619L751.6171950000002,58.48473930358887L752.300065,58.53385463127722L752.9829350000001,58.58298719846283L754.69011,58.926846210773135L756.0558500000001,58.68123509333685L757.42159,58.140880291278506L758.1044600000001,57.89526917384222L758.78733,58.19001285846417L759.8116350000001,57.89526917384222L760.494505,58.09176496359015L761.8602450000001,58.23912818615253L762.5431150000001,58.48473930358887L763.225985,58.19001285846417L764.591725,58.48473930358887L765.61603,58.48473930358887L766.2989000000001,58.58298719846283L766.98177,58.288260753338136L768.34751,58.33737608102649L769.03038,58.435623975900455L769.7132500000001,58.09176496359015L770.3961200000001,58.23912818615253L771.420425,57.99351706871619L772.1032950000001,57.94440174102783L772.786165,58.09176496359015L773.4690350000001,58.73035042102521L774.151905,58.288260753338136L774.834775,58.09176496359015L775.517645,58.09176496359015L776.2005150000001,57.99351706871619L777.9076900000001,57.89526917384222L779.2734300000001,58.042649635901796L779.9563,57.99351706871619L781.32204,57.89526917384222L782.0049100000001,57.89526917384222L783.029215,57.89526917384222L783.712085,57.84615384615387L784.3949550000001,58.23912818615253L785.077825,58.140880291278506L785.760695,58.09176496359015L786.443565,58.435623975900455L787.126435,58.68123509333685L787.809305,58.288260753338136L788.8336100000001,58.48473930358887L789.51648,58.48473930358887L790.8822200000001,57.99351706871619L791.56509,57.99351706871619L792.24796,58.140880291278506L792.9308300000001,58.53385463127722L793.6137,58.288260753338136L794.6380050000001,59.0250768661499L796.0037450000001,58.73035042102521L797.3694850000002,58.58298719846283L798.052355,58.48473930358887L799.4180950000001,58.82859831589917L800.4424,58.877713643587526L801.1252700000001,58.288260753338136L801.80814,58.48473930358887L802.4910100000001,58.77946574871356L803.17388,58.632102526151186L803.85675,59.17245732820953L805.2224900000001,58.435623975900455L806.246795,58.288260753338136L806.9296650000001,58.140880291278506L808.2954050000001,58.3864914087149L808.978275,58.53385463127722L809.6611450000001,58.435623975900455L810.344015,58.042649635901796L812.05119,58.09176496359015L812.7340600000001,58.33737608102649L813.4169300000001,57.99351706871619L814.0998000000001,57.94440174102783L815.4655400000001,57.89526917384222L816.14841,58.19001285846417L816.8312800000001,57.99351706871619L817.8555850000001,58.09176496359015L818.538455,58.73035042102521L819.2213250000001,58.23912818615253L819.9041950000001,58.877713643587526L821.269935,58.23912818615253L821.9528050000001,58.288260753338136L822.635675,57.94440174102783L823.6599800000001,58.042649635901796L824.34285,58.09176496359015L825.0257200000001,57.89526917384222L825.7085900000001,57.84615384615387L826.39146,57.99351706871619L827.07433,58.288260753338136L827.7572000000001,58.33737608102649L828.44007,58.3864914087149L829.4643750000001,58.09176496359015L830.1472450000001,58.19001285846417L830.8301150000001,58.23912818615253L831.5129850000001,58.23912818615253L832.1958550000002,58.288260753338136L832.878725,58.042649635901796L834.2444650000001,58.140880291278506L835.26877,58.3864914087149L835.9516400000001,58.288260753338136L836.63451,58.23912818615253L837.3173800000001,58.09176496359015L838.00025,58.288260753338136L839.36599,59.07420943333551L840.0488600000001,58.435623975900455L841.073165,57.99351706871619L841.7560350000001,58.140880291278506L842.4389050000001,57.99351706871619L845.170385,57.94440174102783L845.8532550000001,57.99351706871619L846.87756,57.94440174102783L847.5604300000001,57.94440174102783L848.2433000000001,57.94440174102783L848.9261700000001,58.140880291278506L849.60904,58.140880291278506L850.2919100000001,57.94440174102783L850.97478,58.68123509333685L851.6576500000001,58.33737608102649L852.6819550000001,58.33737608102649L853.364825,58.09176496359015L854.0476950000001,58.33737608102649L854.7305650000001,58.042649635901796L855.413435,58.33737608102649L856.096305,58.288260753338136L856.7791750000001,57.89526917384222L857.462045,57.99351706871619L858.4863500000001,57.89526917384222L859.1692200000001,57.89526917384222L859.8520900000001,57.89526917384222L860.5349600000001,58.288260753338136L861.2178300000002,58.23912818615253L861.9007,58.435623975900455L862.5835700000001,58.140880291278506L864.2907450000001,58.48473930358887L865.6564850000001,58.23912818615253L866.3393550000001,57.94440174102783L867.0222250000002,57.89526917384222L867.705095,58.09176496359015L868.3879650000001,58.33737608102649L870.09514,58.23912818615253L871.4608800000001,58.288260753338136L872.1437500000001,58.3864914087149L872.82662,58.33737608102649L873.5094900000001,58.042649635901796L874.8752300000001,57.99351706871619L875.899535,58.23912818615253L876.5824050000001,58.140880291278506L877.2652750000001,58.09176496359015L877.9481450000001,57.89526917384222L879.3138850000001,57.99351706871619L879.996755,57.89526917384222L880.6796250000001,57.94440174102783L881.7039300000001,57.89526917384222L883.0696700000001,57.84615384615387L883.7525400000002,57.89526917384222L884.43541,57.84615384615387L886.4840200000001,58.19001285846417L887.5083250000001,58.19001285846417L888.191195,58.19001285846417L888.8740650000001,58.042649635901796L889.5569350000001,58.09176496359015L890.239805,58.19001285846417L890.922675,58.3864914087149L891.6055450000001,58.140880291278506L892.288415,58.23912818615253L893.3127200000001,58.288260753338136L893.9955900000001,58.632102526151186L894.6784600000001,58.23912818615253L895.3613300000001,57.99351706871619L896.72707,57.94440174102783L897.4099400000001,57.94440174102783L898.0928100000001,57.99351706871619L899.7999850000001,58.042649635901796L900.482855,57.99351706871619L901.1657250000001,57.99351706871619L901.848595,58.140880291278506L902.531465,58.140880291278506L903.2143350000001,59.27068798358624L903.8972050000001,58.288260753338136L904.92151,58.042649635901796L905.6043800000001,57.94440174102783L906.2872500000001,58.23912818615253L906.9701200000001,57.99351706871619L908.3358600000001,59.0250768661499L909.01873,58.632102526151186L909.7016000000001,58.435623975900455L910.725905,58.53385463127722L911.4087750000001,58.73035042102521L912.0916450000001,58.48473930358887L912.7745150000001,58.3864914087149L913.457385,58.82859831589917L914.1402550000001,57.99351706871619L914.823125,58.33737608102649L915.5059950000001,58.632102526151186L916.5303000000001,58.53385463127722L917.21317,58.68123509333685L917.8960400000001,58.288260753338136L919.26178,58.23912818615253L919.94465,58.23912818615253L920.6275200000001,58.68123509333685L921.3103900000001,58.288260753338136L922.3346950000001,58.435623975900455L923.0175650000001,58.19001285846417L923.7004350000001,58.23912818615253L926.4319150000001,58.042649635901796L927.1147850000001,57.94440174102783L928.1390900000001,58.140880291278506L928.8219600000001,58.140880291278506L930.1877000000001,58.140880291278506L930.8705700000002,58.140880291278506L931.55344,58.09176496359015L932.2363100000001,57.99351706871619L932.9191800000001,57.94440174102783L934.6263550000001,58.19001285846417L935.3092250000001,58.3864914087149L935.9920950000001,58.140880291278506L936.674965,57.94440174102783L937.3578350000001,58.19001285846417L938.040705,57.89526917384222L938.7235750000001,57.84615384615387L939.74788,58.140880291278506L940.4307500000001,57.94440174102783L941.1136200000001,57.94440174102783L941.7964900000001,57.99351706871619L942.47936,58.140880291278506L943.1622300000001,58.33737608102649L943.8451,58.042649635901796L944.5279700000001,58.09176496359015" style="fill: none;" fill="none"></path></g></g></g></g></g><g><g opacity="0.29483"><span fill="rgb(0, 0, 0)" stroke="none" stroke-width="1px">Alt + Scroll to Zoom</span></g></g></g><g transform="translate(52, 376)" clip-path="url(#clip_1)"><clipPath id="clip_1"><rect width="1039" height="24"></rect></clipPath><g><g><line x1="0" y1="0" x2="0" y2="5" style="visibility: inherit;" fill="rgb(0, 0, 0)" stroke="rgb(204, 204, 204)" stroke-width="1px"></line><line x1="74.22500000000001" y1="0" x2="74.22500000000001" y2="5" style="visibility: inherit;" fill="rgb(0, 0, 0)" stroke="rgb(204, 204, 204)" stroke-width="1px"></line><line x1="148.45000000000002" y1="0" x2="148.45000000000002" y2="5" style="visibility: inherit;" fill="rgb(0, 0, 0)" stroke="rgb(204, 204, 204)" stroke-width="1px"></line><line x1="222.675" y1="0" x2="222.675" y2="5" style="visibility: inherit;" fill="rgb(0, 0, 0)" stroke="rgb(204, 204, 204)" stroke-width="1px"></line><line x1="296.90000000000003" y1="0" x2="296.90000000000003" y2="5" style="visibility: inherit;" fill="rgb(0, 0, 0)" stroke="rgb(204, 204, 204)" stroke-width="1px"></line><line x1="371.12500000000006" y1="0" x2="371.12500000000006" y2="5" style="visibility: inherit;" fill="rgb(0, 0, 0)" stroke="rgb(204, 204, 204)" stroke-width="1px"></line><line x1="445.35" y1="0" x2="445.35" y2="5" style="visibility: inherit;" fill="rgb(0, 0, 0)" stroke="rgb(204, 204, 204)" stroke-width="1px"></line><line x1="519.575" y1="0" x2="519.575" y2="5" style="visibility: inherit;" fill="rgb(0, 0, 0)" stroke="rgb(204, 204, 204)" stroke-width="1px"></line><line x1="593.8000000000001" y1="0" x2="593.8000000000001" y2="5" style="visibility: inherit;" fill="rgb(0, 0, 0)" stroke="rgb(204, 204, 204)" stroke-width="1px"></line><line x1="668.0250000000001" y1="0" x2="668.0250000000001" y2="5" style="visibility: inherit;" fill="rgb(0, 0, 0)" stroke="rgb(204, 204, 204)" stroke-width="1px"></line><line x1="742.2500000000001" y1="0" x2="742.2500000000001" y2="5" style="visibility: inherit;" fill="rgb(0, 0, 0)" stroke="rgb(204, 204, 204)" stroke-width="1px"></line><line x1="816.475" y1="0" x2="816.475" y2="5" style="visibility: inherit;" fill="rgb(0, 0, 0)" stroke="rgb(204, 204, 204)" stroke-width="1px"></line><line x1="890.7" y1="0" x2="890.7" y2="5" style="visibility: inherit;" fill="rgb(0, 0, 0)" stroke="rgb(204, 204, 204)" stroke-width="1px"></line><line x1="964.9250000000001" y1="0" x2="964.9250000000001" y2="5" style="visibility: inherit;" fill="rgb(0, 0, 0)" stroke="rgb(204, 204, 204)" stroke-width="1px"></line><line x1="1039.15" y1="0" x2="1039.15" y2="5" style="visibility: inherit;" fill="rgb(0, 0, 0)" stroke="rgb(204, 204, 204)" stroke-width="1px"></line></g><g transform="translate(0, 8)"><text x="0" y="0" dx="0em" dy="0.95em" style="text-anchor: middle; visibility: hidden; font-family: &quot;Helvetica Neue&quot;, sans-serif; font-size: 12px; font-weight: 200;" fill="rgb(50, 49, 63)" stroke="none" stroke-width="1px">-5k</text><text x="74.22500000000001" y="0" dx="0em" dy="0.95em" style="text-anchor: middle; visibility: inherit; font-family: &quot;Helvetica Neue&quot;, sans-serif; font-size: 12px; font-weight: 200;" fill="rgb(50, 49, 63)" stroke="none" stroke-width="1px">0</text><text x="148.45000000000002" y="0" dx="0em" dy="0.95em" style="text-anchor: middle; visibility: inherit; font-family: &quot;Helvetica Neue&quot;, sans-serif; font-size: 12px; font-weight: 200;" fill="rgb(50, 49, 63)" stroke="none" stroke-width="1px">5k</text><text x="222.675" y="0" dx="0em" dy="0.95em" style="text-anchor: middle; visibility: inherit; font-family: &quot;Helvetica Neue&quot;, sans-serif; font-size: 12px; font-weight: 200;" fill="rgb(50, 49, 63)" stroke="none" stroke-width="1px">10k</text><text x="296.90000000000003" y="0" dx="0em" dy="0.95em" style="text-anchor: middle; visibility: inherit; font-family: &quot;Helvetica Neue&quot;, sans-serif; font-size: 12px; font-weight: 200;" fill="rgb(50, 49, 63)" stroke="none" stroke-width="1px">15k</text><text x="371.12500000000006" y="0" dx="0em" dy="0.95em" style="text-anchor: middle; visibility: inherit; font-family: &quot;Helvetica Neue&quot;, sans-serif; font-size: 12px; font-weight: 200;" fill="rgb(50, 49, 63)" stroke="none" stroke-width="1px">20k</text><text x="445.35" y="0" dx="0em" dy="0.95em" style="text-anchor: middle; visibility: inherit; font-family: &quot;Helvetica Neue&quot;, sans-serif; font-size: 12px; font-weight: 200;" fill="rgb(50, 49, 63)" stroke="none" stroke-width="1px">25k</text><text x="519.575" y="0" dx="0em" dy="0.95em" style="text-anchor: middle; visibility: inherit; font-family: &quot;Helvetica Neue&quot;, sans-serif; font-size: 12px; font-weight: 200;" fill="rgb(50, 49, 63)" stroke="none" stroke-width="1px">30k</text><text x="593.8000000000001" y="0" dx="0em" dy="0.95em" style="text-anchor: middle; visibility: inherit; font-family: &quot;Helvetica Neue&quot;, sans-serif; font-size: 12px; font-weight: 200;" fill="rgb(50, 49, 63)" stroke="none" stroke-width="1px">35k</text><text x="668.0250000000001" y="0" dx="0em" dy="0.95em" style="text-anchor: middle; visibility: inherit; font-family: &quot;Helvetica Neue&quot;, sans-serif; font-size: 12px; font-weight: 200;" fill="rgb(50, 49, 63)" stroke="none" stroke-width="1px">40k</text><text x="742.2500000000001" y="0" dx="0em" dy="0.95em" style="text-anchor: middle; visibility: inherit; font-family: &quot;Helvetica Neue&quot;, sans-serif; font-size: 12px; font-weight: 200;" fill="rgb(50, 49, 63)" stroke="none" stroke-width="1px">45k</text><text x="816.475" y="0" dx="0em" dy="0.95em" style="text-anchor: middle; visibility: inherit; font-family: &quot;Helvetica Neue&quot;, sans-serif; font-size: 12px; font-weight: 200;" fill="rgb(50, 49, 63)" stroke="none" stroke-width="1px">50k</text><text x="890.7" y="0" dx="0em" dy="0.95em" style="text-anchor: middle; visibility: inherit; font-family: &quot;Helvetica Neue&quot;, sans-serif; font-size: 12px; font-weight: 200;" fill="rgb(50, 49, 63)" stroke="none" stroke-width="1px">55k</text><text x="964.9250000000001" y="0" dx="0em" dy="0.95em" style="text-anchor: middle; visibility: inherit; font-family: &quot;Helvetica Neue&quot;, sans-serif; font-size: 12px; font-weight: 200;" fill="rgb(50, 49, 63)" stroke="none" stroke-width="1px">60k</text><text x="1039.15" y="0" dx="0em" dy="0.95em" style="text-anchor: middle; visibility: hidden; font-family: &quot;Helvetica Neue&quot;, sans-serif; font-size: 12px; font-weight: 200;" fill="rgb(50, 49, 63)" stroke="none" stroke-width="1px">65k</text></g><line x1="0" y1="0" x2="1039.15" y2="0" fill="rgb(0, 0, 0)" stroke="rgb(204, 204, 204)" stroke-width="1px"></line></g></g></g></g></svg>