<svg viewBox="0 0 1091.4000244140625 400" xmlns="http://www.w3.org/2000/svg"><g><g><g><g><g><line x1="52.25" y1="376" x2="47.25" y2="376" style="visibility: inherit;" fill="rgb(0, 0, 0)" stroke="rgb(204, 204, 204)" stroke-width="1px"></line><line x1="52.25" y1="347.0769230769231" x2="47.25" y2="347.0769230769231" style="visibility: inherit;" fill="rgb(0, 0, 0)" stroke="rgb(204, 204, 204)" stroke-width="1px"></line><line x1="52.25" y1="318.15384615384613" x2="47.25" y2="318.15384615384613" style="visibility: inherit;" fill="rgb(0, 0, 0)" stroke="rgb(204, 204, 204)" stroke-width="1px"></line><line x1="52.25" y1="289.2307692307692" x2="47.25" y2="289.2307692307692" style="visibility: inherit;" fill="rgb(0, 0, 0)" stroke="rgb(204, 204, 204)" stroke-width="1px"></line><line x1="52.25" y1="260.3076923076923" x2="47.25" y2="260.3076923076923" style="visibility: inherit;" fill="rgb(0, 0, 0)" stroke="rgb(204, 204, 204)" stroke-width="1px"></line><line x1="52.25" y1="231.3846153846154" x2="47.25" y2="231.3846153846154" style="visibility: inherit;" fill="rgb(0, 0, 0)" stroke="rgb(204, 204, 204)" stroke-width="1px"></line><line x1="52.25" y1="202.46153846153848" x2="47.25" y2="202.46153846153848" style="visibility: inherit;" fill="rgb(0, 0, 0)" stroke="rgb(204, 204, 204)" stroke-width="1px"></line><line x1="52.25" y1="173.53846153846155" x2="47.25" y2="173.53846153846155" style="visibility: inherit;" fill="rgb(0, 0, 0)" stroke="rgb(204, 204, 204)" stroke-width="1px"></line><line x1="52.25" y1="144.61538461538464" x2="47.25" y2="144.61538461538464" style="visibility: inherit;" fill="rgb(0, 0, 0)" stroke="rgb(204, 204, 204)" stroke-width="1px"></line><line x1="52.25" y1="115.69230769230768" x2="47.25" y2="115.69230769230768" style="visibility: inherit;" fill="rgb(0, 0, 0)" stroke="rgb(204, 204, 204)" stroke-width="1px"></line><line x1="52.25" y1="86.76923076923077" x2="47.25" y2="86.76923076923077" style="visibility: inherit;" fill="rgb(0, 0, 0)" stroke="rgb(204, 204, 204)" stroke-width="1px"></line><line x1="52.25" y1="57.84615384615387" x2="47.25" y2="57.84615384615387" style="visibility: inherit;" fill="rgb(0, 0, 0)" stroke="rgb(204, 204, 204)" stroke-width="1px"></line><line x1="52.25" y1="28.923076923076906" x2="47.25" y2="28.923076923076906" style="visibility: inherit;" fill="rgb(0, 0, 0)" stroke="rgb(204, 204, 204)" stroke-width="1px"></line><line x1="52.25" y1="0" x2="47.25" y2="0" style="visibility: inherit;" fill="rgb(0, 0, 0)" stroke="rgb(204, 204, 204)" stroke-width="1px"></line></g><g transform="translate(42.25, 0)"><text x="0" y="376" dx="0em" dy="0.3em" style="text-anchor: end; visibility: hidden; font-family: &quot;Helvetica Neue&quot;, sans-serif; font-size: 12px; font-weight: 200;" fill="rgb(50, 49, 63)" stroke="none" stroke-width="1px">-0.1</text><text x="0" y="347.0769230769231" dx="0em" dy="0.3em" style="text-anchor: end; visibility: inherit; font-family: &quot;Helvetica Neue&quot;, sans-serif; font-size: 12px; font-weight: 200;" fill="rgb(50, 49, 63)" stroke="none" stroke-width="1px">0</text><text x="0" y="318.15384615384613" dx="0em" dy="0.3em" style="text-anchor: end; visibility: inherit; font-family: &quot;Helvetica Neue&quot;, sans-serif; font-size: 12px; font-weight: 200;" fill="rgb(50, 49, 63)" stroke="none" stroke-width="1px">0.1</text><text x="0" y="289.2307692307692" dx="0em" dy="0.3em" style="text-anchor: end; visibility: inherit; font-family: &quot;Helvetica Neue&quot;, sans-serif; font-size: 12px; font-weight: 200;" fill="rgb(50, 49, 63)" stroke="none" stroke-width="1px">0.2</text><text x="0" y="260.3076923076923" dx="0em" dy="0.3em" style="text-anchor: end; visibility: inherit; font-family: &quot;Helvetica Neue&quot;, sans-serif; font-size: 12px; font-weight: 200;" fill="rgb(50, 49, 63)" stroke="none" stroke-width="1px">0.3</text><text x="0" y="231.3846153846154" dx="0em" dy="0.3em" style="text-anchor: end; visibility: inherit; font-family: &quot;Helvetica Neue&quot;, sans-serif; font-size: 12px; font-weight: 200;" fill="rgb(50, 49, 63)" stroke="none" stroke-width="1px">0.4</text><text x="0" y="202.46153846153848" dx="0em" dy="0.3em" style="text-anchor: end; visibility: inherit; font-family: &quot;Helvetica Neue&quot;, sans-serif; font-size: 12px; font-weight: 200;" fill="rgb(50, 49, 63)" stroke="none" stroke-width="1px">0.5</text><text x="0" y="173.53846153846155" dx="0em" dy="0.3em" style="text-anchor: end; visibility: inherit; font-family: &quot;Helvetica Neue&quot;, sans-serif; font-size: 12px; font-weight: 200;" fill="rgb(50, 49, 63)" stroke="none" stroke-width="1px">0.6</text><text x="0" y="144.61538461538464" dx="0em" dy="0.3em" style="text-anchor: end; visibility: inherit; font-family: &quot;Helvetica Neue&quot;, sans-serif; font-size: 12px; font-weight: 200;" fill="rgb(50, 49, 63)" stroke="none" stroke-width="1px">0.7</text><text x="0" y="115.69230769230768" dx="0em" dy="0.3em" style="text-anchor: end; visibility: inherit; font-family: &quot;Helvetica Neue&quot;, sans-serif; font-size: 12px; font-weight: 200;" fill="rgb(50, 49, 63)" stroke="none" stroke-width="1px">0.8</text><text x="0" y="86.76923076923077" dx="0em" dy="0.3em" style="text-anchor: end; visibility: inherit; font-family: &quot;Helvetica Neue&quot;, sans-serif; font-size: 12px; font-weight: 200;" fill="rgb(50, 49, 63)" stroke="none" stroke-width="1px">0.9</text><text x="0" y="57.84615384615387" dx="0em" dy="0.3em" style="text-anchor: end; visibility: inherit; font-family: &quot;Helvetica Neue&quot;, sans-serif; font-size: 12px; font-weight: 200;" fill="rgb(50, 49, 63)" stroke="none" stroke-width="1px">1</text><text x="0" y="28.923076923076906" dx="0em" dy="0.3em" style="text-anchor: end; visibility: inherit; font-family: &quot;Helvetica Neue&quot;, sans-serif; font-size: 12px; font-weight: 200;" fill="rgb(50, 49, 63)" stroke="none" stroke-width="1px">1.1</text><text x="0" y="0" dx="0em" dy="0.3em" style="text-anchor: end; visibility: hidden; font-family: &quot;Helvetica Neue&quot;, sans-serif; font-size: 12px; font-weight: 200;" fill="rgb(50, 49, 63)" stroke="none" stroke-width="1px">1.2</text></g><line x1="52.25" y1="0" x2="52.25" y2="376" fill="rgb(0, 0, 0)" stroke="rgb(204, 204, 204)" stroke-width="1px"></line></g></g><g transform="translate(52, 0)" clip-path="url(#clip_0)"><clipPath id="clip_0"><rect width="1039" height="376"></rect></clipPath><g><g><g><line x1="0" y1="0" x2="0" y2="376" fill="rgb(0, 0, 0)" stroke="rgb(60, 60, 60)" stroke-width="1px" opacity="0.25"></line><line x1="74.22500000000001" y1="0" x2="74.22500000000001" y2="376" fill="rgb(0, 0, 0)" stroke="rgb(60, 60, 60)" stroke-width="1px" opacity="0.25"></line><line x1="148.45000000000002" y1="0" x2="148.45000000000002" y2="376" fill="rgb(0, 0, 0)" stroke="rgb(60, 60, 60)" stroke-width="1px" opacity="0.25"></line><line x1="222.675" y1="0" x2="222.675" y2="376" fill="rgb(0, 0, 0)" stroke="rgb(60, 60, 60)" stroke-width="1px" opacity="0.25"></line><line x1="296.90000000000003" y1="0" x2="296.90000000000003" y2="376" fill="rgb(0, 0, 0)" stroke="rgb(60, 60, 60)" stroke-width="1px" opacity="0.25"></line><line x1="371.12500000000006" y1="0" x2="371.12500000000006" y2="376" fill="rgb(0, 0, 0)" stroke="rgb(60, 60, 60)" stroke-width="1px" opacity="0.25"></line><line x1="445.35" y1="0" x2="445.35" y2="376" fill="rgb(0, 0, 0)" stroke="rgb(60, 60, 60)" stroke-width="1px" opacity="0.25"></line><line x1="519.575" y1="0" x2="519.575" y2="376" fill="rgb(0, 0, 0)" stroke="rgb(60, 60, 60)" stroke-width="1px" opacity="0.25"></line><line x1="593.8000000000001" y1="0" x2="593.8000000000001" y2="376" fill="rgb(0, 0, 0)" stroke="rgb(60, 60, 60)" stroke-width="1px" opacity="0.25"></line><line x1="668.0250000000001" y1="0" x2="668.0250000000001" y2="376" fill="rgb(0, 0, 0)" stroke="rgb(60, 60, 60)" stroke-width="1px" opacity="0.25"></line><line x1="742.2500000000001" y1="0" x2="742.2500000000001" y2="376" fill="rgb(0, 0, 0)" stroke="rgb(60, 60, 60)" stroke-width="1px" opacity="0.25"></line><line x1="816.475" y1="0" x2="816.475" y2="376" fill="rgb(0, 0, 0)" stroke="rgb(60, 60, 60)" stroke-width="1px" opacity="0.25"></line><line x1="890.7" y1="0" x2="890.7" y2="376" fill="rgb(0, 0, 0)" stroke="rgb(60, 60, 60)" stroke-width="1px" opacity="0.25"></line><line x1="964.9250000000001" y1="0" x2="964.9250000000001" y2="376" fill="rgb(0, 0, 0)" stroke="rgb(60, 60, 60)" stroke-width="1px" opacity="0.25"></line><line x1="1039.15" y1="0" x2="1039.15" y2="376" fill="rgb(0, 0, 0)" stroke="rgb(60, 60, 60)" stroke-width="1px" opacity="0.25"></line></g><g><line x1="0" y1="376" x2="1039.15" y2="376" fill="rgb(0, 0, 0)" stroke="rgb(60, 60, 60)" stroke-width="1px" opacity="0.25"></line><line x1="0" y1="347.0769230769231" x2="1039.15" y2="347.0769230769231" fill="rgb(0, 0, 0)" stroke="rgb(60, 60, 60)" stroke-width="1px" opacity="0.25"></line><line x1="0" y1="318.15384615384613" x2="1039.15" y2="318.15384615384613" fill="rgb(0, 0, 0)" stroke="rgb(60, 60, 60)" stroke-width="1px" opacity="0.25"></line><line x1="0" y1="289.2307692307692" x2="1039.15" y2="289.2307692307692" fill="rgb(0, 0, 0)" stroke="rgb(60, 60, 60)" stroke-width="1px" opacity="0.25"></line><line x1="0" y1="260.3076923076923" x2="1039.15" y2="260.3076923076923" fill="rgb(0, 0, 0)" stroke="rgb(60, 60, 60)" stroke-width="1px" opacity="0.25"></line><line x1="0" y1="231.3846153846154" x2="1039.15" y2="231.3846153846154" fill="rgb(0, 0, 0)" stroke="rgb(60, 60, 60)" stroke-width="1px" opacity="0.25"></line><line x1="0" y1="202.46153846153848" x2="1039.15" y2="202.46153846153848" fill="rgb(0, 0, 0)" stroke="rgb(60, 60, 60)" stroke-width="1px" opacity="0.25"></line><line x1="0" y1="173.53846153846155" x2="1039.15" y2="173.53846153846155" fill="rgb(0, 0, 0)" stroke="rgb(60, 60, 60)" stroke-width="1px" opacity="0.25"></line><line x1="0" y1="144.61538461538464" x2="1039.15" y2="144.61538461538464" fill="rgb(0, 0, 0)" stroke="rgb(60, 60, 60)" stroke-width="1px" opacity="0.25"></line><line x1="0" y1="115.69230769230768" x2="1039.15" y2="115.69230769230768" fill="rgb(0, 0, 0)" stroke="rgb(60, 60, 60)" stroke-width="1px" opacity="0.25"></line><line x1="0" y1="86.76923076923077" x2="1039.15" y2="86.76923076923077" fill="rgb(0, 0, 0)" stroke="rgb(60, 60, 60)" stroke-width="1px" opacity="0.25"></line><line x1="0" y1="57.84615384615387" x2="1039.15" y2="57.84615384615387" fill="rgb(0, 0, 0)" stroke="rgb(60, 60, 60)" stroke-width="1px" opacity="0.25"></line><line x1="0" y1="28.923076923076906" x2="1039.15" y2="28.923076923076906" fill="rgb(0, 0, 0)" stroke="rgb(60, 60, 60)" stroke-width="1px" opacity="0.25"></line><line x1="0" y1="0" x2="1039.15" y2="0" fill="rgb(0, 0, 0)" stroke="rgb(60, 60, 60)" stroke-width="1px" opacity="0.25"></line></g></g></g><g><g><line x1="0" y1="347.0769230769231" x2="1039.15" y2="347.0769230769231" fill="rgb(0, 0, 0)" stroke="rgb(153, 153, 153)" stroke-width="1.5px"></line></g></g><g><g><line x1="74.22500000000001" y1="0" x2="74.22500000000001" y2="376" fill="rgb(0, 0, 0)" stroke="rgb(153, 153, 153)" stroke-width="1.5px"></line></g></g><g><g><g><g><g><path stroke="rgb(255, 112, 67)" stroke-width="2px" d="M74.89302500000001,316.4738717996157L75.57589500000002,316.75018322926303L76.941635,317.3360144397715L78.30737500000001,317.6170437387549L78.990245,318.3143301394366L79.67311500000001,318.4077561094361L80.69742000000001,318.4609416645347L81.38029,318.0722092883275L82.06316,317.743947364919L82.74603,317.41074168645207L83.4289,317.92204616616334L84.11177000000002,317.9716467811843L84.79464000000002,318.5128752903722L85.47751000000001,318.75850313009346L86.50181500000001,318.2570395982277L87.18468500000002,317.6418425099225L87.86755500000001,317.3514443860726L88.550425,316.68596656964297L89.23329500000001,317.033424194224L89.916165,316.6130989746756L90.599035,316.3805636885623L91.28190500000001,316.94841235202733L92.30621000000001,316.0905286682239L92.98908,316.3224618877684L94.35482000000002,315.9311016629358L96.40343000000001,316.2857522035512L97.08630000000001,316.2234580972452L98.110605,315.6948608616875L98.793475,314.9650769331446L99.47634500000001,315.0380760889736L100.84208500000001,315.0425781329301L101.524955,314.77019557508L102.207825,314.72465922384794L102.89069500000001,314.8348792994155L103.91500000000002,313.99716517335105L105.28074000000001,313.06226234254717L105.96361000000002,313.9749830541L106.64648000000001,313.206143675759L107.32935,313.2360605625988L108.01222000000001,313.5094457399504L108.69509000000001,313.7913700101965L110.402265,313.1549220029653L111.08513500000001,311.79061131471815L112.45087500000001,311.3257052559815L113.13374500000002,309.98572400688545L113.81661500000001,309.5157660324612L114.499485,309.371333128805L115.52379000000002,309.736596463548L116.20666000000001,309.4448843744839L117.57240000000002,309.800375065975L118.25527000000001,310.288753242818L118.93814,309.91372032302314L119.62101000000001,309.61010570314704L120.30388,310.48897282106844L121.328185,308.717380273204L122.01105500000001,306.3183050926911L122.69392500000002,305.0753471543834L123.37679500000002,305.80323564811766L124.05966500000001,307.6743328431272L124.74253500000002,307.53946637633817L126.108275,306.4368063164692L127.13258,304.6552273777275L127.81545000000001,304.15609711735493L128.49832,303.42434373923334L129.18119000000002,303.3586199212838L129.86406,303.810406141437L130.54693,305.2407582103491L131.2298,305.48985663877374L131.91267,307.21122167557195L133.619845,307.75282018672794L134.302715,307.0953382715756L135.668455,303.2623038220739L136.35132500000003,301.0214284413978L137.034195,298.57656988914664L137.71706500000002,298.89769748651344L138.74137000000002,297.4398731971904L139.42424000000003,297.3314828964684L140.78998,295.2819170933685L141.47285000000002,295.2114579483288L142.15572000000003,293.65622177058657L142.83859,292.3104561449677L143.52146000000002,292.8587660003657L144.54576500000002,292.04811943180925L145.22863500000003,292.151196448573L146.594375,291.0734101768361L147.27724500000002,290.60357772876824L147.960115,289.6929158680302L148.642985,289.0089768706129L149.32585500000002,289.32562031103447L150.35016000000002,289.1029807323642L151.03303,287.94765852931624L151.7159,286.68464810461506L153.08164,285.14088972189757L153.76451,285.5704039230363L154.44738,285.16005089387255L155.13025000000002,283.8724527655035L156.15455500000002,283.6304118334049L156.83742500000002,281.6971428214785L157.52029500000003,280.5175335592976L158.203165,281.0672927857837L158.88603500000002,281.7901243856238L159.56890500000003,280.43578061681035L160.251775,279.7607162364967L160.93464500000002,279.1002417013848L161.95895000000002,278.586064678318L162.64182000000002,276.9217909576584L163.32469,276.2965532102363L164.00756,275.17475586788606L164.69043000000002,274.9732466704744L165.3733,274.4004180751042L166.05617,274.7837294807038L166.73904000000002,272.9898872673971L168.446215,272.2672605693616L169.129085,272.2659580484886L171.177695,270.3788893602727L171.860565,268.59823617647106L173.56774000000001,267.31370924116567L174.25061000000002,265.26581871721294L175.61635000000004,263.251128827045L176.98209000000003,261.6689866840209L177.66496000000004,258.4404398825157L178.34783000000002,256.32647248663835L179.37213500000001,255.60825957300955L180.05500500000002,255.5703061648309L180.73787500000003,252.20723326648795L182.10361500000002,252.3900596230726L182.78648500000003,250.35803407835735L183.469355,248.78513667368023L184.15222500000002,246.8786067880028L185.85940000000002,246.38310082746852L186.54227,244.57283828437926L187.22514,244.11544315042303L187.90801000000002,241.87612057845809L188.59088,241.37742790010032L189.27375,242.39468581380476L189.95662000000002,239.95946960161575L191.663795,238.3215005593281L192.346665,237.45661315990478L193.71240500000002,234.2850875477373L194.39527500000003,233.24672262423283L195.76101500000001,232.1324814352575L196.78532,229.79378801910408L197.46819000000002,228.52811212643672L198.83393,229.7728877924777L199.51680000000002,227.5134813896402L200.19967000000003,225.4504802880406L201.56541,224.36986936308037L202.589715,223.50536778307978L203.27258500000002,220.92353689651367L203.95545500000003,219.9442554674464L205.32119500000002,219.2387925840567L206.00406500000003,216.8702823893059L206.686935,216.88354037122443L207.369805,213.7869789109389L208.39411,211.73255658871798L209.07698000000002,211.26620574430746L209.75985,211.00604481663592L210.44272,208.86541663736642L211.12559000000002,211.31431837113868L212.49133000000003,210.8777226567352L213.17420000000004,208.1989566595788L215.56424500000003,204.2338406775945L218.29572500000003,200.65619159363416L218.978595,198.39171156520806L220.68577000000002,195.69690044845854L221.36864000000003,192.27232147071652L222.05151,189.23512961432593L223.41725000000002,186.60721279361996L224.10012,186.24869522284038L224.78299,186.91777780734458L225.807295,184.94172139538182L226.49016500000002,183.04873028830707L228.53877500000002,182.30591341196035L229.221645,180.74023521148285L229.904515,179.21136850514807L230.587385,176.97757151272864L231.61169000000004,175.126424951329L232.29456000000002,174.1925797773629L232.97743000000003,172.68912736118753L233.66030000000003,171.27618754553424L234.34317000000004,171.2340253630139L235.02604000000002,170.83539639667896L235.70891000000003,172.3449660355453L236.39178000000004,171.48231466912242L238.09895500000002,170.3163118783965L238.78182500000003,167.63217513339495L239.46469500000003,166.31642642731762L240.83043500000002,166.21468833249298L241.51330500000003,164.62104037775413L242.196175,165.2171028338302L243.22048,163.3740771076843L243.90335000000002,161.60019667425038L244.58622000000003,160.63411286116454L245.26909,159.6811378122892L246.63483000000002,158.77532028409078L247.3177,160.78617849271072L249.024875,158.71134130137125L249.70774500000005,157.38784067066834L250.39061500000003,155.63094884937559L251.75635500000004,153.7712120497283L252.43922500000002,153.9521939116842L253.12209500000003,151.42783598741954L253.80496500000004,151.46547935757906L254.82927000000004,150.50562780572832L255.51214000000002,149.28130490374573L256.19501,148.60565645158113L256.87788,147.1195784635625L257.56075000000004,147.50510948142022L258.24362,146.51820246628978L258.92649,146.45657275423488L259.60936000000004,146.7929265838247L260.633665,146.4642174887564L261.999405,143.86983304217583L262.682275,143.45283657997234L263.36514500000004,143.47771901669958L264.048015,143.15862287566168L265.41375500000004,141.886476274319L266.43806000000006,140.396184922541L267.12093000000004,138.59816395762803L268.48667000000006,138.6393325575508L269.85241,138.95876705842812L271.21815000000004,140.76163117269775L272.242455,138.365508630799L272.925325,136.809937631811L273.608195,136.42676255631585L274.291065,135.5680985670208L275.656805,134.62062322759604L276.339675,133.14829187009502L277.022545,131.49859050667243L278.04685,130.25333550564486L278.72972000000004,128.01286966933495L279.41259,128.63347221124081L280.09546,127.70900979463997L280.77833000000004,128.45115628642378L284.53411500000004,125.02562538313546L285.89985500000006,123.48117520711048L286.58272500000004,123.34046067729179L287.94846500000006,121.86096357068169L288.63133500000004,122.93814735040743L289.65564,120.26380634378191L290.33851,119.79883594555133L291.02138,119.34301094373933L291.70425,118.91232620665261L292.38712,118.18234615640216L293.06999,117.6068145213278L293.75286,117.71341861720629L294.43573,117.63983746980921L295.460035,114.58942387470779L297.508645,112.75917571764694L298.19151500000004,114.3529122580747L298.874385,113.81584134663797L299.557255,114.86902105741933L300.24012500000003,113.3985032352723L301.94730000000004,110.23693102629335L302.63017,110.34416200674843L303.31304000000006,109.91728525594777L303.99591000000004,108.60012331562172L304.67878,108.00630814957623L305.36165000000005,108.20018657384657L306.04452000000003,109.96701620010157L307.068825,106.0559601297008L307.751695,104.65247179925603L308.434565,103.94792240591335L309.117435,104.38973976580422L309.800305,105.9713002545584L310.483175,106.25217844586342L311.166045,104.82914807797857L311.848915,104.87917601109376L312.87322,100.40961502860642L314.23896,100.40011774270283L314.92183000000006,98.58672706346835L316.28757,99.44392856854415L317.65331000000003,100.52806312656259L319.36048500000004,99.66558489460493L320.0433550000001,96.73129283481552L320.72622500000006,96.89630048468399L321.40909500000004,95.42340081881144L322.0919650000001,95.24701827918506L322.77483500000005,95.57345880545802L323.45770500000003,95.69073170112148L324.48201,92.59763390005799L325.16488000000004,92.19578889716371L325.84775,90.79540155860695L326.53062,91.56637256921618L327.21349000000004,92.06825433353134L327.89636,91.8388619992981L328.57923,91.83877020368232L329.26210000000003,92.80150656918391L330.28640500000006,89.54762874807585L330.96927500000004,87.2612695565378L331.652145,87.69714634930733L332.33501500000006,88.29270492384222L333.01788500000004,88.68933233071385L333.700755,88.77011903883732L334.38362500000005,88.77929880156074L335.06649500000003,88.90269723724464L336.09080000000006,86.44203370419137L336.77367000000004,84.65125611236044L337.4565400000001,84.1269570811595L338.13941000000005,83.55694347946485L338.82228000000003,84.21702591926885L339.50515000000007,86.12603434991996L340.18802000000005,85.56199154759281L340.87089000000003,86.87406843788938L341.895195,83.92803937863283L343.260935,82.57304586205237L343.943805,81.81899504112903L345.309545,81.72024317852356L345.992415,81.52344845603614L346.67528500000003,80.52117849557175L347.69959000000006,78.34790536770066L348.38246000000004,77.94778764482413L349.06533,78.5526178759194L349.74820000000005,78.69938098955214L351.11394,80.04496364152652L351.79681000000005,79.41794568604269L353.503985,79.33646825367606L354.18685500000004,78.08900229948625L354.8697250000001,76.4956287579501L355.55259500000005,75.87363023610271L356.23546500000003,76.3649781188908L357.60120500000005,77.34749797738544L358.28407500000003,78.2513893644811L359.30838,75.15869345027852L359.99125000000004,74.44271010750185L361.35699,74.07206539086081L362.03986000000003,75.4805281056947L362.72273,75.9129818156216L363.4056,75.0131737047576L364.08847000000003,75.20029222921164L365.79564500000004,73.6424146411158L366.478515,72.57014448333416L367.16138500000005,72.06432599358936L368.527125,73.29344689338546L369.20999500000005,73.20566469951723L370.91717,71.6793355743772L372.28291,71.03861841334253L372.96578000000005,71.10611119364478L373.64865000000003,70.65539152275238L375.01439000000005,70.46355114031724L375.69726,70.50563664685563L376.721565,69.90212900678074L378.087305,68.98985689883818L378.77017500000005,68.36389531817349L379.45304500000003,68.45989447357198L380.135915,68.71398286076021L380.81878500000005,69.18081536507196L381.501655,70.97387383442782L382.52596000000005,70.26166273942437L383.89170000000007,69.67714634642277L385.25744000000003,69.87660403451946L386.62318000000005,70.7822342231737L388.330355,69.85195252754721L390.378965,69.17588603632242L391.06183500000003,68.20043248661472L392.42757500000005,68.47970735268655L393.1104450000001,68.94200561325334L394.13475000000005,67.39204613082575L394.81762000000003,66.10838491562168L395.50049,66.73325657521809L396.86623000000003,66.51871978492761L397.5491,66.66507802480277L398.23197000000005,67.49954938657447L398.91484,67.94128691461259L399.93914500000005,66.69337046466671L400.62201500000003,66.61267869664675L401.30488500000007,66.28917642598645L401.98775500000005,65.80034861846565L402.67062500000003,65.31056304000396L403.35349500000007,65.84193953087407L404.03636500000005,66.96636713226764L404.719235,67.73926814007837L406.42641000000003,67.00442924999504L407.10928,65.30600113215036L407.79215,64.7781664963162L408.47502000000003,64.97233408076374L409.15789,65.08883463143223L409.84076,65.59101190768115L410.5236300000001,65.59758493250678L411.54793500000005,65.22819709057944L412.23080500000003,65.06551657024687L412.913675,64.45703299630037L413.59654500000005,64.42597535080569L414.27941500000003,64.46628605253386L414.962285,65.11923831336753L415.64515500000005,65.0590865929446L416.328025,64.78720750879228L417.35233000000005,64.74197063635069L418.03520000000003,63.71273791206505L418.71807000000007,63.52747522334141L419.40094000000005,63.88788681810564L420.76668000000006,64.04518848593926L421.44955000000004,64.21816780253863L424.522465,63.33951092275288L425.205335,63.5393270816528L425.888205,63.87535180201712L426.571075,64.41099913310893L427.253945,66.00955844663406L427.936815,64.47329059823511L428.96112000000005,64.45537604304184L429.64399000000003,64.36603588982564L431.00973000000005,64.27313263994631L431.6926,64.39423345289237L432.37547,63.48444947091474L434.76551500000005,63.37085602757588L435.44838500000003,63.224101645673386L436.81412500000005,62.90026096463322L438.86273500000004,63.47226600073003L439.545605,63.422491234489996L440.56991,63.078246902747026L441.25278000000003,62.734156698777156L441.93565,62.743837601419614L442.61852000000005,62.179832488032105L443.30139,62.41124307497256L443.98426,62.78587747903555L444.66713000000004,62.79452309644887L445.35,63.50706772679399L446.37430500000005,62.971796166331046L447.74004500000007,62.120118733029926L448.42291500000005,62.59154984699569L449.105785,62.32424099147755L449.78865500000006,62.183508705040936L450.47152500000004,63.258349669999006L451.154395,62.74397391215376L452.17870000000005,62.33710401047216L453.54444000000007,62.151927358488024L454.22731000000005,62.11941968319678L454.9101800000001,62.43394068109632L455.59305000000006,62.79949604270979L460.03170500000004,62.33111813085611L461.397445,61.892901647744395L462.08031500000004,62.867850410596816L462.763185,63.05984188041003L463.78749000000005,62.52662479142583L464.47036,61.61722785618815L465.15323000000006,61.07158969504553L465.83610000000004,61.13718458625806L466.51897,60.724618444062514L467.20184000000006,60.771812099668864L467.88471000000004,60.34820521610948L468.56758,61.35156586976865L469.59188500000005,61.737447236939715L470.2747550000001,61.24196577047093L470.95762500000006,61.43589912546241L471.64049500000004,61.45401469148277L472.3233650000001,61.77926350309389L473.00623500000006,61.71897860708657L474.3719750000001,61.05404872548428L475.39628000000005,60.94981724164762L476.07915,60.98552279832012L477.44489000000004,61.26238721109655L478.12776,61.58569559476189L478.81063,62.15300538598501L479.49350000000004,62.139712630770305L480.17637,62.112090846566105L481.20067500000005,61.859729724144984L481.883545,61.5511233146928L482.56641500000006,61.09087225917324L483.24928500000004,61.07015580883552L483.932155,61.1363242545321L484.61502500000006,61.80479116174678L485.29789500000004,61.45921488822893L485.980765,61.27151525519366L487.00507000000005,60.64802710942439L487.6879400000001,61.02059063980954L488.37081000000006,60.811851812192856L489.05368000000004,60.35257601674971L489.7365500000001,60.3913969072816L490.41942000000006,60.51293388857533L491.10229000000004,61.352158626273535L492.80946500000005,61.16798234007075L493.492335,60.939585990299236L494.175205,60.70430373346176L494.85807500000004,60.77926940438368L495.540945,60.80460267586153L496.223815,60.918047085722776L496.90668500000004,60.84857012671529L497.589555,60.924774529360775L498.61386000000005,60.32209209587478L499.29673,59.960482635783194L499.97960000000006,60.450874219625405L500.66247000000004,61.255977535878685L501.34534,60.81554034491029L502.02821000000006,60.177953269305306L503.39395,61.092224965686626L504.418255,61.22816406454194L505.1011250000001,60.38622834313469L506.4668650000001,60.15615412013864L507.1497350000001,60.332489058339945L507.83260500000006,60.39899086331104L508.5154750000001,60.28170221029433L509.1983450000001,60.23097514955964L510.22265000000004,60.75070643701639L510.90552,60.21765124046823L511.58839000000006,59.89781812253926L512.27126,60.39362248480478L512.9541300000001,60.43567091918993L513.6370000000001,60.24476495479672L514.31987,60.14986750723614L516.027045,60.269771801573484L517.392785,59.92909045920243L518.0756550000001,59.9997619678291L518.7585250000001,60.16005545105503L520.807135,60.020450384890864L523.88005,59.7401984512432L524.5629200000001,59.29696008120641L525.24579,59.345403426982216L525.92866,59.86568477352148L526.61153,60.21715273939458L527.635835,60.113654046919464L528.318705,60.28734288333311L529.0015750000001,59.97892537040889L531.050185,59.81352788952859L531.733055,60.02866887299939L532.415925,60.13810733200654L533.44023,59.889384039612935L534.80597,59.916992827050535L535.4888400000001,59.57987946956456L536.17171,59.79023537404635L537.53745,60.62380617663257L538.22032,60.65237945018595L539.244625,59.94251312754659L539.9274950000001,59.87027196391148L540.610365,59.53219392480685L541.2932350000001,59.30970097026875L541.9761050000001,59.51023769641904L542.658975,60.239672545031794L543.341845,60.38260011327583L544.0247150000001,60.232568602323624L545.04902,60.29973943175173L545.7318900000001,60.14355303545955L546.41476,59.7944070147102L547.0976300000001,59.62421856021018L547.7805000000001,59.22737214658662L548.46337,59.401888217385874L550.853415,60.13536369966232L551.536285,60.77193788297717L552.2191550000001,60.70195931604309L552.902025,60.69927133383226L553.5848950000001,60.717304675580976L554.267765,60.8853144166298L554.950635,60.57349634228558L555.633505,60.24886189275492L556.65781,59.64145730406307L557.34068,59.84682820582083L558.0235500000001,60.34338240369834L558.70642,60.189391845501746L559.3892900000001,60.13629666853342L560.07216,59.94724293055401L561.4379,60.06959873966508L562.4622050000002,60.830723353953374L563.145075,60.32460667965529L563.8279450000001,60.099528095176765L564.5108150000001,60.180622865312955L565.1936850000001,60.52400617251931L565.876555,60.179868632945556L566.5594250000001,59.89479468910105L567.242295,59.93988534781869L568.2666,60.41886281997239L568.94947,59.979245912292185L569.63234,59.69582274080983L570.3152100000001,59.62401328489494L570.99808,59.50233619124566L571.68095,59.17389575208216L572.36382,59.114368197709325L573.04669,59.157249980984716L574.070995,59.281223497924486L574.7538650000001,59.41455289711331L575.436735,59.907174455600114L576.8024750000001,59.61328760464386L578.168215,59.81028025509397L579.87539,59.69268779346538L581.9240000000001,59.30775284448936L582.6068700000001,59.27328076905269L583.28974,59.193652234765864L583.97261,59.597798191116794L584.6554800000001,59.91887718502767L585.679785,59.875743425274436L586.362655,59.771264853523235L587.0455250000001,59.94436576237126L587.728395,60.63769298952724L588.4112650000001,60.60176624889772L589.094135,60.2461777056468L589.777005,59.620200660722844L590.459875,59.36250501181837L592.8499200000001,58.972099570576916L593.53279,58.73785630583211L594.2156600000001,58.695554793959786L595.5814,58.90596193873495L596.26427,59.110804541499306L597.288575,59.31230152325821L597.971445,59.02057579334007L598.654315,58.96343093343904L599.3371850000001,58.90949788642308L600.0200550000001,59.1718713991371L600.702925,59.2703502177406L601.3857950000001,58.95610585207993L603.09297,59.121237862632086L603.7758400000001,59.16137177993835L604.45871,59.362287997397004L605.1415800000001,59.443545465721456L605.8244500000001,59.335110210716664L607.19019,59.48618408273819L607.8730600000001,59.71437201087525L608.897365,59.83163174088327L609.5802350000001,59.70549868493896L610.263105,59.177895774449325L610.9459750000001,58.97923150200438L611.6288450000001,58.86003293853736L612.311715,58.90640437850698L612.994585,59.111070005362535L613.6774550000001,59.4696505375756L614.70176,59.23287577998036L615.38463,59.22835453034736L616.0675000000001,59.06845204456806L616.75037,59.20829860499924L618.11611,59.0564184893592L618.79898,59.16177931392423L619.4818500000001,59.559021411737604L620.506155,59.52228635637624L621.189025,59.36270171823526L621.8718950000001,59.69922788119845L622.554765,59.60641023805283L623.2376350000001,59.47212133626613L625.286245,59.33260270616927L626.3105500000001,59.327489844010245L627.6762900000001,59.10828020589162L628.3591600000001,59.27148776394398L629.0420300000001,59.31046700975048L629.7249,59.31420842615904L630.4077700000001,59.316453276004154L631.09064,59.592880499960586L632.797815,59.68014541423423L633.480685,59.43777102187477L634.1635550000001,59.23340109743407L634.846425,59.13042527384505L635.529295,59.1275850687166L636.212165,59.45991344451272L636.895035,59.52176686506624L637.91934,59.24449944539941L639.28508,59.35321930764866L639.9679500000001,59.0647725950497L640.6508200000001,59.40257293343831L641.33369,59.82139505729481L642.01656,59.895845568734956L642.6994300000001,59.901216717649504L643.723735,59.334625752025204L644.4066050000001,59.0732694885499L645.089475,59.13259075548905L645.7723450000001,59.42361769862663L646.4552150000001,59.18560994553559L647.138085,58.86596253080728L647.820955,58.79207155581912L648.5038250000001,59.337196756874505L649.52813,59.192702669509345L650.211,59.047060928065264L650.8938700000001,58.76318698924973L651.57674,58.69110707293504L652.2596100000001,59.09978220006917L652.94248,59.38428643429933L653.62535,59.49603679001359L654.30822,59.30765282046815L655.332525,59.21427546561506L656.6982650000001,59.27613963075311L657.381135,59.19536755178609L658.0640050000001,59.14690430440589L658.746875,58.88203830407906L659.429745,58.74276483495834L660.112615,58.81639738528429L661.1369200000001,58.880223046555216L661.81979,58.83992012741851L663.1855300000001,59.11047171686016L663.8684000000001,59.449645433398814L664.55127,59.672795794397416L665.2341400000001,59.62985014392177L665.91701,59.50583830666176L666.941315,58.9795081273827L668.307055,58.801246728940555L668.9899250000001,58.910431810698526L669.6727950000001,59.01524201770292L670.355665,58.86198622108219L671.7214050000001,58.907576348033956L672.74571,59.38685350112809L673.4285800000001,59.1438984001623L674.11145,58.97847920850751L675.4771900000001,59.0167712984387L676.16006,58.92184907854863L676.84293,59.0810376674379L677.5258000000001,59.68741918671958L678.550105,59.50108057439081L679.2329750000001,59.01595264596972L679.9158450000001,58.7248758889171L680.5987150000001,58.94320072678471L681.2815850000001,59.07419562950531L681.9644550000002,58.81876696806336L682.647325,58.82269950719768L683.3301950000001,58.785759872728704L684.3545,58.80289524999682L685.7202400000001,59.08825679040717L686.40311,59.043338689628854L687.76885,58.898497251112076L688.45172,59.22421630697539L689.13459,59.22315884654438L690.1588950000001,59.08498076536165L691.5246350000001,58.844884180652514L692.2075050000001,58.740125387776686L692.8903750000001,58.95235042610051L693.573245,59.11898460704441L694.938985,59.0421292485359L696.64616,58.83881940163246L698.0119000000001,58.638242073390074L698.6947700000001,58.341052913570934L699.37764,58.24133773357863L700.0605100000001,58.27975307255775L700.74338,58.36174756497019L703.8162950000001,58.469889549442655L704.4991650000001,58.397238031000825L705.182035,58.39293938208647L705.864905,58.44930548176285L706.5477750000001,58.542077326392416L708.2549500000001,58.44055069717075L708.93782,58.536824455637145L709.6206900000001,58.77142457779189L710.3035600000001,58.83359323098438L710.98643,58.87089442289988L711.6693,59.14870932102326L712.3521700000001,59.25645297087226L713.376475,58.92812137288354L714.0593450000001,58.711469387216084L714.7422150000001,58.87621153673922L716.1079550000001,58.719622643479L716.7908250000002,58.684614596547874L717.473695,58.48677390131445L718.1565650000001,58.40736864212391L719.18087,58.41867077563455L719.86374,58.42545205574095L720.5466100000001,58.82249861170288L721.22948,59.08037267635541L721.9123500000001,59.195797957197385L722.59522,59.461542019651574L723.27809,59.34590814307472L723.96096,59.06038589630532L724.9852650000001,59.12486060014237L725.668135,58.92775737054592L726.3510050000001,58.730904012687745L727.0338750000001,58.47524839304867L727.7167450000001,58.34150115234064L729.0824850000001,58.90966477878794L729.765355,59.05407406070725L730.78966,59.140719629858836L731.4725300000001,59.03551723535031L732.1554000000001,58.913450509620304L732.8382700000001,58.82056434310687L733.5211400000002,58.64693516935006L734.20401,58.75889958591932L734.8868800000001,58.66888160406245L735.5697500000001,58.65416997289793L736.594055,58.38990881122527L737.2769250000001,58.231352114221636L738.6426650000001,58.1558711228937L739.3255350000001,58.1302286591723L740.008405,58.11484318093943L740.691275,58.20385634097431L742.39845,58.748486471867864L743.0813200000001,58.76087818260612L743.7641900000001,58.88621068289791L744.4470600000001,58.804220447073476L745.1299300000001,58.7746724366541L745.8128000000002,58.8748342084524L747.1785400000001,58.73844237758237L748.202845,58.51907056993508L749.5685850000001,58.3481483273971L750.251455,58.24559498187432L750.9343250000001,58.14476381661103L751.6171950000002,58.06461898637775L752.300065,58.193367955312624L752.9829350000001,58.36886178364807L754.69011,58.552756396548546L756.0558500000001,58.44695813926438L757.42159,58.599614209918286L758.1044600000001,58.69120785231064L758.78733,58.84440848472059L759.8116350000001,58.83808441719208L760.494505,59.14866944867384L761.8602450000001,59.07958628458897L762.5431150000001,59.23462528008707L763.225985,59.34729480846124L764.591725,59.17911536938601L765.61603,58.99960939004171L766.2989000000001,58.85260664448549L766.98177,58.64651441910189L768.34751,58.58180437289667L769.03038,58.58227750312318L769.7132500000001,58.85764169530836L770.3961200000001,59.04251323749372L771.420425,59.271326740854875L772.1032950000001,59.11388150194796L772.786165,58.705034886604835L773.4690350000001,58.53832523329817L774.151905,58.43829944131414L774.834775,58.51582067524902L775.517645,58.640931731509L776.2005150000001,58.657053076240175L777.9076900000001,58.68637201415413L779.2734300000001,58.70396337690255L779.9563,58.63591987865243L781.32204,58.496856228526724L782.0049100000001,58.35446585362746L783.029215,58.46552052263695L783.712085,58.51250719296729L784.3949550000001,58.63894364214002L785.077825,58.557615775644194L785.760695,58.52846518682202L786.443565,58.569920122553754L787.126435,58.71269055784148L787.809305,58.87694423911444L788.8336100000001,58.602171686854376L789.51648,58.53555260247282L790.8822200000001,58.67241701891868L791.56509,58.71523651083663L792.24796,59.07496070486059L792.9308300000001,59.19255077430046L793.6137,59.223805658014726L794.6380050000001,58.967478274194036L796.0037450000001,58.754736554876615L797.3694850000002,58.56814623426129L798.052355,58.47583817296737L799.4180950000001,58.7544858350642L800.4424,58.744831669448615L801.1252700000001,58.50325111818057L801.80814,58.57444470824305L802.4910100000001,58.91189420320421L803.17388,58.95716726838248L803.85675,58.768196082464954L805.2224900000001,58.733411686813724L806.246795,58.59464357557414L806.9296650000001,58.589981024729695L808.2954050000001,58.52823820519802L808.978275,58.648382249478516L809.6611450000001,58.52397978209768L810.344015,58.390393012644324L812.05119,58.487076818047115L812.7340600000001,58.82017431113695L813.4169300000001,58.82354391304182L814.0998000000001,58.96310927910889L815.4655400000001,58.75211515782553L816.14841,58.66481094720626L816.8312800000001,58.474891711709404L817.8555850000001,58.40023932836095L818.538455,58.31614874040224L819.2213250000001,58.206749098602074L819.9041950000001,58.31794518059678L821.269935,58.24711922486955L821.9528050000001,58.14567836240815L822.635675,58.37954718585496L823.6599800000001,58.32337958597401L824.34285,58.30933205291967L825.0257200000001,58.35984882211204L825.7085900000001,58.40980501470278L826.39146,58.69521291323122L827.07433,58.807512363323326L827.7572000000001,58.619457850404615L828.44007,58.703114036602415L829.4643750000001,58.674709432421935L830.1472450000001,58.53977609186376L830.8301150000001,58.32127248260474L831.5129850000001,58.268768632948536L832.1958550000002,58.25691245423013L832.878725,58.24979874699909L834.2444650000001,58.44201941660958L835.26877,58.73419458124954L835.9516400000001,58.69335775921019L836.63451,58.62955650803707L837.3173800000001,58.768118520206826L838.00025,58.69406599150932L839.36599,58.55139002731619L840.0488600000001,58.32824084387619L841.073165,58.19435133381222L841.7560350000001,58.19261594367305L842.4389050000001,58.34876444558893L845.170385,58.304909941814344L845.8532550000001,58.47508613349868L846.87756,58.34140379661062L847.5604300000001,58.43803715735157L848.2433000000001,58.59426162077057L848.9261700000001,58.47186127379763L849.60904,58.28052359176502L850.2919100000001,58.263965429520056L850.97478,58.41122026817254L851.6576500000001,58.36203646223879L852.6819550000001,58.25392786277928L853.364825,58.1694165720283L854.0476950000001,58.09905677070344L854.7305650000001,58.03719475883321L855.413435,58.33410315478534L856.096305,58.39435761430673L856.7791750000001,58.52875473699419L857.462045,58.530794694707424L858.4863500000001,58.453427249235006L859.1692200000001,58.76068541190011L859.8520900000001,58.65030696857565L860.5349600000001,58.54478074463128L861.2178300000002,58.38322056329025L861.9007,58.46312721735927L862.5835700000001,58.628961787850585L864.2907450000001,58.61057195209548L865.6564850000001,58.63883720859201L866.3393550000001,58.53789888864111L867.0222250000002,58.555934212569866L867.705095,58.38991264405331L868.3879650000001,58.329598860892986L870.09514,58.41130116904674L871.4608800000001,58.322785844813666L872.1437500000001,58.32862193929884L872.82662,58.351769727065175L873.5094900000001,58.50320200464921L874.8752300000001,58.65300666022455L875.899535,58.74288945356966L876.5824050000001,59.18979691747501L877.2652750000001,59.00601831889503L877.9481450000001,58.6992622657981L879.3138850000001,58.692051396813554L879.996755,58.56982740157406L880.6796250000001,58.535792162380005L881.7039300000001,58.377827413939485L883.0696700000001,58.38129301184961L883.7525400000002,58.344080108444984L884.43541,58.341398497477655L886.4840200000001,58.24154508392263L887.5083250000001,58.47636637671326L888.191195,58.283226653514475L888.8740650000001,58.28524029344396L889.5569350000001,58.28644847740168L890.239805,58.42471009690149L890.922675,58.48802093752602L891.6055450000001,58.48670828395109L892.288415,58.682409585755295L893.3127200000001,58.58369534181338L893.9955900000001,58.603058215548515L894.6784600000001,58.49678536173968L895.3613300000001,58.786700279402964L896.72707,58.98029536107629L897.4099400000001,58.88031738505583L898.0928100000001,58.604195574419236L899.7999850000001,58.4188694611629L900.482855,58.44521739813331L901.1657250000001,58.32348255539142L901.848595,58.171850229646L902.531465,58.139816123223625L903.2143350000001,58.14024179044566L903.8972050000001,58.1208510597034L904.92151,58.08957049018272L905.6043800000001,58.03150299052072L906.2872500000001,57.996662490723565L906.9701200000001,58.054349610945565L908.3358600000001,58.12826104102834L909.01873,58.13330874112842L909.7016000000001,58.15599038806272L910.725905,58.24819079632357L911.4087750000001,58.146321305280594L912.0916450000001,58.16379792655408L912.7745150000001,58.311820608443384L913.457385,58.380988086501475L914.1402550000001,58.28494496841233L914.823125,58.14872767745851L915.5059950000001,58.1652417498608L916.5303000000001,58.45023050735148L917.21317,58.58192460389637L917.8960400000001,58.58234964172294L919.26178,58.700495242468776L919.94465,58.73208344496669L920.6275200000001,58.829634682364656L921.3103900000001,58.75062181987931L922.3346950000001,58.506725208439036L923.0175650000001,58.3996863995244L923.7004350000001,58.374762272125224L926.4319150000001,58.18296503281198L927.1147850000001,58.20543029414824L928.1390900000001,58.101018872900056L928.8219600000001,58.018718993276934L930.1877000000001,58.0675835124776L930.8705700000002,58.077256092922596L931.55344,58.18130408816421L932.2363100000001,58.28303204325874L932.9191800000001,58.363714947390804L934.6263550000001,58.27458108494591L935.3092250000001,58.358644372403035L935.9920950000001,58.35013705585243L936.674965,58.40397795494704L937.3578350000001,58.65241751942813L938.040705,58.66394454899165L938.7235750000001,58.67086076672973L939.74788,58.49816773449879L940.4307500000001,58.41420494203453L941.1136200000001,58.57996229158039L941.7964900000001,58.718715859257486L942.47936,58.72336968396456L943.1622300000001,58.785107267813714L943.8451,58.782850660173665L944.5279700000001,58.68325224861513" style="fill: none;" fill="none"></path></g></g></g></g><g opacity="0.2"><g><g><g><path stroke="rgb(255, 112, 67)" stroke-width="2px" d="M74.89302500000001,316.4738717996157L75.57589500000002,316.9159700870514L76.941635,317.89841240185956L78.30737500000001,317.94753419435943L78.990245,319.2247072641666L79.67311500000001,318.5369978592946L80.69742000000001,318.5369978592946L81.38029,317.5054337519866L82.06316,317.2598247894874L82.74603,316.9159700870514L83.4289,318.68436539173126L84.11177000000002,318.04577777935907L84.79464000000002,319.32295084916626L85.47751000000001,319.12646367916693L86.50181500000001,317.5054337519866L87.18468500000002,316.71948076211487L87.86755500000001,316.9159700870514L88.550425,315.687918809744L89.23329500000001,317.5545576994236L89.916165,315.98264956474304L90.599035,316.03177351218005L91.28190500000001,317.80016666192273L92.30621000000001,314.8037200799355L92.98908,316.67035896961505L94.35482000000002,315.34406410730804L96.40343000000001,316.8177265020517L97.08630000000001,316.1300170971797L98.110605,314.9019658198723L98.793475,313.87040171256433L99.47634500000001,315.1475747823715L100.84208500000001,315.0493311973718L101.524955,314.3616217924998L102.207825,314.65635470243603L102.89069500000001,315.000209404872L103.91500000000002,312.74059402025665L105.28074000000001,311.6599081204488L105.96361000000002,315.34406410730804L106.64648000000001,312.05288461538464L107.32935,313.28093589269196L108.01222000000001,313.91952350506415L108.69509000000001,314.2142564150003L110.402265,312.2002499928841L111.08513500000001,309.7441452833322L112.45087500000001,310.6283461680779L113.13374500000002,307.97575213358954L113.81661500000001,308.8108290708982L114.499485,309.1546837733342L115.52379000000002,310.2844914656419L116.20666000000001,309.0073162408975L117.57240000000002,310.3336111032046L118.25527000000001,311.0213205080766L118.93814,309.35117094333356L119.62101000000001,309.1546837733342L120.30388,311.8072734979483L121.328185,306.05999145141016L122.01105500000001,302.7196923219241L122.69392500000002,303.2109102469224L123.37679500000002,306.8950683887188L124.05966500000001,310.48097863564124L124.74253500000002,307.3371666761545L126.108275,304.7828162266658L127.13258,301.98285896961505L127.81545000000001,303.4074017267961L128.49832,302.3267136720511L129.18119000000002,303.26003419435943L129.86406,304.48808547166675L130.54693,307.38628631371716L131.2298,305.8635042814108L131.91267,309.7932692307692L133.619845,308.56521795346185L134.302715,306.10911539884717L135.668455,297.5127521478213L136.35132500000003,297.66011537038366L137.034195,294.9092820607699L137.71706500000002,299.37938888256366L138.74137000000002,295.25313676320593L139.42424000000003,297.16889744538526L140.78998,292.2075683887188L141.47285000000002,295.1057692307692L142.15572000000003,291.32336750397315L142.83859,290.29180770653943L143.52146000000002,293.6812307834625L144.54576500000002,290.8321495789748L145.22863500000003,292.3058119737185L146.594375,289.4567307692308L147.27724500000002,289.89882905666644L147.960115,288.3269230769231L148.642985,287.98306837448706L149.32585500000002,289.8005854716668L150.35016000000002,288.76902136435876L151.03303,286.2146752247444L151.7159,284.79013246756335L153.08164,282.8252521478213L153.76451,286.2146752247444L154.44738,284.544521350127L155.13025000000002,281.94105557294995L156.15455500000002,283.26735043525696L156.83742500000002,278.79723930358887L157.52029500000003,278.7481196660262L158.203165,281.89193162551294L158.88603500000002,282.87437178538397L159.56890500000003,278.4042649635902L160.251775,278.7481196660262L160.93464500000002,278.10952989871686L161.95895000000002,277.81479914371783L162.64182000000002,274.42538037666907L163.32469,275.35869658910315L164.00756,273.4920598543607L164.69043000000002,274.6709828743568L165.3733,273.5411751820491L166.05617,275.35869658910315L166.73904000000002,270.299123947437L168.446215,271.18332052230835L169.129085,272.2640042671791L171.177695,267.548286327949L171.860565,265.92725640076856L173.56774000000001,265.3869188382075L174.25061000000002,262.1939829312838L175.61635000000004,260.22909399179315L176.98209000000003,259.2957734694848L177.66496000000004,253.59761968025794L178.34783000000002,253.15552139282227L179.37213500000001,254.53094020256628L180.05500500000002,255.513376052563L180.73787500000003,247.16262391897348L182.10361500000002,252.66429915794959L182.78648500000003,247.30999576128445L183.469355,246.4257905666645L184.15222500000002,244.01881195948675L185.85940000000002,245.6398418866671L186.54227,241.85744446974536L187.22514,243.42935044948874L187.90801000000002,238.51713672051065L188.59088,240.6293888825637L189.27375,243.9205726843614L189.95662000000002,236.30664528333224L191.663795,235.86454699589657L192.346665,236.1592820607699L193.71240500000002,229.5277991294861L194.39527500000003,231.6891752389761L195.76101500000001,230.46111965179446L196.78532,226.285747894874L197.46819000000002,226.6295982874357L198.83393,231.64005129153912L199.51680000000002,224.12437178538397L200.19967000000003,222.35597863564126L201.56541,222.74895297563992L202.589715,222.2086154130789L203.27258500000002,217.0507905666645L203.95545500000003,218.4753333238455L205.32119500000002,218.1805982589722L206.00406500000003,213.31751709717972L206.686935,216.90342734410214L207.369805,209.14213672051065L208.39411,208.6509231053866L209.07698000000002,210.56667947769168L209.75985,210.61580342512866L210.44272,205.6544743684622L211.12559000000002,214.9876709717971L212.49133000000003,210.22282908512997L213.17420000000004,204.1808076638442L215.56424500000003,198.286166704618L218.29572500000003,195.28971796769363L218.978595,194.99499152256894L220.68577000000002,191.65468377333423L221.36864000000003,187.13545300410343L222.05151,184.6793418297401L223.41725000000002,182.66533756256104L224.10012,185.71091886667105L224.78299,187.92140168410083L225.807295,181.97763677743765L226.49016500000002,180.20924362769495L228.53877500000002,181.1916880974403L229.221645,178.3917179107666L229.904515,176.91806844564587L230.587385,173.62687602409952L231.61169000000004,172.34970510922946L232.29456000000002,172.7918120164138L232.97743000000003,170.4339487369244L233.66030000000003,169.15677782205435L234.34317000000004,171.1707820892334L235.02604000000002,170.23745294717642L235.70891000000003,174.60932049384485L236.39178000000004,170.18833761948807L238.09895500000002,168.5673076923077L238.78182500000003,163.6059700158926L239.46469500000003,164.34280336820163L240.83043500000002,166.06208119025598L241.51330500000003,162.23056844564587L242.196175,166.11119651794434L243.22048,160.60953851846548L243.90335000000002,158.93937602409952L244.58622000000003,159.18498714153586L245.26909,158.2516752389761L246.63483000000002,157.41659399179312L247.3177,163.8024658056406L249.024875,155.59908551436206L249.70774500000005,155.4025897246141L250.39061500000003,152.99561111743637L251.75635500000004,150.9816068502573L252.43922500000002,154.22366670461804L253.12209500000003,147.64129910102258L253.80496500000004,151.52194441281833L254.82927000000004,149.06585047795224L255.51214000000002,147.44482055077188L256.19501,147.59218377333423L256.87788,144.89046148153454L257.56075000000004,148.0834060082069L258.24362,145.03784194359415L258.92649,146.36412818615256L259.60936000000004,147.2974573282095L260.633665,145.97115384615384L261.999405,139.97825637230508L262.682275,142.8273418866671L263.36514500000004,143.5150426717905L264.048015,142.67997866410477L265.41375500000004,139.97825637230508L266.43806000000006,138.160747894874L267.12093000000004,135.90113251025863L268.48667000000006,138.70108545743503L269.85241,139.43791880974405L271.21815000000004,143.46592734410214L272.242455,134.77132481795093L272.925325,134.47658113332898L273.608195,135.851999943073L274.291065,134.28010258307825L275.656805,133.19941021845895L276.339675,130.93979483384354L277.022545,129.02403846153848L278.04685,128.38545300410348L278.72972000000004,124.65217091487008L279.41259,129.56437602409952L280.09546,126.32231616973877L280.77833000000004,129.56437602409952L284.53411500000004,119.88732902820294L285.89985500000006,121.164499943073L286.58272500000004,123.12938888256369L287.94846500000006,119.6417179107666L288.63133500000004,124.55392301999606L289.65564,116.25229483384356L290.33851,119.10138034820557L291.02138,118.6592734410213L291.70425,118.26629910102258L292.38712,117.08737608102655L293.06999,116.74351706871624L293.75286,117.87332476102387L294.43573,117.52946574871356L295.460035,110.01380348205566L297.508645,110.01380348205566L298.19151500000004,116.74351706871624L298.874385,113.01023497948285L299.557255,116.44879062359149L300.24012500000003,111.1927265020517L301.94730000000004,105.49457271282489L302.63017,110.50500847743109L303.31304000000006,109.27697012974664L303.99591000000004,106.62438040513263L304.67878,107.115585400508L305.36165000000005,108.49100421025202L306.04452000000003,112.61726063948413L307.068825,100.18937602409954L307.751695,102.54723930358887L308.434565,102.89109831589923L309.117435,105.05246580564057L309.800305,108.3436409876897L310.483175,106.67349573282098L311.166045,102.69460252615124L311.848915,104.9542179107666L312.87322,93.7052735548753L314.23896,100.38587181384747L314.92183000000006,95.8666410446167L316.28757,100.72973082615778L317.65331000000003,102.15426496359021L319.36048500000004,98.3718675466684L320.0433550000001,92.32985474513129L320.72622500000006,97.14381195948675L321.40909500000004,93.21405132000262L322.0919650000001,94.98244446974536L322.77483500000005,96.06311959486743L323.45770500000003,95.8666410446167L324.48201,87.95798719846283L325.16488000000004,91.59302139282227L325.84775,88.69482055077191L326.53062,92.72282908512994L327.21349000000004,92.82107698000397L327.89636,91.4947734979483L328.57923,91.8386325102586L329.26210000000003,94.24561111743634L330.28640500000006,84.66681201641376L330.96927500000004,83.83173076923077L331.652145,88.35096153846155L332.33501500000006,89.18604278564453L333.01788500000004,89.2842734410213L333.700755,88.89129910102258L334.38362500000005,88.79306844564587L335.06649500000003,89.08779489077057L336.09080000000006,82.75103840461139L336.77367000000004,81.96508972461407L337.4565400000001,83.3405085343581L338.13941000000005,82.70192307692304L338.82228000000003,85.20714957897479L339.50515000000007,88.98954699589655L340.18802000000005,84.71592734410211L340.87089000000003,88.84218377333423L341.895195,79.50899578974798L343.260935,80.5405555871817L343.943805,80.68791880974402L345.309545,81.57211538461536L345.992415,81.22825637230505L346.67528500000003,79.0177735548753L347.69959000000006,75.08799567589392L348.38246000000004,77.34761106050934L349.06533,79.45986322256232L349.74820000000005,78.91952566000128L351.11394,82.06333761948804L351.79681000000005,78.47741875281696L353.503985,79.21425210512604L354.18685500000004,76.2178033682016L354.8697250000001,74.10556844564582L355.55259500000005,74.9406324533316L356.23546500000003,77.10199994307294L357.60120500000005,78.82127776512732L358.28407500000003,79.6072264451247L359.30838,70.51964957897479L359.99125000000004,73.36873509333685L361.35699,73.51609831589917L362.03986000000003,77.59322217794562L362.72273,76.5616623805119L363.4056,73.66346153846149L364.08847000000003,75.48097001589264L365.79564500000004,71.30559825897217L366.478515,70.9617392466618L367.16138500000005,71.30559825897217L368.527125,75.13712824307953L369.20999500000005,73.0739914087149L370.91717,69.38984188666706L372.28291,70.07754267179047L372.96578000000005,71.2073503640982L373.64865000000003,69.97931201641376L375.01439000000005,70.17579056666449L375.69726,70.56876490666315L376.721565,68.9968675466684L378.087305,67.62144873692438L378.77017500000005,67.4249529471764L379.45304500000003,68.60389320666974L380.135915,69.09511544154242L380.81878500000005,69.88106412153974L381.501655,73.66346153846149L382.52596000000005,69.19334609691913L383.89170000000007,68.80037175692047L385.25744000000003,70.17579056666449L386.62318000000005,72.14067950615515L388.330355,68.45652998410736L390.378965,68.16178629948541L391.06183500000003,66.73725216205304L392.42757500000005,68.89861965179443L393.1104450000001,69.63545300410345L394.13475000000005,65.06710690718427L394.81762000000003,64.18289309281568L395.50049,67.67056406461273L396.86623000000003,66.196914599492L397.5491,66.88461538461536L398.23197000000005,68.75125642923206L398.91484,68.60389320666974L399.93914500000005,64.82149578974798L400.62201500000003,66.4916410446167L401.30488500000007,65.80392301999603L401.98775500000005,65.06710690718427L402.67062500000003,64.57588467231159L403.35349500000007,66.63900426717902L404.03636500000005,68.6530085343581L404.719235,68.89861965179443L406.42641000000003,65.90217091487006L407.10928,62.7583589553833L407.79215,63.986414542565L408.47502000000003,65.263585457435L409.15789,65.263585457435L409.84076,66.34427782205432L410.5236300000001,65.6074444697453L411.54793500000005,64.67411532768836L412.23080500000003,64.82149578974798L412.913675,63.544307635380676L413.59654500000005,64.37938888256366L414.27941500000003,64.52675210512604L414.962285,66.09866670461798L415.64515500000005,64.9688590123103L416.328025,64.37938888256366L417.35233000000005,64.67411532768836L418.03520000000003,62.16888882563666L418.71807000000007,63.249581190255924L419.40094000000005,64.42850421025202L420.76668000000006,64.28114098768964L421.44955000000004,64.47763677743762L424.522465,62.02152560307428L425.205335,63.839051320002625L425.888205,64.37938888256366L426.571075,65.21447012974664L427.253945,68.40739741692175L427.936815,62.16888882563666L428.96112000000005,64.42850421025202L429.64399000000003,64.23202566000128L431.00973000000005,64.13377776512732L431.6926,64.57588467231159L432.37547,62.1197734979483L434.76551500000005,63.20046586256757L435.44838500000003,63.00397007281964L436.81412500000005,62.41449994307294L438.86273500000004,64.3302735548753L439.545605,63.347829085129945L440.56991,62.56188040513257L441.25278000000003,62.218021392822266L441.93565,62.7583589553833L442.61852000000005,61.33382481795087L443.30139,62.7583589553833L443.98426,63.347829085129945L444.66713000000004,62.80749152256891L445.35,64.57588467231159L446.37430500000005,62.16888882563666L447.74004500000007,60.84260258307819L448.42291500000005,63.298696517944336L449.105785,61.92327770820026L449.78865500000006,61.972410275385926L450.47152500000004,64.87061111743634L451.154395,61.972410275385926L452.17870000000005,61.726799157949586L453.54444000000007,61.874162380511905L454.22731000000005,62.07065817025989L454.9101800000001,62.90572217794562L455.59305000000006,63.347829085129945L460.03170500000004,61.62855126307562L461.397445,61.235576923076906L462.08031500000004,64.3302735548753L462.763185,63.347829085129945L463.78749000000005,61.726799157949586L464.47036,60.2531324533316L465.15323000000006,60.2531324533316L465.83610000000004,61.235576923076906L466.51897,60.105769230769226L467.20184000000006,60.84260258307819L467.88471000000004,59.71279489077057L468.56758,62.856606850257265L469.59188500000005,62.31626928769623L470.2747550000001,60.498743570767886L470.95762500000006,61.726799157949586L471.64049500000004,61.481188040513246L472.3233650000001,62.26713672051062L473.00623500000006,61.62855126307562L474.3719750000001,60.05665390308087L475.39628000000005,60.79347001589264L476.07915,61.03908113332892L477.44489000000004,61.67768383026123L478.12776,62.07065817025989L478.81063,63.00397007281964L479.49350000000004,62.1197734979483L480.17637,62.07065817025989L481.20067500000005,61.481188040513246L481.883545,61.088213700514586L482.56641500000006,60.40049567589392L483.24928500000004,61.03908113332892L483.932155,61.235576923076906L484.61502500000006,62.80749152256891L485.29789500000004,60.94085047795221L485.980765,60.989965805640566L487.00507000000005,59.71279489077057L487.6879400000001,61.57943593538727L488.37081000000006,60.498743570767886L489.05368000000004,59.6636623235849L489.7365500000001,60.44962824307953L490.41942000000006,60.69523936051587L491.10229000000004,62.610995732820925L492.80946500000005,60.8917179107666L493.492335,60.596991465641906L494.175205,60.351380348205566L494.85807500000004,60.8917179107666L495.540945,60.84260258307819L496.223815,61.088213700514586L496.90668500000004,60.744354688204226L497.589555,61.03908113332892L498.61386000000005,59.418068445645815L499.29673,59.418068445645815L499.97960000000006,61.18646159538855L500.66247000000004,62.463632510258606L501.34534,60.15488455845758L502.02821000000006,59.22157265589789L503.39395,62.463632510258606L504.418255,61.43207271282489L505.1011250000001,59.123324761023866L506.4668650000001,59.81104278564453L507.1497350000001,60.596991465641906L507.83260500000006,60.498743570767886L508.5154750000001,60.105769230769226L509.1983450000001,60.15488455845758L510.22265000000004,61.5303033682016L510.90552,59.418068445645815L511.58839000000006,59.418068445645815L512.27126,61.13732902820294L512.9541300000001,60.498743570767886L513.6370000000001,59.95840600820685L514.31987,60.007521335895206L516.027045,60.44962824307953L517.392785,59.418068445645815L518.0756550000001,60.105769230769226L518.7585250000001,60.40049567589392L520.807135,59.81104278564453L523.88005,59.31982055077185L524.5629200000001,58.632102526151186L525.24579,59.418068445645815L525.92866,60.64610679333026L526.61153,60.744354688204226L527.635835,59.95840600820685L528.318705,60.54787613795355L529.0015750000001,59.516299101022526L531.050185,59.56543166820819L531.733055,60.351380348205566L532.415925,60.302265020517154L533.44023,59.516299101022526L534.80597,59.95840600820685L535.4888400000001,59.07420943333551L536.17171,60.105769230769226L537.53745,61.874162380511905L538.22032,60.69523936051587L539.244625,58.877713643587526L539.9274950000001,59.76191021845892L540.610365,59.0250768661499L541.2932350000001,58.97596153846149L541.9761050000001,59.81104278564453L542.658975,61.33382481795087L543.341845,60.596991465641906L544.0247150000001,60.007521335895206L545.04902,60.40049567589392L545.7318900000001,59.90927344102124L546.41476,59.27068798358624L547.0976300000001,59.368935878460206L547.7805000000001,58.632102526151186L548.46337,59.6636623235849L550.853415,61.235576923076906L551.536285,61.726799157949586L552.2191550000001,60.596991465641906L552.902025,60.69523936051587L553.5848950000001,60.744354688204226L554.267765,61.13732902820294L554.950635,60.105769230769226L555.633505,59.76191021845892L556.65781,58.73035042102521L557.34068,60.15488455845758L558.0235500000001,61.088213700514586L558.70642,59.95840600820685L559.3892900000001,60.05665390308087L560.07216,59.6636623235849L561.4379,60.2531324533316L562.4622050000002,61.972410275385926L563.145075,59.56543166820819L563.8279450000001,59.76191021845892L564.5108150000001,60.302265020517154L565.1936850000001,61.03908113332892L565.876555,59.6636623235849L566.5594250000001,59.46718377333417L567.242295,60.007521335895206L568.2666,61.13732902820294L568.94947,59.31982055077185L569.63234,59.27068798358624L570.3152100000001,59.516299101022526L570.99808,59.31982055077185L571.68095,58.68123509333685L572.36382,59.0250768661499L573.04669,59.22157265589789L574.070995,59.46718377333417L574.7538650000001,59.614546995896546L575.436735,60.64610679333026L576.8024750000001,59.17245732820953L578.168215,60.105769230769226L579.87539,59.516299101022526L581.9240000000001,58.73035042102521L582.6068700000001,59.22157265589789L583.28974,59.07420943333551L583.97261,60.20401712564319L584.6554800000001,60.40049567589392L585.679785,59.81104278564453L586.362655,59.614546995896546L587.0455250000001,60.20401712564319L587.728395,61.67768383026123L588.4112650000001,60.54787613795355L589.094135,59.71279489077057L589.777005,58.68123509333685L590.459875,58.97596153846149L592.8499200000001,58.3864914087149L593.53279,58.3864914087149L594.2156600000001,58.632102526151186L595.5814,59.22157265589789L596.26427,59.418068445645815L597.288575,59.614546995896546L597.971445,58.58298719846283L598.654315,58.877713643587526L599.3371850000001,58.82859831589917L600.0200550000001,59.56543166820819L600.702925,59.418068445645815L601.3857950000001,58.48473930358887L603.09297,59.368935878460206L603.7758400000001,59.22157265589789L604.45871,59.6636623235849L605.1415800000001,59.56543166820819L605.8244500000001,59.17245732820953L607.19019,59.71279489077057L607.8730600000001,60.05665390308087L608.897365,60.007521335895206L609.5802350000001,59.516299101022526L610.263105,58.3864914087149L610.9459750000001,58.68123509333685L611.6288450000001,58.68123509333685L612.311715,58.97596153846149L612.994585,59.418068445645815L613.6774550000001,60.007521335895206L614.70176,58.877713643587526L615.38463,59.22157265589789L616.0675000000001,58.82859831589917L616.75037,59.418068445645815L618.11611,58.82859831589917L618.79898,59.31982055077185L619.4818500000001,60.15488455845758L620.506155,59.46718377333417L621.189025,59.123324761023866L621.8718950000001,60.20401712564319L622.554765,59.46718377333417L623.2376350000001,59.27068798358624L625.286245,59.123324761023866L626.3105500000001,59.31982055077185L627.6762900000001,58.77946574871356L628.3591600000001,59.516299101022526L629.0420300000001,59.368935878460206L629.7249,59.31982055077185L630.4077700000001,59.31982055077185L631.09064,60.007521335895206L632.797815,59.81104278564453L633.480685,59.07420943333551L634.1635550000001,58.926846210773135L634.846425,58.97596153846149L635.529295,59.123324761023866L636.212165,59.95840600820685L636.895035,59.614546995896546L637.91934,58.82859831589917L639.28508,59.516299101022526L639.9679500000001,58.632102526151186L640.6508200000001,59.90927344102124L641.33369,60.44962824307953L642.01656,60.007521335895206L642.6994300000001,59.90927344102124L643.723735,58.48473930358887L644.4066050000001,58.68123509333685L645.089475,59.22157265589789L645.7723450000001,59.860158113332886L646.4552150000001,58.82859831589917L647.138085,58.3864914087149L647.820955,58.68123509333685L648.5038250000001,60.15488455845758L649.52813,58.97596153846149L650.211,58.82859831589917L650.8938700000001,58.33737608102649L651.57674,58.58298719846283L652.2596100000001,59.71279489077057L652.94248,59.81104278564453L653.62535,59.6636623235849L654.30822,59.0250768661499L655.332525,59.07420943333551L656.6982650000001,59.368935878460206L657.381135,59.07420943333551L658.0640050000001,59.07420943333551L658.746875,58.48473930358887L659.429745,58.53385463127722L660.112615,58.926846210773135L661.1369200000001,58.97596153846149L661.81979,58.77946574871356L663.1855300000001,59.516299101022526L663.8684000000001,59.95840600820685L664.55127,60.007521335895206L665.2341400000001,59.56543166820819L665.91701,59.31982055077185L666.941315,58.19001285846417L668.307055,58.53385463127722L668.9899250000001,59.07420943333551L669.6727950000001,59.17245732820953L670.355665,58.632102526151186L671.7214050000001,58.97596153846149L672.74571,60.105769230769226L673.4285800000001,58.77946574871356L674.11145,58.73035042102521L675.4771900000001,59.07420943333551L676.16006,58.77946574871356L676.84293,59.31982055077185L677.5258000000001,60.596991465641906L678.550105,59.22157265589789L679.2329750000001,58.288260753338136L679.9158450000001,58.288260753338136L680.5987150000001,59.27068798358624L681.2815850000001,59.27068798358624L681.9644550000002,58.435623975900455L682.647325,58.82859831589917L683.3301950000001,58.73035042102521L684.3545,58.82859831589917L685.7202400000001,59.516299101022526L686.40311,58.97596153846149L687.76885,58.68123509333685L688.45172,59.71279489077057L689.13459,59.22157265589789L690.1588950000001,58.877713643587526L691.5246350000001,58.48473930358887L692.2075050000001,58.58298719846283L692.8903750000001,59.27068798358624L693.573245,59.368935878460206L694.938985,58.926846210773135L696.64616,58.53385463127722L698.0119000000001,58.33737608102649L698.6947700000001,57.89526917384222L699.37764,58.09176496359015L700.0605100000001,58.33737608102649L700.74338,58.48473930358887L703.8162950000001,58.632102526151186L704.4991650000001,58.288260753338136L705.182035,58.3864914087149L705.864905,58.53385463127722L706.5477750000001,58.68123509333685L708.2549500000001,58.288260753338136L708.93782,58.68123509333685L709.6206900000001,59.123324761023866L710.3035600000001,58.926846210773135L710.98643,58.926846210773135L711.6693,59.56543166820819L712.3521700000001,59.418068445645815L713.376475,58.435623975900455L714.0593450000001,58.3864914087149L714.7422150000001,59.123324761023866L716.1079550000001,58.48473930358887L716.7908250000002,58.632102526151186L717.473695,58.19001285846417L718.1565650000001,58.288260753338136L719.18087,58.435623975900455L719.86374,58.435623975900455L720.5466100000001,59.418068445645815L721.22948,59.46718377333417L721.9123500000001,59.368935878460206L722.59522,59.860158113332886L723.27809,59.17245732820953L723.96096,58.632102526151186L724.9852650000001,59.22157265589789L725.668135,58.632102526151186L726.3510050000001,58.435623975900455L727.0338750000001,58.09176496359015L727.7167450000001,58.140880291278506L729.0824850000001,59.76191021845892L729.765355,59.27068798358624L730.78966,59.27068798358624L731.4725300000001,58.877713643587526L732.1554000000001,58.73035042102521L732.8382700000001,58.68123509333685L733.5211400000002,58.3864914087149L734.20401,58.926846210773135L734.8868800000001,58.53385463127722L735.5697500000001,58.632102526151186L736.594055,57.99351706871619L737.2769250000001,57.99351706871619L738.6426650000001,58.042649635901796L739.3255350000001,58.09176496359015L740.008405,58.09176496359015L740.691275,58.33737608102649L742.39845,59.56543166820819L743.0813200000001,58.77946574871356L743.7641900000001,59.07420943333551L744.4470600000001,58.68123509333685L745.1299300000001,58.73035042102521L745.8128000000002,59.0250768661499L747.1785400000001,58.53385463127722L748.202845,58.19001285846417L749.5685850000001,58.09176496359015L750.251455,58.09176496359015L750.9343250000001,57.99351706871619L751.6171950000002,57.94440174102783L752.300065,58.3864914087149L752.9829350000001,58.632102526151186L754.69011,58.82859831589917L756.0558500000001,58.288260753338136L757.42159,58.82859831589917L758.1044600000001,58.82859831589917L758.78733,59.07420943333551L759.8116350000001,58.82859831589917L760.494505,59.614546995896546L761.8602450000001,58.97596153846149L762.5431150000001,59.46718377333417L763.225985,59.516299101022526L764.591725,58.926846210773135L765.61603,58.73035042102521L766.2989000000001,58.632102526151186L766.98177,58.33737608102649L768.34751,58.48473930358887L769.03038,58.58298719846283L769.7132500000001,59.27068798358624L770.3961200000001,59.31982055077185L771.420425,59.614546995896546L772.1032950000001,58.877713643587526L772.786165,58.09176496359015L773.4690350000001,58.288260753338136L774.151905,58.288260753338136L774.834775,58.632102526151186L775.517645,58.82859831589917L776.2005150000001,58.68123509333685L777.9076900000001,58.73035042102521L779.2734300000001,58.73035042102521L779.9563,58.53385463127722L781.32204,58.288260753338136L782.0049100000001,58.140880291278506L783.029215,58.632102526151186L783.712085,58.58298719846283L784.3949550000001,58.82859831589917L785.077825,58.435623975900455L785.760695,58.48473930358887L786.443565,58.632102526151186L787.126435,58.926846210773135L787.809305,59.123324761023866L788.8336100000001,58.19001285846417L789.51648,58.435623975900455L790.8822200000001,58.877713643587526L791.56509,58.77946574871356L792.24796,59.614546995896546L792.9308300000001,59.368935878460206L793.6137,59.27068798358624L794.6380050000001,58.58298719846283L796.0037450000001,58.435623975900455L797.3694850000002,58.288260753338136L798.052355,58.33737608102649L799.4180950000001,59.17245732820953L800.4424,58.73035042102521L801.1252700000001,58.140880291278506L801.80814,58.68123509333685L802.4910100000001,59.418068445645815L803.17388,59.0250768661499L803.85675,58.48473930358887L805.2224900000001,58.68123509333685L806.246795,58.3864914087149L806.9296650000001,58.58298719846283L808.2954050000001,58.435623975900455L808.978275,58.82859831589917L809.6611450000001,58.33737608102649L810.344015,58.19001285846417L812.05119,58.632102526151186L812.7340600000001,59.31982055077185L813.4169300000001,58.82859831589917L814.0998000000001,59.17245732820953L815.4655400000001,58.435623975900455L816.14841,58.53385463127722L816.8312800000001,58.19001285846417L817.8555850000001,58.288260753338136L818.538455,58.19001285846417L819.2213250000001,58.042649635901796L819.9041950000001,58.48473930358887L821.269935,58.140880291278506L821.9528050000001,57.99351706871619L822.635675,58.73035042102521L823.6599800000001,58.23912818615253L824.34285,58.288260753338136L825.0257200000001,58.435623975900455L825.7085900000001,58.48473930358887L826.39146,59.123324761023866L827.07433,58.97596153846149L827.7572000000001,58.33737608102649L828.44007,58.82859831589917L829.4643750000001,58.632102526151186L830.1472450000001,58.33737608102649L830.8301150000001,57.99351706871619L831.5129850000001,58.19001285846417L832.1958550000002,58.23912818615253L832.878725,58.23912818615253L834.2444650000001,58.73035042102521L835.26877,59.17245732820953L835.9516400000001,58.632102526151186L836.63451,58.53385463127722L837.3173800000001,58.97596153846149L838.00025,58.58298719846283L839.36599,58.33737608102649L840.0488600000001,57.99351706871619L841.073165,57.99351706871619L841.7560350000001,58.19001285846417L842.4389050000001,58.58298719846283L845.170385,58.23912818615253L845.8532550000001,58.73035042102521L846.87756,58.140880291278506L847.5604300000001,58.58298719846283L848.2433000000001,58.82859831589917L848.9261700000001,58.288260753338136L849.60904,57.99351706871619L850.2919100000001,58.23912818615253L850.97478,58.632102526151186L851.6576500000001,58.288260753338136L852.6819550000001,58.09176496359015L853.364825,58.042649635901796L854.0476950000001,57.99351706871619L854.7305650000001,57.94440174102783L855.413435,58.77946574871356L856.096305,58.48473930358887L856.7791750000001,58.73035042102521L857.462045,58.53385463127722L858.4863500000001,58.33737608102649L859.1692200000001,59.22157265589789L859.8520900000001,58.48473930358887L860.5349600000001,58.3864914087149L861.2178300000002,58.140880291278506L861.9007,58.58298719846283L862.5835700000001,58.877713643587526L864.2907450000001,58.58298719846283L865.6564850000001,58.68123509333685L866.3393550000001,58.3864914087149L867.0222250000002,58.58298719846283L867.705095,58.140880291278506L868.3879650000001,58.23912818615253L870.09514,58.53385463127722L871.4608800000001,58.19001285846417L872.1437500000001,58.33737608102649L872.82662,58.3864914087149L873.5094900000001,58.73035042102521L874.8752300000001,58.877713643587526L875.899535,58.877713643587526L876.5824050000001,59.860158113332886L877.2652750000001,58.73035042102521L877.9481450000001,58.23912818615253L879.3138850000001,58.68123509333685L879.996755,58.3864914087149L880.6796250000001,58.48473930358887L881.7039300000001,58.140880291278506L883.0696700000001,58.3864914087149L883.7525400000002,58.288260753338136L884.43541,58.33737608102649L886.4840200000001,58.09176496359015L887.5083250000001,58.82859831589917L888.191195,57.99351706871619L888.8740650000001,58.288260753338136L889.5569350000001,58.288260753338136L890.239805,58.632102526151186L890.922675,58.58298719846283L891.6055450000001,58.48473930358887L892.288415,58.97596153846149L893.3127200000001,58.435623975900455L893.9955900000001,58.632102526151186L894.6784600000001,58.33737608102649L895.3613300000001,59.22157265589789L896.72707,59.27068798358624L897.4099400000001,58.73035042102521L898.0928100000001,58.19001285846417L899.7999850000001,58.140880291278506L900.482855,58.48473930358887L901.1657250000001,58.140880291278506L901.848595,57.94440174102783L902.531465,58.09176496359015L903.2143350000001,58.140880291278506L903.8972050000001,58.09176496359015L904.92151,58.042649635901796L905.6043800000001,57.94440174102783L906.2872500000001,57.94440174102783L906.9701200000001,58.140880291278506L908.3358600000001,58.23912818615253L909.01873,58.140880291278506L909.7016000000001,58.19001285846417L910.725905,58.3864914087149L911.4087750000001,57.99351706871619L912.0916450000001,58.19001285846417L912.7745150000001,58.53385463127722L913.457385,58.48473930358887L914.1402550000001,58.140880291278506L914.823125,57.94440174102783L915.5059950000001,58.19001285846417L916.5303000000001,58.877713643587526L917.21317,58.77946574871356L917.8960400000001,58.58298719846283L919.26178,58.877713643587526L919.94465,58.77946574871356L920.6275200000001,58.97596153846149L921.3103900000001,58.632102526151186L922.3346950000001,58.140880291278506L923.0175650000001,58.23912818615253L923.7004350000001,58.33737608102649L926.4319150000001,57.89526917384222L927.1147850000001,58.23912818615253L928.1390900000001,57.94440174102783L928.8219600000001,57.89526917384222L930.1877000000001,58.140880291278506L930.8705700000002,58.09176496359015L931.55344,58.33737608102649L932.2363100000001,58.435623975900455L932.9191800000001,58.48473930358887L934.6263550000001,58.140880291278506L935.3092250000001,58.48473930358887L935.9920950000001,58.33737608102649L936.674965,58.48473930358887L937.3578350000001,59.0250768661499L938.040705,58.68123509333685L938.7235750000001,58.68123509333685L939.74788,58.23912818615253L940.4307500000001,58.288260753338136L941.1136200000001,58.82859831589917L941.7964900000001,58.926846210773135L942.47936,58.73035042102521L943.1622300000001,58.877713643587526L943.8451,58.77946574871356L944.5279700000001,58.53385463127722" style="fill: none;" fill="none"></path></g></g></g></g></g><g><g opacity="0.992193"><span fill="rgb(0, 0, 0)" stroke="none" stroke-width="1px">Alt + Scroll to Zoom</span></g></g></g><g transform="translate(52, 376)" clip-path="url(#clip_1)"><clipPath id="clip_1"><rect width="1039" height="24"></rect></clipPath><g><g><line x1="0" y1="0" x2="0" y2="5" style="visibility: inherit;" fill="rgb(0, 0, 0)" stroke="rgb(204, 204, 204)" stroke-width="1px"></line><line x1="74.22500000000001" y1="0" x2="74.22500000000001" y2="5" style="visibility: inherit;" fill="rgb(0, 0, 0)" stroke="rgb(204, 204, 204)" stroke-width="1px"></line><line x1="148.45000000000002" y1="0" x2="148.45000000000002" y2="5" style="visibility: inherit;" fill="rgb(0, 0, 0)" stroke="rgb(204, 204, 204)" stroke-width="1px"></line><line x1="222.675" y1="0" x2="222.675" y2="5" style="visibility: inherit;" fill="rgb(0, 0, 0)" stroke="rgb(204, 204, 204)" stroke-width="1px"></line><line x1="296.90000000000003" y1="0" x2="296.90000000000003" y2="5" style="visibility: inherit;" fill="rgb(0, 0, 0)" stroke="rgb(204, 204, 204)" stroke-width="1px"></line><line x1="371.12500000000006" y1="0" x2="371.12500000000006" y2="5" style="visibility: inherit;" fill="rgb(0, 0, 0)" stroke="rgb(204, 204, 204)" stroke-width="1px"></line><line x1="445.35" y1="0" x2="445.35" y2="5" style="visibility: inherit;" fill="rgb(0, 0, 0)" stroke="rgb(204, 204, 204)" stroke-width="1px"></line><line x1="519.575" y1="0" x2="519.575" y2="5" style="visibility: inherit;" fill="rgb(0, 0, 0)" stroke="rgb(204, 204, 204)" stroke-width="1px"></line><line x1="593.8000000000001" y1="0" x2="593.8000000000001" y2="5" style="visibility: inherit;" fill="rgb(0, 0, 0)" stroke="rgb(204, 204, 204)" stroke-width="1px"></line><line x1="668.0250000000001" y1="0" x2="668.0250000000001" y2="5" style="visibility: inherit;" fill="rgb(0, 0, 0)" stroke="rgb(204, 204, 204)" stroke-width="1px"></line><line x1="742.2500000000001" y1="0" x2="742.2500000000001" y2="5" style="visibility: inherit;" fill="rgb(0, 0, 0)" stroke="rgb(204, 204, 204)" stroke-width="1px"></line><line x1="816.475" y1="0" x2="816.475" y2="5" style="visibility: inherit;" fill="rgb(0, 0, 0)" stroke="rgb(204, 204, 204)" stroke-width="1px"></line><line x1="890.7" y1="0" x2="890.7" y2="5" style="visibility: inherit;" fill="rgb(0, 0, 0)" stroke="rgb(204, 204, 204)" stroke-width="1px"></line><line x1="964.9250000000001" y1="0" x2="964.9250000000001" y2="5" style="visibility: inherit;" fill="rgb(0, 0, 0)" stroke="rgb(204, 204, 204)" stroke-width="1px"></line><line x1="1039.15" y1="0" x2="1039.15" y2="5" style="visibility: inherit;" fill="rgb(0, 0, 0)" stroke="rgb(204, 204, 204)" stroke-width="1px"></line></g><g transform="translate(0, 8)"><text x="0" y="0" dx="0em" dy="0.95em" style="text-anchor: middle; visibility: hidden; font-family: &quot;Helvetica Neue&quot;, sans-serif; font-size: 12px; font-weight: 200;" fill="rgb(50, 49, 63)" stroke="none" stroke-width="1px">-5k</text><text x="74.22500000000001" y="0" dx="0em" dy="0.95em" style="text-anchor: middle; visibility: inherit; font-family: &quot;Helvetica Neue&quot;, sans-serif; font-size: 12px; font-weight: 200;" fill="rgb(50, 49, 63)" stroke="none" stroke-width="1px">0</text><text x="148.45000000000002" y="0" dx="0em" dy="0.95em" style="text-anchor: middle; visibility: inherit; font-family: &quot;Helvetica Neue&quot;, sans-serif; font-size: 12px; font-weight: 200;" fill="rgb(50, 49, 63)" stroke="none" stroke-width="1px">5k</text><text x="222.675" y="0" dx="0em" dy="0.95em" style="text-anchor: middle; visibility: inherit; font-family: &quot;Helvetica Neue&quot;, sans-serif; font-size: 12px; font-weight: 200;" fill="rgb(50, 49, 63)" stroke="none" stroke-width="1px">10k</text><text x="296.90000000000003" y="0" dx="0em" dy="0.95em" style="text-anchor: middle; visibility: inherit; font-family: &quot;Helvetica Neue&quot;, sans-serif; font-size: 12px; font-weight: 200;" fill="rgb(50, 49, 63)" stroke="none" stroke-width="1px">15k</text><text x="371.12500000000006" y="0" dx="0em" dy="0.95em" style="text-anchor: middle; visibility: inherit; font-family: &quot;Helvetica Neue&quot;, sans-serif; font-size: 12px; font-weight: 200;" fill="rgb(50, 49, 63)" stroke="none" stroke-width="1px">20k</text><text x="445.35" y="0" dx="0em" dy="0.95em" style="text-anchor: middle; visibility: inherit; font-family: &quot;Helvetica Neue&quot;, sans-serif; font-size: 12px; font-weight: 200;" fill="rgb(50, 49, 63)" stroke="none" stroke-width="1px">25k</text><text x="519.575" y="0" dx="0em" dy="0.95em" style="text-anchor: middle; visibility: inherit; font-family: &quot;Helvetica Neue&quot;, sans-serif; font-size: 12px; font-weight: 200;" fill="rgb(50, 49, 63)" stroke="none" stroke-width="1px">30k</text><text x="593.8000000000001" y="0" dx="0em" dy="0.95em" style="text-anchor: middle; visibility: inherit; font-family: &quot;Helvetica Neue&quot;, sans-serif; font-size: 12px; font-weight: 200;" fill="rgb(50, 49, 63)" stroke="none" stroke-width="1px">35k</text><text x="668.0250000000001" y="0" dx="0em" dy="0.95em" style="text-anchor: middle; visibility: inherit; font-family: &quot;Helvetica Neue&quot;, sans-serif; font-size: 12px; font-weight: 200;" fill="rgb(50, 49, 63)" stroke="none" stroke-width="1px">40k</text><text x="742.2500000000001" y="0" dx="0em" dy="0.95em" style="text-anchor: middle; visibility: inherit; font-family: &quot;Helvetica Neue&quot;, sans-serif; font-size: 12px; font-weight: 200;" fill="rgb(50, 49, 63)" stroke="none" stroke-width="1px">45k</text><text x="816.475" y="0" dx="0em" dy="0.95em" style="text-anchor: middle; visibility: inherit; font-family: &quot;Helvetica Neue&quot;, sans-serif; font-size: 12px; font-weight: 200;" fill="rgb(50, 49, 63)" stroke="none" stroke-width="1px">50k</text><text x="890.7" y="0" dx="0em" dy="0.95em" style="text-anchor: middle; visibility: inherit; font-family: &quot;Helvetica Neue&quot;, sans-serif; font-size: 12px; font-weight: 200;" fill="rgb(50, 49, 63)" stroke="none" stroke-width="1px">55k</text><text x="964.9250000000001" y="0" dx="0em" dy="0.95em" style="text-anchor: middle; visibility: inherit; font-family: &quot;Helvetica Neue&quot;, sans-serif; font-size: 12px; font-weight: 200;" fill="rgb(50, 49, 63)" stroke="none" stroke-width="1px">60k</text><text x="1039.15" y="0" dx="0em" dy="0.95em" style="text-anchor: middle; visibility: hidden; font-family: &quot;Helvetica Neue&quot;, sans-serif; font-size: 12px; font-weight: 200;" fill="rgb(50, 49, 63)" stroke="none" stroke-width="1px">65k</text></g><line x1="0" y1="0" x2="1039.15" y2="0" fill="rgb(0, 0, 0)" stroke="rgb(204, 204, 204)" stroke-width="1px"></line></g></g></g></g></svg>