<svg viewBox="0 0 1091.4000244140625 400" xmlns="http://www.w3.org/2000/svg"><g><g><g><g><g><line x1="52.25" y1="376" x2="47.25" y2="376" style="visibility: inherit;" fill="rgb(0, 0, 0)" stroke="rgb(204, 204, 204)" stroke-width="1px"></line><line x1="52.25" y1="322.2857142857143" x2="47.25" y2="322.2857142857143" style="visibility: inherit;" fill="rgb(0, 0, 0)" stroke="rgb(204, 204, 204)" stroke-width="1px"></line><line x1="52.25" y1="268.57142857142856" x2="47.25" y2="268.57142857142856" style="visibility: inherit;" fill="rgb(0, 0, 0)" stroke="rgb(204, 204, 204)" stroke-width="1px"></line><line x1="52.25" y1="214.85714285714286" x2="47.25" y2="214.85714285714286" style="visibility: inherit;" fill="rgb(0, 0, 0)" stroke="rgb(204, 204, 204)" stroke-width="1px"></line><line x1="52.25" y1="161.14285714285717" x2="47.25" y2="161.14285714285717" style="visibility: inherit;" fill="rgb(0, 0, 0)" stroke="rgb(204, 204, 204)" stroke-width="1px"></line><line x1="52.25" y1="107.42857142857144" x2="47.25" y2="107.42857142857144" style="visibility: inherit;" fill="rgb(0, 0, 0)" stroke="rgb(204, 204, 204)" stroke-width="1px"></line><line x1="52.25" y1="53.71428571428572" x2="47.25" y2="53.71428571428572" style="visibility: inherit;" fill="rgb(0, 0, 0)" stroke="rgb(204, 204, 204)" stroke-width="1px"></line><line x1="52.25" y1="0" x2="47.25" y2="0" style="visibility: inherit;" fill="rgb(0, 0, 0)" stroke="rgb(204, 204, 204)" stroke-width="1px"></line></g><g transform="translate(42.25, 0)"><text x="0" y="376" dx="0em" dy="0.3em" style="text-anchor: end; visibility: hidden; font-family: &quot;Helvetica Neue&quot;, sans-serif; font-size: 12px; font-weight: 200;" fill="rgb(50, 49, 63)" stroke="none" stroke-width="1px">-0.5</text><text x="0" y="322.2857142857143" dx="0em" dy="0.3em" style="text-anchor: end; visibility: inherit; font-family: &quot;Helvetica Neue&quot;, sans-serif; font-size: 12px; font-weight: 200;" fill="rgb(50, 49, 63)" stroke="none" stroke-width="1px">0</text><text x="0" y="268.57142857142856" dx="0em" dy="0.3em" style="text-anchor: end; visibility: inherit; font-family: &quot;Helvetica Neue&quot;, sans-serif; font-size: 12px; font-weight: 200;" fill="rgb(50, 49, 63)" stroke="none" stroke-width="1px">0.5</text><text x="0" y="214.85714285714286" dx="0em" dy="0.3em" style="text-anchor: end; visibility: inherit; font-family: &quot;Helvetica Neue&quot;, sans-serif; font-size: 12px; font-weight: 200;" fill="rgb(50, 49, 63)" stroke="none" stroke-width="1px">1</text><text x="0" y="161.14285714285717" dx="0em" dy="0.3em" style="text-anchor: end; visibility: inherit; font-family: &quot;Helvetica Neue&quot;, sans-serif; font-size: 12px; font-weight: 200;" fill="rgb(50, 49, 63)" stroke="none" stroke-width="1px">1.5</text><text x="0" y="107.42857142857144" dx="0em" dy="0.3em" style="text-anchor: end; visibility: inherit; font-family: &quot;Helvetica Neue&quot;, sans-serif; font-size: 12px; font-weight: 200;" fill="rgb(50, 49, 63)" stroke="none" stroke-width="1px">2</text><text x="0" y="53.71428571428572" dx="0em" dy="0.3em" style="text-anchor: end; visibility: inherit; font-family: &quot;Helvetica Neue&quot;, sans-serif; font-size: 12px; font-weight: 200;" fill="rgb(50, 49, 63)" stroke="none" stroke-width="1px">2.5</text><text x="0" y="0" dx="0em" dy="0.3em" style="text-anchor: end; visibility: hidden; font-family: &quot;Helvetica Neue&quot;, sans-serif; font-size: 12px; font-weight: 200;" fill="rgb(50, 49, 63)" stroke="none" stroke-width="1px">3</text></g><line x1="52.25" y1="0" x2="52.25" y2="376" fill="rgb(0, 0, 0)" stroke="rgb(204, 204, 204)" stroke-width="1px"></line></g></g><g transform="translate(52, 0)" clip-path="url(#clip_0)"><clipPath id="clip_0"><rect width="1039" height="376"></rect></clipPath><g><g><g><line x1="0" y1="0" x2="0" y2="376" fill="rgb(0, 0, 0)" stroke="rgb(60, 60, 60)" stroke-width="1px" opacity="0.25"></line><line x1="74.22500000000001" y1="0" x2="74.22500000000001" y2="376" fill="rgb(0, 0, 0)" stroke="rgb(60, 60, 60)" stroke-width="1px" opacity="0.25"></line><line x1="148.45000000000002" y1="0" x2="148.45000000000002" y2="376" fill="rgb(0, 0, 0)" stroke="rgb(60, 60, 60)" stroke-width="1px" opacity="0.25"></line><line x1="222.675" y1="0" x2="222.675" y2="376" fill="rgb(0, 0, 0)" stroke="rgb(60, 60, 60)" stroke-width="1px" opacity="0.25"></line><line x1="296.90000000000003" y1="0" x2="296.90000000000003" y2="376" fill="rgb(0, 0, 0)" stroke="rgb(60, 60, 60)" stroke-width="1px" opacity="0.25"></line><line x1="371.12500000000006" y1="0" x2="371.12500000000006" y2="376" fill="rgb(0, 0, 0)" stroke="rgb(60, 60, 60)" stroke-width="1px" opacity="0.25"></line><line x1="445.35" y1="0" x2="445.35" y2="376" fill="rgb(0, 0, 0)" stroke="rgb(60, 60, 60)" stroke-width="1px" opacity="0.25"></line><line x1="519.575" y1="0" x2="519.575" y2="376" fill="rgb(0, 0, 0)" stroke="rgb(60, 60, 60)" stroke-width="1px" opacity="0.25"></line><line x1="593.8000000000001" y1="0" x2="593.8000000000001" y2="376" fill="rgb(0, 0, 0)" stroke="rgb(60, 60, 60)" stroke-width="1px" opacity="0.25"></line><line x1="668.0250000000001" y1="0" x2="668.0250000000001" y2="376" fill="rgb(0, 0, 0)" stroke="rgb(60, 60, 60)" stroke-width="1px" opacity="0.25"></line><line x1="742.2500000000001" y1="0" x2="742.2500000000001" y2="376" fill="rgb(0, 0, 0)" stroke="rgb(60, 60, 60)" stroke-width="1px" opacity="0.25"></line><line x1="816.475" y1="0" x2="816.475" y2="376" fill="rgb(0, 0, 0)" stroke="rgb(60, 60, 60)" stroke-width="1px" opacity="0.25"></line><line x1="890.7" y1="0" x2="890.7" y2="376" fill="rgb(0, 0, 0)" stroke="rgb(60, 60, 60)" stroke-width="1px" opacity="0.25"></line><line x1="964.9250000000001" y1="0" x2="964.9250000000001" y2="376" fill="rgb(0, 0, 0)" stroke="rgb(60, 60, 60)" stroke-width="1px" opacity="0.25"></line><line x1="1039.15" y1="0" x2="1039.15" y2="376" fill="rgb(0, 0, 0)" stroke="rgb(60, 60, 60)" stroke-width="1px" opacity="0.25"></line></g><g><line x1="0" y1="376" x2="1039.15" y2="376" fill="rgb(0, 0, 0)" stroke="rgb(60, 60, 60)" stroke-width="1px" opacity="0.25"></line><line x1="0" y1="322.2857142857143" x2="1039.15" y2="322.2857142857143" fill="rgb(0, 0, 0)" stroke="rgb(60, 60, 60)" stroke-width="1px" opacity="0.25"></line><line x1="0" y1="268.57142857142856" x2="1039.15" y2="268.57142857142856" fill="rgb(0, 0, 0)" stroke="rgb(60, 60, 60)" stroke-width="1px" opacity="0.25"></line><line x1="0" y1="214.85714285714286" x2="1039.15" y2="214.85714285714286" fill="rgb(0, 0, 0)" stroke="rgb(60, 60, 60)" stroke-width="1px" opacity="0.25"></line><line x1="0" y1="161.14285714285717" x2="1039.15" y2="161.14285714285717" fill="rgb(0, 0, 0)" stroke="rgb(60, 60, 60)" stroke-width="1px" opacity="0.25"></line><line x1="0" y1="107.42857142857144" x2="1039.15" y2="107.42857142857144" fill="rgb(0, 0, 0)" stroke="rgb(60, 60, 60)" stroke-width="1px" opacity="0.25"></line><line x1="0" y1="53.71428571428572" x2="1039.15" y2="53.71428571428572" fill="rgb(0, 0, 0)" stroke="rgb(60, 60, 60)" stroke-width="1px" opacity="0.25"></line><line x1="0" y1="0" x2="1039.15" y2="0" fill="rgb(0, 0, 0)" stroke="rgb(60, 60, 60)" stroke-width="1px" opacity="0.25"></line></g></g></g><g><g><line x1="0" y1="322.2857142857143" x2="1039.15" y2="322.2857142857143" fill="rgb(0, 0, 0)" stroke="rgb(153, 153, 153)" stroke-width="1.5px"></line></g></g><g><g><line x1="74.22500000000001" y1="0" x2="74.22500000000001" y2="376" fill="rgb(0, 0, 0)" stroke="rgb(153, 153, 153)" stroke-width="1.5px"></line></g></g><g><g><g><g><g><path stroke="rgb(255, 112, 67)" stroke-width="2px" d="M74.89302500000001,74.93729291643416L75.57589500000002,74.90167488370622L76.941635,74.9032642598055L78.30737500000001,74.9092034011328L78.990245,74.90998871115852L79.67311500000001,74.91005351877436L80.69742000000001,74.9050310942032L81.38029,74.91895863163722L82.06316,74.92721566273445L82.74603,74.92194278696843L83.4289,74.92261434532162L84.11177000000002,74.91888816771137L84.79464000000002,74.91760144887735L85.47751000000001,74.91940405263887L86.50181500000001,74.92979171616707L87.18468500000002,74.932178158299L87.86755500000001,74.9288242803351L88.550425,74.93680238878108L89.23329500000001,74.93665025421586L89.916165,74.93111858623439L90.599035,74.94118022255998L91.28190500000001,74.93737130884881L92.30621000000001,74.9413356060976L92.98908,74.94385759770694L94.35482000000002,74.94544250153683L96.40343000000001,74.94035901554861L97.08630000000001,74.94013660399554L98.110605,74.94597610486443L98.793475,74.94713365441663L99.47634500000001,74.94772573198287L100.84208500000001,74.95276302949236L101.524955,74.9573631664851L102.207825,74.95769513902519L102.89069500000001,74.9586524663946L103.91500000000002,74.96406259111836L105.28074000000001,74.96930647736741L105.96361000000002,74.96885674844339L106.64648000000001,74.97444715804323L107.32935,74.97570114046209L108.01222000000001,74.97662769808989L108.69509000000001,74.97680456074869L110.402265,74.9826684734079L111.08513500000001,74.99482351359626L112.45087500000001,75.00062074041324L113.13374500000002,75.00877088174877L113.81661500000001,75.01380439916676L114.499485,75.01694745186069L115.52379000000002,75.02467304003403L116.20666000000001,75.03631610080629L117.57240000000002,75.04325071133479L118.25527000000001,75.05106900939023L118.93814,75.05788074192043L119.62101000000001,75.07027662804848L120.30388,75.07711993888267L121.328185,75.09529256705457L122.01105500000001,75.11417714458537L122.69392500000002,75.12851997606487L123.37679500000002,75.15347699331193L124.05966500000001,75.16490636897822L124.74253500000002,75.1860970109098L126.108275,75.22643242006433L127.13258,75.28613323831087L127.81545000000001,75.33902221070417L128.49832,75.40198292393922L129.18119000000002,75.468046313027L129.86406,75.57938016469956L130.54693,75.69874852990239L131.2298,75.89936669781025L131.91267,76.2057082319256L133.619845,77.59215466676415L134.302715,78.84891092052447L135.668455,80.51315732589165L136.35132500000003,82.97374457166501L137.034195,85.135233550686L137.71706500000002,86.44591695972241L138.74137000000002,88.42831939318836L139.42424000000003,89.85860470789964L140.78998,91.41471901196076L141.47285000000002,92.06024171165467L142.15572000000003,93.84193551945935L142.83859,94.89003113240665L143.52146000000002,96.2762536996728L144.54576500000002,98.39104322670937L145.22863500000003,100.08630113308197L146.594375,101.37503529236312L147.27724500000002,103.3140551196841L147.960115,104.71224572003871L148.642985,105.53860972624756L149.32585500000002,106.14280171744497L150.35016000000002,107.37667518417095L151.03303,107.9457817000324L151.7159,109.49637232725297L153.08164,110.78172755371787L153.76451,112.14105027821984L154.44738,113.22418160213005L155.13025000000002,113.66240507944207L156.15455500000002,114.06030925860273L156.83742500000002,114.84438257664601L157.52029500000003,116.33463759826856L158.203165,116.62639410942853L158.88603500000002,116.31746026239261L159.56890500000003,117.77938770441517L160.251775,119.06171570021604L160.93464500000002,119.78494768533614L161.95895000000002,120.05936419312829L162.64182000000002,121.12848993660103L163.32469,121.27908261814088L164.00756,123.00692133340544L164.69043000000002,123.50210496155975L165.3733,124.45963013391824L166.05617,124.67451868529653L166.73904000000002,125.34121655611378L168.446215,125.47306751039815L169.129085,126.06219373412677L171.177695,127.10635386864988L171.860565,127.26666833053702L173.56774000000001,127.26619879146537L174.25061000000002,128.9426955888789L175.61635000000004,130.38474152063344L176.98209000000003,131.24867818613146L177.66496000000004,132.67833931873105L178.34783000000002,134.0644393081401L179.37213500000001,135.9993881157853L180.05500500000002,136.17373565267428L180.73787500000003,138.06923871041738L182.10361500000002,136.62054778644853L182.78648500000003,137.84694011770478L183.469355,140.0753097179443L184.15222500000002,141.16414182441892L185.85940000000002,142.04419268829673L186.54227,142.56765897584071L187.22514,143.1380425900943L187.90801000000002,145.65281587562464L188.59088,146.12717209547804L189.27375,145.49830446927066L189.95662000000002,147.17184492521477L191.663795,149.69145774161046L192.346665,150.24077207974582L193.71240500000002,152.53743145289073L194.39527500000003,153.00068043807096L195.76101500000001,154.31167764150467L196.78532,156.6438136396949L197.46819000000002,157.9028744875279L198.83393,155.49169275805104L199.51680000000002,157.93967104597877L200.19967000000003,160.4959692448445L201.56541,162.18949624155655L202.589715,163.84780637007344L203.27258500000002,165.26420259907394L203.95545500000003,166.08445223658583L205.32119500000002,166.083803404591L206.00406500000003,167.41834659615162L206.686935,168.25496140094572L207.369805,170.40452538967457L208.39411,172.60002539267055L209.07698000000002,173.42607892578786L209.75985,173.82852082523414L210.44272,175.05536292238656L211.12559000000002,172.60840641745955L212.49133000000003,173.74890811700755L213.17420000000004,174.48674536110155L215.56424500000003,177.72488282282725L218.29572500000003,181.37833244725383L218.978595,183.89168103922285L220.68577000000002,186.4532232580203L221.36864000000003,188.1566892256339L222.05151,190.57882482775616L223.41725000000002,191.98530105248517L224.10012,193.23641247789178L224.78299,192.65874986536227L225.807295,194.1330140052595L226.49016500000002,195.65652381802036L228.53877500000002,195.7311647006197L229.221645,198.00532752171807L229.904515,199.16474730735982L230.587385,200.91789712970746L231.61169000000004,203.2158834978998L232.29456000000002,203.21965853414724L232.97743000000003,204.87720255195458L233.66030000000003,206.69405889253576L234.34317000000004,206.71681375349021L235.02604000000002,207.06411655060833L235.70891000000003,205.39088768549195L236.39178000000004,206.19878094154768L238.09895500000002,207.81070260772293L238.78182500000003,209.47599850380786L239.46469500000003,210.86771013395327L240.83043500000002,210.75449895722045L241.51330500000003,211.8876360067611L242.196175,211.8797332241041L243.22048,213.8881451756385L243.90335000000002,216.0477517817224L244.58622000000003,217.39210098314825L245.26909,216.77176342802372L246.63483000000002,217.63203383239667L247.3177,216.57745267771645L249.024875,219.58358692165848L249.70774500000005,220.00289170508424L250.39061500000003,221.78646299153897L251.75635500000004,223.46213729242965L252.43922500000002,223.64894375241093L253.12209500000003,225.4980990744097L253.80496500000004,226.00615369077445L254.82927000000004,227.90105996436003L255.51214000000002,228.02203720411475L256.19501,228.34997202601238L256.87788,230.3959430588343L257.56075000000004,229.8556418327894L258.24362,230.01163251875846L258.92649,230.21887166649364L259.60936000000004,230.70165838807978L260.633665,230.56962828131324L261.999405,232.6481669681776L262.682275,233.47724301101957L263.36514500000004,233.48247912047196L264.048015,234.25414043292423L265.41375500000004,234.60195826749728L266.43806000000006,236.23842590436345L267.12093000000004,238.40429919932146L268.48667000000006,238.33938198584917L269.85241,237.63086771036066L271.21815000000004,236.33840930245103L272.242455,239.59202562951404L272.925325,240.83233422405678L273.608195,241.0095199998533L274.291065,241.6066194618958L275.656805,242.35198840512993L276.339675,243.71489896697582L277.022545,245.20140500431356L278.04685,246.46054991394766L278.72972000000004,248.7481200441066L279.41259,248.24676364328522L280.09546,248.96657020335743L280.77833000000004,248.7894853501639L284.53411500000004,251.68505884446287L285.89985500000006,253.22584390696719L286.58272500000004,253.4775698665192L287.94846500000006,255.13625129447556L288.63133500000004,254.48804508166927L289.65564,257.19383630890667L290.33851,257.49858131764034L291.02138,258.3379117278575L291.70425,258.94873353922566L292.38712,259.65227534736005L293.06999,259.59679799127036L293.75286,259.1820141127554L294.43573,259.7544850550033L295.460035,262.23796690100903L297.508645,264.02243096501604L298.19151500000004,263.4039367676605L298.874385,263.75337144039196L299.557255,262.002905149217L300.24012500000003,263.6011675607042L301.94730000000004,266.9814801733505L302.63017,267.1842059445865L303.31304000000006,267.84388917060755L303.99591000000004,269.2625644833739L304.67878,269.828925299783L305.36165000000005,269.23917036541667L306.04452000000003,266.83921270116616L307.068825,271.0921030111067L307.751695,273.01542048172155L308.434565,274.2130388120345L309.117435,273.63580496904444L309.800305,272.73531274674644L310.483175,272.07402815882494L311.166045,273.0444417453229L311.848915,273.26993968141875L312.87322,277.6524357577474L314.23896,277.41213487950546L314.92183000000006,279.1589571710766L316.28757,278.92225415821065L317.65331000000003,277.916707804549L319.36048500000004,278.836661280499L320.0433550000001,281.87433727035716L320.72622500000006,281.7331595183684L321.40909500000004,283.1875706530376L322.0919650000001,283.2228641179404L322.77483500000005,282.7299725742886L323.45770500000003,282.65024332763676L324.48201,285.66496749599787L325.16488000000004,286.2078593144758L325.84775,287.648482051829L326.53062,286.6146530706011L327.21349000000004,286.19279726904L327.89636,286.0122939892578L328.57923,286.12757145537455L329.26210000000003,285.81801691584474L330.28640500000006,288.7789448061405L330.96927500000004,291.05826231847254L331.652145,290.6361326448154L332.33501500000006,290.84948724767327L333.01788500000004,290.18850535650364L333.700755,290.327033861616L334.38362500000005,290.2381342759278L335.06649500000003,289.8179989029154L336.09080000000006,291.981526575636L336.77367000000004,293.7157417276125L337.4565400000001,294.7027621283731L338.13941000000005,295.206801088386L338.82228000000003,294.5918326464834L339.50515000000007,292.2410712839262L340.18802000000005,293.04970530959264L340.87089000000003,291.78220445602796L341.895195,294.5911161889584L343.260935,295.457386145674L343.943805,296.3272748221482L345.309545,296.898123032763L345.992415,296.8210044697694L346.67528500000003,297.6353360786643L347.69959000000006,300.1668246799047L348.38246000000004,300.5849576668513L349.06533,300.2347529814584L349.74820000000005,299.4827417424884L351.11394,298.6840451516506L351.79681000000005,299.24960382754955L353.503985,299.4430456500628L354.18685500000004,300.7877660682342L354.8697250000001,302.3299735055122L355.55259500000005,302.86063415714904L356.23546500000003,302.67374945398876L357.60120500000005,301.65438299606274L358.28407500000003,301.0626259774908L359.30838,303.98655217133773L359.99125000000004,304.28582880897153L361.35699,304.6943920084577L362.03986000000003,303.30530030898694L362.72273,303.0093154801702L363.4056,303.98066082729974L364.08847000000003,303.72094484221816L365.79564500000004,305.1876307797118L366.478515,306.34603352633366L367.16138500000005,307.1361152912981L368.527125,305.94131304281643L369.20999500000005,305.85079809104025L370.91717,307.48809498763285L372.28291,307.9643064630997L372.96578000000005,307.7540363145794L373.64865000000003,308.2071828783451L375.01439000000005,308.17139856803664L375.69726,307.8491734756042L376.721565,308.641534579235L378.087305,309.7792804860272L378.77017500000005,310.25329408273L379.45304500000003,310.63053419979497L380.135915,310.4352728192675L380.81878500000005,310.02332002139667L381.501655,308.0826576807806L382.52596000000005,308.7884954606717L383.89170000000007,309.4410286423698L385.25744000000003,309.46525956000556L386.62318000000005,308.3659423467429L388.330355,309.4261660877158L390.378965,310.26468151401644L391.06183500000003,311.222802253398L392.42757500000005,310.98291852157706L393.1104450000001,310.11573507323413L394.13475000000005,311.7296379953979L394.81762000000003,312.90859998168696L395.50049,312.02488523407925L396.86623000000003,312.5038844583622L397.5491,312.7367552660818L398.23197000000005,311.99578227145673L398.91484,311.34849809135915L399.93914500000005,312.4853458521038L400.62201500000003,312.4745296139452L401.30488500000007,312.9440123668103L401.98775500000005,313.42890409585L402.67062500000003,313.88854150405365L403.35349500000007,313.43569873998496L404.03636500000005,312.24064016564364L404.719235,311.52817725587374L406.42641000000003,312.1485080754241L407.10928,313.978868806774L407.79215,314.6058165712784L408.47502000000003,314.3068722331985L409.15789,314.1999013229034L409.84076,313.66174985533735L410.5236300000001,313.6121765502525L411.54793500000005,314.076455161381L412.23080500000003,314.5284490106666L412.913675,314.8804145321433L413.59654500000005,314.9757435122242L414.27941500000003,314.74326240159587L414.962285,314.6532791188467L415.64515500000005,314.6532095680727L416.328025,314.7045410468804L417.35233000000005,314.69713755303104L418.03520000000003,315.8187317873532L418.71807000000007,315.91025491934556L419.40094000000005,315.39297782921005L420.76668000000006,315.23906774589204L421.44955000000004,314.8804243146364L424.522465,316.0495772001819L425.205335,315.91446921709377L425.888205,315.4751303999615L426.571075,315.0103823939642L427.253945,312.93828074078704L427.936815,314.8523472033114L428.96112000000005,314.7935797348635L429.64399000000003,314.8158277292347L431.00973000000005,315.00407915570963L431.6926,314.8919246850784L432.37547,315.6934389029965L434.76551500000005,315.9394672384022L435.44838500000003,316.24824647299823L436.81412500000005,316.5412146205107L438.86273500000004,315.98041779382567L439.545605,315.99506386525695L440.56991,316.3013726973967L441.25278000000003,316.7820894473881L441.93565,316.9188937721817L442.61852000000005,317.4872665664739L443.30139,317.2425093534019L443.98426,317.02331936339806L444.66713000000004,316.9217352423173L445.35,316.23413630955315L446.37430500000005,316.7596618042931L447.74004500000007,317.59702252273746L448.42291500000005,316.95254054109955L449.105785,317.12600358646677L449.78865500000006,317.21850451252374L450.47152500000004,316.19863662970965L451.154395,316.6991101239156L452.17870000000005,317.0288609788947L453.54444000000007,317.2380743646871L454.22731000000005,317.41651958712305L454.9101800000001,317.3644970565341L455.59305000000006,316.71669056896746L460.03170500000004,317.0572789330063L461.397445,317.382926640608L462.08031500000004,316.2901995968722L462.763185,316.26903371081454L463.78749000000005,316.9330651150941L464.47036,317.8649790960346L465.15323000000006,318.4708678683601L465.83610000000004,318.5877123979733L466.51897,318.9848345974176L467.20184000000006,319.11092287994813L467.88471000000004,319.4557473258306L468.56758,318.24171516531624L469.59188500000005,317.7516927247707L470.2747550000001,318.4017258531557L470.95762500000006,318.11685812751693L471.64049500000004,317.8929066436305L472.3233650000001,317.79106166054265L473.00623500000006,317.84126510503137L474.3719750000001,318.4189451898641L475.39628000000005,318.51667507851585L476.07915,318.5770980754505L477.44489000000004,318.31416344023665L478.12776,318.0933118374335L478.81063,317.551780516576L479.49350000000004,317.5187792763283L480.17637,317.5190584582617L481.20067500000005,317.8290609109207L481.883545,318.1192588151747L482.56641500000006,318.55086920081527L483.24928500000004,318.81542098005553L483.932155,318.4896683627874L484.61502500000006,317.833315126739L485.29789500000004,318.14444344286363L485.980765,318.44183392465936L487.00507000000005,319.0098350439632L487.6879400000001,318.71836408852806L488.37081000000006,319.09573262943104L489.05368000000004,319.47757804231384L489.7365500000001,319.41132903682825L490.41942000000006,319.3555014134419L491.10229000000004,318.22282818731924L492.80946500000005,318.3816661787381L493.492335,318.6789200975763L494.175205,319.0331845498074L494.85807500000004,318.9108678401532L495.540945,319.0477085701666L496.223815,318.940244713377L496.90668500000004,318.8701425920774L497.589555,318.5095173164431L498.61386000000005,319.1874834189208L499.29673,319.65476675225784L499.97960000000006,319.24723608132297L500.66247000000004,318.4254060369327L501.34534,318.88481840807333L502.02821000000006,319.47640858652505L503.39395,318.62159237004704L504.418255,318.53260445353106L505.1011250000001,319.27331502292583L506.4668650000001,319.5096400868707L507.1497350000001,319.2539927077523L507.83260500000006,319.35804557788043L508.5154750000001,319.32456242009033L509.1983450000001,319.4477772378481L510.22265000000004,318.8844735898707L510.90552,319.35441563765437L511.58839000000006,319.70750975752014L512.27126,319.3812567549169L512.9541300000001,319.30915163330127L513.6370000000001,319.48678631663597L514.31987,319.62659170760594L516.027045,319.425126715845L517.392785,319.81305235883366L518.0756550000001,319.5988484977189L518.7585250000001,319.4635609159259L520.807135,319.717507711357L523.88005,320.1125085889563L524.5629200000001,320.6212828693633L525.24579,320.55549666170486L525.92866,320.0073325158779L526.61153,319.6747098228878L527.635835,319.71274194232757L528.318705,319.55098280547764L529.0015750000001,319.7781964546195L531.050185,319.93530036245295L531.733055,319.68027130760595L532.415925,319.4345809561737L533.44023,319.73152923753514L534.80597,319.72200478076473L535.4888400000001,320.0584821519824L536.17171,319.76217811042073L537.53745,319.18120227638144L538.22032,318.94082756100624L539.244625,319.64684619376465L539.9274950000001,319.82832162472675L540.610365,320.31958547426245L541.2932350000001,320.6262410073203L541.9761050000001,320.4431906199545L542.658975,319.35604295043123L543.341845,319.276146860085L544.0247150000001,319.42372779319413L545.04902,319.4433765103886L545.7318900000001,319.5278747118651L546.41476,319.9596279932769L547.0976300000001,320.1850104358876L547.7805000000001,320.66742407415245L548.46337,320.5110266139997L550.853415,319.654230747191L551.536285,318.8113968640545L552.2191550000001,319.0068225408439L552.902025,318.9160695962728L553.5848950000001,319.04468779434774L554.267765,318.95853298450373L554.950635,319.14580268077685L555.633505,319.45991159923454L556.65781,320.0931686598344L557.34068,320.03027785222855L558.0235500000001,319.4137672243867L558.70642,319.7573397483866L559.3892900000001,319.8051812775227L560.07216,319.7170685724791L561.4379,319.80338429531565L562.4622050000002,319.0255319372652L563.145075,319.5001440565149L563.8279450000001,319.7154471997067L564.5108150000001,319.2923818934433L565.1936850000001,319.1002501109609L565.876555,319.61009024735506L566.5594250000001,319.9552252310459L567.242295,319.88173137158674L568.2666,319.41968089372233L568.94947,319.9236637202435L569.63234,320.1665411262234L570.3152100000001,320.0464224175014L570.99808,320.211662618499L571.68095,320.524899210016L572.36382,320.71454594802515L573.04669,320.7275309561845L574.070995,320.661624569502L574.7538650000001,320.41255906067965L575.436735,319.822527011717L576.8024750000001,320.06146006272456L578.168215,319.8657603139567L579.87539,319.9947073555351L581.9240000000001,320.4381544792186L582.6068700000001,320.3887644429268L583.28974,320.5301611307249L583.97261,320.0732681953983L584.6554800000001,319.6668116026992L585.679785,319.83199210351813L586.362655,320.029702244233L587.0455250000001,319.912137949996L587.728395,319.12265722681195L588.4112650000001,318.89390175777146L589.094135,319.3739337160436L589.777005,320.15198422448753L590.459875,320.4221973060186L592.8499200000001,320.8897898458609L593.53279,321.11014897348355L594.2156600000001,321.1334393833817L595.5814,320.8545224641322L596.26427,320.6994011438056L597.288575,320.43383654230956L597.971445,320.7587055265213L598.654315,320.89374407951436L599.3371850000001,320.8693309909708L600.0200550000001,320.6746966141143L600.702925,320.7785934727852L601.3857950000001,321.07203265003005L603.09297,320.78156542079915L603.7758400000001,320.71469234149873L604.45871,320.5747437145442L605.1415800000001,320.4562190435862L605.8244500000001,320.5578796739046L607.19019,320.34402093821467L607.8730600000001,320.1073564416476L608.897365,320.0748863959666L609.5802350000001,320.0644023640709L610.263105,320.6619789912555L610.9459750000001,320.9323911070805L611.6288450000001,321.05453387243296L612.311715,320.92735644102027L612.994585,320.7509518243922L613.6774550000001,320.25447192231564L614.70176,320.6584592470767L615.38463,320.5526105341289L616.0675000000001,320.7011102824451L616.75037,320.4424031234068L618.11611,320.69991766975585L618.79898,320.7324895032507L619.4818500000001,320.26632734007353L620.506155,320.2746798762824L621.189025,320.56406957323225L621.8718950000001,320.21743923162063L622.554765,320.19516552528523L623.2376350000001,320.3579697722073L625.286245,320.37502918240966L626.3105500000001,320.51100456815345L627.6762900000001,320.76155874534135L628.3591600000001,320.6496277126464L629.0420300000001,320.642772903694L629.7249,320.62253705557526L630.4077700000001,320.5216858346755L631.09064,320.2293063514272L632.797815,320.1009391272909L633.480685,320.46780488383706L634.1635550000001,320.7193225140602L634.846425,320.8046728202838L635.529295,320.6555433358803L636.212165,320.48655915262344L636.895035,320.2422562088407L637.91934,320.6773842711181L639.28508,320.50085407642393L639.9679500000001,320.82671047877847L640.6508200000001,320.5083421514895L641.33369,319.92777921749234L642.01656,319.8004300593918L642.6994300000001,319.91177073884944L643.723735,320.523401381614L644.4066050000001,320.80713934424057L645.089475,320.7486001338769L645.7723450000001,320.53485461476413L646.4552150000001,320.89314066582136L647.138085,321.1279620059835L647.820955,321.13299044455414L648.5038250000001,320.59885707872024L649.52813,320.7365751161221L650.211,320.77558761544145L650.8938700000001,321.07397499207923L651.57674,321.1835362261277L652.2596100000001,320.78073327388245L652.94248,320.5581030679781L653.62535,320.41015134735846L654.30822,320.4963654666182L655.332525,320.70239113589065L656.6982650000001,320.47246438583267L657.381135,320.70913844384785L658.0640050000001,320.8403619804946L658.746875,321.0833054585353L659.429745,321.16290834819984L660.112615,321.1534274211356L661.1369200000001,321.0140029969879L661.81979,321.10554960354295L663.1855300000001,320.9587608421606L663.8684000000001,320.4730152514435L664.55127,320.2238311340809L665.2341400000001,320.3005167023863L665.91701,320.43198999111723L666.941315,320.9362249314053L668.307055,321.12275586191964L668.9899250000001,321.0338413422866L669.6727950000001,320.96218948397416L670.355665,321.2228634688119L671.7214050000001,321.069855370096L672.74571,320.45375767144145L673.4285800000001,320.73365278886735L674.11145,320.90258896515104L675.4771900000001,320.8157394231705L676.16006,320.99654802006853L676.84293,320.85182990623935L677.5258000000001,320.0942605358822L678.550105,320.4836576236762L679.2329750000001,321.00253480736137L679.9158450000001,321.2977737528478L680.5987150000001,321.0018229416163L681.2815850000001,320.9769925842801L681.9644550000002,321.19524556986636L682.647325,321.22971619465096L683.3301950000001,321.2812184930589L684.3545,321.1480969504392L685.7202400000001,320.8688305957925L686.40311,320.8512636415165L687.76885,320.978414819445L688.45172,320.5951249293464L689.13459,320.60676139800756L690.1588950000001,320.8330856880657L691.5246350000001,321.147706398349L692.2075050000001,321.2277628637098L692.8903750000001,320.98762396656787L693.573245,320.6536989550788L694.938985,320.81539916981114L696.64616,321.08738712150875L698.0119000000001,321.25179508775744L698.6947700000001,321.5912974590931L699.37764,321.7879115086931L700.0605100000001,321.79323586391524L700.74338,321.6020894859261L703.8162950000001,321.47462078842256L704.4991650000001,321.5692340517803L705.182035,321.56803986467077L705.864905,321.5785649237974L706.5477750000001,321.5569320697921L708.2549500000001,321.5527887110656L708.93782,321.51882225788677L709.6206900000001,321.29592979773395L710.3035600000001,321.18592265484295L710.98643,321.1547575275072L711.6693,320.98018661618045L712.3521700000001,320.6750074321531L713.376475,321.01795615393365L714.0593450000001,321.21957852752644L714.7422150000001,321.04411453109253L716.1079550000001,321.2187224343069L716.7908250000002,321.2071807725305L717.473695,321.4218095639052L718.1565650000001,321.52703581529784L719.18087,321.502656238799L719.86374,321.6005394150251L720.5466100000001,321.1468699627777L721.22948,320.8549987331086L721.9123500000001,320.6276075327854L722.59522,320.4357893329963L723.27809,320.59635353203106L723.96096,320.86118335537265L724.9852650000001,320.78234340726056L725.668135,321.0208058764688L726.3510050000001,321.3010837799401L727.0338750000001,321.53007171462804L727.7167450000001,321.6734914367759L729.0824850000001,320.9522181468142L729.765355,320.8884791631233L730.78966,320.8628515600402L731.4725300000001,320.8728604103384L732.1554000000001,320.9768434847832L732.8382700000001,321.0330182628809L733.5211400000002,321.27326347716235L734.20401,321.1107506496677L734.8868800000001,321.360787648395L735.5697500000001,321.2841809697702L736.594055,321.5876860420983L737.2769250000001,321.7893082376682L738.6426650000001,321.8607674869856L739.3255350000001,321.8998734280955L740.008405,321.920582108016L740.691275,321.81114881134084L742.39845,321.21655834595845L743.0813200000001,321.1217888245952L743.7641900000001,321.0023807257397L744.4470600000001,321.1066941107161L745.1299300000001,321.10244626397684L745.8128000000002,321.11036413496186L747.1785400000001,321.29427904495014L748.202845,321.54055901021525L749.5685850000001,321.7225517367085L750.251455,321.7713629411231L750.9343250000001,321.8406716961605L751.6171950000002,321.9135288315381L752.300065,321.866838542662L752.9829350000001,321.6826948239372L754.69011,321.4724870656027L756.0558500000001,321.63021358901824L757.42159,321.4752181695035L758.1044600000001,321.3705275976906L758.78733,321.15914119541435L759.8116350000001,321.2037050083863L760.494505,320.7431826854528L761.8602450000001,320.82005774424306L762.5431150000001,320.63268844580716L763.225985,320.63992056512194L764.591725,320.7521275680776L765.61603,320.9246531112757L766.2989000000001,321.085658183152L766.98177,321.3065005262564L768.34751,321.4203514677209L769.03038,321.4617070458059L769.7132500000001,321.08183458798334L770.3961200000001,320.8078848510746L771.420425,320.57061394051436L772.1032950000001,320.71370031149905L772.786165,321.1073546085886L773.4690350000001,321.40817580707517L774.151905,321.5431861393056L774.834775,321.4977954863379L775.517645,321.24722362307216L776.2005150000001,321.24022543790727L777.9076900000001,321.2153149209189L779.2734300000001,321.18861449984456L779.9563,321.25590426546694L781.32204,321.4598868968287L782.0049100000001,321.5782631037524L783.029215,321.4479614997356L783.712085,321.46349904521145L784.3949550000001,321.3691840828205L785.077825,321.4113404782773L785.760695,321.5045724513286L786.443565,321.5160030813309L787.126435,321.26984053968573L787.809305,321.14417224767743L788.8336100000001,321.40214899522965L789.51648,321.488694674969L790.8822200000001,321.4170335523062L791.56509,321.3324169673444L792.24796,320.99024792658815L792.9308300000001,320.7892329122617L793.6137,320.7125419785462L794.6380050000001,320.9671429742164L796.0037450000001,321.18817425575855L797.3694850000002,321.38911691576163L798.052355,321.48090202075196L799.4180950000001,321.2269008664009L800.4424,321.2246361447574L801.1252700000001,321.5008598264832L801.80814,321.4646340470437L802.4910100000001,321.1773141590737L803.17388,321.11534265003786L803.85675,321.31172953652936L805.2224900000001,321.29730036706L806.246795,321.4639354526587L806.9296650000001,321.4301689501925L808.2954050000001,321.5333219102814L808.978275,321.336532180842L809.6611450000001,321.48442159527997L810.344015,321.5692875458012L812.05119,321.42147844359255L812.7340600000001,321.0345192920096L813.4169300000001,321.0366174093016L814.0998000000001,320.920043903401L815.4655400000001,321.22209097186783L816.14841,321.21987373801676L816.8312800000001,321.4942028588127L817.8555850000001,321.59422067584734L818.538455,321.65568694299884L819.2213250000001,321.79642848652173L819.9041950000001,321.7083218130648L821.269935,321.7385253244831L821.9528050000001,321.85173055009636L822.635675,321.59829768907696L823.6599800000001,321.71602167878973L824.34285,321.7725714018183L825.0257200000001,321.703710394601L825.7085900000001,321.7455969944596L826.39146,321.2731990445086L827.07433,321.2628448920505L827.7572000000001,321.2807939130868L828.44007,321.3070201912236L829.4643750000001,321.30022427074385L830.1472450000001,321.4713717515349L830.8301150000001,321.70223751370867L831.5129850000001,321.84206881517457L832.1958550000002,321.6908668490478L832.878725,321.7218660540717L834.2444650000001,321.5461094182846L835.26877,321.3181505349263L835.9516400000001,321.2886367093571L836.63451,321.42134362635727L837.3173800000001,321.1471459033183L838.00025,321.202948974155L839.36599,321.29846438306384L840.0488600000001,321.574218793013L841.073165,321.75581559245825L841.7560350000001,321.8488780244634L842.4389050000001,321.7026121926403L845.170385,321.7474085240251L845.8532550000001,321.5127435287476L846.87756,321.59135025249617L847.5604300000001,321.46807047430696L848.2433000000001,321.3631068748475L848.9261700000001,321.40692400358137L849.60904,321.632574092877L850.2919100000001,321.68605651819064L850.97478,321.55266189195726L851.6576500000001,321.58232647591495L852.6819550000001,321.74850851990976L853.364825,321.8641810182055L854.0476950000001,321.92518053240644L854.7305650000001,321.96851789207074L855.413435,321.7458329922435L856.096305,321.70265271566035L856.7791750000001,321.44248546882363L857.462045,321.41185500372075L858.4863500000001,321.43056656253367L859.1692200000001,321.1214021097968L859.8520900000001,321.2990275409345L860.5349600000001,321.4875196725613L861.2178300000002,321.6631768754414L861.9007,321.55464317951066L862.5835700000001,321.2646459110075L864.2907450000001,321.25777424294995L865.6564850000001,321.23808908329244L866.3393550000001,321.38138047291625L867.0222250000002,321.32591857998415L867.705095,321.54505996889037L868.3879650000001,321.55974491868966L870.09514,321.5314532242008L871.4608800000001,321.6469521165108L872.1437500000001,321.6779008157041L872.82662,321.6611797884439L873.5094900000001,321.46019315572585L874.8752300000001,321.24121856686395L875.899535,321.00833474651273L876.5824050000001,320.76316167063976L877.2652750000001,320.9515329097273L877.9481450000001,321.31112454628885L879.3138850000001,321.28934008655517L879.996755,321.4646929659528L880.6796250000001,321.5034343609348L881.7039300000001,321.71393237061966L883.0696700000001,321.6707857794708L883.7525400000002,321.6624340830532L884.43541,321.6603777410985L886.4840200000001,321.80541786161325L887.5083250000001,321.4982850298293L888.191195,321.6948400500847L888.8740650000001,321.7566576620854L889.5569350000001,321.63375082566415L890.239805,321.5057647421347L890.922675,321.5281125244133L891.6055450000001,321.5861099081927L892.288415,321.279826875447L893.3127200000001,321.3971517142595L893.9955900000001,321.2363042439613L894.6784600000001,321.48022041226415L895.3613300000001,321.1437664990211L896.72707,320.94216000567246L897.4099400000001,321.0357978784293L898.0928100000001,321.2768652656483L899.7999850000001,321.4961975930559L900.482855,321.4444047615272L901.1657250000001,321.56654611346886L901.848595,321.77920633773664L902.531465,321.88634691604085L903.2143350000001,321.91868486917593L903.8972050000001,321.92582989519497L904.92151,322.00653389926435L905.6043800000001,322.0884836809761L906.2872500000001,322.08217474714763L906.9701200000001,322.0267056903847L908.3358600000001,321.923482336072L909.01873,321.87880662103L909.7016000000001,321.86759774824253L910.725905,321.73079450861206L911.4087750000001,321.8807835279185L912.0916450000001,321.8672629023275L912.7745150000001,321.76928152801963L913.457385,321.64106765486224L914.1402550000001,321.77492254647353L914.823125,321.89510401611597L915.5059950000001,321.919945847499L916.5303000000001,321.5381862726001L917.21317,321.4949549269959L917.8960400000001,321.44881689315173L919.26178,321.24700139280384L919.94465,321.16590814182894L920.6275200000001,321.08005567936226L921.3103900000001,321.1853012049512L922.3346950000001,321.52391711477907L923.0175650000001,321.6405991637122L923.7004350000001,321.6577839890878L926.4319150000001,321.87050332232945L927.1147850000001,321.88126098873994L928.1390900000001,321.9860148506203L928.8219600000001,322.08083189337697L930.1877000000001,322.05809601836097L930.8705700000002,322.0270931536375L931.55344,321.9075162930227L932.2363100000001,321.7545800316381L932.9191800000001,321.6291687587017L934.6263550000001,321.7598465906194L935.3092250000001,321.6412522719271L935.9920950000001,321.667676203862L936.674965,321.69169875842385L937.3578350000001,321.41880351222784L938.040705,321.35915394205756L938.7235750000001,321.3830086768119L939.74788,321.4912757048704L940.4307500000001,321.60785809702435L941.1136200000001,321.4332643447836L941.7964900000001,321.1633762103288L942.47936,321.15250653006166L943.1622300000001,321.15360818151294L943.8451,321.1991040714346L944.5279700000001,321.3620494813096" style="fill: none;" fill="none"></path></g></g></g></g><g opacity="0.2"><g><g><g><path stroke="rgb(255, 112, 67)" stroke-width="2px" d="M74.89302500000001,74.93729291643416L75.57589500000002,74.88030406406949L76.941635,74.90479006086076L78.30737500000001,74.91618783133373L78.990245,74.91101401192799L79.67311500000001,74.91014317103793L80.69742000000001,74.8978489467076L81.38029,74.93926511492049L82.06316,74.93939317975725L82.74603,74.91411318097795L83.4289,74.92361559186662L84.11177000000002,74.91331917898998L84.79464000000002,74.91567557198658L85.47751000000001,74.92210442679271L86.50181500000001,74.94536100115096L87.18468500000002,74.93575613839283L87.86755500000001,74.9237948826381L88.550425,74.94876752580916L89.23329500000001,74.9364220755441L89.916165,74.92282158987865L90.599035,74.95627212524414L91.28190500000001,74.93165806361606L92.30621000000001,74.94728197370256L92.98908,74.94764055524553L94.35482000000002,74.94781984601701L96.40343000000001,74.93273380824496L97.08630000000001,74.93980298723494L98.110605,74.95473534720287L98.793475,74.94886997767856L99.47634500000001,74.94861384800504L100.84208500000001,74.96031897408619L101.524955,74.96426337105885L102.207825,74.95819309779574L102.89069500000001,74.96008845738004L103.91500000000002,74.97217777797152L105.28074000000001,74.97717230660572L105.96361000000002,74.9681821550642L106.64648000000001,74.98283277239119L107.32935,74.97758211408342L108.01222000000001,74.97801753452848L108.69509000000001,74.97706985473633L110.402265,74.9914643423898L111.08513500000001,75.01305607386996L112.45087500000001,75.00931658063615L113.13374500000002,75.02099609375L113.81661500000001,75.02135467529297L114.499485,75.02166203090121L115.52379000000002,75.03626142229353L116.20666000000001,75.05378069196428L117.57240000000002,75.05365262712752L118.25527000000001,75.06279645647322L118.93814,75.06809834071566L119.62101000000001,75.08887045724049L120.30388,75.08738490513394L121.328185,75.12255150931225L122.01105500000001,75.14250401088168L122.69392500000002,75.15003422328402L123.37679500000002,75.19091251918246L124.05966500000001,75.1820504324777L124.74253500000002,75.2178829738072L126.108275,75.28693553379605L127.13258,75.37568446568082L127.81545000000001,75.4183556692941L128.49832,75.49642399379184L129.18119000000002,75.56714139665877L129.86406,75.74638094220842L130.54693,75.87780107770647L131.2298,76.20029394967213L131.91267,76.66522053309848L133.619845,79.67182431902205L134.302715,80.73404530116488L135.668455,83.00952693394254L136.35132500000003,86.66462544032504L137.034195,88.37746701921736L137.71706500000002,88.41194207327709L138.74137000000002,91.40192304338728L139.42424000000003,92.00403267996654L140.78998,93.74889046805248L141.47285000000002,93.02852576119557L142.15572000000003,96.51447623116627L142.83859,96.46217455182756L143.52146000000002,98.35558755057201L144.54576500000002,101.56322751726424L145.22863500000003,102.62918799264088L146.594375,103.3081365312849L147.27724500000002,106.22258486066545L147.960115,106.80953162057057L148.642985,106.7781557355608L149.32585500000002,107.04908970424106L150.35016000000002,109.22748538425992L151.03303,108.79944147382463L151.7159,111.82225826808383L153.08164,112.7097603934152L153.76451,114.18003436497281L154.44738,114.84887858799527L155.13025000000002,114.31974029541016L156.15455500000002,114.65716552734375L156.83742500000002,116.02049255371094L157.52029500000003,118.5700201307024L158.203165,117.06402887616838L158.88603500000002,115.85405949183871L159.56890500000003,119.97227886744906L160.251775,120.9852076939174L160.93464500000002,120.86979566301619L161.95895000000002,120.47098895481653L162.64182000000002,122.73217855181014L163.32469,121.5049716404506L164.00756,125.59867940630232L164.69043000000002,124.24488040379114L165.3733,125.89591789245605L166.05617,124.996851512364L166.73904000000002,126.34126336233959L168.446215,125.67084394182478L169.129085,126.9458830697196L171.177695,128.67259407043457L171.860565,127.50714002336775L173.56774000000001,127.26549448285783L174.25061000000002,131.45744078499928L175.61635000000004,132.54781041826521L176.98209000000003,132.5445831843785L177.66496000000004,134.82283101763045L178.34783000000002,136.14358929225378L179.37213500000001,138.90181132725306L180.05500500000002,136.4352569580078L180.73787500000003,140.91249329703197L182.10361500000002,134.44751140049524L182.78648500000003,139.68652861458912L183.469355,143.41786411830358L184.15222500000002,142.79738998413086L185.85940000000002,143.3642689841134L186.54227,143.35285840715682L187.22514,143.9936180114746L187.90801000000002,149.42497580392018L188.59088,146.83870642525807L189.27375,144.55500302995955L189.95662000000002,149.68215560913086L191.663795,153.47087696620397L192.346665,151.06474358694896L193.71240500000002,155.98242051260814L194.39527500000003,153.69555391584123L195.76101500000001,156.27817344665527L196.78532,160.14201763698034L197.46819000000002,159.79146575927734L198.83393,151.8749201638358L199.51680000000002,161.61163847787037L200.19967000000003,164.33041654314314L201.56541,164.7297867366246L202.589715,166.33527156284876L203.27258500000002,167.38879694257463L203.95545500000003,167.31482669285364L205.32119500000002,166.08283015659876L206.00406500000003,169.4201613834926L206.686935,169.50988360813685L207.369805,173.62887137276783L208.39411,175.89327539716447L209.07698000000002,174.66515922546387L209.75985,174.43218367440357L210.44272,176.89562606811523L211.12559000000002,168.93797166006908L212.49133000000003,175.4596606663295L213.17420000000004,175.5935012272426L215.56424500000003,182.58208901541576L218.29572500000003,186.85850688389368L218.978595,187.66170392717635L220.68577000000002,190.2955365862165L221.36864000000003,190.71188817705428L222.05151,194.21202823093958L223.41725000000002,194.0950153895787L224.10012,195.11307961600167L224.78299,191.79225594656808L225.807295,196.34441021510534L226.49016500000002,197.9417885371617L228.53877500000002,195.84312602451868L229.221645,201.41657175336564L229.904515,200.9038769858224L230.587385,203.54762186322893L231.61169000000004,206.66286305018835L232.29456000000002,203.22532108851843L232.97743000000003,207.3635185786656L233.66030000000003,209.4193434034075L234.34317000000004,206.75094604492188L235.02604000000002,207.58507074628557L235.70891000000003,202.88104438781738L236.39178000000004,207.41062082563127L238.09895500000002,210.22858510698592L238.78182500000003,211.97394234793526L239.46469500000003,212.9552775791713L240.83043500000002,210.58468219212122L241.51330500000003,213.58734158107214L242.196175,211.86787905011857L243.22048,216.90076310294015L243.90335000000002,219.28716169084822L244.58622000000003,219.40862478528703L245.26909,215.8412570953369L246.63483000000002,218.92243943895613L247.3177,214.99558094569616L249.024875,224.0927882875715L249.70774500000005,220.63184888022286L250.39061500000003,224.46181992122106L251.75635500000004,225.9756487437657L252.43922500000002,223.9291534423828L253.12209500000003,228.27183205740792L253.80496500000004,226.76823561532157L254.82927000000004,230.7434193747384L255.51214000000002,228.20350306374687L256.19501,228.8418742588588L256.87788,233.4648996080671L257.56075000000004,229.0451899937221L258.24362,230.24561854771204L258.92649,230.5297303880964L259.60936000000004,231.42583847045898L260.633665,230.3715831211635L261.999405,235.76597499847412L262.682275,234.7208570752825L263.36514500000004,233.49033328465052L264.048015,235.41163240160262L265.41375500000004,235.12368501935686L266.43806000000006,238.69312735966272L267.12093000000004,241.6531091417585L268.48667000000006,238.2420061656407L269.85241,236.56809629712785L271.21815000000004,234.39972169058663L272.242455,244.47245012010848L272.925325,242.6927971158709L273.608195,241.27529866354806L274.291065,242.50226865495955L275.656805,243.47004181998116L276.339675,245.7592648097447L277.022545,247.43116406032019L278.04685,248.3492672783988L278.72972000000004,252.179475239345L279.41259,247.49472904205322L280.09546,250.04628004346574L280.77833000000004,248.52385807037354L284.53411500000004,256.0284190859113L285.89985500000006,255.5370215007237L286.58272500000004,253.85515880584717L287.94846500000006,257.6242734364101L288.63133500000004,253.51573576245988L289.65564,261.25252314976285L290.33851,257.9556988307408L291.02138,259.59690734318326L291.70425,259.8649662562779L292.38712,260.7075880595616L293.06999,259.5135819571359L293.75286,258.5598382949829L294.43573,260.6131914683751L295.460035,265.96318967001775L297.508645,266.69912706102645L298.19151500000004,262.47619547162736L298.874385,264.2775234494891L299.557255,259.37720571245467L300.24012500000003,265.9985611779349L301.94730000000004,272.05194909232L302.63017,267.48829460144043L303.31304000000006,268.8334140096392L303.99591000000004,271.39057745252336L304.67878,270.67846652439664L305.36165000000005,268.3545379638672L306.04452000000003,263.2392762047904L307.068825,277.4714384760175L307.751695,275.9003966876439L308.434565,276.0094663075038L309.117435,272.7699542045593L309.800305,271.38457441329956L310.483175,271.0821012769427L311.166045,274.50006212506975L311.848915,273.6081865855626L312.87322,284.2261798722403L314.23896,277.0516835621425L314.92183000000006,281.7791906084333L316.28757,278.5671996389117L317.65331000000003,276.40838827405656L319.36048500000004,280.216591494424L320.0433550000001,286.4308512551444L320.72622500000006,281.5213928903852L321.40909500000004,285.3691873550415L322.0919650000001,283.2758043152945L322.77483500000005,281.99063525881087L323.45770500000003,282.530649457659L324.48201,290.1870537485395L325.16488000000004,287.0221970421927L325.84775,289.8094161578587L326.53062,285.0639095987592L327.21349000000004,285.56001356669833L327.89636,285.7415390695844L328.57923,286.3004876545497L329.26210000000003,285.35368510654996L330.28640500000006,293.22033664158414L330.96927500000004,294.47723858697077L331.652145,290.00293813432967L332.33501500000006,291.1695191519601L333.01788500000004,289.1970325197492L333.700755,290.5348266192845L334.38362500000005,290.1047848973956L335.06649500000003,289.1877958433969L336.09080000000006,295.2268180847168L336.77367000000004,296.31706445557734L337.4565400000001,296.183292729514L338.13941000000005,295.9628595284053L338.82228000000003,293.6693799836295L339.50515000000007,288.7149292400905L340.18802000000005,294.2626563480922L340.87089000000003,289.880953175681L341.895195,298.80448378835405L343.260935,296.75679108074735L343.943805,297.6321078368596L345.309545,297.75439534868514L345.992415,296.705326625279L346.67528500000003,298.85683349200656L347.69959000000006,303.9640575817653L348.38246000000004,301.2121571472713L349.06533,299.70944595336914L349.74820000000005,298.3547248840332L351.11394,297.48600026539395L351.79681000000005,300.097941841398L353.503985,299.7332083838327L354.18685500000004,302.8048466954913L354.8697250000001,304.6432846614293L355.55259500000005,303.6566251346043L356.23546500000003,302.3934223992484L357.60120500000005,300.1253333091736L358.28407500000003,300.1749904496329L359.30838,308.3724414621081L359.99125000000004,304.7347437654223L361.35699,305.30723680768693L362.03986000000003,301.2216627597809L362.72273,302.565338236945L363.4056,305.4376788479941L364.08847000000003,303.33137086459567L365.79564500000004,307.3876596859523L366.478515,308.0836376462664L367.16138500000005,308.3212379387447L368.527125,304.14910967009405L369.20999500000005,305.71502566337585L370.91717,309.9440403325217L372.28291,308.67862367630005L372.96578000000005,307.43863109179904L373.64865000000003,308.88690272399356L375.01439000000005,308.1177221025739L375.69726,307.3658358369555L376.721565,309.83007623468126L378.087305,311.4858993462154L378.77017500000005,310.9643144777843L379.45304500000003,311.1963943753924L380.135915,310.1423807484763L380.81878500000005,309.4053908245904L381.501655,305.1716641698565L382.52596000000005,309.8472521305084L383.89170000000007,310.419828414917L385.25744000000003,309.5016059364591L386.62318000000005,306.7169665268489L388.330355,311.01650169917514L390.378965,311.52245465346743L391.06183500000003,312.65998336247037L392.42757500000005,310.62309292384555L393.1104450000001,308.81495990071977L394.13475000000005,314.1504923786436L394.81762000000003,314.6770429611206L395.50049,310.6993131126676L396.86623000000003,313.2223832947867L397.5491,313.08606147766113L398.23197000000005,310.8843227795192L398.91484,310.37757182121277L399.93914500000005,314.1906174932207L400.62201500000003,312.4583052567073L401.30488500000007,313.6482364961079L401.98775500000005,314.1562416894095L402.67062500000003,314.57799761635914L403.35349500000007,312.75643459388186L404.03636500000005,310.44805230413164L404.719235,310.459482891219L406.42641000000003,313.0790043047496L407.10928,316.7244099037988L407.79215,315.546238218035L408.47502000000003,313.8584557260786L409.15789,314.03944495746066L409.84076,312.85452265398845L410.5236300000001,313.53781659262523L411.54793500000005,314.77287307807376L412.23080500000003,315.2064397845949L412.913675,315.4083628143583L413.59654500000005,315.1187369823456L414.27941500000003,314.3945407356535L414.962285,314.5183041947229L415.64515500000005,314.65310524191176L416.328025,314.781538265092L417.35233000000005,314.68603231225694L418.03520000000003,317.5011231388365L418.71807000000007,316.0475396173341L419.40094000000005,314.6170621940068L420.76668000000006,315.00820262091503L421.44955000000004,314.34245916775296L424.522465,317.8033065285002L425.205335,315.7118072424616L425.888205,314.816122174263L426.571075,314.3132603849684L427.253945,309.8301282610212L427.936815,317.723446897098L428.96112000000005,314.70542853219166L429.64399000000003,314.84919972079143L431.00973000000005,315.28645629542217L431.6926,314.72369297913144L432.37547,316.89571022987366L434.76551500000005,316.30850974151065L435.44838500000003,316.7114153248923L436.81412500000005,316.98066684177945L438.86273500000004,315.1392225537981L439.545605,316.0170329724039L440.56991,316.76083594560623L441.25278000000003,317.50316457237517L441.93565,317.12410025937214L442.61852000000005,318.33982575791225L443.30139,316.87537353379383L443.98426,316.69453437839235L444.66713000000004,316.7693590606962L445.35,315.20273791040694L446.37430500000005,317.54795004640306L447.74004500000007,318.8530636004039L448.42291500000005,315.98581756864274L449.105785,317.38619815451756L449.78865500000006,317.35725590160916L450.47152500000004,314.6688348054886L451.154395,317.4498203652246L452.17870000000005,317.5234872613634L453.54444000000007,317.5518944433757L454.22731000000005,317.68418742077694L454.9101800000001,317.28646326065063L455.59305000000006,315.7449808376176L460.03170500000004,317.5681614790644L461.397445,317.87139820201054L462.08031500000004,314.6511090312685L462.763185,316.23728488172804L463.78749000000005,317.9291122215135L464.47036,319.2628500674452L465.15323000000006,319.3797010268484L465.83610000000004,318.7629791923932L466.51897,319.5805178965841L467.20184000000006,319.30005530374393L467.88471000000004,319.97298399465427L468.56758,316.4206669245447L469.59188500000005,317.0166590639523L470.2747550000001,319.3767755457333L470.95762500000006,317.6895565390587L471.64049500000004,317.5569794178009L472.3233650000001,317.6382941859109L473.00623500000006,317.9165702717645L474.3719750000001,319.28546531711305L475.39628000000005,318.66326991149356L476.07915,318.66773257085254L477.44489000000004,317.9197614874159L478.12776,317.7620344332286L478.81063,316.73948353528976L479.49350000000004,317.46927741595675L480.17637,317.51947723116194L481.20067500000005,318.29406458990917L481.883545,318.55455567155565L482.56641500000006,319.19828477927615L483.24928500000004,319.212248648916L483.932155,318.00103943688526L484.61502500000006,316.84878527266636L485.29789500000004,318.6111359170505L485.980765,318.88791964735304L487.00507000000005,319.8618367229189L487.6879400000001,318.28115765537535L488.37081000000006,319.66178544078554L489.05368000000004,320.050346161638L489.7365500000001,319.31195552859987L490.41942000000006,319.27175997836247L491.10229000000004,316.52381834813525L492.80946500000005,318.6199231658663L493.492335,319.12480097583364L494.175205,319.56458122815405L494.85807500000004,318.72739277567183L495.540945,319.25296966518675L496.223815,318.7790489281927L496.90668500000004,318.7649894101279L497.589555,317.9685794029917L498.61386000000005,320.2044325726373L499.29673,320.35569175226345L499.97960000000006,318.63594007492065L500.66247000000004,317.1926609703473L501.34534,319.57393696478437L502.02821000000006,320.3637938542025L503.39395,317.33936804533005L504.418255,318.39912257875716L505.1011250000001,320.384380877018L506.4668650000001,319.864127682788L507.1497350000001,318.8705216390746L507.83260500000006,319.5141248830727L508.5154750000001,319.2743376834052L509.1983450000001,319.6325994644846L510.22265000000004,318.03951811790466L510.90552,320.05932870932986L511.58839000000006,320.2371509373188L512.27126,318.891877251012L512.9541300000001,319.2009939508779L513.6370000000001,319.753238341638L514.31987,319.83629979406084L516.027045,319.12292922820365L517.392785,320.3949408233166L518.0756550000001,319.2775427060468L518.7585250000001,319.26062954323635L520.807135,320.0984279045037L523.88005,320.7050099053553L524.5629200000001,321.3844442899738L525.24579,320.45681735021725L525.92866,319.1850862971374L526.61153,319.17577578340257L527.635835,319.76979012148723L528.318705,319.3083441002028L529.0015750000001,320.1190169283322L531.050185,320.1709562242031L531.733055,319.2977277253355L532.415925,319.0660454290254L533.44023,320.17695165957724L534.80597,319.7077180956091L535.4888400000001,320.5631982088089L536.17171,319.3177220480783L537.53745,318.30973852532253L538.22032,318.5802654879434L539.244625,320.70587414290225L539.9274950000001,320.1005347711699L540.610365,321.05648124856606L541.2932350000001,321.08622430690696L541.9761050000001,320.16861503890584L542.658975,317.72532144614627L543.341845,319.15630272456576L544.0247150000001,319.64509919285774L545.04902,319.4728495861803L545.7318900000001,319.6546220140798L546.41476,320.60725791539465L547.0976300000001,320.52308409980367L547.7805000000001,321.3910445315497L548.46337,320.27643042377065L550.853415,318.3690369469779L551.536285,317.5471460393497L552.2191550000001,319.2999610560281L552.902025,318.7799401794161L553.5848950000001,319.2376150914601L554.267765,318.8293007697378L554.950635,319.4267072251865L555.633505,319.9310749769211L556.65781,321.0430542507342L557.34068,319.9359416408198L558.0235500000001,318.48900128262386L558.70642,320.2726985343865L559.3892900000001,319.87694357122695L560.07216,319.58489951491356L561.4379,319.9328578795706L562.4622050000002,317.8587534001895L563.145075,320.21206223538945L563.8279450000001,320.0384019144944L564.5108150000001,318.65778393404827L565.1936850000001,318.81205243723736L565.876555,320.37485045194626L566.5594250000001,320.4729277065822L567.242295,319.77149058239803L568.2666,318.72660517692566L568.94947,320.6796379600252L569.63234,320.53085723519325L570.3152100000001,319.86624435441837L570.99808,320.45952291999544L571.68095,320.9947540972914L572.36382,320.999016055039L573.04669,320.7470084684236L574.070995,320.56276498947824L574.7538650000001,320.0389607974461L575.436735,318.93747893827305L576.8024750000001,320.4198596392359L578.168215,319.57221069080487L579.87539,320.1881279179028L581.9240000000001,321.1033251647438L582.6068700000001,320.314679388489L583.28974,320.74225616242205L583.97261,319.38792879240856L584.6554800000001,319.0571267136506L585.679785,320.07976285474643L586.362655,320.32626745530536L587.0455250000001,319.73579150864055L587.728395,317.93843614203587L588.4112650000001,318.55076855421066L589.094135,320.0939816534519L589.777005,321.3190599871533L590.459875,320.82751692831516L592.8499200000001,321.5911786556244L593.53279,321.44068766491756L594.2156600000001,321.1683749982289L595.5814,320.4361470852579L596.26427,320.46671916331564L597.288575,320.0354896400656L597.971445,321.24600900283883L598.654315,321.09630190900396L599.3371850000001,320.8327113581555L600.0200550000001,320.38274504882946L600.702925,320.9344387607915L601.3857950000001,321.51219141589746L603.09297,320.3458645769528L603.7758400000001,320.6143827225481L604.45871,320.36482077411245L605.1415800000001,320.2784320371492L605.8244500000001,320.71037061938216L607.19019,320.02323283467973L607.8730600000001,319.752359696797L608.897365,320.02618132744516L609.5802350000001,320.0486763162272L610.263105,321.5583439320326L610.9459750000001,321.33800928081786L611.6288450000001,321.23774802046165L612.311715,320.7365902939013L612.994585,320.48634489945005L613.6774550000001,319.5097520692008L614.70176,321.26444023421834L615.38463,320.39383746470725L616.0675000000001,320.92385990491937L616.75037,320.0543423848493L618.11611,321.0861894892795L618.79898,320.7813472534929L619.4818500000001,319.56708409530773L620.506155,320.28720868059565L621.189025,320.9981541186571L621.8718950000001,319.6974937192031L622.554765,320.16175496578217L623.2376350000001,320.6021761425904L625.286245,320.40061829771315L626.3105500000001,320.71496764676914L627.6762900000001,321.1373900111233L628.3591600000001,320.4817311636039L629.0420300000001,320.6324906902654L629.7249,320.5921832833971L630.4077700000001,320.37040900332585L631.09064,319.79073712655475L632.797815,319.90838829108645L633.480685,321.01810351865635L634.1635550000001,321.09659895939484L634.846425,320.9326982796192L635.529295,320.431849109275L636.212165,320.2330828777381L636.895035,319.87580179316654L637.91934,321.33007636453425L639.28508,320.2360587843827L639.9679500000001,321.3154950823103L640.6508200000001,320.03078966055597L641.33369,319.0569348164967L642.01656,319.60940632224083L642.6994300000001,320.0787817580359L643.723735,321.4408473457609L644.4066050000001,321.23274628818035L645.089475,320.66079131833146L645.7723450000001,320.214236336095L646.4552150000001,321.4305697424071L647.138085,321.4801940162267L647.820955,321.1405331024102L648.5038250000001,319.79765702996934L649.52813,320.94315217222487L650.211,320.8341063644205L650.8938700000001,321.5215560570359L651.57674,321.3478780772005L652.2596100000001,320.17652884551455L652.94248,320.2241577591215L653.62535,320.1882237664291L654.30822,320.6256866455078L655.332525,321.01142963979925L656.6982650000001,320.12757426074575L657.381135,321.06414953087057L658.0640050000001,321.03719728546486L658.746875,321.44772067559614L659.429745,321.2823126826967L660.112615,321.1392060305391L661.1369200000001,320.80486636076654L661.81979,321.2428695133754L663.1855300000001,320.738577700087L663.8684000000001,319.7443968653679L664.55127,319.850054958037L665.2341400000001,320.4155450548445L665.91701,320.62919992421354L666.941315,321.69257734183753L668.307055,321.4025522576911L668.9899250000001,320.90046956283703L669.6727950000001,320.85471169650555L670.355665,321.6138744460685L671.7214050000001,320.84034322202206L672.74571,319.5296111234597L673.4285800000001,321.15349546500613L674.11145,321.1559932295765L675.4771900000001,320.6854651101998L676.16006,321.26776091541564L676.84293,320.63475273549557L677.5258000000001,318.9579064803464L678.550105,321.0677532553673L679.2329750000001,321.7808505828892L679.9158450000001,321.7406321710774L680.5987150000001,320.557896724769L681.2815850000001,320.9397470482758L681.9644550000002,321.5226250482457L682.647325,321.2814221318279L683.3301950000001,321.3584719406707L684.3545,320.94841463650977L685.7202400000001,320.44993106382236L686.40311,320.82491321010247L687.76885,321.1691415863378L688.45172,320.0201900941985L689.13459,320.62421610099926L690.1588950000001,321.17257212315286L691.5246350000001,321.619637463774L692.2075050000001,321.3478475617511L692.8903750000001,320.62741562085495L693.573245,320.15281143784523L694.938985,321.0579494919096L696.64616,321.4953690490552L698.0119000000001,321.49840703713045L698.6947700000001,322.1005510160966L699.37764,322.0828325830932L700.0605100000001,321.8012223967484L700.74338,321.31536991894245L703.8162950000001,321.2834177421672L704.4991650000001,321.7111539468169L705.182035,321.56624858400653L705.864905,321.5943525124873L706.5477750000001,321.52448278878416L708.2549500000001,321.5465736729758L708.93782,321.46787257811854L709.6206900000001,320.9615911075047L710.3035600000001,321.02091194050655L710.98643,321.1080098365034L711.6693,320.71833024919033L712.3521700000001,320.2172386561121L713.376475,321.53237923660447L714.0593450000001,321.52201208791564L714.7422150000001,320.7809185364417L716.1079550000001,321.48063428912843L716.7908250000002,321.18986827986583L717.473695,321.74375275096725L718.1565650000001,321.68487519238676L719.18087,321.46608687405075L719.86374,321.7473641793643L720.5466100000001,320.46636578440666L721.22948,320.41719188860486L721.9123500000001,320.28652073230063L722.59522,320.14806203331267L723.27809,320.8371998305832L723.96096,321.25842809038505L724.9852650000001,320.6640834850924L725.668135,321.37849958028113L726.3510050000001,321.7215006351471L727.0338750000001,321.87355361666L727.7167450000001,321.88862101999774L729.0824850000001,319.87030821187153L729.765355,320.7928706875869L730.78966,320.82441015541553L731.4725300000001,320.8878736857857L732.1554000000001,321.1328180964504L732.8382700000001,321.1172804300274L733.5211400000002,321.6336312985846L734.20401,320.8669814084257L734.8868800000001,321.73584314648593L735.5697500000001,321.169270951833L736.594055,322.04294365059053L737.2769250000001,322.09174153102293L738.6426650000001,321.9679563609617L739.3255350000001,321.9585323397602L740.008405,321.95164512789677L740.691275,321.64699886632815L742.39845,320.32467264788494L743.0813200000001,320.97963454255034L743.7641900000001,320.8232685774565L744.4470600000001,321.26316418818067L745.1299300000001,321.096074493868L745.8128000000002,321.1222409414394L747.1785400000001,321.5701514099325L748.202845,321.90997895811284L749.5685850000001,321.99554082644835L750.251455,321.84457974774494L750.9343250000001,321.9446348287165L751.6171950000002,322.02281453460455L752.300065,321.7968031093478L752.9829350000001,321.40647924585L754.69011,321.15717542810097L756.0558500000001,321.86680337414145L757.42159,321.24272504023145L758.1044600000001,321.2134917399713L758.78733,320.8420615919999L759.8116350000001,321.27055072784424L760.494505,320.05239920105254L761.8602450000001,320.93537033242836L762.5431150000001,320.35163449815343L763.225985,320.650768744094L764.591725,320.9204380725111L765.61603,321.1834414260728L766.2989000000001,321.3271657909666L766.98177,321.6377640409129L768.34751,321.5911278799176L769.03038,321.5237404129335L769.7132500000001,320.5120259012495L770.3961200000001,320.39696024571145L771.420425,320.21470757467404L772.1032950000001,320.92832986797606L772.786165,321.69783605422293L773.4690350000001,321.8594076048051L774.151905,321.7457016376512L774.834775,321.42970950688635L775.517645,320.8713658281735L776.2005150000001,321.22972816015994L777.9076900000001,321.1779491454363L779.2734300000001,321.1485638682331L779.9563,321.3568389139005L781.32204,321.76586084387134L782.0049100000001,321.75582741413797L783.029215,321.25250909371033L783.712085,321.48680536342516L784.3949550000001,321.227711639234L785.077825,321.47457507146254L785.760695,321.6444204109056L786.443565,321.5331490263343L787.126435,320.90059672721793L787.809305,320.955669809665L788.8336100000001,321.789114116558L789.51648,321.61851319457804L790.8822200000001,321.309541868312L791.56509,321.20549208990167L792.24796,320.4769943654537L792.9308300000001,320.4877103907721L793.6137,320.597505577973L794.6380050000001,321.3490444677217L796.0037450000001,321.51972117807185L797.3694850000002,321.69053090576614L798.052355,321.61857967823744L799.4180950000001,320.84589913487434L800.4424,321.2212390622922L801.1252700000001,321.9151953490717L801.80814,321.4102953778846L802.4910100000001,320.74633432711875L803.17388,321.022385386484L803.85675,321.6063098662666L805.2224900000001,321.27565661285604L806.246795,321.7138880810567L806.9296650000001,321.3795191964933L808.2954050000001,321.68805135041475L808.978275,321.0413475866829L809.6611450000001,321.70625571693694L810.344015,321.69658647158315L812.05119,321.1997647902795L812.7340600000001,320.45408056463515L813.4169300000001,321.03976458523954L814.0998000000001,320.7451836445502L815.4655400000001,321.67516157456805L816.14841,321.21654788724015L816.8312800000001,321.90569654000655L817.8555850000001,321.74424740139926L818.538455,321.74788634372607L819.2213250000001,322.0075408018061L819.9041950000001,321.5761618028794L821.269935,321.7838305916105L821.9528050000001,322.0215383885162L822.635675,321.21814839754785L823.6599800000001,321.89260766335894L824.34285,321.85739598636115L825.0257200000001,321.600418883775L825.7085900000001,321.80842689424753L826.39146,320.56460211958205L827.07433,321.24731366336346L827.7572000000001,321.30771744464124L828.44007,321.3463596084288L829.4643750000001,321.2900303900242L830.1472450000001,321.72809297272136L830.8301150000001,322.0485361569694L831.5129850000001,322.05181576737334L832.1958550000002,321.46406389985765L832.878725,321.76836486160755L834.2444650000001,321.2824744646038L835.26877,320.97621220988884L835.9516400000001,321.2443659710033L836.63451,321.62040400185754L837.3173800000001,320.7358493187598L838.00025,321.28665358041013L839.36599,321.44173749642715L840.0488600000001,321.9878504079367L841.073165,322.0282107916261L841.7560350000001,321.98847167247106L842.4389050000001,321.48321344490563L845.170385,321.8146030211023L845.8532550000001,321.1607460358313L846.87756,321.7092603381191L847.5604300000001,321.28315080702305L848.2433000000001,321.2056614756584L848.9261700000001,321.4726496966822L849.60904,321.97104922682047L850.2919100000001,321.7662801561611L850.97478,321.35256995260715L851.6576500000001,321.62682335185156L852.6819550000001,321.997781585902L853.364825,322.0376897656492L854.0476950000001,322.01667980370775L854.7305650000001,322.0335239315672L855.413435,321.41180564250266L856.096305,321.63788230078563L856.7791750000001,321.05223459856853L857.462045,321.3659093060664L858.4863500000001,321.4586339007531L859.1692200000001,320.6576554306916L859.8520900000001,321.56546568764105L860.5349600000001,321.77025787000144L861.2178300000002,321.92666267976165L861.9007,321.3918426356145L862.5835700000001,320.8296500082527L864.2907450000001,321.2474667408637L865.6564850000001,321.20856134380614L866.3393550000001,321.59631755735194L867.0222250000002,321.242725740586L867.705095,321.87377205224976L868.3879650000001,321.58177234338865L870.09514,321.48901568246737L871.4608800000001,321.82020045497586L872.1437500000001,321.72432386449407L872.82662,321.6360982475536L873.5094900000001,321.1587132066488L874.8752300000001,320.912756683571L875.899535,320.6590090159859L876.5824050000001,320.3954020568303L877.2652750000001,321.2340897683586L877.9481450000001,321.8505120011313L879.3138850000001,321.25666339695454L879.996755,321.7277222850493L880.6796250000001,321.56154645340786L881.7039300000001,322.02967938514695L883.0696700000001,321.6060658927475L883.7525400000002,321.6499065384269L884.43541,321.65729322816645L886.4840200000001,322.02297804238543L887.5083250000001,321.03758578215326L888.191195,321.9896725804678L888.8740650000001,321.84938408008645L889.5569350000001,321.44939057103227L890.239805,321.3137856168406L890.922675,321.56163419783115L891.6055450000001,321.67310598386183L892.288415,320.8204023263284L893.3127200000001,321.57313897247826L893.9955900000001,320.995033038514L894.6784600000001,321.8460946647184L895.3613300000001,320.6390856291567L896.72707,320.6397502656494L897.4099400000001,321.1762546875647L898.0928100000001,321.6384663464768L899.7999850000001,321.82519608416726L900.482855,321.36671551423416L901.1657250000001,321.7497581413814L901.848595,322.0981966741383L902.531465,322.0470577834972L903.2143350000001,321.96719179887856L903.8972050000001,321.93654743422354L904.92151,322.12758990536844L905.6043800000001,322.21140835354373L906.2872500000001,322.0727113464049L906.9701200000001,321.9435021052403L908.3358600000001,321.768647304603L909.01873,321.81179304846694L909.7016000000001,321.8507844390614L910.725905,321.52558964916636L911.4087750000001,322.1057670568781L912.0916450000001,321.846981963941L912.7745150000001,321.62230946655785L913.457385,321.44874684512615L914.1402550000001,321.9757048838905L914.823125,322.07537622057964L915.5059950000001,321.9572085945734L916.5303000000001,320.9655469102519L917.21317,321.4301079085895L917.8960400000001,321.37960984238555L919.26178,320.9442781422819L919.94465,321.04426826536655L920.6275200000001,320.95127698566233L921.3103900000001,321.34316949333464L922.3346950000001,322.0318409795208L923.0175650000001,321.8156222371118L923.7004350000001,321.6835612271513L926.4319150000001,322.189582322192L927.1147850000001,321.89739748835564L928.1390900000001,322.14314564344073L928.8219600000001,322.22305745751197L930.1877000000001,322.0239922058369L930.8705700000002,321.98058885655234L931.55344,321.72815100210056L932.2363100000001,321.52517563956127L932.9191800000001,321.44105184929714L934.6263550000001,321.955863338496L935.3092250000001,321.46336079388857L935.9920950000001,321.70731210176433L936.674965,321.7277325902666L937.3578350000001,321.00946064293385L938.040705,321.2696795868022L938.7235750000001,321.41879077894345L939.74788,321.6536762469581L940.4307500000001,321.78273168525527L941.1136200000001,321.17137371642247L941.7964900000001,320.7585440086467L942.47936,321.13620200966085L943.1622300000001,321.1552606586899L943.8451,321.267347906317L944.5279700000001,321.6064675961222" style="fill: none;" fill="none"></path></g></g></g></g></g><g><g><span fill="rgb(0, 0, 0)" stroke="none" stroke-width="1px">Alt + Scroll to Zoom</span></g></g></g><g transform="translate(52, 376)" clip-path="url(#clip_1)"><clipPath id="clip_1"><rect width="1039" height="24"></rect></clipPath><g><g><line x1="0" y1="0" x2="0" y2="5" style="visibility: inherit;" fill="rgb(0, 0, 0)" stroke="rgb(204, 204, 204)" stroke-width="1px"></line><line x1="74.22500000000001" y1="0" x2="74.22500000000001" y2="5" style="visibility: inherit;" fill="rgb(0, 0, 0)" stroke="rgb(204, 204, 204)" stroke-width="1px"></line><line x1="148.45000000000002" y1="0" x2="148.45000000000002" y2="5" style="visibility: inherit;" fill="rgb(0, 0, 0)" stroke="rgb(204, 204, 204)" stroke-width="1px"></line><line x1="222.675" y1="0" x2="222.675" y2="5" style="visibility: inherit;" fill="rgb(0, 0, 0)" stroke="rgb(204, 204, 204)" stroke-width="1px"></line><line x1="296.90000000000003" y1="0" x2="296.90000000000003" y2="5" style="visibility: inherit;" fill="rgb(0, 0, 0)" stroke="rgb(204, 204, 204)" stroke-width="1px"></line><line x1="371.12500000000006" y1="0" x2="371.12500000000006" y2="5" style="visibility: inherit;" fill="rgb(0, 0, 0)" stroke="rgb(204, 204, 204)" stroke-width="1px"></line><line x1="445.35" y1="0" x2="445.35" y2="5" style="visibility: inherit;" fill="rgb(0, 0, 0)" stroke="rgb(204, 204, 204)" stroke-width="1px"></line><line x1="519.575" y1="0" x2="519.575" y2="5" style="visibility: inherit;" fill="rgb(0, 0, 0)" stroke="rgb(204, 204, 204)" stroke-width="1px"></line><line x1="593.8000000000001" y1="0" x2="593.8000000000001" y2="5" style="visibility: inherit;" fill="rgb(0, 0, 0)" stroke="rgb(204, 204, 204)" stroke-width="1px"></line><line x1="668.0250000000001" y1="0" x2="668.0250000000001" y2="5" style="visibility: inherit;" fill="rgb(0, 0, 0)" stroke="rgb(204, 204, 204)" stroke-width="1px"></line><line x1="742.2500000000001" y1="0" x2="742.2500000000001" y2="5" style="visibility: inherit;" fill="rgb(0, 0, 0)" stroke="rgb(204, 204, 204)" stroke-width="1px"></line><line x1="816.475" y1="0" x2="816.475" y2="5" style="visibility: inherit;" fill="rgb(0, 0, 0)" stroke="rgb(204, 204, 204)" stroke-width="1px"></line><line x1="890.7" y1="0" x2="890.7" y2="5" style="visibility: inherit;" fill="rgb(0, 0, 0)" stroke="rgb(204, 204, 204)" stroke-width="1px"></line><line x1="964.9250000000001" y1="0" x2="964.9250000000001" y2="5" style="visibility: inherit;" fill="rgb(0, 0, 0)" stroke="rgb(204, 204, 204)" stroke-width="1px"></line><line x1="1039.15" y1="0" x2="1039.15" y2="5" style="visibility: inherit;" fill="rgb(0, 0, 0)" stroke="rgb(204, 204, 204)" stroke-width="1px"></line></g><g transform="translate(0, 8)"><text x="0" y="0" dx="0em" dy="0.95em" style="text-anchor: middle; visibility: hidden; font-family: &quot;Helvetica Neue&quot;, sans-serif; font-size: 12px; font-weight: 200;" fill="rgb(50, 49, 63)" stroke="none" stroke-width="1px">-5k</text><text x="74.22500000000001" y="0" dx="0em" dy="0.95em" style="text-anchor: middle; visibility: inherit; font-family: &quot;Helvetica Neue&quot;, sans-serif; font-size: 12px; font-weight: 200;" fill="rgb(50, 49, 63)" stroke="none" stroke-width="1px">0</text><text x="148.45000000000002" y="0" dx="0em" dy="0.95em" style="text-anchor: middle; visibility: inherit; font-family: &quot;Helvetica Neue&quot;, sans-serif; font-size: 12px; font-weight: 200;" fill="rgb(50, 49, 63)" stroke="none" stroke-width="1px">5k</text><text x="222.675" y="0" dx="0em" dy="0.95em" style="text-anchor: middle; visibility: inherit; font-family: &quot;Helvetica Neue&quot;, sans-serif; font-size: 12px; font-weight: 200;" fill="rgb(50, 49, 63)" stroke="none" stroke-width="1px">10k</text><text x="296.90000000000003" y="0" dx="0em" dy="0.95em" style="text-anchor: middle; visibility: inherit; font-family: &quot;Helvetica Neue&quot;, sans-serif; font-size: 12px; font-weight: 200;" fill="rgb(50, 49, 63)" stroke="none" stroke-width="1px">15k</text><text x="371.12500000000006" y="0" dx="0em" dy="0.95em" style="text-anchor: middle; visibility: inherit; font-family: &quot;Helvetica Neue&quot;, sans-serif; font-size: 12px; font-weight: 200;" fill="rgb(50, 49, 63)" stroke="none" stroke-width="1px">20k</text><text x="445.35" y="0" dx="0em" dy="0.95em" style="text-anchor: middle; visibility: inherit; font-family: &quot;Helvetica Neue&quot;, sans-serif; font-size: 12px; font-weight: 200;" fill="rgb(50, 49, 63)" stroke="none" stroke-width="1px">25k</text><text x="519.575" y="0" dx="0em" dy="0.95em" style="text-anchor: middle; visibility: inherit; font-family: &quot;Helvetica Neue&quot;, sans-serif; font-size: 12px; font-weight: 200;" fill="rgb(50, 49, 63)" stroke="none" stroke-width="1px">30k</text><text x="593.8000000000001" y="0" dx="0em" dy="0.95em" style="text-anchor: middle; visibility: inherit; font-family: &quot;Helvetica Neue&quot;, sans-serif; font-size: 12px; font-weight: 200;" fill="rgb(50, 49, 63)" stroke="none" stroke-width="1px">35k</text><text x="668.0250000000001" y="0" dx="0em" dy="0.95em" style="text-anchor: middle; visibility: inherit; font-family: &quot;Helvetica Neue&quot;, sans-serif; font-size: 12px; font-weight: 200;" fill="rgb(50, 49, 63)" stroke="none" stroke-width="1px">40k</text><text x="742.2500000000001" y="0" dx="0em" dy="0.95em" style="text-anchor: middle; visibility: inherit; font-family: &quot;Helvetica Neue&quot;, sans-serif; font-size: 12px; font-weight: 200;" fill="rgb(50, 49, 63)" stroke="none" stroke-width="1px">45k</text><text x="816.475" y="0" dx="0em" dy="0.95em" style="text-anchor: middle; visibility: inherit; font-family: &quot;Helvetica Neue&quot;, sans-serif; font-size: 12px; font-weight: 200;" fill="rgb(50, 49, 63)" stroke="none" stroke-width="1px">50k</text><text x="890.7" y="0" dx="0em" dy="0.95em" style="text-anchor: middle; visibility: inherit; font-family: &quot;Helvetica Neue&quot;, sans-serif; font-size: 12px; font-weight: 200;" fill="rgb(50, 49, 63)" stroke="none" stroke-width="1px">55k</text><text x="964.9250000000001" y="0" dx="0em" dy="0.95em" style="text-anchor: middle; visibility: inherit; font-family: &quot;Helvetica Neue&quot;, sans-serif; font-size: 12px; font-weight: 200;" fill="rgb(50, 49, 63)" stroke="none" stroke-width="1px">60k</text><text x="1039.15" y="0" dx="0em" dy="0.95em" style="text-anchor: middle; visibility: hidden; font-family: &quot;Helvetica Neue&quot;, sans-serif; font-size: 12px; font-weight: 200;" fill="rgb(50, 49, 63)" stroke="none" stroke-width="1px">65k</text></g><line x1="0" y1="0" x2="1039.15" y2="0" fill="rgb(0, 0, 0)" stroke="rgb(204, 204, 204)" stroke-width="1px"></line></g></g></g></g></svg>