<svg viewBox="0 0 1091.4000244140625 400" xmlns="http://www.w3.org/2000/svg"><g><g><g><g><g><line x1="52.25" y1="376" x2="47.25" y2="376" style="visibility: inherit;" fill="rgb(0, 0, 0)" stroke="rgb(204, 204, 204)" stroke-width="1px"></line><line x1="52.25" y1="344.6666666666667" x2="47.25" y2="344.6666666666667" style="visibility: inherit;" fill="rgb(0, 0, 0)" stroke="rgb(204, 204, 204)" stroke-width="1px"></line><line x1="52.25" y1="313.3333333333333" x2="47.25" y2="313.3333333333333" style="visibility: inherit;" fill="rgb(0, 0, 0)" stroke="rgb(204, 204, 204)" stroke-width="1px"></line><line x1="52.25" y1="282" x2="47.25" y2="282" style="visibility: inherit;" fill="rgb(0, 0, 0)" stroke="rgb(204, 204, 204)" stroke-width="1px"></line><line x1="52.25" y1="250.66666666666669" x2="47.25" y2="250.66666666666669" style="visibility: inherit;" fill="rgb(0, 0, 0)" stroke="rgb(204, 204, 204)" stroke-width="1px"></line><line x1="52.25" y1="219.33333333333334" x2="47.25" y2="219.33333333333334" style="visibility: inherit;" fill="rgb(0, 0, 0)" stroke="rgb(204, 204, 204)" stroke-width="1px"></line><line x1="52.25" y1="188.00000000000003" x2="47.25" y2="188.00000000000003" style="visibility: inherit;" fill="rgb(0, 0, 0)" stroke="rgb(204, 204, 204)" stroke-width="1px"></line><line x1="52.25" y1="156.66666666666669" x2="47.25" y2="156.66666666666669" style="visibility: inherit;" fill="rgb(0, 0, 0)" stroke="rgb(204, 204, 204)" stroke-width="1px"></line><line x1="52.25" y1="125.3333333333334" x2="47.25" y2="125.3333333333334" style="visibility: inherit;" fill="rgb(0, 0, 0)" stroke="rgb(204, 204, 204)" stroke-width="1px"></line><line x1="52.25" y1="94.00000000000006" x2="47.25" y2="94.00000000000006" style="visibility: inherit;" fill="rgb(0, 0, 0)" stroke="rgb(204, 204, 204)" stroke-width="1px"></line><line x1="52.25" y1="62.666666666666686" x2="47.25" y2="62.666666666666686" style="visibility: inherit;" fill="rgb(0, 0, 0)" stroke="rgb(204, 204, 204)" stroke-width="1px"></line><line x1="52.25" y1="31.33333333333337" x2="47.25" y2="31.33333333333337" style="visibility: inherit;" fill="rgb(0, 0, 0)" stroke="rgb(204, 204, 204)" stroke-width="1px"></line><line x1="52.25" y1="0" x2="47.25" y2="0" style="visibility: inherit;" fill="rgb(0, 0, 0)" stroke="rgb(204, 204, 204)" stroke-width="1px"></line></g><g transform="translate(42.25, 0)"><text x="0" y="376" dx="0em" dy="0.3em" style="text-anchor: end; visibility: hidden; font-family: &quot;Helvetica Neue&quot;, sans-serif; font-size: 12px; font-weight: 200;" fill="rgb(50, 49, 63)" stroke="none" stroke-width="1px">-0.2</text><text x="0" y="344.6666666666667" dx="0em" dy="0.3em" style="text-anchor: end; visibility: inherit; font-family: &quot;Helvetica Neue&quot;, sans-serif; font-size: 12px; font-weight: 200;" fill="rgb(50, 49, 63)" stroke="none" stroke-width="1px">0</text><text x="0" y="313.3333333333333" dx="0em" dy="0.3em" style="text-anchor: end; visibility: inherit; font-family: &quot;Helvetica Neue&quot;, sans-serif; font-size: 12px; font-weight: 200;" fill="rgb(50, 49, 63)" stroke="none" stroke-width="1px">0.2</text><text x="0" y="282" dx="0em" dy="0.3em" style="text-anchor: end; visibility: inherit; font-family: &quot;Helvetica Neue&quot;, sans-serif; font-size: 12px; font-weight: 200;" fill="rgb(50, 49, 63)" stroke="none" stroke-width="1px">0.4</text><text x="0" y="250.66666666666669" dx="0em" dy="0.3em" style="text-anchor: end; visibility: inherit; font-family: &quot;Helvetica Neue&quot;, sans-serif; font-size: 12px; font-weight: 200;" fill="rgb(50, 49, 63)" stroke="none" stroke-width="1px">0.6</text><text x="0" y="219.33333333333334" dx="0em" dy="0.3em" style="text-anchor: end; visibility: inherit; font-family: &quot;Helvetica Neue&quot;, sans-serif; font-size: 12px; font-weight: 200;" fill="rgb(50, 49, 63)" stroke="none" stroke-width="1px">0.8</text><text x="0" y="188.00000000000003" dx="0em" dy="0.3em" style="text-anchor: end; visibility: inherit; font-family: &quot;Helvetica Neue&quot;, sans-serif; font-size: 12px; font-weight: 200;" fill="rgb(50, 49, 63)" stroke="none" stroke-width="1px">1</text><text x="0" y="156.66666666666669" dx="0em" dy="0.3em" style="text-anchor: end; visibility: inherit; font-family: &quot;Helvetica Neue&quot;, sans-serif; font-size: 12px; font-weight: 200;" fill="rgb(50, 49, 63)" stroke="none" stroke-width="1px">1.2</text><text x="0" y="125.3333333333334" dx="0em" dy="0.3em" style="text-anchor: end; visibility: inherit; font-family: &quot;Helvetica Neue&quot;, sans-serif; font-size: 12px; font-weight: 200;" fill="rgb(50, 49, 63)" stroke="none" stroke-width="1px">1.4</text><text x="0" y="94.00000000000006" dx="0em" dy="0.3em" style="text-anchor: end; visibility: inherit; font-family: &quot;Helvetica Neue&quot;, sans-serif; font-size: 12px; font-weight: 200;" fill="rgb(50, 49, 63)" stroke="none" stroke-width="1px">1.6</text><text x="0" y="62.666666666666686" dx="0em" dy="0.3em" style="text-anchor: end; visibility: inherit; font-family: &quot;Helvetica Neue&quot;, sans-serif; font-size: 12px; font-weight: 200;" fill="rgb(50, 49, 63)" stroke="none" stroke-width="1px">1.8</text><text x="0" y="31.33333333333337" dx="0em" dy="0.3em" style="text-anchor: end; visibility: inherit; font-family: &quot;Helvetica Neue&quot;, sans-serif; font-size: 12px; font-weight: 200;" fill="rgb(50, 49, 63)" stroke="none" stroke-width="1px">2</text><text x="0" y="0" dx="0em" dy="0.3em" style="text-anchor: end; visibility: hidden; font-family: &quot;Helvetica Neue&quot;, sans-serif; font-size: 12px; font-weight: 200;" fill="rgb(50, 49, 63)" stroke="none" stroke-width="1px">2.2</text></g><line x1="52.25" y1="0" x2="52.25" y2="376" fill="rgb(0, 0, 0)" stroke="rgb(204, 204, 204)" stroke-width="1px"></line></g></g><g transform="translate(52, 0)" clip-path="url(#clip_0)"><clipPath id="clip_0"><rect width="1039" height="376"></rect></clipPath><g><g><g><line x1="0" y1="0" x2="0" y2="376" fill="rgb(0, 0, 0)" stroke="rgb(60, 60, 60)" stroke-width="1px" opacity="0.25"></line><line x1="74.22500000000001" y1="0" x2="74.22500000000001" y2="376" fill="rgb(0, 0, 0)" stroke="rgb(60, 60, 60)" stroke-width="1px" opacity="0.25"></line><line x1="148.45000000000002" y1="0" x2="148.45000000000002" y2="376" fill="rgb(0, 0, 0)" stroke="rgb(60, 60, 60)" stroke-width="1px" opacity="0.25"></line><line x1="222.675" y1="0" x2="222.675" y2="376" fill="rgb(0, 0, 0)" stroke="rgb(60, 60, 60)" stroke-width="1px" opacity="0.25"></line><line x1="296.90000000000003" y1="0" x2="296.90000000000003" y2="376" fill="rgb(0, 0, 0)" stroke="rgb(60, 60, 60)" stroke-width="1px" opacity="0.25"></line><line x1="371.12500000000006" y1="0" x2="371.12500000000006" y2="376" fill="rgb(0, 0, 0)" stroke="rgb(60, 60, 60)" stroke-width="1px" opacity="0.25"></line><line x1="445.35" y1="0" x2="445.35" y2="376" fill="rgb(0, 0, 0)" stroke="rgb(60, 60, 60)" stroke-width="1px" opacity="0.25"></line><line x1="519.575" y1="0" x2="519.575" y2="376" fill="rgb(0, 0, 0)" stroke="rgb(60, 60, 60)" stroke-width="1px" opacity="0.25"></line><line x1="593.8000000000001" y1="0" x2="593.8000000000001" y2="376" fill="rgb(0, 0, 0)" stroke="rgb(60, 60, 60)" stroke-width="1px" opacity="0.25"></line><line x1="668.0250000000001" y1="0" x2="668.0250000000001" y2="376" fill="rgb(0, 0, 0)" stroke="rgb(60, 60, 60)" stroke-width="1px" opacity="0.25"></line><line x1="742.2500000000001" y1="0" x2="742.2500000000001" y2="376" fill="rgb(0, 0, 0)" stroke="rgb(60, 60, 60)" stroke-width="1px" opacity="0.25"></line><line x1="816.475" y1="0" x2="816.475" y2="376" fill="rgb(0, 0, 0)" stroke="rgb(60, 60, 60)" stroke-width="1px" opacity="0.25"></line><line x1="890.7" y1="0" x2="890.7" y2="376" fill="rgb(0, 0, 0)" stroke="rgb(60, 60, 60)" stroke-width="1px" opacity="0.25"></line><line x1="964.9250000000001" y1="0" x2="964.9250000000001" y2="376" fill="rgb(0, 0, 0)" stroke="rgb(60, 60, 60)" stroke-width="1px" opacity="0.25"></line><line x1="1039.15" y1="0" x2="1039.15" y2="376" fill="rgb(0, 0, 0)" stroke="rgb(60, 60, 60)" stroke-width="1px" opacity="0.25"></line></g><g><line x1="0" y1="376" x2="1039.15" y2="376" fill="rgb(0, 0, 0)" stroke="rgb(60, 60, 60)" stroke-width="1px" opacity="0.25"></line><line x1="0" y1="344.6666666666667" x2="1039.15" y2="344.6666666666667" fill="rgb(0, 0, 0)" stroke="rgb(60, 60, 60)" stroke-width="1px" opacity="0.25"></line><line x1="0" y1="313.3333333333333" x2="1039.15" y2="313.3333333333333" fill="rgb(0, 0, 0)" stroke="rgb(60, 60, 60)" stroke-width="1px" opacity="0.25"></line><line x1="0" y1="282" x2="1039.15" y2="282" fill="rgb(0, 0, 0)" stroke="rgb(60, 60, 60)" stroke-width="1px" opacity="0.25"></line><line x1="0" y1="250.66666666666669" x2="1039.15" y2="250.66666666666669" fill="rgb(0, 0, 0)" stroke="rgb(60, 60, 60)" stroke-width="1px" opacity="0.25"></line><line x1="0" y1="219.33333333333334" x2="1039.15" y2="219.33333333333334" fill="rgb(0, 0, 0)" stroke="rgb(60, 60, 60)" stroke-width="1px" opacity="0.25"></line><line x1="0" y1="188.00000000000003" x2="1039.15" y2="188.00000000000003" fill="rgb(0, 0, 0)" stroke="rgb(60, 60, 60)" stroke-width="1px" opacity="0.25"></line><line x1="0" y1="156.66666666666669" x2="1039.15" y2="156.66666666666669" fill="rgb(0, 0, 0)" stroke="rgb(60, 60, 60)" stroke-width="1px" opacity="0.25"></line><line x1="0" y1="125.3333333333334" x2="1039.15" y2="125.3333333333334" fill="rgb(0, 0, 0)" stroke="rgb(60, 60, 60)" stroke-width="1px" opacity="0.25"></line><line x1="0" y1="94.00000000000006" x2="1039.15" y2="94.00000000000006" fill="rgb(0, 0, 0)" stroke="rgb(60, 60, 60)" stroke-width="1px" opacity="0.25"></line><line x1="0" y1="62.666666666666686" x2="1039.15" y2="62.666666666666686" fill="rgb(0, 0, 0)" stroke="rgb(60, 60, 60)" stroke-width="1px" opacity="0.25"></line><line x1="0" y1="31.33333333333337" x2="1039.15" y2="31.33333333333337" fill="rgb(0, 0, 0)" stroke="rgb(60, 60, 60)" stroke-width="1px" opacity="0.25"></line><line x1="0" y1="0" x2="1039.15" y2="0" fill="rgb(0, 0, 0)" stroke="rgb(60, 60, 60)" stroke-width="1px" opacity="0.25"></line></g></g></g><g><g><line x1="0" y1="344.6666666666667" x2="1039.15" y2="344.6666666666667" fill="rgb(0, 0, 0)" stroke="rgb(153, 153, 153)" stroke-width="1.5px"></line></g></g><g><g><line x1="74.22500000000001" y1="0" x2="74.22500000000001" y2="376" fill="rgb(0, 0, 0)" stroke="rgb(153, 153, 153)" stroke-width="1.5px"></line></g></g><g><g><g><g><g><path stroke="rgb(255, 112, 67)" stroke-width="2px" d="M99.47634500000001,-2.1911270873007993L100.84208500000001,1.2119465261867504L101.524955,5.230829899888363L102.207825,10.102880852840201L102.89069500000001,14.543299709280575L103.91500000000002,18.491198183128688L105.28074000000001,24.31164319222222L105.96361000000002,28.11924527600462L106.64648000000001,31.09300023933821L107.32935,36.17573277465743L108.01222000000001,38.5528301925184L108.69509000000001,40.50287916006414L110.402265,44.99521135948777L111.08513500000001,47.683663160361334L112.45087500000001,50.63044093744793L113.13374500000002,51.915505735392856L113.81661500000001,53.5314299634008L114.499485,55.23200526865179L115.52379000000002,59.04101670014586L116.20666000000001,60.27246275880242L117.57240000000002,63.41529841031178L118.25527000000001,66.41257270261434L118.93814,68.11071373672661L119.62101000000001,71.21306917857504L120.30388,71.38592195783895L121.328185,72.48245627249258L122.01105500000001,75.31565202811458L122.69392500000002,75.72361512306804L123.37679500000002,77.94617189163085L124.05966500000001,80.78694370504712L124.74253500000002,81.64939009616671L126.108275,84.13494019987138L127.13258,86.21199827163599L127.81545000000001,86.51739732088157L128.49832,88.87952761448332L129.18119000000002,89.46414209562687L129.86406,92.22997988755395L130.54693,92.57664082941352L131.2298,94.57358577150268L131.91267,94.47760953683559L133.619845,97.41990204361423L134.302715,99.50056036933665L135.668455,99.68794246092085L136.35132500000003,103.88510853990704L137.034195,105.28598592447116L137.71706500000002,106.39622543911264L138.74137000000002,106.42172586913978L139.42424000000003,107.34692679243926L140.78998,110.35367682614515L141.47285000000002,110.28832173569157L142.15572000000003,111.4350125485052L142.83859,112.2399171487524L143.52146000000002,113.47683736658303L144.54576500000002,116.18630231008655L145.22863500000003,118.5070393040919L146.594375,119.58413891524935L147.27724500000002,121.32827825067957L147.960115,123.621392997415L148.642985,125.97354491888157L149.32585500000002,127.86121912204428L150.35016000000002,128.98140775801662L151.03303,129.50365626598554L151.7159,129.35908179949817L153.08164,132.09452327174603L153.76451,134.0137112622419L154.44738,135.0871802778021L155.13025000000002,136.4074194795475L156.15455500000002,137.76125857630885L156.83742500000002,140.48828288753538L157.52029500000003,142.8761740337196L158.203165,142.25196546378032L158.88603500000002,144.07105544047934L159.56890500000003,145.02066054445933L160.251775,145.42816545865395L160.93464500000002,145.72555918475862L161.95895000000002,147.34780906228747L162.64182000000002,150.8708605205329L163.32469,151.03740685593954L164.00756,151.88267627603932L164.69043000000002,152.9199559166856L165.3733,155.74812312174805L166.05617,154.29982255646965L166.73904000000002,153.1311352814201L168.446215,156.21380235542634L169.129085,155.59890153680115L171.177695,159.37960112893902L171.860565,161.30461929323866L173.56774000000001,164.92564028550743L174.25061000000002,167.9951923174633L175.61635000000004,168.61676766174875L176.98209000000003,169.48493639050633L177.66496000000004,170.2878321295105L178.34783000000002,173.2870809407109L179.37213500000001,175.25523825711454L180.05500500000002,175.58159547781813L180.73787500000003,175.63137747686625L182.10361500000002,177.99829441214516L182.78648500000003,177.58045269988926L183.469355,179.7900354024348L184.15222500000002,179.76535946269303L185.85940000000002,182.51427631858667L186.54227,183.18313002556766L187.22514,183.31383271199593L187.90801000000002,185.063371311717L188.59088,187.16040283705357L189.27375,187.2083156641259L189.95662000000002,187.0732065361302L191.663795,187.81651255616907L192.346665,191.34837422249336L193.71240500000002,193.05558561570024L194.39527500000003,193.5554047700956L195.76101500000001,194.1926579958515L196.78532,195.17542110798658L197.46819000000002,197.30935894797983L198.83393,200.9515488665347L199.51680000000002,200.0863162510223L200.19967000000003,200.9418924072957L201.56541,199.80284205791807L202.589715,202.87585979929045L203.27258500000002,206.1417002572446L203.95545500000003,206.94592576983544L205.32119500000002,207.05339972434228L206.00406500000003,207.31642247989447L206.686935,209.07478352638884L207.369805,210.97228748949055L208.39411,213.14103946299363L209.07698000000002,212.5090617569944L209.75985,213.51441076393886L210.44272,214.59520222542267L211.12559000000002,213.1107033518806L212.49133000000003,214.61300168998173L213.17420000000004,215.72512205382466L215.56424500000003,218.54661771420805L218.29572500000003,221.9310189531098L218.978595,220.70044273808702L220.68577000000002,226.78427147870323L221.36864000000003,227.16277734441593L222.05151,227.15571591061178L223.41725000000002,227.93670913061592L224.10012,229.4446200478937L224.78299,231.06543526344691L225.807295,234.78322095052317L226.49016500000002,237.83024433280582L228.53877500000002,238.31478235140773L229.221645,236.31255548605523L229.904515,236.02789946442368L230.587385,235.34535769648664L231.61169000000004,240.00264213101454L232.29456000000002,241.88532668918208L232.97743000000003,242.69724164746108L233.66030000000003,242.50226394141853L234.34317000000004,244.23710446241583L235.02604000000002,244.462288057902L235.70891000000003,244.3161507583252L236.39178000000004,243.63175880928387L238.09895500000002,248.3338465135468L238.78182500000003,251.08817885564804L239.46469500000003,251.7592098449491L240.83043500000002,250.14289108921028L241.51330500000003,251.77943483993772L242.196175,252.50379495623923L243.22048,257.6072734483275L243.90335000000002,260.05496842194754L244.58622000000003,260.54083665924765L245.26909,261.04770075907805L246.63483000000002,258.1417486884028L247.3177,256.78489643441617L249.024875,261.65968686406006L249.70774500000005,263.9585655255965L250.39061500000003,264.7494865570775L251.75635500000004,264.8118683684455L252.43922500000002,266.03787387541456L253.12209500000003,266.6959301857046L253.80496500000004,266.22749571569113L254.82927000000004,270.0193162554543L255.51214000000002,271.1601460572506L256.19501,273.16958406347584L256.87788,273.54849603242803L257.56075000000004,272.1550247577854L258.24362,271.6701147183594L258.92649,271.7042994355053L259.60936000000004,270.42766581306205L260.633665,275.8010330736399L261.999405,279.09884465573793L262.682275,278.78015755517424L263.36514500000004,278.35766580245775L264.048015,278.8292655857914L265.41375500000004,278.0176272816964L266.43806000000006,282.83198853497754L267.12093000000004,286.7248521178864L268.48667000000006,286.36598498403447L269.85241,285.46758180526547L271.21815000000004,284.3709642748097L272.242455,287.5749524589415L272.925325,289.6711845808845L273.608195,292.97517129661367L274.291065,292.2380267434223L275.656805,291.7459382645033L276.339675,291.14690124383026L277.022545,291.0250747882751L278.04685,293.9970627158936L278.72972000000004,296.46191898564837L279.41259,298.23965630281174L280.09546,300.14986364055596L280.77833000000004,299.30739565695677L284.53411500000004,301.9127544919969L285.89985500000006,301.7158227976355L286.58272500000004,303.27983983454266L287.94846500000006,302.4098364915281L288.63133500000004,303.22346855834104L289.65564,307.0296383001505L290.33851,309.50947304356686L291.02138,310.4409888692017L291.70425,308.9820264880249L292.38712,308.56483783152044L293.06999,307.43177531854116L293.75286,307.3636359017837L294.43573,306.7149163827349L295.460035,309.82739498685095L297.508645,310.99147496106406L298.19151500000004,311.84624768981644L298.874385,312.7238606593369L299.557255,312.310097836337L300.24012500000003,312.8506364283253L301.94730000000004,316.06365234001214L302.63017,316.3309613407278L303.31304000000006,316.2728790684913L303.99591000000004,316.30331022209174L304.67878,316.9175650556857L305.36165000000005,314.85143705685783L306.04452000000003,315.51965312051686L307.068825,316.56935295197115L307.751695,317.2548071507578L308.434565,318.4300376473247L309.117435,320.1428965349026L309.800305,319.85439535890185L310.483175,318.5395803585499L311.166045,319.5115966042787L311.848915,318.24237316693325L312.87322,322.57421258198497L314.23896,324.1583717173772L314.92183000000006,324.40729867456974L316.28757,321.9618327401397L317.65331000000003,321.9437240669519L319.36048500000004,324.5706668680543L320.0433550000001,324.54064963573023L320.72622500000006,325.03655014622495L321.40909500000004,324.5819143068092L322.0919650000001,326.1508608347951L322.77483500000005,325.5402906350361L323.45770500000003,324.9696111964425L324.48201,326.78566365364634L325.16488000000004,328.5741318022615L325.84775,327.79384103151597L326.53062,325.89865069825913L327.21349000000004,327.21581565284407L327.89636,327.55459789798863L328.57923,327.46700205226466L329.26210000000003,328.0763398497486L330.28640500000006,326.7186383856843L330.96927500000004,326.1123547844197L331.652145,327.83125237179433L332.33501500000006,329.29606651794495L333.01788500000004,328.08818131207374L333.700755,327.74979938975343L334.38362500000005,328.57855314162197L335.06649500000003,329.09731888461204L336.09080000000006,329.28044052335474L336.77367000000004,330.679247936087L337.4565400000001,331.73590983776876L338.13941000000005,332.6925099064626L338.82228000000003,331.82077001748786L339.50515000000007,331.64080037604754L340.18802000000005,330.448957319643L340.87089000000003,329.35389605497477L341.895195,330.5791331887354L343.260935,331.5696975843177L343.943805,331.0858142051736L345.309545,331.80201089622415L345.992415,332.3248807385077L346.67528500000003,331.7436293360299L347.69959000000006,333.4514832474812L348.38246000000004,334.12536837724986L349.06533,334.8792798076161L349.74820000000005,334.4769314500146L351.11394,334.8260147237253L351.79681000000005,334.0589546996438L353.503985,334.21532766251266L354.18685500000004,334.4913790319075L354.8697250000001,333.1904617683317L355.55259500000005,331.921460783654L356.23546500000003,333.2005761670114L357.60120500000005,334.0808718188827L358.28407500000003,334.22352222507544L359.30838,335.1339471334538L359.99125000000004,335.55234301255075L361.35699,334.69262145061845L362.03986000000003,334.8109065886312L362.72273,335.67409402207375L363.4056,335.78244076019035L364.08847000000003,334.8133752714326L365.79564500000004,334.216863413894L366.478515,333.985105099426L367.16138500000005,335.36291937260603L368.527125,335.06747438845304L369.20999500000005,335.79999413890005L370.91717,336.8873577841264L372.28291,337.69000856448065L372.96578000000005,337.6078383447857L373.64865000000003,337.7056221130767L375.01439000000005,337.15430805066893L375.69726,335.3406560678065L376.721565,337.1440330570209L378.087305,337.9917052015822L378.77017500000005,337.3108755345242L379.45304500000003,335.86557188600875L380.135915,335.75315482002844L380.81878500000005,336.8153491978785L381.501655,337.171025935706L382.52596000000005,336.90288871560284L383.89170000000007,337.9342718046931L385.25744000000003,338.3242208801922L386.62318000000005,338.48543142238555L388.330355,338.6513210304139L390.378965,337.44620977844147L391.06183500000003,336.46718117200544L392.42757500000005,337.5763911779913L393.1104450000001,337.7805847511406L394.13475000000005,337.8345116696188L394.81762000000003,337.6268439345417L395.50049,338.39561138865497L396.86623000000003,339.1683236265211L397.5491,339.2327447754559L398.23197000000005,338.81281742785876L398.91484,338.26560296913686L399.93914500000005,338.750598164205L400.62201500000003,338.42020895191285L401.30488500000007,339.7307938770945L401.98775500000005,339.98345842032603L402.67062500000003,339.1777871821461L403.35349500000007,338.38570386017193L404.03636500000005,338.8863494108806L404.719235,338.696104977172L406.42641000000003,338.9040777665226L407.10928,338.7421593883742L407.79215,339.296319557872L408.47502000000003,339.7140625851233L409.15789,339.0478509974606L409.84076,339.7492219763276L410.5236300000001,340.15768528971734L411.54793500000005,340.82651491509074L412.23080500000003,341.05960421291707L412.913675,341.3237958249115L413.59654500000005,340.34199732323464L414.27941500000003,340.52495093760876L414.962285,340.5198947208205L415.64515500000005,340.2230497564125L416.328025,340.62191985688094L417.35233000000005,341.1843269222467L418.03520000000003,341.29475601137614L418.71807000000007,341.28511160386165L419.40094000000005,339.8148837741567L420.76668000000006,340.51825330444296L421.44955000000004,341.23228786312416L424.522465,341.2530980329089L425.205335,340.81887382390335L425.888205,340.81258715265335L426.571075,340.90865034455067L427.253945,340.99456145720086L427.936815,339.79880673998434L428.96112000000005,339.79493106343654L429.64399000000003,339.6628868000009L431.00973000000005,340.5425019184529L431.6926,340.9836654928195L432.37547,340.9167040745537L434.76551500000005,340.2068091915123L435.44838500000003,340.09771150466236L436.81412500000005,339.7883310662693L438.86273500000004,340.69245417348463L439.545605,341.0808932196016L440.56991,340.92419029936684L441.25278000000003,340.9480501284132L441.93565,341.4553027736105L442.61852000000005,342.1863811626707L443.30139,342.34632886263773L443.98426,342.13059399811254L444.66713000000004,341.6280125655005L445.35,340.74950506949045L446.37430500000005,341.09988439180626L447.74004500000007,341.1489902790278L448.42291500000005,341.2501164261037L449.105785,341.7429429873944L449.78865500000006,341.78045215915364L450.47152500000004,340.70274007644684L451.154395,340.7970168823586L452.17870000000005,341.49941680587847L453.54444000000007,340.6528277978749L454.22731000000005,340.5157525282374L454.9101800000001,340.5189489905797L455.59305000000006,341.04331048785224L460.03170500000004,340.4613695261394L461.397445,340.3369654243696L462.08031500000004,340.80778723809175L462.763185,341.226652552305L463.78749000000005,340.85342377749186L464.47036,341.48921015755593L465.15323000000006,342.0533713443851L465.83610000000004,342.0643549428647L466.51897,342.1542210546393L467.20184000000006,342.36764682659066L467.88471000000004,341.2689542690628L468.56758,340.7748924987344L469.59188500000005,341.32099739939935L470.2747550000001,342.04448959890584L470.95762500000006,342.4041378691609L471.64049500000004,342.72323987006035L472.3233650000001,342.47213195633225L473.00623500000006,342.5835816782991L474.3719750000001,341.821781588432L475.39628000000005,341.2585588298262L476.07915,341.55984801761434L477.44489000000004,341.36400994238534L478.12776,341.1469749226805L478.81063,341.52317108350815L479.49350000000004,340.48005114180535L480.17637,340.62382274925324L481.20067500000005,340.56385774796973L481.883545,340.84998629074755L482.56641500000006,341.22017495233695L483.24928500000004,341.08039521316016L483.932155,341.40313082519765L484.61502500000006,341.66839663783867L485.29789500000004,341.5690296884387L485.980765,341.5951766910757L487.00507000000005,341.7513024435007L487.6879400000001,342.19242035675427L488.37081000000006,342.3303827797078L489.05368000000004,342.34294139969563L489.7365500000001,342.5397853901181L490.41942000000006,342.940780843185L491.10229000000004,342.9333792621215L492.80946500000005,342.96976495823185L493.492335,342.71681692699144L494.175205,342.44112229197947L494.85807500000004,342.75712060888446L495.540945,342.63899010147554L496.223815,342.4920341470395L496.90668500000004,342.2117665041618L497.589555,342.2379639431814L498.61386000000005,342.3600662083415L499.29673,342.14560988481765L499.97960000000006,342.38583111352284L500.66247000000004,342.8132977806224L501.34534,343.12003715123893L502.02821000000006,343.3868437749316L503.39395,343.48321310831125L504.418255,342.1243480169953L505.1011250000001,341.62059185053L506.4668650000001,342.13219843419444L507.1497350000001,342.54336318092777L507.83260500000006,342.676435743822L508.5154750000001,343.00975181401475L509.1983450000001,343.1492473082684L510.22265000000004,343.47365136587774L510.90552,343.70570942659174L511.58839000000006,343.7943533331344L512.27126,343.7812422744546L512.9541300000001,343.7081645741332L513.6370000000001,343.57873841832685L514.31987,343.2908484205739L516.027045,343.21684486558854L517.392785,342.78896148338407L518.0756550000001,342.18988844902015L518.7585250000001,342.00194909116044L520.807135,342.4335400977656L523.88005,342.9169205534066L524.5629200000001,343.2020639411671L525.24579,343.2197269736963L525.92866,342.98293265164324L526.61153,342.9083128104732L527.635835,342.99999139637504L528.318705,343.3106367809917L529.0015750000001,342.89411869734596L531.050185,342.7037991504276L531.733055,342.54422806424327L532.415925,342.8219588283048L533.44023,342.95261376897565L534.80597,342.8815687507892L535.4888400000001,342.11573441885935L536.17171,341.7870357755603L537.53745,341.9847779926428L538.22032,342.25517165850215L539.244625,342.56228571523593L539.9274950000001,342.94607752247276L540.610365,343.090669477087L541.2932350000001,343.19954208082066L541.9761050000001,343.03294608496293L542.658975,342.4762241780917L543.341845,342.4891091636415L544.0247150000001,342.9018503330357L545.04902,342.9811332088038L545.7318900000001,342.7004438846603L546.41476,343.09369312431187L547.0976300000001,343.2724188551154L547.7805000000001,343.28495030511493L548.46337,343.37464869353124L550.853415,343.14824094896284L551.536285,343.1633721467342L552.2191550000001,343.12871197123246L552.902025,343.1231491032278L553.5848950000001,342.92210286138663L554.267765,342.9835144876632L554.950635,342.6666330858584L555.633505,342.47664233135276L556.65781,342.8734151286608L557.34068,343.28147070818994L558.0235500000001,343.3175713993938L558.70642,343.49485325643906L559.3892900000001,343.20501576634933L560.07216,342.65083270185806L561.4379,342.7735318017321L562.4622050000002,343.07692668421964L563.145075,343.52179317511957L563.8279450000001,343.55534430285496L564.5108150000001,343.54865851950274L565.1936850000001,343.7601331230474L565.876555,343.5597784205162L566.5594250000001,343.6703542595436L567.242295,343.6218213021952L568.2666,343.601689090517L568.94947,343.4575217523795L569.63234,343.532311666029L570.3152100000001,343.3062666948243L570.99808,343.1743110291523L571.68095,343.10728650549225L572.36382,343.0060759269248L573.04669,342.75171531312964L574.070995,342.5554735664922L574.7538650000001,342.52258079425883L575.436735,342.4451459522628L576.8024750000001,342.52455002842845L578.168215,342.01496872074506L579.87539,342.55693168302633L581.9240000000001,343.089813529488L582.6068700000001,343.1643000298956L583.28974,342.9467742159994L583.97261,343.08824411198685L584.6554800000001,343.28466624107574L585.679785,343.2006478272574L586.362655,343.5775355663268L587.0455250000001,343.82137788625516L587.728395,343.6845894678203L588.4112650000001,343.44791959318127L589.094135,343.38835109452964L589.777005,343.2161615474357L590.459875,342.1228711212675L592.8499200000001,342.25051910683516L593.53279,342.75403654814266L594.2156600000001,342.97353794370395L595.5814,343.02222230972427L596.26427,343.23810152774L597.288575,343.29747489083775L597.971445,343.2741195986011L598.654315,343.384758361315L599.3371850000001,343.5050795433483L600.0200550000001,343.7078263412701L600.702925,343.88020968131445L601.3857950000001,343.90240383635296L603.09297,343.8129092989534L603.7758400000001,343.9611480146425L604.45871,344.1192679648217L605.1415800000001,344.2289669519807L605.8244500000001,344.0521015338537L607.19019,343.4262131713293L607.8730600000001,343.39499325627855L608.897365,343.40211524660253L609.5802350000001,343.24760813670275L610.263105,343.1058034121409L610.9459750000001,342.885131814743L611.6288450000001,342.98958036969L612.311715,342.5625578478171L612.994585,342.7913092965003L613.6774550000001,342.96818943758507L614.70176,342.74193221692065L615.38463,342.8289901484379L616.0675000000001,342.9870189521807L616.75037,343.12746030802117L618.11611,343.5617973418037L618.79898,343.56442142976823L619.4818500000001,343.38233732056716L620.506155,342.4895508157538L621.189025,342.7619531587159L621.8718950000001,343.2335765786456L622.554765,343.23119042903113L623.2376350000001,342.95854526240583L625.286245,342.95641633060944L626.3105500000001,343.2118824516726L627.6762900000001,343.0269699749346L628.3591600000001,343.15985221854817L629.0420300000001,343.20129008680766L629.7249,343.29592452351363L630.4077700000001,342.9885642863062L631.09064,342.99315359215416L632.797815,343.3925881534794L633.480685,343.6870294871417L634.1635550000001,343.98337204456254L634.846425,344.0194246601433L635.529295,343.94116493352476L636.212165,343.92014004672995L636.895035,343.9277793981757L637.91934,343.8921539311236L639.28508,344.01279989311104L639.9679500000001,344.16951776303256L640.6508200000001,344.0562528976991L641.33369,344.0688159764947L642.01656,343.96229692269713L642.6994300000001,343.86516796468806L643.723735,344.02990519790814L644.4066050000001,344.10277553037685L645.089475,344.1555387383975L645.7723450000001,344.26097596104734L646.4552150000001,344.327991421857L647.138085,343.87813253725875L647.820955,343.91250326487113L648.5038250000001,344.1182456772624L649.52813,344.24496849959434L650.211,344.2426524614414L650.8938700000001,344.2630140862065L651.57674,344.28989076632695L652.2596100000001,343.952290716753L652.94248,342.9470494923903L653.62535,342.81741063473106L654.30822,343.0574327022482L655.332525,343.5565474092478L656.6982650000001,343.890532800191L657.381135,343.9822252401387L658.0640050000001,344.1132687456489L658.746875,344.0692798775929L659.429745,344.149993503789L660.112615,344.1665794458935L661.1369200000001,343.9606492810368L661.81979,343.87329887171603L663.1855300000001,344.0322274625129L663.8684000000001,343.86760843144316L664.55127,343.94114510325466L665.2341400000001,343.73384932666744L665.91701,343.10679288897745L666.941315,343.258523132814L668.307055,342.67801234508335L668.9899250000001,342.84319942773254L669.6727950000001,343.1605082835855L670.355665,343.1211171531837L671.7214050000001,343.4267394130922L672.74571,343.65756520579737L673.4285800000001,343.73833847860783L674.11145,343.7682617221492L675.4771900000001,343.420662620766L676.16006,343.35613224577094L676.84293,343.37715444120477L677.5258000000001,343.3288414042853L678.550105,343.46547401592113L679.2329750000001,343.3480361966986L679.9158450000001,343.5939539575298L680.5987150000001,343.60676902914855L681.2815850000001,343.51922067608325L681.9644550000002,343.54145101347103L682.647325,343.3726709379069L683.3301950000001,343.2562319284665L684.3545,343.58435259785176L685.7202400000001,343.09969356149986L686.40311,343.18495031937294L687.76885,343.31817031834623L688.45172,343.53733280746104L689.13459,343.0445487933236L690.1588950000001,343.34110209553205L691.5246350000001,343.5054042721814L692.2075050000001,343.6106320890055L692.8903750000001,343.8558970955123L693.573245,343.97381565387207L694.938985,343.8579496665457L696.64616,343.7483907446708L698.0119000000001,343.720437069686L698.6947700000001,343.94841038091334L699.37764,343.9791772452942L700.0605100000001,343.87423196946787L700.74338,343.9981255183903L703.8162950000001,343.9625284927758L704.4991650000001,343.9889651875549L705.182035,344.1158524164445L705.864905,343.7329731670849L706.5477750000001,343.53693541563547L708.2549500000001,343.54697430152396L708.93782,343.72827397211114L709.6206900000001,342.8257469316744L710.3035600000001,342.8644605833544L710.98643,343.20210855490984L711.6693,343.4622648498388L712.3521700000001,343.2977234328372L713.376475,343.2657246314237L714.0593450000001,342.89759907088177L714.7422150000001,343.13260235800743L716.1079550000001,343.47853286500913L716.7908250000002,343.4252480468321L717.473695,342.907951161335L718.1565650000001,342.26680560215516L719.18087,342.3849940380208L719.86374,342.4985375658623L720.5466100000001,342.86899607266696L721.22948,343.2332178457968L721.9123500000001,343.69909076539903L722.59522,343.84726589807804L723.27809,343.9155672755923L723.96096,343.70401457004266L724.9852650000001,343.54016515594236L725.668135,343.3547144729784L726.3510050000001,343.6044253419424L727.0338750000001,343.5656937374523L727.7167450000001,343.4729041376025L729.0824850000001,343.5925076505528L729.765355,343.4226739263129L730.78966,343.7498767967875L731.4725300000001,344.0267731166147L732.1554000000001,343.9823376618085L732.8382700000001,344.1619799385448L733.5211400000002,344.26746365493045L734.20401,344.0601024205665L734.8868800000001,343.8254962973404L735.5697500000001,343.4774434852168L736.594055,343.3249260254243L737.2769250000001,343.4827376348797L738.6426650000001,343.26665690648696L739.3255350000001,343.1325309859205L740.008405,343.16670779654316L740.691275,343.01453194902695L742.39845,343.4232787324172L743.0813200000001,343.5267751237908L743.7641900000001,343.5069804980303L744.4470600000001,343.35763593776693L745.1299300000001,343.2811299175839L745.8128000000002,343.1499996318412L747.1785400000001,342.9054554356034L748.202845,342.71824451304843L749.5685850000001,343.11484639940585L750.251455,343.43710363789154L750.9343250000001,343.73094786125176L751.6171950000002,343.7043190988466L752.300065,343.6117126330027L752.9829350000001,343.5769132161462L754.69011,343.2100921099975L756.0558500000001,343.0947015799936L757.42159,343.4648603558008L758.1044600000001,343.81405029396745L758.78733,343.8277002801033L759.8116350000001,344.0590899922792L760.494505,344.1788150826972L761.8602450000001,344.0299152268399L762.5431150000001,343.7965089627909L763.225985,343.87082926611447L764.591725,343.69554399086246L765.61603,343.5545889673623L766.2989000000001,343.62316887915586L766.98177,343.6747284724491L768.34751,343.77024865128163L769.03038,343.8047110193624L769.7132500000001,343.9996865006479L770.3961200000001,343.9308734107579L771.420425,344.07446028452506L772.1032950000001,344.17529891720005L772.786165,344.2437784204816L773.4690350000001,343.96733177755885L774.151905,343.89013597650097L774.834775,343.9794006635215L775.517645,344.1290140396535L776.2005150000001,344.2099748147237L777.9076900000001,344.283785660658L779.2734300000001,344.2658469116377L779.9563,344.3533866123768L781.32204,344.4218814973102L782.0049100000001,344.46444940633165L783.029215,344.50160939893016L783.712085,344.53035424848304L784.3949550000001,344.3950518723075L785.077825,344.2629597610803L785.760695,344.19166319243044L786.443565,344.05729848261336L787.126435,343.80542052233614L787.809305,343.74287549758094L788.8336100000001,343.77326895706335L789.51648,343.6975333525239L790.8822200000001,343.9603873446682L791.56509,344.1683071308704L792.24796,344.1578618767508L792.9308300000001,343.76932311873526L793.6137,343.8398080666118L794.6380050000001,343.35959816148403L796.0037450000001,343.2559621888132L797.3694850000002,343.26932312594244L798.052355,343.48028026648194L799.4180950000001,343.2657456872533L800.4424,343.1758526557785L801.1252700000001,343.5154607222936L801.80814,343.5026889421917L802.4910100000001,343.3440633363551L803.17388,343.36006856145616L803.85675,342.8856393735537L805.2224900000001,343.06072203512565L806.246795,343.3238467958306L806.9296650000001,343.6441046386501L808.2954050000001,343.7319383786345L808.978275,343.4942058404023L809.6611450000001,343.62811243996924L810.344015,343.90627486182547L812.05119,344.0182248585942L812.7340600000001,344.00486465867493L813.4169300000001,344.1543117311975L814.0998000000001,344.2736606806508L815.4655400000001,344.29265046315834L816.14841,344.201725768233L816.8312800000001,344.2663729999508L817.8555850000001,344.24320688617L818.538455,343.8279713333951L819.2213250000001,343.89440274099843L819.9041950000001,343.443770096612L821.269935,343.6120114045066L821.9528050000001,343.73806889082323L822.635675,344.0031110969454L823.6599800000001,344.12894981262457L824.34285,344.1801653727335L825.0257200000001,344.30765928635157L825.7085900000001,344.3999194122962L826.39146,344.4307457804001L827.07433,344.2162224864801L827.7572000000001,344.0948130624497L828.44007,344.0033972146315L829.4643750000001,344.09398943613684L830.1472450000001,344.0732904829922L830.8301150000001,344.03962527141033L831.5129850000001,344.06438362640677L832.1958550000002,344.0186305380168L832.878725,344.12909856325945L834.2444650000001,344.1130561851654L835.26877,344.0262060150669L835.9516400000001,344.0295213029881L836.63451,344.07055177076757L837.3173800000001,344.08828153891324L838.00025,343.9264223887004L839.36599,343.4720650171823L840.0488600000001,343.53143045265L841.073165,343.8536362071843L841.7560350000001,343.9895166213445L842.4389050000001,344.1544518180146L845.170385,344.2868932698019L845.8532550000001,344.34596199177787L846.87756,344.3556804342988L847.5604300000001,344.40663422896006L848.2433000000001,344.42999117569L848.9261700000001,344.333485933617L849.60904,344.2889011833048L850.2919100000001,344.3062793393717L850.97478,343.98634918373045L851.6576500000001,343.9133140112433L852.6819550000001,343.82875976033847L853.364825,343.9875477652073L854.0476950000001,343.95768839110355L854.7305650000001,344.10626146501454L855.413435,344.01564197362654L856.096305,344.0257293965441L856.7791750000001,344.19237017808985L857.462045,344.2439927268866L858.4863500000001,344.3538794448592L859.1692200000001,344.42398011739635L859.8520900000001,344.47921938114405L860.5349600000001,344.2046818502031L861.2178300000002,344.11500570951597L861.9007,343.9419096223237L862.5835700000001,344.07884455368253L864.2907450000001,343.8077775966346L865.6564850000001,343.87802767194626L866.3393550000001,344.12985021301125L867.0222250000002,344.2827210187036L867.705095,344.2935363893555L868.3879650000001,344.14119653087437L870.09514,344.09022207194516L871.4608800000001,344.03561549726L872.1437500000001,343.9483119651002L872.82662,343.92058693755104L873.5094900000001,344.0954863203869L874.8752300000001,344.1673895681509L875.899535,344.14785750073844L876.5824050000001,344.1987448380524L877.2652750000001,344.2341606378114L877.9481450000001,344.36107106959594L879.3138850000001,344.34881578359466L879.996755,344.4244262685504L880.6796250000001,344.44718559165307L881.7039300000001,344.48447806126643L883.0696700000001,344.53846542200256L883.7525400000002,344.5588643721111L884.43541,344.5763706329209L886.4840200000001,344.3978610531261L887.5083250000001,344.3000291670946L888.191195,344.20964535246065L888.8740650000001,344.26976496101037L889.5569350000001,344.2455134064319L890.239805,344.1289423332579L890.922675,344.04571691037023L891.6055450000001,344.01022419361755L892.288415,344.0426588474297L893.3127200000001,343.90868069193266L893.9955900000001,343.66730054916843L894.6784600000001,343.7929629409923L895.3613300000001,344.0157194290701L896.72707,344.17094209072974L897.4099400000001,344.2787972430504L898.0928100000001,344.2283681682939L899.7999850000001,344.2836547525356L900.482855,344.34405037548794L901.1657250000001,344.37382105446227L901.848595,344.2880198737489L902.531465,344.12725739847167L903.2143350000001,343.51140981020853L903.8972050000001,343.6360760860035L904.92151,343.89808233678923L905.6043800000001,344.10875013425056L906.2872500000001,344.0956561434141L906.9701200000001,344.14879189265L908.3358600000001,343.7094174126718L909.01873,343.68683081181945L909.7016000000001,343.6886560406512L910.725905,343.5121864886816L911.4087750000001,343.4783453302623L912.0916450000001,343.5215462785686L912.7745150000001,343.6440439051673L913.457385,343.48945470882165L914.1402550000001,343.757705669002L914.823125,343.86678900655386L915.5059950000001,343.54125634955136L916.5303000000001,343.5668717771874L917.21317,343.5534955930028L917.8960400000001,343.7648746441715L919.26178,343.81531228560186L919.94465,343.87702432188183L920.6275200000001,343.7570189452189L921.3103900000001,343.70209611253046L922.3346950000001,343.80189692815304L923.0175650000001,343.83316953807173L923.7004350000001,343.8673833053307L926.4319150000001,344.05096670279625L927.1147850000001,344.1979110653707L928.1390900000001,344.1993799290861L928.8219600000001,344.17077191326354L930.1877000000001,344.21307243075967L930.8705700000002,344.19735974290916L931.55344,344.225787112118L932.2363100000001,344.31829030277277L932.9191800000001,344.3928510683804L934.6263550000001,344.23062397418596L935.3092250000001,343.9669000162622L935.9920950000001,344.0735234589492L936.674965,344.22965304676256L937.3578350000001,344.16776583051075L938.040705,344.2760369157243L938.7235750000001,344.4001449886511L939.74788,344.25095338224173L940.4307500000001,344.3378150947383L941.1136200000001,344.3972219962932L941.7964900000001,344.37239392651213L942.47936,344.2823858364235L943.1622300000001,344.12551104920965L943.8451,344.1907401151455L944.5279700000001,344.16320693606616" style="fill: none;" fill="none"></path></g></g></g></g><g opacity="0.2"><g><g><g><path stroke="rgb(255, 112, 67)" stroke-width="2px" d="M98.793475,-0.4267568588256836L99.47634500000001,2.6645522117615315L100.84208500000001,6.316555817921994L101.524955,11.259154160817502L102.207825,17.41095670064294L102.89069500000001,21.203927675882994L103.91500000000002,24.41304572423303L105.28074000000001,33.042310555776L105.96361000000002,33.83064834276837L106.64648000000001,35.553632656733214L107.32935,43.7998315493266L108.01222000000001,42.11847631136578L108.69509000000001,43.427952607472776L110.402265,51.733709653218625L111.08513500000001,51.716340859731076L112.45087500000001,55.05060760180157L113.13374500000002,53.84310293197632L113.81661500000001,55.95531630516052L114.499485,57.78286822636926L115.52379000000002,64.7545338471731L116.20666000000001,62.11963184674585L117.57240000000002,68.12955188751226L118.25527000000001,70.90848414103198L118.93814,70.65792528788256L119.62101000000001,75.8666023413341L120.30388,71.64520112673449L121.328185,74.12725774447131L122.01105500000001,79.56544566154486L122.69392500000002,76.33555976549792L123.37679500000002,81.28000704447436L124.05966500000001,85.04810142517096L124.74253500000002,82.94305968284613L126.108275,87.8632653554281L127.13258,89.32758537928271L127.81545000000001,86.97549589475L128.49832,92.42272305488592L129.18119000000002,90.34106381734216L129.86406,96.37873657544458L130.54693,93.09663224220282L131.2298,97.56900318463647L131.91267,94.33364518483484L133.619845,101.83334080378216L134.302715,102.62154785792035L135.668455,99.96901559829718L136.35132500000003,110.18085765838629L137.034195,107.38730200131738L137.71706500000002,108.06158471107489L138.74137000000002,106.45997651418054L139.42424000000003,108.73472817738855L140.78998,114.86380187670392L141.47285000000002,110.19028910001123L142.15572000000003,113.15504876772565L142.83859,113.44727404912317L143.52146000000002,115.33221769332891L144.54576500000002,120.25049972534183L145.22863500000003,121.98814479509991L146.594375,121.1997883319855L147.27724500000002,123.94448725382489L147.960115,127.06106511751813L148.642985,129.50177280108136L149.32585500000002,130.69273042678836L150.35016000000002,130.66169071197513L151.03303,130.28702902793887L151.7159,129.14222009976712L153.08164,136.19768548011783L153.76451,136.89249324798587L154.44738,136.6973838011424L155.13025000000002,138.38777828216556L156.15455500000002,139.79201722145083L156.83742500000002,144.57881935437527L157.52029500000003,146.45801075299588L158.203165,141.3156526088715L158.88603500000002,146.79969040552777L159.56890500000003,146.44506820042935L160.251775,146.03942282994595L160.93464500000002,146.17164977391568L161.95895000000002,149.78118387858075L162.64182000000002,156.15543770790103L163.32469,151.2872263590495L164.00756,153.150580406189L164.69043000000002,154.47587537765506L165.3733,159.9903739293417L166.05617,152.12737170855206L166.73904000000002,151.37810436884564L168.446215,160.83780296643582L169.129085,154.67655030886334L171.177695,165.0506505171458L171.860565,164.19214653968814L173.56774000000001,170.35717177391055L174.25061000000002,172.59952036539715L175.61635000000004,169.5491306781769L176.98209000000003,170.7871894836426L177.66496000000004,171.49217573801678L178.34783000000002,177.7859541575114L179.37213500000001,178.20747423172L180.05500500000002,176.07113130887356L180.73787500000003,175.7060504754385L182.10361500000002,181.5486698150635L182.78648500000003,176.9536901315054L183.469355,183.10440945625308L184.15222500000002,179.72834555308026L185.85940000000002,186.63765160242718L186.54227,184.18641058603924L187.22514,183.5098867416382L187.90801000000002,187.68767921129864L188.59088,190.30595012505853L189.27375,187.2801849047343L189.95662000000002,186.87054284413662L191.663795,188.93147158622745L192.346665,196.6461667219798L193.71240500000002,195.6164027055105L194.39527500000003,194.30513350168866L195.76101500000001,195.1485378344854L196.78532,196.6495657761892L197.46819000000002,200.5102657079697L198.83393,206.414833744367L199.51680000000002,198.78846732775372L200.19967000000003,202.22525664170587L201.56541,198.09426653385165L202.589715,207.485386411349L203.27258500000002,211.04046094417575L203.95545500000003,208.15226403872174L205.32119500000002,207.21461065610254L206.00406500000003,207.71095661322278L206.686935,211.7123250961304L207.369805,213.8185434341431L208.39411,216.39416742324832L209.07698000000002,211.56109519799554L209.75985,215.0224342743556L210.44272,216.21638941764834L211.12559000000002,210.8839550415675L212.49133000000003,216.86644919713342L213.17420000000004,217.39330259958905L215.56424500000003,222.77886120478314L218.29572500000003,227.00762081146243L218.978595,218.8545784155528L220.68577000000002,235.91001458962762L221.36864000000003,227.73053614298504L222.05151,227.14512375990552L223.41725000000002,229.1081989606222L224.10012,231.70648642381036L224.78299,233.49665808677676L225.807295,240.35989948113763L226.49016500000002,242.40077940622967L228.53877500000002,239.04158937931064L229.221645,233.30921518802646L229.904515,235.60091543197635L230.587385,234.32154504458111L231.61169000000004,246.98856878280642L232.29456000000002,244.70935352643335L232.97743000000003,243.91511408487958L233.66030000000003,242.20979738235476L234.34317000000004,246.83936524391177L235.02604000000002,244.80006345113122L235.70891000000003,244.09694480896L236.39178000000004,242.60517088572186L238.09895500000002,255.38697806994122L238.78182500000003,255.21967736879986L239.46469500000003,252.7657563289007L240.83043500000002,247.71841295560205L241.51330500000003,254.23425046602887L242.196175,253.59033513069153L243.22048,265.2624911864599L243.90335000000002,263.7265108823776L244.58622000000003,261.26963901519775L245.26909,261.80799690882367L246.63483000000002,253.78282058238983L247.3177,254.74961805343628L249.024875,268.97187250852585L249.70774500000005,267.4068835179011L250.39061500000003,265.93586810429895L251.75635500000004,264.90544108549756L252.43922500000002,267.8768821358681L253.12209500000003,267.6830146511396L253.80496500000004,265.524844010671L254.82927000000004,275.7070470650991L255.51214000000002,272.8713907599449L256.19501,276.1837410728137L256.87788,274.1168639858564L257.56075000000004,270.0648178458214L258.24362,270.9427496592204L258.92649,271.75557651122415L259.60936000000004,268.5127153793971L260.633665,283.8610839645068L261.999405,284.0455620288849L262.682275,278.3021269043287L263.36514500000004,277.7239281733831L264.048015,279.5366652607918L265.41375500000004,276.8001698255539L266.43806000000006,290.0535304148992L267.12093000000004,292.56414749224984L268.48667000000006,285.82768428325653L269.85241,284.11997703711194L271.21815000000004,282.726037979126L272.242455,292.38093473513925L272.925325,292.81553276379907L273.608195,297.9311513702075L274.291065,291.13230991363525L275.656805,291.0078055461248L276.339675,290.2483457128207L277.022545,290.8423351049423L278.04685,298.45504460732144L278.72972000000004,300.1592033902804L279.41259,300.9062622785568L280.09546,303.01517464717233L280.77833000000004,298.043693681558L284.53411500000004,305.8207927445571L285.89985500000006,301.4204252560934L286.58272500000004,305.6258653899034L287.94846500000006,301.1048314770063L288.63133500000004,304.44391665856045L289.65564,312.7388929128647L290.33851,313.2292251586914L291.02138,311.838262607654L291.70425,306.79358291625977L292.38712,307.9390548467636L293.06999,305.73218154907227L293.75286,307.26142677664757L294.43573,305.7418371041616L295.460035,314.4961128930251L297.508645,312.7375949223836L298.19151500000004,313.128406782945L298.874385,314.0402801136176L299.557255,311.68945360183716L300.24012500000003,313.6614443163077L301.94730000000004,320.8831762075424L302.63017,316.73192484180134L303.31304000000006,316.1857556601365L303.99591000000004,316.3489569524924L304.67878,317.8389473060767L305.36165000000005,311.75224505861604L306.04452000000003,316.5219772160053L307.068825,318.14390269915265L307.751695,318.2829884489377L308.434565,320.192883392175L309.117435,322.7121848662694L309.800305,319.4216435949008L310.483175,316.56735785802204L311.166045,320.9696209728718L311.848915,316.3385380109151L312.87322,329.0719717045625L314.23896,326.53461042046547L314.92183000000006,324.78068911035854L316.28757,318.2936338384946L317.65331000000003,321.9165610571702L319.36048500000004,328.51108106970787L320.0433550000001,324.49562378724414L320.72622500000006,325.780400911967L321.40909500000004,323.8999605476856L322.0919650000001,328.50428062677383L322.77483500000005,324.6244353353977L323.45770500000003,324.113592038552L324.48201,329.5097423394521L325.16488000000004,331.25683402518433L325.84775,326.6234048753977L326.53062,323.0558651983738L327.21349000000004,329.19156308472157L327.89636,328.0627712657054L328.57923,327.3356082836787L329.26210000000003,328.99034654597443L330.28640500000006,324.6820861895879L330.96927500000004,325.2029293825229L331.652145,330.40959875285625L332.33501500000006,331.4932877371709L333.01788500000004,326.276353503267L333.700755,327.24222650627297L334.38362500000005,329.82168376942474L335.06649500000003,329.87546749909717L336.09080000000006,329.55512298146886L336.77367000000004,332.7774590551853L337.4565400000001,333.3209026902914L338.13941000000005,334.12741000950336L338.82228000000003,330.51316018402576L339.50515000000007,331.370845913887L340.18802000000005,328.6611927350362L340.87089000000003,327.71130415797234L341.895195,332.41698888937634L343.260935,333.05554417769116L343.943805,330.35998913645744L345.309545,332.8763059328L345.992415,333.1091855019331L346.67528500000003,330.87175223231316L347.69959000000006,336.01326411465806L348.38246000000004,335.13619607190293L349.06533,336.01014695316553L349.74820000000005,333.87340891361237L351.11394,335.34963963429135L351.79681000000005,332.90836466352147L353.503985,334.449887106816L354.18685500000004,334.9054560859998L354.8697250000001,331.239085872968L355.55259500000005,330.01795930663747L356.23546500000003,335.1192492420475L357.60120500000005,335.4013152966897L358.28407500000003,334.4374978343646L359.30838,336.49958449602127L359.99125000000004,336.17993683119613L361.35699,333.4030391077201L362.03986000000003,334.9883342956503L362.72273,336.9688751722376L363.4056,335.9449608673652L364.08847000000003,333.35977703829604L365.79564500000004,333.32209562758607L366.478515,333.637467627724L367.16138500000005,337.4296407823761L368.527125,334.6243069122235L369.20999500000005,336.89877376457054L370.91717,338.5184032519658L372.28291,338.89398473501205L372.96578000000005,337.48458301524323L373.64865000000003,337.85229776551324L375.01439000000005,336.3273369570573L375.69726,332.62017809351283L376.721565,339.84909854084253L378.087305,339.26321341842413L378.77017500000005,336.28963103393716L379.45304500000003,333.69761641323566L380.135915,335.5845292210579L380.81878500000005,338.4086407646537L381.501655,337.7045410424471L382.52596000000005,336.50068288544816L383.89170000000007,339.48134643832844L385.25744000000003,338.9091444934408L386.62318000000005,338.72724723567563L388.330355,338.9001554424564L390.378965,335.63854290048283L391.06183500000003,334.99863826235134L392.42757500000005,339.24020618697006L393.1104450000001,338.08687511086464L394.13475000000005,337.9154020473361L394.81762000000003,337.31534233192605L395.50049,339.5487625698249L396.86623000000003,340.3273919833203L397.5491,339.32937649885815L398.23197000000005,338.18292640646297L398.91484,337.444781281054L399.93914500000005,339.47809095680714L400.62201500000003,337.92462513347465L401.30488500000007,341.696671264867L401.98775500000005,340.3624552351733L402.67062500000003,337.9692803248763L403.35349500000007,337.1975788772106L404.03636500000005,339.63731773694354L404.719235,338.41073832660913L406.42641000000003,339.21603695054847L407.10928,338.49928182115156L407.79215,340.1275598121186L408.47502000000003,340.34067712600034L409.15789,338.0485336159666L409.84076,340.80127844462794L410.5236300000001,340.7703802598019L411.54793500000005,341.8297593531509L412.23080500000003,341.4092381596565L412.913675,341.7200832429032L413.59654500000005,338.8692995707194L414.27941500000003,340.7993813591699L414.962285,340.51231039563817L415.64515500000005,339.7777823098004L416.328025,341.2202250075837L417.35233000000005,342.0279375202954L418.03520000000003,341.46039964507025L418.71807000000007,341.27064499258995L419.40094000000005,337.60954202959937L420.76668000000006,341.57330759987235L421.44955000000004,342.3033397011459L424.522465,341.284313287586L425.205335,340.16753751039505L425.888205,340.80315714577836L426.571075,341.05274513239664L427.253945,341.1234281261762L427.936815,338.0051746641596L428.96112000000005,339.78911754861474L429.64399000000003,339.46482040484744L431.00973000000005,341.86192459613085L431.6926,341.6454108543694L432.37547,340.816261947155L434.76551500000005,339.1419668669502L435.44838500000003,339.93406497438747L436.81412500000005,339.32426040867966L438.86273500000004,342.0486388343076L439.545605,341.6635517887771L440.56991,340.68913591901463L441.25278000000003,340.98383987198275L441.93565,342.2161817414065L442.61852000000005,343.282998746261L443.30139,342.5862504125883L443.98426,341.80699170132476L444.66713000000004,340.8741404165824L445.35,339.4317438254754L446.37430500000005,341.6254533752799L447.74004500000007,341.22264910986024L448.42291500000005,341.40180564671755L449.105785,342.4821828293304L449.78865500000006,341.83671591679257L450.47152500000004,339.0861719523867L451.154395,340.93843209122616L452.17870000000005,342.55301669115823L453.54444000000007,339.3829442858696L454.22731000000005,340.310139623781L454.9101800000001,340.5237436840932L455.59305000000006,341.8298527337611L460.03170500000004,339.58845808357L461.397445,340.1503592717151L462.08031500000004,341.5140199586749L462.763185,341.85495052362484L463.78749000000005,340.2935806152721L464.47036,342.4428897276521L465.15323000000006,342.89961312462884L465.83610000000004,342.0808303405841L466.51897,342.2890202223013L467.20184000000006,342.68778548451763L467.88471000000004,339.620915432771L468.56758,340.03379984324175L469.59188500000005,342.1401547503968L470.2747550000001,343.1297278981656L470.95762500000006,342.94361027454335L471.64049500000004,343.20189287140965L472.3233650000001,342.0954700857401L473.00623500000006,342.75075626124936L474.3719750000001,340.67908145363134L475.39628000000005,340.4137246919175L476.07915,342.01178179929656L477.44489000000004,341.07025282954174L478.12776,340.8214223931233L478.81063,342.08746532474953L479.49350000000004,338.9153712292512L480.17637,340.8394801604251L481.20067500000005,340.4739102460444L481.883545,341.27917910491425L482.56641500000006,341.775457944721L483.24928500000004,340.8707256043951L483.932155,341.8872342432539L484.61502500000006,342.06629535680014L485.29789500000004,341.4199792643388L485.980765,341.6343971950312L487.00507000000005,341.98549107213813L487.6879400000001,342.8540972266346L488.37081000000006,342.5373264141381L489.05368000000004,342.3617793296774L489.7365500000001,342.8350513757517L490.41942000000006,343.5422740227853L491.10229000000004,342.92227689052623L492.80946500000005,343.02434350239736L493.492335,342.3373948801309L494.175205,342.02758033946157L494.85807500000004,343.2311180842419L495.540945,342.46179434036213L496.223815,342.2716002153854L496.90668500000004,341.7913650398453L497.589555,342.27726010171074L498.61386000000005,342.54321960608166L499.29673,341.8239253995319L499.97960000000006,342.7461629565805L500.66247000000004,343.45449778127175L501.34534,343.58014620716375L502.02821000000006,343.7870537104706L503.39395,343.6277671083808L504.418255,340.08605038002133L505.1011250000001,340.864957600832L506.4668650000001,342.89960830969113L507.1497350000001,343.1601103010277L507.83260500000006,342.8760445881635L508.5154750000001,343.5097259193038L509.1983450000001,343.3584905496488L510.22265000000004,343.9602574522917L510.90552,344.0537965176627L511.58839000000006,343.92731919294846L512.27126,343.7615756864349L512.9541300000001,343.59854802365106L513.6370000000001,343.3845991846174L514.31987,342.85901342394453L516.027045,343.10583953311044L517.392785,342.1471364100774L518.0756550000001,341.2912788974742L518.7585250000001,341.72004005437094L520.807135,343.08092660767335L523.88005,343.641991236868L524.5629200000001,343.6297790228079L525.24579,343.2462215224902L525.92866,342.62774116856355L526.61153,342.79638304871816L527.635835,343.1375092752278L528.318705,343.77660485791665L529.0015750000001,342.2693415718774L531.050185,342.41831983005005L531.733055,342.30487143496674L532.415925,343.238554974397L533.44023,343.148596179982L534.80597,342.7750012235095L535.4888400000001,340.96698292096454L536.17171,341.2939878106117L537.53745,342.28139131826657L538.22032,342.6607621572912L539.244625,343.02295680033666L539.9274950000001,343.5217652333279L540.610365,343.3075574090083L541.2932350000001,343.3628509864211L541.9761050000001,342.78305209117633L542.658975,341.6411413177848L543.341845,342.5084366419663L544.0247150000001,343.5209620871271L545.04902,343.10005752245587L545.7318900000001,342.279409898445L546.41476,343.6835669837892L547.0976300000001,343.5405074513207L547.7805000000001,343.3037474801143L548.46337,343.5091962761556L550.853415,342.8086293321103L551.536285,343.18606894339126L552.2191550000001,343.07672170797986L552.902025,343.1148048012207L553.5848950000001,342.620533498625L554.267765,343.07563192707795L554.950635,342.1913109831512L555.633505,342.1916561995943L556.65781,343.46857432462275L557.34068,343.8935540774837L558.0235500000001,343.3717224361996L558.70642,343.7607760420069L559.3892900000001,342.77025953121483L560.07216,341.8195581051211L561.4379,342.95758045154315L562.4622050000002,343.532019007951L563.145075,344.18909291146946L563.8279450000001,343.6056709944581L564.5108150000001,343.5386298444743L565.1936850000001,344.0773450283644L565.876555,343.2592463667194L566.5594250000001,343.83621801808476L567.242295,343.54902186617255L568.2666,343.5714907729998L568.94947,343.2412707451731L569.63234,343.64449653650325L570.3152100000001,342.9671992380172L570.99808,342.97637753064436L571.68095,343.00674972000223L572.36382,342.85426005907357L573.04669,342.3701743924369L574.070995,342.26111094653606L574.7538650000001,342.47324163590866L575.436735,342.3289936892688L576.8024750000001,342.6436561426769L578.168215,341.25059675921995L579.87539,343.36987612644833L581.9240000000001,343.8891362991805L582.6068700000001,343.2760297805071L583.28974,342.62048549515504L583.97261,343.300448955968L584.6554800000001,343.57929943470907L585.679785,343.0746202065299L586.362655,344.14286717493087L587.0455250000001,344.1871413661477L587.728395,343.47940684016794L588.4112650000001,343.09291478122276L589.094135,343.29899834655225L589.777005,342.9578772267948L590.459875,340.4829354820152L592.8499200000001,342.4419910851866L593.53279,343.50931271010387L594.2156600000001,343.3027900370459L595.5814,343.0952488587548L596.26427,343.5619203547637L597.288575,343.38653493548435L597.971445,343.2390866602461L598.654315,343.55071650538594L599.3371850000001,343.68556131639826L600.0200550000001,344.0119465381528L600.702925,344.138784691381L601.3857950000001,343.9356950689107L603.09297,343.6786674928541L603.7758400000001,344.1835060881761L604.45871,344.35644789009046L605.1415800000001,344.39351543271914L605.8244500000001,343.78680340666324L607.19019,342.48738062754273L607.8730600000001,343.34816338370246L608.897365,343.4127982320885L609.5802350000001,343.0158474718531L610.263105,342.89309632529813L610.9459750000001,342.5541244186461L611.6288450000001,343.14625320211053L612.311715,341.92202406500775L612.994585,343.1344364695251L613.6774550000001,343.2335096492122L614.70176,342.40254638592404L615.38463,342.95957704571384L616.0675000000001,343.22406215779483L616.75037,343.33812234178185L618.11611,344.21330289247754L618.79898,343.56835756171495L619.4818500000001,343.10921115676564L620.506155,341.1503710585336L621.189025,343.1705566731592L621.8718950000001,343.9410117085402L622.554765,343.2276112046093L623.2376350000001,342.5495775124679L625.286245,342.9532229329149L626.3105500000001,343.5950816332673L627.6762900000001,342.7496012598276L628.3591600000001,343.3591755839686L629.0420300000001,343.2634468891968L629.7249,343.4378761785726L630.4077700000001,342.52752393049497L631.09064,343.0000375509262L632.797815,343.9917399954672L633.480685,344.1286914876352L634.1635550000001,344.4278858806938L634.846425,344.0735035835144L635.529295,343.82377534359694L636.212165,343.88860271653783L636.895035,343.93923842534423L637.91934,343.8387157305454L639.28508,344.1937688360922L639.9679500000001,344.4045945679148L640.6508200000001,343.8863555996989L641.33369,344.0876605946881L642.01656,343.8025183420007L642.6994300000001,343.71947452767444L643.723735,344.2770110477383L644.4066050000001,344.21208102907985L645.089475,344.2346835504286L645.7723450000001,344.419131795022L646.4552150000001,344.42851461307146L647.138085,343.2033442103614L647.820955,343.9640593562896L648.5038250000001,344.4268592958494L649.52813,344.4350527330923L650.211,344.239178404212L650.8938700000001,344.2935565233541L651.57674,344.3302057865076L652.2596100000001,343.44589064239216L652.94248,341.4391876558463L653.62535,342.6229523482422L654.30822,343.41746580352384L655.332525,344.3052194697472L656.6982650000001,344.39151088660583L657.381135,344.1197639000602L658.0640050000001,344.30983400391415L658.746875,344.003296575509L659.429745,344.2710639430831L660.112615,344.1914583590503L661.1369200000001,343.6517540337518L661.81979,343.7422732577349L663.1855300000001,344.27062034870806L663.8684000000001,343.6206798848386L664.55127,344.0514501109719L665.2341400000001,343.4229056617866L665.91701,342.16620823244256L666.941315,343.4861184985687L668.307055,341.80724616348743L668.9899250000001,343.09098005170625L669.6727950000001,343.63647156736505L670.355665,343.0620304575811L671.7214050000001,343.8851728029549L672.74571,344.0038038948551L673.4285800000001,343.8594983878235L674.11145,343.81314658746123L675.4771900000001,342.89926396869123L676.16006,343.25933668327826L676.84293,343.4086877343555L677.5258000000001,343.2563718489061L678.550105,343.6704229333748L679.2329750000001,343.1718794678648L679.9158450000001,343.9628305987765L680.5987150000001,343.62599163657677L681.2815850000001,343.38789814648527L681.9644550000002,343.57479651955265L682.647325,343.1195008245607L683.3301950000001,343.08157341430586L684.3545,344.0765336019297L685.7202400000001,342.37270500697196L686.40311,343.31283545618254L687.76885,343.51800031680614L688.45172,343.8660765411332L689.13459,342.30537277211744L690.1588950000001,343.7859320488448L691.5246350000001,343.75185753715533L692.2075050000001,343.7684738142416L692.8903750000001,344.22379460527253L693.573245,344.1506934914117L694.938985,343.68415068555623L696.64616,343.58405236185837L698.0119000000001,343.6785065572088L698.6947700000001,344.2903703477544L699.37764,344.0253275418654L700.0605100000001,343.71681405572843L700.74338,344.1839658417739L703.8162950000001,343.9091329543541L704.4991650000001,344.0286202297236L705.182035,344.30618325977895L705.864905,343.1586542930454L706.5477750000001,343.24287878846127L708.2549500000001,343.56203263035667L708.93782,344.00022347799194L709.6206900000001,341.4719563710193L710.3035600000001,342.92253106087446L710.98643,343.70858051224303L711.6693,343.8524992922321L712.3521700000001,343.0509113073349L713.376475,343.21772642930347L714.0593450000001,342.34541073006886L714.7422150000001,343.4851072886959L716.1079550000001,343.99742862551165L716.7908250000002,343.34532081956667L717.473695,342.13200583308935L718.1565650000001,341.3050872633855L719.18087,342.56227669181925L719.86374,342.6688528576245L720.5466100000001,343.4246838328739L721.22948,343.7795505054916L721.9123500000001,344.3979001448024L722.59522,344.0695285970966L723.27809,344.0180193418637L723.96096,343.3866855117182L724.9852650000001,343.2943910347919L725.668135,343.0765384485324L726.3510050000001,343.9789916453883L727.0338750000001,343.5075963307172L727.7167450000001,343.3337197378278L729.0824850000001,343.7719129199783L729.765355,343.167923339953L730.78966,344.24068110249937L731.4725300000001,344.44211759635556L732.1554000000001,343.9156844795992L732.8382700000001,344.43144335364923L733.5211400000002,344.42568922950886L734.20401,343.7490605690206L734.8868800000001,343.47358711250126L735.5697500000001,342.95536426703137L736.594055,343.09614983573556L737.2769250000001,343.7194550490628L738.6426650000001,342.94253581389785L739.3255350000001,342.93134210507077L740.008405,343.21797301247716L740.691275,342.7862681777527L742.39845,344.0363989075025L743.0813200000001,343.6820197108512L743.7641900000001,343.4772885593896L744.4470600000001,343.1336190973719L745.1299300000001,343.1663708873093L745.8128000000002,342.95330420322716L747.1785400000001,342.5386391412467L748.202845,342.437428129216L749.5685850000001,343.7097492289419L750.251455,343.92048949562013L750.9343250000001,344.17171419629204L751.6171950000002,343.66437595523894L752.300065,343.4728029342368L752.9829350000001,343.5247140908614L754.69011,342.65986045077443L756.0558500000001,342.9216157849878L757.42159,344.0200985195115L758.1044600000001,344.3378352012175L758.78733,343.848175259307L759.8116350000001,344.40617456054315L760.494505,344.3584027183242L761.8602450000001,343.80656544305384L762.5431150000001,343.44639956671745L763.225985,343.98230972109985L764.591725,343.4326160779844L765.61603,343.34315643211204L766.2989000000001,343.7260387468462L766.98177,343.75206786238897L768.34751,343.9135289195304L769.03038,343.85640457148355L769.7132500000001,344.29214972257614L770.3961200000001,343.82765377592295L771.420425,344.2898405951758L772.1032950000001,344.32655686621246L772.786165,344.34649767540395L773.4690350000001,343.55266181317467L774.151905,343.7743422749142L774.834775,344.1132976940523L775.517645,344.3534341038515L776.2005150000001,344.331415977329L777.9076900000001,344.39450192955945L779.2734300000001,344.2389387881073L779.9563,344.48469616348547L781.32204,344.5246238247103L782.0049100000001,344.52830126986373L783.029215,344.55734938782797L783.712085,344.57347152281244L784.3949550000001,344.1920983080442L785.077825,344.0648215942395L785.760695,344.0847183394556L786.443565,343.8557514178877L787.126435,343.42760358192027L787.809305,343.64905796044815L788.8336100000001,343.818859146287L789.51648,343.5839299457148L790.8822200000001,344.3546683328847L791.56509,344.48018681017373L792.24796,344.1421939955714L792.9308300000001,343.1865149817119L793.6137,343.9455354884267L794.6380050000001,342.6392833037923L796.0037450000001,343.100508229807L797.3694850000002,343.28936453163624L798.052355,343.7967159772913L799.4180950000001,342.9439438184102L800.4424,343.0410131085664L801.1252700000001,344.02487282206613L801.80814,343.4835312720388L802.4910100000001,343.1061249276002L803.17388,343.38407639910776L803.85675,342.1739955917001L805.2224900000001,343.3233460274835L806.246795,343.718533936888L806.9296650000001,344.12449140287936L808.2954050000001,343.8636889886111L808.978275,343.13760703305405L809.6611450000001,343.8289723393197L810.344015,344.32351849460974L812.05119,344.18614985374734L812.7340600000001,343.98482435879606L813.4169300000001,344.3784823399813L814.0998000000001,344.45268410483067L815.4655400000001,344.32113513691974L816.14841,344.06533872584504L816.8312800000001,344.36334384752746L817.8555850000001,344.2084577154989L818.538455,343.20511800423265L819.2213250000001,343.9940498524035L819.9041950000001,342.76782113003236L821.269935,343.86437336634845L821.9528050000001,343.92715512029827L822.635675,344.40067440612864L823.6599800000001,344.3177078861433L824.34285,344.2569887128969L825.0257200000001,344.4989001567786L825.7085900000001,344.53830960121314L826.39146,344.47698533255607L827.07433,343.89443754560006L827.7572000000001,343.9126989264041L828.44007,343.8662734429042L829.4643750000001,344.22987776839483L830.1472450000001,344.0422420532753L830.8301150000001,343.9891274540375L831.5129850000001,344.10152115890133L832.1958550000002,343.9500009054318L832.878725,344.29480060112354L834.2444650000001,344.08899261802435L835.26877,343.89593075991917L835.9516400000001,344.0344942348699L836.63451,344.1320974724367L837.3173800000001,344.11487619113177L838.00025,343.68363366338116L839.36599,342.7905289599051L840.0488600000001,343.62047860585153L841.073165,344.3369448389858L841.7560350000001,344.1933372425847L842.4389050000001,344.4018546130198L845.170385,344.4855554474828L845.8532550000001,344.43456507474184L846.87756,344.3702580980801L847.5604300000001,344.4830649209519L848.2433000000001,344.465026595785L848.9261700000001,344.18872807050747L849.60904,344.22202405783656L850.2919100000001,344.332346573472L850.97478,343.5064539502685L851.6576500000001,343.8037612525125L852.6819550000001,343.70192838398117L853.364825,344.22572977251065L854.0476950000001,343.91289932994795L854.7305650000001,344.329121075881L855.413435,343.8797127365445L856.096305,344.0408605309203L856.7791750000001,344.4423313504085L857.462045,344.32142655008164L858.4863500000001,344.51870952181827L859.1692200000001,344.529131126202L859.8520900000001,344.56207827676553L860.5349600000001,343.7928755537917L861.2178300000002,343.9804914984852L861.9007,343.68226549153525L862.5835700000001,344.2842469507207L864.2907450000001,343.4011771610628L865.6564850000001,343.9834027849138L866.3393550000001,344.5075840246088L867.0222250000002,344.5120272272422L867.705095,344.3097594453332L868.3879650000001,343.9126867431526L870.09514,344.0137603835513L871.4608800000001,343.9537056352322L872.1437500000001,343.81735666686046L872.82662,343.8789993962273L873.5094900000001,344.35783539464074L874.8752300000001,344.27524443979684L875.899535,344.1185593996197L876.5824050000001,344.2750758440234L877.2652750000001,344.2872843374498L877.9481450000001,344.55143671727274L879.3138850000001,344.3304328545928L879.996755,344.537841995984L880.6796250000001,344.4813245763071L881.7039300000001,344.5404167656864L883.0696700000001,344.61944646310684L883.7525400000002,344.5894627972739L884.43541,344.6026300241356L886.4840200000001,344.1300966834339L887.5083250000001,344.15328133804724L888.191195,344.0740696305099L888.8740650000001,344.3599443738349L889.5569350000001,344.2091360745641L890.239805,343.954085723497L890.922675,343.9208787760387L891.6055450000001,343.9569851184885L892.288415,344.0913108281481L893.3127200000001,343.70771345868707L893.9955900000001,343.30523033502203L894.6784600000001,343.9814565287282L895.3613300000001,344.3498541611868L896.72707,344.40377608321916L897.4099400000001,344.4405799715314L898.0928100000001,344.1527245561592L899.7999850000001,344.366584628898L900.482855,344.43464380991645L901.1657250000001,344.41847707292374L901.848595,344.1593181026789L902.531465,343.88611368555576L903.2143350000001,342.58763842781383L903.8972050000001,343.823075499696L904.92151,344.2910917129678L905.6043800000001,344.4247518304425L906.2872500000001,344.0760151571594L906.9701200000001,344.22849551650387L908.3358600000001,343.0503556927045L909.01873,343.65295091054094L909.7016000000001,343.69139388389885L910.725905,343.2474821607272L911.4087750000001,343.4275835926334L912.0916450000001,343.586347701028L912.7745150000001,343.8277903450653L913.457385,343.25757091430324L914.1402550000001,344.1600821092725L914.823125,344.03041401288164L915.5059950000001,343.0529573640476L916.5303000000001,343.60529491864145L917.21317,343.5334313167259L917.8960400000001,344.0819432209246L919.26178,343.8909687477474L919.94465,343.9695923763017L920.6275200000001,343.5770108802244L921.3103900000001,343.6197118634979L922.3346950000001,343.95159815158695L923.0175650000001,343.8800784529497L923.7004350000001,343.9187039562191L926.4319150000001,344.3263417989947L927.1147850000001,344.41832760923234L928.1390900000001,344.20158322465915L928.8219600000001,344.12785988952965L930.1877000000001,344.2765232070039L930.8705700000002,344.17379071113345L931.55344,344.26842816593125L932.2363100000001,344.45704508875497L932.9191800000001,344.50469221679185L934.6263550000001,343.98728333289426L935.3092250000001,343.5713140793766L935.9920950000001,344.23345862297964L936.674965,344.46384742848267L937.3578350000001,344.074935006133L938.040705,344.4384435435447L938.7235750000001,344.5863070980413L939.74788,344.0271659726277L940.4307500000001,344.46810766348307L941.1136200000001,344.48633234862547L941.7964900000001,344.33515182184055L942.47936,344.1473737012905L943.1622300000001,343.89019886838895L943.8451,344.2885837140493L944.5279700000001,344.1219071674471" style="fill: none;" fill="none"></path></g></g></g></g></g></g><g transform="translate(52, 376)" clip-path="url(#clip_1)"><clipPath id="clip_1"><rect width="1039" height="24"></rect></clipPath><g><g><line x1="0" y1="0" x2="0" y2="5" style="visibility: inherit;" fill="rgb(0, 0, 0)" stroke="rgb(204, 204, 204)" stroke-width="1px"></line><line x1="74.22500000000001" y1="0" x2="74.22500000000001" y2="5" style="visibility: inherit;" fill="rgb(0, 0, 0)" stroke="rgb(204, 204, 204)" stroke-width="1px"></line><line x1="148.45000000000002" y1="0" x2="148.45000000000002" y2="5" style="visibility: inherit;" fill="rgb(0, 0, 0)" stroke="rgb(204, 204, 204)" stroke-width="1px"></line><line x1="222.675" y1="0" x2="222.675" y2="5" style="visibility: inherit;" fill="rgb(0, 0, 0)" stroke="rgb(204, 204, 204)" stroke-width="1px"></line><line x1="296.90000000000003" y1="0" x2="296.90000000000003" y2="5" style="visibility: inherit;" fill="rgb(0, 0, 0)" stroke="rgb(204, 204, 204)" stroke-width="1px"></line><line x1="371.12500000000006" y1="0" x2="371.12500000000006" y2="5" style="visibility: inherit;" fill="rgb(0, 0, 0)" stroke="rgb(204, 204, 204)" stroke-width="1px"></line><line x1="445.35" y1="0" x2="445.35" y2="5" style="visibility: inherit;" fill="rgb(0, 0, 0)" stroke="rgb(204, 204, 204)" stroke-width="1px"></line><line x1="519.575" y1="0" x2="519.575" y2="5" style="visibility: inherit;" fill="rgb(0, 0, 0)" stroke="rgb(204, 204, 204)" stroke-width="1px"></line><line x1="593.8000000000001" y1="0" x2="593.8000000000001" y2="5" style="visibility: inherit;" fill="rgb(0, 0, 0)" stroke="rgb(204, 204, 204)" stroke-width="1px"></line><line x1="668.0250000000001" y1="0" x2="668.0250000000001" y2="5" style="visibility: inherit;" fill="rgb(0, 0, 0)" stroke="rgb(204, 204, 204)" stroke-width="1px"></line><line x1="742.2500000000001" y1="0" x2="742.2500000000001" y2="5" style="visibility: inherit;" fill="rgb(0, 0, 0)" stroke="rgb(204, 204, 204)" stroke-width="1px"></line><line x1="816.475" y1="0" x2="816.475" y2="5" style="visibility: inherit;" fill="rgb(0, 0, 0)" stroke="rgb(204, 204, 204)" stroke-width="1px"></line><line x1="890.7" y1="0" x2="890.7" y2="5" style="visibility: inherit;" fill="rgb(0, 0, 0)" stroke="rgb(204, 204, 204)" stroke-width="1px"></line><line x1="964.9250000000001" y1="0" x2="964.9250000000001" y2="5" style="visibility: inherit;" fill="rgb(0, 0, 0)" stroke="rgb(204, 204, 204)" stroke-width="1px"></line><line x1="1039.15" y1="0" x2="1039.15" y2="5" style="visibility: inherit;" fill="rgb(0, 0, 0)" stroke="rgb(204, 204, 204)" stroke-width="1px"></line></g><g transform="translate(0, 8)"><text x="0" y="0" dx="0em" dy="0.95em" style="text-anchor: middle; visibility: hidden; font-family: &quot;Helvetica Neue&quot;, sans-serif; font-size: 12px; font-weight: 200;" fill="rgb(50, 49, 63)" stroke="none" stroke-width="1px">-5k</text><text x="74.22500000000001" y="0" dx="0em" dy="0.95em" style="text-anchor: middle; visibility: inherit; font-family: &quot;Helvetica Neue&quot;, sans-serif; font-size: 12px; font-weight: 200;" fill="rgb(50, 49, 63)" stroke="none" stroke-width="1px">0</text><text x="148.45000000000002" y="0" dx="0em" dy="0.95em" style="text-anchor: middle; visibility: inherit; font-family: &quot;Helvetica Neue&quot;, sans-serif; font-size: 12px; font-weight: 200;" fill="rgb(50, 49, 63)" stroke="none" stroke-width="1px">5k</text><text x="222.675" y="0" dx="0em" dy="0.95em" style="text-anchor: middle; visibility: inherit; font-family: &quot;Helvetica Neue&quot;, sans-serif; font-size: 12px; font-weight: 200;" fill="rgb(50, 49, 63)" stroke="none" stroke-width="1px">10k</text><text x="296.90000000000003" y="0" dx="0em" dy="0.95em" style="text-anchor: middle; visibility: inherit; font-family: &quot;Helvetica Neue&quot;, sans-serif; font-size: 12px; font-weight: 200;" fill="rgb(50, 49, 63)" stroke="none" stroke-width="1px">15k</text><text x="371.12500000000006" y="0" dx="0em" dy="0.95em" style="text-anchor: middle; visibility: inherit; font-family: &quot;Helvetica Neue&quot;, sans-serif; font-size: 12px; font-weight: 200;" fill="rgb(50, 49, 63)" stroke="none" stroke-width="1px">20k</text><text x="445.35" y="0" dx="0em" dy="0.95em" style="text-anchor: middle; visibility: inherit; font-family: &quot;Helvetica Neue&quot;, sans-serif; font-size: 12px; font-weight: 200;" fill="rgb(50, 49, 63)" stroke="none" stroke-width="1px">25k</text><text x="519.575" y="0" dx="0em" dy="0.95em" style="text-anchor: middle; visibility: inherit; font-family: &quot;Helvetica Neue&quot;, sans-serif; font-size: 12px; font-weight: 200;" fill="rgb(50, 49, 63)" stroke="none" stroke-width="1px">30k</text><text x="593.8000000000001" y="0" dx="0em" dy="0.95em" style="text-anchor: middle; visibility: inherit; font-family: &quot;Helvetica Neue&quot;, sans-serif; font-size: 12px; font-weight: 200;" fill="rgb(50, 49, 63)" stroke="none" stroke-width="1px">35k</text><text x="668.0250000000001" y="0" dx="0em" dy="0.95em" style="text-anchor: middle; visibility: inherit; font-family: &quot;Helvetica Neue&quot;, sans-serif; font-size: 12px; font-weight: 200;" fill="rgb(50, 49, 63)" stroke="none" stroke-width="1px">40k</text><text x="742.2500000000001" y="0" dx="0em" dy="0.95em" style="text-anchor: middle; visibility: inherit; font-family: &quot;Helvetica Neue&quot;, sans-serif; font-size: 12px; font-weight: 200;" fill="rgb(50, 49, 63)" stroke="none" stroke-width="1px">45k</text><text x="816.475" y="0" dx="0em" dy="0.95em" style="text-anchor: middle; visibility: inherit; font-family: &quot;Helvetica Neue&quot;, sans-serif; font-size: 12px; font-weight: 200;" fill="rgb(50, 49, 63)" stroke="none" stroke-width="1px">50k</text><text x="890.7" y="0" dx="0em" dy="0.95em" style="text-anchor: middle; visibility: inherit; font-family: &quot;Helvetica Neue&quot;, sans-serif; font-size: 12px; font-weight: 200;" fill="rgb(50, 49, 63)" stroke="none" stroke-width="1px">55k</text><text x="964.9250000000001" y="0" dx="0em" dy="0.95em" style="text-anchor: middle; visibility: inherit; font-family: &quot;Helvetica Neue&quot;, sans-serif; font-size: 12px; font-weight: 200;" fill="rgb(50, 49, 63)" stroke="none" stroke-width="1px">60k</text><text x="1039.15" y="0" dx="0em" dy="0.95em" style="text-anchor: middle; visibility: hidden; font-family: &quot;Helvetica Neue&quot;, sans-serif; font-size: 12px; font-weight: 200;" fill="rgb(50, 49, 63)" stroke="none" stroke-width="1px">65k</text></g><line x1="0" y1="0" x2="1039.15" y2="0" fill="rgb(0, 0, 0)" stroke="rgb(204, 204, 204)" stroke-width="1px"></line></g></g></g></g></svg>