<svg viewBox="0 0 1091.4000244140625 400" xmlns="http://www.w3.org/2000/svg"><g><g><g><g><g><line x1="52.25" y1="376" x2="47.25" y2="376" style="visibility: inherit;" fill="rgb(0, 0, 0)" stroke="rgb(204, 204, 204)" stroke-width="1px"></line><line x1="52.25" y1="347.0769230769231" x2="47.25" y2="347.0769230769231" style="visibility: inherit;" fill="rgb(0, 0, 0)" stroke="rgb(204, 204, 204)" stroke-width="1px"></line><line x1="52.25" y1="318.15384615384613" x2="47.25" y2="318.15384615384613" style="visibility: inherit;" fill="rgb(0, 0, 0)" stroke="rgb(204, 204, 204)" stroke-width="1px"></line><line x1="52.25" y1="289.2307692307692" x2="47.25" y2="289.2307692307692" style="visibility: inherit;" fill="rgb(0, 0, 0)" stroke="rgb(204, 204, 204)" stroke-width="1px"></line><line x1="52.25" y1="260.3076923076923" x2="47.25" y2="260.3076923076923" style="visibility: inherit;" fill="rgb(0, 0, 0)" stroke="rgb(204, 204, 204)" stroke-width="1px"></line><line x1="52.25" y1="231.3846153846154" x2="47.25" y2="231.3846153846154" style="visibility: inherit;" fill="rgb(0, 0, 0)" stroke="rgb(204, 204, 204)" stroke-width="1px"></line><line x1="52.25" y1="202.46153846153848" x2="47.25" y2="202.46153846153848" style="visibility: inherit;" fill="rgb(0, 0, 0)" stroke="rgb(204, 204, 204)" stroke-width="1px"></line><line x1="52.25" y1="173.53846153846155" x2="47.25" y2="173.53846153846155" style="visibility: inherit;" fill="rgb(0, 0, 0)" stroke="rgb(204, 204, 204)" stroke-width="1px"></line><line x1="52.25" y1="144.61538461538464" x2="47.25" y2="144.61538461538464" style="visibility: inherit;" fill="rgb(0, 0, 0)" stroke="rgb(204, 204, 204)" stroke-width="1px"></line><line x1="52.25" y1="115.69230769230768" x2="47.25" y2="115.69230769230768" style="visibility: inherit;" fill="rgb(0, 0, 0)" stroke="rgb(204, 204, 204)" stroke-width="1px"></line><line x1="52.25" y1="86.76923076923077" x2="47.25" y2="86.76923076923077" style="visibility: inherit;" fill="rgb(0, 0, 0)" stroke="rgb(204, 204, 204)" stroke-width="1px"></line><line x1="52.25" y1="57.84615384615387" x2="47.25" y2="57.84615384615387" style="visibility: inherit;" fill="rgb(0, 0, 0)" stroke="rgb(204, 204, 204)" stroke-width="1px"></line><line x1="52.25" y1="28.923076923076906" x2="47.25" y2="28.923076923076906" style="visibility: inherit;" fill="rgb(0, 0, 0)" stroke="rgb(204, 204, 204)" stroke-width="1px"></line><line x1="52.25" y1="0" x2="47.25" y2="0" style="visibility: inherit;" fill="rgb(0, 0, 0)" stroke="rgb(204, 204, 204)" stroke-width="1px"></line></g><g transform="translate(42.25, 0)"><text x="0" y="376" dx="0em" dy="0.3em" style="text-anchor: end; visibility: hidden; font-family: &quot;Helvetica Neue&quot;, sans-serif; font-size: 12px; font-weight: 200;" fill="rgb(50, 49, 63)" stroke="none" stroke-width="1px">-0.1</text><text x="0" y="347.0769230769231" dx="0em" dy="0.3em" style="text-anchor: end; visibility: inherit; font-family: &quot;Helvetica Neue&quot;, sans-serif; font-size: 12px; font-weight: 200;" fill="rgb(50, 49, 63)" stroke="none" stroke-width="1px">0</text><text x="0" y="318.15384615384613" dx="0em" dy="0.3em" style="text-anchor: end; visibility: inherit; font-family: &quot;Helvetica Neue&quot;, sans-serif; font-size: 12px; font-weight: 200;" fill="rgb(50, 49, 63)" stroke="none" stroke-width="1px">0.1</text><text x="0" y="289.2307692307692" dx="0em" dy="0.3em" style="text-anchor: end; visibility: inherit; font-family: &quot;Helvetica Neue&quot;, sans-serif; font-size: 12px; font-weight: 200;" fill="rgb(50, 49, 63)" stroke="none" stroke-width="1px">0.2</text><text x="0" y="260.3076923076923" dx="0em" dy="0.3em" style="text-anchor: end; visibility: inherit; font-family: &quot;Helvetica Neue&quot;, sans-serif; font-size: 12px; font-weight: 200;" fill="rgb(50, 49, 63)" stroke="none" stroke-width="1px">0.3</text><text x="0" y="231.3846153846154" dx="0em" dy="0.3em" style="text-anchor: end; visibility: inherit; font-family: &quot;Helvetica Neue&quot;, sans-serif; font-size: 12px; font-weight: 200;" fill="rgb(50, 49, 63)" stroke="none" stroke-width="1px">0.4</text><text x="0" y="202.46153846153848" dx="0em" dy="0.3em" style="text-anchor: end; visibility: inherit; font-family: &quot;Helvetica Neue&quot;, sans-serif; font-size: 12px; font-weight: 200;" fill="rgb(50, 49, 63)" stroke="none" stroke-width="1px">0.5</text><text x="0" y="173.53846153846155" dx="0em" dy="0.3em" style="text-anchor: end; visibility: inherit; font-family: &quot;Helvetica Neue&quot;, sans-serif; font-size: 12px; font-weight: 200;" fill="rgb(50, 49, 63)" stroke="none" stroke-width="1px">0.6</text><text x="0" y="144.61538461538464" dx="0em" dy="0.3em" style="text-anchor: end; visibility: inherit; font-family: &quot;Helvetica Neue&quot;, sans-serif; font-size: 12px; font-weight: 200;" fill="rgb(50, 49, 63)" stroke="none" stroke-width="1px">0.7</text><text x="0" y="115.69230769230768" dx="0em" dy="0.3em" style="text-anchor: end; visibility: inherit; font-family: &quot;Helvetica Neue&quot;, sans-serif; font-size: 12px; font-weight: 200;" fill="rgb(50, 49, 63)" stroke="none" stroke-width="1px">0.8</text><text x="0" y="86.76923076923077" dx="0em" dy="0.3em" style="text-anchor: end; visibility: inherit; font-family: &quot;Helvetica Neue&quot;, sans-serif; font-size: 12px; font-weight: 200;" fill="rgb(50, 49, 63)" stroke="none" stroke-width="1px">0.9</text><text x="0" y="57.84615384615387" dx="0em" dy="0.3em" style="text-anchor: end; visibility: inherit; font-family: &quot;Helvetica Neue&quot;, sans-serif; font-size: 12px; font-weight: 200;" fill="rgb(50, 49, 63)" stroke="none" stroke-width="1px">1</text><text x="0" y="28.923076923076906" dx="0em" dy="0.3em" style="text-anchor: end; visibility: inherit; font-family: &quot;Helvetica Neue&quot;, sans-serif; font-size: 12px; font-weight: 200;" fill="rgb(50, 49, 63)" stroke="none" stroke-width="1px">1.1</text><text x="0" y="0" dx="0em" dy="0.3em" style="text-anchor: end; visibility: hidden; font-family: &quot;Helvetica Neue&quot;, sans-serif; font-size: 12px; font-weight: 200;" fill="rgb(50, 49, 63)" stroke="none" stroke-width="1px">1.2</text></g><line x1="52.25" y1="0" x2="52.25" y2="376" fill="rgb(0, 0, 0)" stroke="rgb(204, 204, 204)" stroke-width="1px"></line></g></g><g transform="translate(52, 0)" clip-path="url(#clip_0)"><clipPath id="clip_0"><rect width="1039" height="376"></rect></clipPath><g><g><g><line x1="0" y1="0" x2="0" y2="376" fill="rgb(0, 0, 0)" stroke="rgb(60, 60, 60)" stroke-width="1px" opacity="0.25"></line><line x1="74.22500000000001" y1="0" x2="74.22500000000001" y2="376" fill="rgb(0, 0, 0)" stroke="rgb(60, 60, 60)" stroke-width="1px" opacity="0.25"></line><line x1="148.45000000000002" y1="0" x2="148.45000000000002" y2="376" fill="rgb(0, 0, 0)" stroke="rgb(60, 60, 60)" stroke-width="1px" opacity="0.25"></line><line x1="222.675" y1="0" x2="222.675" y2="376" fill="rgb(0, 0, 0)" stroke="rgb(60, 60, 60)" stroke-width="1px" opacity="0.25"></line><line x1="296.90000000000003" y1="0" x2="296.90000000000003" y2="376" fill="rgb(0, 0, 0)" stroke="rgb(60, 60, 60)" stroke-width="1px" opacity="0.25"></line><line x1="371.12500000000006" y1="0" x2="371.12500000000006" y2="376" fill="rgb(0, 0, 0)" stroke="rgb(60, 60, 60)" stroke-width="1px" opacity="0.25"></line><line x1="445.35" y1="0" x2="445.35" y2="376" fill="rgb(0, 0, 0)" stroke="rgb(60, 60, 60)" stroke-width="1px" opacity="0.25"></line><line x1="519.575" y1="0" x2="519.575" y2="376" fill="rgb(0, 0, 0)" stroke="rgb(60, 60, 60)" stroke-width="1px" opacity="0.25"></line><line x1="593.8000000000001" y1="0" x2="593.8000000000001" y2="376" fill="rgb(0, 0, 0)" stroke="rgb(60, 60, 60)" stroke-width="1px" opacity="0.25"></line><line x1="668.0250000000001" y1="0" x2="668.0250000000001" y2="376" fill="rgb(0, 0, 0)" stroke="rgb(60, 60, 60)" stroke-width="1px" opacity="0.25"></line><line x1="742.2500000000001" y1="0" x2="742.2500000000001" y2="376" fill="rgb(0, 0, 0)" stroke="rgb(60, 60, 60)" stroke-width="1px" opacity="0.25"></line><line x1="816.475" y1="0" x2="816.475" y2="376" fill="rgb(0, 0, 0)" stroke="rgb(60, 60, 60)" stroke-width="1px" opacity="0.25"></line><line x1="890.7" y1="0" x2="890.7" y2="376" fill="rgb(0, 0, 0)" stroke="rgb(60, 60, 60)" stroke-width="1px" opacity="0.25"></line><line x1="964.9250000000001" y1="0" x2="964.9250000000001" y2="376" fill="rgb(0, 0, 0)" stroke="rgb(60, 60, 60)" stroke-width="1px" opacity="0.25"></line><line x1="1039.15" y1="0" x2="1039.15" y2="376" fill="rgb(0, 0, 0)" stroke="rgb(60, 60, 60)" stroke-width="1px" opacity="0.25"></line></g><g><line x1="0" y1="376" x2="1039.15" y2="376" fill="rgb(0, 0, 0)" stroke="rgb(60, 60, 60)" stroke-width="1px" opacity="0.25"></line><line x1="0" y1="347.0769230769231" x2="1039.15" y2="347.0769230769231" fill="rgb(0, 0, 0)" stroke="rgb(60, 60, 60)" stroke-width="1px" opacity="0.25"></line><line x1="0" y1="318.15384615384613" x2="1039.15" y2="318.15384615384613" fill="rgb(0, 0, 0)" stroke="rgb(60, 60, 60)" stroke-width="1px" opacity="0.25"></line><line x1="0" y1="289.2307692307692" x2="1039.15" y2="289.2307692307692" fill="rgb(0, 0, 0)" stroke="rgb(60, 60, 60)" stroke-width="1px" opacity="0.25"></line><line x1="0" y1="260.3076923076923" x2="1039.15" y2="260.3076923076923" fill="rgb(0, 0, 0)" stroke="rgb(60, 60, 60)" stroke-width="1px" opacity="0.25"></line><line x1="0" y1="231.3846153846154" x2="1039.15" y2="231.3846153846154" fill="rgb(0, 0, 0)" stroke="rgb(60, 60, 60)" stroke-width="1px" opacity="0.25"></line><line x1="0" y1="202.46153846153848" x2="1039.15" y2="202.46153846153848" fill="rgb(0, 0, 0)" stroke="rgb(60, 60, 60)" stroke-width="1px" opacity="0.25"></line><line x1="0" y1="173.53846153846155" x2="1039.15" y2="173.53846153846155" fill="rgb(0, 0, 0)" stroke="rgb(60, 60, 60)" stroke-width="1px" opacity="0.25"></line><line x1="0" y1="144.61538461538464" x2="1039.15" y2="144.61538461538464" fill="rgb(0, 0, 0)" stroke="rgb(60, 60, 60)" stroke-width="1px" opacity="0.25"></line><line x1="0" y1="115.69230769230768" x2="1039.15" y2="115.69230769230768" fill="rgb(0, 0, 0)" stroke="rgb(60, 60, 60)" stroke-width="1px" opacity="0.25"></line><line x1="0" y1="86.76923076923077" x2="1039.15" y2="86.76923076923077" fill="rgb(0, 0, 0)" stroke="rgb(60, 60, 60)" stroke-width="1px" opacity="0.25"></line><line x1="0" y1="57.84615384615387" x2="1039.15" y2="57.84615384615387" fill="rgb(0, 0, 0)" stroke="rgb(60, 60, 60)" stroke-width="1px" opacity="0.25"></line><line x1="0" y1="28.923076923076906" x2="1039.15" y2="28.923076923076906" fill="rgb(0, 0, 0)" stroke="rgb(60, 60, 60)" stroke-width="1px" opacity="0.25"></line><line x1="0" y1="0" x2="1039.15" y2="0" fill="rgb(0, 0, 0)" stroke="rgb(60, 60, 60)" stroke-width="1px" opacity="0.25"></line></g></g></g><g><g><line x1="0" y1="347.0769230769231" x2="1039.15" y2="347.0769230769231" fill="rgb(0, 0, 0)" stroke="rgb(153, 153, 153)" stroke-width="1.5px"></line></g></g><g><g><line x1="74.22500000000001" y1="0" x2="74.22500000000001" y2="376" fill="rgb(0, 0, 0)" stroke="rgb(153, 153, 153)" stroke-width="1.5px"></line></g></g><g><g><g><g><g><path stroke="rgb(255, 112, 67)" stroke-width="2px" d="M74.89302500000001,319.32295084916626L75.57589500000002,318.5861199211616L76.941635,319.53848656417813L78.30737500000001,319.2136907025295L78.990245,319.0480245274346L79.67311500000001,318.85422045434444L80.69742000000001,318.52153018605594L81.38029,318.1481180178803L82.06316,318.12661392778904L82.74603,318.33130260857087L83.4289,317.3489801199708L84.11177000000002,317.4707737038739L84.79464000000002,316.95344410984285L85.47751000000001,316.50582937125483L86.50181500000001,316.63064691090653L87.18468500000002,316.8430805582057L87.86755500000001,316.6757200092196L88.550425,316.00544769465336L89.23329500000001,315.6622776183378L89.916165,315.9083285568865L90.599035,316.52753550143876L91.28190500000001,316.447121949318L92.30621000000001,315.3378293642231L92.98908,315.30102479108825L94.35482000000002,315.6129738834052L96.40343000000001,314.817699211501L97.08630000000001,313.6724747669284L98.110605,313.2014777320486L98.793475,311.5434621036563L99.47634500000001,310.45040864890746L100.84208500000001,308.7531885577565L101.524955,306.2022479794284L102.207825,303.39450933860775L102.89069500000001,300.3933944054355L103.91500000000002,298.8678092672406L105.28074000000001,296.67528382516537L105.96361000000002,294.7703036128482L106.64648000000001,293.8631018218274L107.32935,293.77070382730085L108.01222000000001,293.20439494013596L108.69509000000001,291.62673440250876L110.402265,289.50120816438005L111.08513500000001,286.811176178005L112.45087500000001,284.214715964661L113.13374500000002,283.7768227398792L113.81661500000001,282.9835688600833L114.499485,282.38972250628376L115.52379000000002,281.2278129871285L116.20666000000001,279.84295787077076L117.57240000000002,277.75452174111297L118.25527000000001,276.63900022035443L118.93814,273.94585997518016L119.62101000000001,272.5264612741305L120.30388,272.6572630753493L121.328185,271.8711971601833L122.01105500000001,270.33852172123807L122.69392500000002,269.16348227489726L123.37679500000002,267.84934234627076L124.05966500000001,265.84263276324987L124.74253500000002,263.4989728076925L126.108275,261.48366402143563L127.13258,258.997304386912L127.81545000000001,256.52304758435196L128.49832,255.7262046316377L129.18119000000002,253.97092449723965L129.86406,251.75847607978062L130.54693,249.84154034745805L131.2298,248.8092729340138L131.91267,248.15061332799766L133.619845,245.65299191577208L134.302715,244.37055754136063L135.668455,242.0684883709702L136.35132500000003,241.9054759424805L137.034195,240.27505649174378L137.71706500000002,239.3754031372009L138.74137000000002,237.75492565565477L139.42424000000003,236.76298958775226L140.78998,234.75310997931717L141.47285000000002,234.4313822370269L142.15572000000003,232.62713873001005L142.83859,233.47017895944157L143.52146000000002,231.85393131740923L144.54576500000002,231.2968066511633L145.22863500000003,229.80325151459562L146.594375,229.9485047435258L147.27724500000002,226.85254901134704L147.960115,224.58234820516685L148.642985,224.14372345427972L149.32585500000002,222.8784580029267L150.35016000000002,221.2940474462685L151.03303,219.63604385237647L151.7159,219.56473742886223L153.08164,219.4630048378293L153.76451,218.3605789723387L154.44738,216.79527729919815L155.13025000000002,215.48276808639054L156.15455500000002,213.96825571983408L156.83742500000002,212.96130385292565L157.52029500000003,212.6518660737042L158.203165,213.09496579806864L158.88603500000002,213.2232854756627L159.56890500000003,211.98380376149998L160.251775,212.55658825372146L160.93464500000002,211.4265956923358L161.95895000000002,209.68756426565875L162.64182000000002,210.39288898042048L163.32469,208.63506329266184L164.00756,206.34249267518675L164.69043000000002,205.98869048449723L165.3733,206.38552198300602L166.05617,207.38992687893278L166.73904000000002,207.32450826664189L168.446215,205.55615965957477L169.129085,203.41446502651414L171.177695,199.67334396811327L171.860565,198.64689695891786L173.56774000000001,197.46121509842766L174.25061000000002,195.86560595936274L175.61635000000004,196.20506441766804L176.98209000000003,194.09017881901093L177.66496000000004,193.31246969468933L178.34783000000002,193.00303395609583L179.37213500000001,191.40265799314554L180.05500500000002,190.54067686234993L180.73787500000003,189.72875484294897L182.10361500000002,188.43599992443677L182.78648500000003,187.05123416040686L183.469355,187.12422085583512L184.15222500000002,187.1876590041674L185.85940000000002,184.1998039596293L186.54227,184.3326738186487L187.22514,180.6201752516009L187.90801000000002,180.88807265208732L188.59088,179.14287433771236L189.27375,178.92101008283325L189.95662000000002,180.43839410159862L191.663795,178.79447578731885L192.346665,177.59198977372654L193.71240500000002,174.72877335900571L194.39527500000003,174.87748110689046L195.76101500000001,174.82916215069716L196.78532,173.3068648370867L197.46819000000002,172.4524317379454L198.83393,173.62956671230413L199.51680000000002,173.09797593999895L200.19967000000003,171.40359921897232L201.56541,169.3652364544603L202.589715,167.74924100785498L203.27258500000002,169.1375035714817L203.95545500000003,167.88768848791605L205.32119500000002,165.66413273315865L206.00406500000003,165.8822574050225L206.686935,165.40401939521828L207.369805,165.45110908820897L208.39411,164.41832701415774L209.07698000000002,163.11094664090524L209.75985,163.2303645707999L210.44272,162.5946580688396L211.12559000000002,162.62585808663695L212.49133000000003,163.48947896213656L213.17420000000004,161.78733526077053L215.56424500000003,160.21588151605326L218.29572500000003,159.09616650634922L218.978595,157.7562793985793L220.68577000000002,156.10744626909613L221.36864000000003,156.23812757027682L222.05151,154.74463209519152L223.41725000000002,152.80714505137013L224.10012,154.19900155061623L224.78299,153.83553595539416L225.807295,153.26377796831238L226.49016500000002,153.2547556749365L228.53877500000002,152.1293611200404L229.221645,152.8688389068969L229.904515,150.77782298454719L230.587385,150.1323262440599L231.61169000000004,148.0748794969994L232.29456000000002,146.34918921389036L232.97743000000003,144.58677165305255L233.66030000000003,146.08366984208882L234.34317000000004,147.19794378053498L235.02604000000002,146.70722780678253L235.70891000000003,146.90402045740373L236.39178000000004,148.456456698646L238.09895500000002,145.16342101508414L238.78182500000003,143.9539021538691L239.46469500000003,143.99450028186095L240.83043500000002,142.40765574491286L241.51330500000003,141.14116265494616L242.196175,143.62332665532685L243.22048,140.9863720742226L243.90335000000002,139.67927963960946L244.58622000000003,140.32939172550994L245.26909,140.24788287325293L246.63483000000002,138.9218066470287L247.3177,138.30300367416785L249.024875,136.45805518583333L249.70774500000005,135.41003138185755L250.39061500000003,135.52787351731877L251.75635500000004,134.89122153869846L252.43922500000002,135.00045258639895L253.12209500000003,134.59442200702077L253.80496500000004,135.80481044133876L254.82927000000004,133.03355636039373L255.51214000000002,131.80307396187553L256.19501,131.00583923373964L256.87788,130.6846881328576L257.56075000000004,130.0007821332546L258.24362,131.28023336733634L258.92649,131.71387850471106L259.60936000000004,130.12707412149402L260.633665,128.95885646653937L261.999405,128.78844037058997L262.682275,128.56830013497043L263.36514500000004,127.43412539277801L264.048015,127.34308722930976L265.41375500000004,127.52424548732859L266.43806000000006,125.2947336374242L267.12093000000004,123.2496692675845L268.48667000000006,122.90682377265259L269.85241,123.05479510564197L271.21815000000004,123.39901208840962L272.242455,123.05537475417256L272.925325,121.49342312286112L273.608195,119.51486928110285L274.291065,119.60490789091801L275.656805,118.51929685106222L276.339675,118.24126188397156L277.022545,118.21198450864131L278.04685,116.8582949837492L278.72972000000004,116.36046074081298L279.41259,114.70599096428197L280.09546,115.81573474697927L280.77833000000004,116.34403741167353L284.53411500000004,115.44279338464497L285.89985500000006,114.13574441950578L286.58272500000004,113.68554064349661L287.94846500000006,112.51157222404493L288.63133500000004,111.72859975227368L289.65564,108.52762478079819L290.33851,106.58739366683756L291.02138,107.19164814820385L291.70425,106.9450880241011L292.38712,108.89957759825535L293.06999,107.43933119710869L293.75286,106.75967225036965L294.43573,108.08097087411943L295.460035,105.31731072200961L297.508645,103.4429796057193L298.19151500000004,103.47766127276526L298.874385,104.89353866171166L299.557255,103.44415055251454L300.24012500000003,104.08747665376501L301.94730000000004,102.52823640189877L302.63017,102.12321364360133L303.31304000000006,100.46548546882866L303.99591000000004,100.74801947883515L304.67878,100.56386125489047L305.36165000000005,100.6302090833974L306.04452000000003,100.3556314127037L307.068825,97.55794466464823L307.751695,95.7024898529412L308.434565,97.3007554274555L309.117435,95.96080712539799L309.800305,95.90348766621122L310.483175,96.94978490741903L311.166045,97.63650854116867L311.848915,97.47872906644545L312.87322,94.49568015719939L314.23896,93.78653972837162L314.92183000000006,93.00737684112642L316.28757,93.44372526262549L317.65331000000003,93.48939239470155L319.36048500000004,90.25509358431009L320.0433550000001,89.98466300084334L320.72622500000006,88.46663541999408L321.40909500000004,88.20423084235665L322.0919650000001,89.8151812455169L322.77483500000005,90.40841983059028L323.45770500000003,90.44998350963533L324.48201,89.47283111624165L325.16488000000004,88.10059100020811L325.84775,87.27724693058803L326.53062,87.47094472183875L327.21349000000004,86.27069332376959L327.89636,86.47403476984954L328.57923,86.69428408447209L329.26210000000003,86.62995167509541L330.28640500000006,84.1745402130557L330.96927500000004,83.09427112372998L331.652145,81.8959421462369L332.33501500000006,81.37343365369014L333.01788500000004,82.00307386995786L333.700755,82.45945631561762L334.38362500000005,84.32483616988247L335.06649500000003,83.53812732777459L336.09080000000006,80.90473108486901L336.77367000000004,79.71767112702383L337.4565400000001,79.71279241221379L338.13941000000005,81.12457970312192L338.82228000000003,80.61588284689753L339.50515000000007,82.41309038177883L340.18802000000005,81.64442343706571L340.87089000000003,81.32076687516201L341.895195,78.37573531853167L343.260935,79.53639676691535L343.943805,78.64123635327758L345.309545,77.9665965001708L345.992415,78.07268095425474L346.67528500000003,77.50757268270718L347.69959000000006,76.14677098788269L348.38246000000004,75.19274636606383L349.06533,74.36489740999849L349.74820000000005,75.59728202815245L351.11394,75.55075722324852L351.79681000000005,75.22811589518142L353.503985,73.16788660582506L354.18685500000004,72.0299934791858L354.8697250000001,70.89533452627916L355.55259500000005,71.0987391773059L356.23546500000003,72.3014708846419L357.60120500000005,72.8069679882201L358.28407500000003,74.81971411108486L359.30838,72.68706437926738L359.99125000000004,71.64325569627658L361.35699,70.89907990843227L362.03986000000003,69.39153854588005L362.72273,70.15716243111689L363.4056,71.14705815508125L364.08847000000003,72.05537506145885L365.79564500000004,69.71199087667213L366.478515,69.66172959656927L367.16138500000005,69.17964975158452L368.527125,70.18721889053904L369.20999500000005,70.71316895381153L370.91717,68.7691236071596L372.28291,68.34935281701507L372.96578000000005,67.31153476713212L373.64865000000003,66.84603367320182L375.01439000000005,68.00110056351207L375.69726,67.9474842798515L376.721565,66.97216919785944L378.087305,66.21014428158946L378.77017500000005,65.79222159397807L379.45304500000003,67.38845944705315L380.135915,68.14971326494913L380.81878500000005,67.62402798174031L381.501655,67.40686125878949L382.52596000000005,66.01903644122439L383.89170000000007,65.04879794576112L385.25744000000003,65.42944629135428L386.62318000000005,66.75817034650544L388.330355,65.68876718287885L390.378965,64.98817999567797L391.06183500000003,64.15519686858505L392.42757500000005,64.9915300920232L393.1104450000001,65.67016589316086L394.13475000000005,64.78053032789813L394.81762000000003,64.08955235694208L395.50049,63.537428865243214L396.86623000000003,63.579479531247785L397.5491,62.81876125085313L398.23197000000005,63.36441398763816L398.91484,65.89247572529956L399.93914500000005,66.13214185302644L400.62201500000003,65.15596035079199L401.30488500000007,64.17727366155316L401.98775500000005,64.17952143405819L402.67062500000003,64.16122396648586L403.35349500000007,63.54113267301989L404.03636500000005,63.73889155191324L404.719235,65.13472468991824L406.42641000000003,64.16453226502892L407.10928,63.83785099306931L407.79215,63.582896940868636L408.47502000000003,63.01729369477579L409.15789,64.131945424864L409.84076,65.35090398681439L410.5236300000001,64.68721763106475L411.54793500000005,63.522696372894075L412.23080500000003,62.70609303994172L412.913675,62.15718575114539L413.59654500000005,62.4173080597148L414.27941500000003,62.69127202290639L414.962285,62.56091705989758L415.64515500000005,62.44340492414284L416.328025,62.215707906690454L417.35233000000005,62.76680082504083L418.03520000000003,62.15431126425523L418.71807000000007,61.590328633834815L419.40094000000005,61.15369460860808L420.76668000000006,62.20818426629165L421.44955000000004,62.349662721828L424.522465,62.53279424212434L425.205335,63.133888493375935L425.888205,62.80684081110405L426.571075,62.94463780481527L427.253945,63.43993992001543L427.936815,64.20869729293287L428.96112000000005,63.23558417001493L429.64399000000003,62.612424034113474L431.00973000000005,61.39362708775138L431.6926,60.9570822608577L432.37547,60.8719912317963L434.76551500000005,61.19426827118224L435.44838500000003,61.17149257399052L436.81412500000005,61.118527997725835L438.86273500000004,60.4776364390446L439.545605,60.28959039778482L440.56991,60.196415799903264L441.25278000000003,60.27804775029949L441.93565,60.26808163151236L442.61852000000005,59.96736861931646L443.30139,59.944130547998384L443.98426,59.753351838132744L444.66713000000004,59.776428217137436L445.35,59.908164622590164L446.37430500000005,59.86931588781192L447.74004500000007,60.415820301917904L448.42291500000005,60.625832372331615L449.105785,60.65359516760532L449.78865500000006,60.49341008189583L450.47152500000004,60.20081013652111L451.154395,60.044903196170424L452.17870000000005,59.91205987401048L453.54444000000007,59.67516414471504L454.22731000000005,59.6116181272381L454.9101800000001,59.534198254601165L455.59305000000006,59.68422832916923L460.03170500000004,60.59950110765584L461.397445,60.97182201187417L462.08031500000004,60.6450470305075L462.763185,59.85952225563932L463.78749000000005,59.78117828281745L464.47036,59.753824925998686L465.15323000000006,59.59986930698335L465.83610000000004,59.35030619957462L466.51897,59.318458913179256L467.20184000000006,59.12251467426722L467.88471000000004,59.299681471843655L468.56758,59.66141573336347L469.59188500000005,60.29108020924883L470.2747550000001,60.02046692390792L470.95762500000006,59.720555347779225L471.64049500000004,59.79604258507601L472.3233650000001,59.58590074448006L473.00623500000006,59.79384813899577L474.3719750000001,59.781072970781054L475.39628000000005,59.576918975903084L476.07915,59.90634965589942L477.44489000000004,59.848573880923254L478.12776,59.73531699583714L478.81063,59.92279704775956L479.49350000000004,60.58545260281062L480.17637,60.550768989993514L481.20067500000005,59.90119987830536L481.883545,59.491805384418285L482.56641500000006,59.40335842408541L483.24928500000004,59.88081164070803L483.932155,59.813604940733L484.61502500000006,60.068014261671635L485.29789500000004,60.12241540726029L485.980765,59.86032275368984L487.00507000000005,59.44763297857355L487.6879400000001,59.2000191135038L488.37081000000006,59.11039608348693L489.05368000000004,59.17451284352666L489.7365500000001,59.42912482037383L490.41942000000006,59.97486289858131L491.10229000000004,60.32195877238007L492.80946500000005,59.980048772761734L493.492335,59.89279335104061L494.175205,59.82079396693257L494.85807500000004,59.463214864468796L495.540945,59.30761269201548L496.223815,59.057061652544064L496.90668500000004,59.12286605388556L497.589555,60.04654871746129L498.61386000000005,59.873748028835394L499.29673,59.55393259063544L499.97960000000006,59.362043327715526L500.66247000000004,58.93253029796455L501.34534,58.91060363621369L502.02821000000006,59.29042542706139L503.39395,59.40042792352011L504.418255,59.82010805134382L505.1011250000001,59.855774207214836L506.4668650000001,59.719984164737866L507.1497350000001,60.542356293097896L507.83260500000006,60.40702062611604L508.5154750000001,60.22757477895243L509.1983450000001,60.021662823679605L510.22265000000004,59.89811565051599L510.90552,59.33276511174512L511.58839000000006,59.072153104381755L512.27126,58.83718758406462L512.9541300000001,58.85339800787375L513.6370000000001,59.76697041600545L514.31987,60.02038051996084L516.027045,59.60261292736112L517.392785,59.56808739682572L518.0756550000001,59.291937895530396L518.7585250000001,59.244145668602016L520.807135,59.372660068444475L523.88005,59.27292594547623L524.5629200000001,59.11484102472076L525.24579,59.01999007226749L525.92866,59.08097697464433L526.61153,59.11756911607034L527.635835,59.080572216102155L528.318705,59.33346128596952L529.0015750000001,59.28870583394087L531.050185,59.261852562723675L531.733055,59.50117478296738L532.415925,59.54652366813906L533.44023,59.77022189319109L534.80597,59.86514167027275L535.4888400000001,60.236473008520704L536.17171,59.86981202542114L537.53745,59.47297267268766L538.22032,59.39205879704707L539.244625,59.20597376253755L539.9274950000001,59.172914161932056L540.610365,59.07448698146851L541.2932350000001,58.97613151524081L541.9761050000001,59.07430797150363L542.658975,58.995670240337176L543.341845,59.51830815240913L544.0247150000001,59.43891311175429L545.04902,59.50916666541116L545.7318900000001,59.61026408663025L546.41476,59.297597778337774L547.0976300000001,59.07069883541277L547.7805000000001,58.973858627607285L548.46337,58.91575450292402L550.853415,59.13632621108815L551.536285,59.42585897198609L552.2191550000001,59.678176944424024L552.902025,59.5348343869631L553.5848950000001,60.15618611238369L554.267765,59.762694598714006L554.950635,59.44800137461306L555.633505,59.337783756051635L556.65781,59.7432223929132L557.34068,59.61316081400628L558.0235500000001,59.20109136778893L558.70642,58.99314885800811L559.3892900000001,58.84873032526531L560.07216,58.60488946962022L561.4379,58.71401913920715L562.4622050000002,58.75985080988397L563.145075,58.92489341721421L563.8279450000001,59.16145569073751L564.5108150000001,59.20514860787705L565.1936850000001,59.093827649035404L565.876555,58.987735915780945L566.5594250000001,58.9437270069036L567.242295,58.995919977476376L568.2666,58.811093838996726L568.94947,58.66090589375824L569.63234,58.72798286261457L570.3152100000001,58.88611962197837L570.99808,59.17749057154555L571.68095,59.23442256323608L572.36382,59.111392022250925L573.04669,58.93932925068532L574.070995,58.73784714077135L574.7538650000001,58.950983477897296L575.436735,58.94132857104762L576.8024750000001,58.876583442114L578.168215,58.916334680652994L579.87539,58.743696529827275L581.9240000000001,58.659759770407334L582.6068700000001,58.94343021362852L583.28974,59.29047524243492L583.97261,59.30221336576966L584.6554800000001,59.446792948895734L585.679785,59.31740567374703L586.362655,58.94503996773415L587.0455250000001,58.977054727100494L587.728395,58.996263582720246L588.4112650000001,59.20427779004115L589.094135,59.07365213145971L589.777005,59.11317421015963L590.459875,59.60845666537796L592.8499200000001,59.13932358958698L593.53279,58.877489875187734L594.2156600000001,58.740035777623575L595.5814,58.5593257679094L596.26427,58.47054589315627L597.288575,58.37797881035476L597.971445,58.283139402724316L598.654315,58.560268257019175L599.3371850000001,58.647947253696884L600.0200550000001,58.680908520628236L600.702925,58.81857585883688L601.3857950000001,58.60644981663745L603.09297,58.36127671746891L603.7758400000001,58.29277117386704L604.45871,58.21236868975626L605.1415800000001,58.20342635723949L605.8244500000001,58.17840793085509L607.19019,58.14375074394911L607.8730600000001,58.12295643180556L608.897365,58.24802344944351L609.5802350000001,58.283764502076735L610.263105,58.344508291606246L610.9459750000001,59.0097135093219L611.6288450000001,58.95691356302814L612.311715,58.70909857022747L612.994585,58.54076344347175L613.6774550000001,58.3611640515191L614.70176,58.4498933102966L615.38463,58.46383170761351L616.0675000000001,58.55079306190288L616.75037,58.81910489950087L618.11611,59.13728173805913L618.79898,58.915563922220656L619.4818500000001,58.723587943692564L620.506155,58.45121262057626L621.189025,58.346732715731434L621.8718950000001,58.323343930774115L622.554765,58.25035847497588L623.2376350000001,58.10832275452242L625.286245,58.31783466317398L626.3105500000001,58.325651230314975L627.6762900000001,58.50717703767435L628.3591600000001,58.79293528496379L629.0420300000001,58.787547470463664L629.7249,58.45028917868933L630.4077700000001,58.503368386598765L631.09064,58.53521591134444L632.797815,58.456079979217236L633.480685,58.44789757789056L634.1635550000001,58.8752581871434L634.846425,58.87624036972102L635.529295,59.034019415267096L636.212165,58.991150133469546L636.895035,59.044019984491285L637.91934,58.72206326515578L639.28508,58.84326870555344L639.9679500000001,58.73915610271723L640.6508200000001,59.03036717096404L641.33369,58.87106131303892L642.01656,58.677233351309326L642.6994300000001,58.56093657427152L643.723735,58.37326792999892L644.4066050000001,58.20172145441052L645.089475,58.11843970013274L645.7723450000001,58.22566038356558L646.4552150000001,58.604379161423196L647.138085,58.65476766526393L647.820955,58.527811031569L648.5038250000001,58.70707123432601L649.52813,58.834273487055555L650.211,58.753405102693876L650.8938700000001,58.74418323002635L651.57674,58.581460370426385L652.2596100000001,58.4641805235911L652.94248,58.413458746565254L653.62535,58.422324838299346L654.30822,58.506235913440094L655.332525,58.55658255852455L656.6982650000001,58.60644357244945L657.381135,58.71495160090467L658.0640050000001,58.8979538918266L658.746875,58.65407663643123L659.429745,58.80247672831871L660.112615,58.753980074325966L661.1369200000001,58.99996239597971L661.81979,58.892117605997896L663.1855300000001,59.00425349488256L663.8684000000001,59.13048031723821L664.55127,59.26516169967658L665.2341400000001,58.97263887231685L665.91701,58.77747904482567L666.941315,58.52283954340686L668.307055,58.42900802737938L668.9899250000001,58.25481164391408L669.6727950000001,58.130647682759616L670.355665,58.134740726167195L671.7214050000001,58.314039315085495L672.74571,58.343020152537235L673.4285800000001,58.38006168188252L674.11145,58.6184216245141L675.4771900000001,58.87932816814293L676.16006,59.01622596324489L676.84293,58.94117490430665L677.5258000000001,58.7782467950949L678.550105,58.46435490454343L679.2329750000001,58.393917244061356L679.9158450000001,58.29270246294817L680.5987150000001,58.19268133212961L681.2815850000001,58.2112600737388L681.9644550000002,58.34029789675418L682.647325,58.39807445948799L683.3301950000001,58.29519679220425L684.3545,58.21382406075861L685.7202400000001,58.08640210599208L686.40311,58.04924809108172L687.76885,58.02695568213551L688.45172,58.01358023676778L689.13459,58.00555496954718L690.1588950000001,57.94179452018983L691.5246350000001,57.96248353960033L692.2075050000001,57.915951662221744L692.8903750000001,57.90767866686997L693.573245,57.9223678965331L694.938985,57.95082756540637L696.64616,57.987556393604564L698.0119000000001,58.088185110623726L698.6947700000001,58.207507629860174L699.37764,58.4166447463262L700.0605100000001,58.6796706211299L700.74338,58.66064338313845L703.8162950000001,58.43309201531912L704.4991650000001,58.25726203667796L705.182035,58.230362365392466L705.864905,58.292813982721384L706.5477750000001,58.42852940009334L708.2549500000001,58.372421941391224L708.93782,58.260159150270795L709.6206900000001,58.23210063354816L710.3035600000001,58.313509970489065L710.98643,58.48024615070352L711.6693,58.59993398990753L712.3521700000001,58.59315527332973L713.376475,58.41224528050924L714.0593450000001,58.44124288974109L714.7422150000001,58.77302092727916L716.1079550000001,58.75595272477756L716.7908250000002,58.86360238132653L717.473695,58.71205715023149L718.1565650000001,58.601483880499075L719.18087,58.39759631373545L719.86374,58.393154351727276L720.5466100000001,58.6852225154459L721.22948,59.253441201575185L721.9123500000001,59.417529650379095L722.59522,59.28020156356172L723.27809,58.9620166595725L723.96096,59.4195176880512L724.9852650000001,59.57612772708859L725.668135,59.277115962612754L726.3510050000001,59.01911058802813L727.0338750000001,58.94290567917653L727.7167450000001,58.70069383991654L729.0824850000001,58.43747615831069L729.765355,58.37778999632167L730.78966,58.224080825279486L731.4725300000001,58.36764337455281L732.1554000000001,58.43412787724259L732.8382700000001,58.59191605270519L733.5211400000002,58.4901000640337L734.20401,58.409364339755484L734.8868800000001,58.262678458214L735.5697500000001,58.096068613389946L736.594055,58.01574883757087L737.2769250000001,57.967556972079365L738.6426650000001,57.93864185278454L739.3255350000001,57.99989109710674L740.008405,58.01699451262476L740.691275,57.96830437711168L742.39845,58.01768861170308L743.0813200000001,58.04731915245793L743.7641900000001,58.143695792810036L744.4470600000001,58.28011319712158L745.1299300000001,58.71564226965705L745.8128000000002,58.66258024117934L747.1785400000001,59.043366943066246L748.202845,58.819915887275215L749.5685850000001,58.48935635985163L750.251455,58.40891811724629L750.9343250000001,58.39994743383369L751.6171950000002,58.39456502378613L752.300065,58.391335577757616L752.9829350000001,58.389397910140474L754.69011,58.348943047419596L756.0558500000001,58.403261549887304L757.42159,58.317962073318085L758.1044600000001,58.30608154532615L758.78733,58.298953228530934L759.8116350000001,59.21816852337531L760.494505,59.08198657146022L761.8602450000001,58.64659877036257L762.5431150000001,58.60150111472848L763.225985,58.594095548222185L764.591725,58.432462472319L765.61603,58.256884310877865L766.2989000000001,58.11223825606362L766.98177,58.08440280799891L768.34751,58.0087493543362L769.03038,58.02230946696244L769.7132500000001,58.08939082356318L770.3961200000001,58.031395190549006L771.420425,58.03589696869011L772.1032950000001,58.05824416665013L772.786165,57.99305416952694L773.4690350000001,58.052184618227614L774.151905,58.12696204539759L774.834775,58.093237081599284L775.517645,58.03370294537075L776.2005150000001,57.978329436759225L777.9076900000001,57.92545920051714L779.2734300000001,57.91338318984714L779.9563,57.90613758344517L781.32204,57.90179021960398L782.0049100000001,57.938480959248864L783.029215,58.432071506833154L783.712085,58.25664973158638L784.3949550000001,58.22999498233753L785.077825,58.17470297483857L785.760695,58.16117390141454L786.443565,58.113764195209455L787.126435,58.08531837148638L787.809305,58.009298692428786L788.8336100000001,58.1601757789432L789.51648,58.290001188801455L790.8822200000001,58.58403145974086L791.56509,58.62291291317922L792.24796,58.62658875836803L792.9308300000001,58.471604529481795L793.6137,58.31966870312516L794.6380050000001,58.22850720731117L796.0037450000001,58.29170088787265L797.3694850000002,58.19208038708433L798.052355,58.15195421768664L799.4180950000001,58.34401354107251L800.4424,58.4396030040287L801.1252700000001,58.5755481019026L801.80814,58.539224582577106L802.4910100000001,58.556729628931464L803.17388,58.56723265674401L803.85675,58.475290026457L805.2224900000001,58.479069737309715L806.246795,58.32414782782189L806.9296650000001,58.15259636623L808.2954050000001,58.12826380517407L808.978275,58.05471897951554L809.6611450000001,58.01059208412045L810.344015,57.964462920009225L812.05119,57.99573760636622L812.7340600000001,58.05379468033118L813.4169300000001,57.970738346660255L814.0998000000001,57.940550677533L815.4655400000001,57.96173723400631L816.14841,57.99410219476448L816.8312800000001,58.013521171219395L817.8555850000001,58.12341700406688L818.538455,58.287592054951006L819.2213250000001,58.3075056653812L819.9041950000001,58.319453831639294L821.269935,58.54275775641861L821.9528050000001,58.3623606392872L822.635675,58.35236681598292L823.6599800000001,58.2677722061012L824.34285,58.25631459812172L825.0257200000001,58.170848613233716L825.7085900000001,58.06061683747714L826.39146,58.053429956847026L827.07433,58.029464801594656L827.7572000000001,58.01508570844328L828.44007,57.9868121214771L829.4643750000001,57.950194942423195L830.1472450000001,57.928224634990784L830.8301150000001,57.89539631945598L831.5129850000001,57.87569933013515L832.1958550000002,57.903180294492245L832.878725,57.99826029320673L834.2444650000001,57.95706384546094L835.26877,57.97164513476304L835.9516400000001,58.039339197369316L836.63451,58.04066337278232L837.3173800000001,58.15934845608001L838.00025,58.4073953731334L839.36599,58.98850046921319L840.0488600000001,58.82629516091305L841.073165,58.55212921305929L841.7560350000001,58.52517324927112L842.4389050000001,58.371456066074074L845.170385,58.495367676979185L845.8532550000001,58.589360774597594L846.87756,58.3706763191193L847.5604300000001,58.20016648788271L848.2433000000001,58.117506720216056L848.9261700000001,58.048264728540744L849.60904,58.20320842748464L850.2919100000001,58.433711355976186L850.97478,58.55236698199582L851.6576500000001,58.62356035760757L852.6819550000001,58.43048833107599L853.364825,58.314645115156964L854.0476950000001,58.205846923454885L854.7305650000001,58.14056800843366L855.413435,58.04244847459705L856.096305,58.02287591224473L856.7791750000001,57.99148624375795L857.462045,58.01195160061553L858.4863500000001,58.024230814730004L859.1692200000001,58.24773336822318L859.8520900000001,58.42113405826865L860.5349600000001,58.328685578346835L861.2178300000002,58.19461817449462L861.9007,58.1731230212082L862.5835700000001,58.12093366708564L864.2907450000001,58.18786450158666L865.6564850000001,58.070826370488874L866.3393550000001,58.05955567665404L867.0222250000002,58.03314023347889L867.705095,57.95834567854888L868.3879650000001,57.99206726149009L870.09514,58.07124550027976L871.4608800000001,58.02050799657894L872.1437500000001,58.06865691445881L872.82662,58.2743890280604L873.5094900000001,58.397828296221405L874.8752300000001,58.35400127906814L875.899535,58.386650357801045L876.5824050000001,58.229397042167136L877.2652750000001,58.13504505278672L877.9481450000001,58.039134701208866L879.3138850000001,58.02088764821178L879.996755,58.068884705438506L880.6796250000001,57.99943849280004L881.7039300000001,58.07566823906569L883.0696700000001,58.39648640087438L883.7525400000002,58.490732850985125L884.43541,58.54728072105155L886.4840200000001,58.67945389006593L887.5083250000001,58.50332360850058L888.191195,58.338700150536454L888.8740650000001,58.279225233707564L889.5569350000001,58.14529583663568L890.239805,58.04528517151829L890.922675,58.063877088347L891.6055450000001,57.99643392254512L892.288415,57.9952671810135L893.3127200000001,58.210702161119L893.9955900000001,58.30067088703157L894.6784600000001,58.354652122579125L895.3613300000001,58.34774170595813L896.72707,58.20605185106132L897.4099400000001,58.16033709607285L898.0928100000001,58.13290824307978L899.7999850000001,58.037852615384736L900.482855,58.000472265641974L901.1657250000001,58.09593463384624L901.848595,58.31040179076825L902.531465,58.32119150687157L903.2143350000001,58.190121731609395L903.8972050000001,58.072180708502515L904.92151,58.119313568487144L905.6043800000001,58.010049679553845L906.2872500000001,57.96413747726916L906.9701200000001,58.17237820779707L908.3358600000001,58.14013291011429L909.01873,58.08148657355508L909.7016000000001,58.085597929569076L910.725905,58.02911945415258L911.4087750000001,57.955933210953106L912.0916450000001,57.91202146503343L912.7745150000001,57.96427273338077L913.457385,57.936671309565384L914.1402550000001,57.979062640099926L914.823125,58.06344272744565L915.5059950000001,58.31055967380212L916.5303000000001,58.30164010561657L917.21317,58.414178942755086L917.8960400000001,58.61924584996228L919.26178,58.54579710033761L919.94465,58.383830376713945L920.6275200000001,58.365248658438986L921.3103900000001,58.39339878542353L922.3346950000001,58.29239138776552L923.0175650000001,58.153195529070445L923.7004350000001,58.05002498697917L926.4319150000001,58.08636710869894L927.1147850000001,58.068880119580115L928.1390900000001,58.11733321513378L928.8219600000001,58.107105914516296L930.1877000000001,58.10096953414586L930.8705700000002,58.018689390024406L931.55344,57.96932130355145L932.2363100000001,57.978999609617404L932.9191800000001,58.02410575120649L934.6263550000001,57.95292498918542L935.3092250000001,57.92986266304814L935.9920950000001,58.014269714340344L936.674965,58.18281141896438L937.3578350000001,58.283936441738774L938.040705,58.42320287550376L938.7235750000001,58.31027384181368L939.74788,58.45865834242289L940.4307500000001,58.27260183294021L941.1136200000001,58.29851153217476L941.7964900000001,58.21581290474086L942.47936,58.22513901730548L943.1622300000001,58.28967997386923L943.8451,58.30875841673213L944.5279700000001,58.33985161352524" style="fill: none;" fill="none"></path></g></g></g></g><g opacity="0.2"><g><g><g><path stroke="rgb(255, 112, 67)" stroke-width="2px" d="M74.89302500000001,319.32295084916626L75.57589500000002,318.14402136435876L76.941635,320.452758541474L78.30737500000001,318.8317307692308L78.990245,318.8317307692308L79.67311500000001,318.58611965179443L80.69742000000001,318.04577777935907L81.38029,317.6036794919234L82.06316,318.09489957185895L82.74603,318.63524144429425L83.4289,315.88440597974335L84.11177000000002,317.6528012844232L84.79464000000002,316.17913888967956L85.47751000000001,315.83528418724353L86.50181500000001,316.8177265020517L87.18468500000002,317.16158120448773L87.86755500000001,316.4247500071159L88.550425,315.000209404872L89.23329500000001,315.1475747823715L89.916165,316.2773824746792L90.599035,317.45631195948675L91.28190500000001,316.3265042671791L92.30621000000001,313.6739123876278L92.98908,315.2458183673712L94.35482000000002,316.08089530467987L96.40343000000001,313.624790595128L97.08630000000001,311.95464103038495L98.110605,312.4949829028203L98.793475,309.05644018833453L99.47634500000001,308.8108290708982L100.84208500000001,306.2073589838468L101.524955,302.37583761948804L102.207825,299.18290171256433L102.89069500000001,295.89172222064093L103.91500000000002,296.57943162551294L105.28074000000001,293.38649571858923L105.96361000000002,291.9128333238455L106.64648000000001,292.50229914371783L107.32935,293.6321068360255L108.01222000000001,292.3549316112812L108.69509000000001,289.26024359923144L110.402265,286.312918809744L111.08513500000001,282.7761282003843L112.45087500000001,280.3200256457696L113.13374500000002,283.1199829028203L113.81661500000001,281.79368804051325L114.499485,281.49895297563995L115.52379000000002,279.4849487084609L116.20666000000001,277.7656751962809L117.57240000000002,274.62186754666845L118.25527000000001,274.9657179392301L118.93814,269.9061496074383L119.62101000000001,270.3973632225624L120.30388,272.85346577717706L121.328185,270.69209828743567L122.01105500000001,268.0395085628216L122.69392500000002,267.4009231053866L123.37679500000002,265.8781324533316L124.05966500000001,262.8325683887188L124.74253500000002,259.9834828743568L126.108275,258.4607008420504L127.13258,255.2677649351267L127.81545000000001,252.81166238051196L128.49832,254.53094020256628L129.18119000000002,251.33800429564258L129.86406,248.43980345359216L130.54693,246.96613674897415L131.2298,247.26087181384747L131.91267,247.16262391897348L133.619845,241.90655979743372L134.302715,242.44690597974338L135.668455,238.6153846153846L136.35132500000003,241.660957299746L137.034195,237.82942731563864L137.71706500000002,238.0259231053866L138.74137000000002,235.32420943333554L139.42424000000003,235.27508548589853L140.78998,231.7382905666645L141.47285000000002,233.94879062359152L142.15572000000003,229.92077346948477L142.83859,234.7347393035889L143.52146000000002,229.42955985436075L144.54576500000002,230.46111965179446L145.22863500000003,227.56291880974405L146.594375,230.1663845869211L147.27724500000002,222.2086154130789L147.960115,221.17704699589657L148.642985,223.48578632794894L149.32585500000002,220.98055982589725L150.35016000000002,218.9174316112812L151.03303,217.14903846153848L151.7159,219.45777779359085L153.08164,219.31040595127988L153.76451,216.7069401741028L154.44738,214.4473247894874L155.13025000000002,213.51400426717905L156.15455500000002,211.69648716999936L156.83742500000002,211.45087605256302L157.52029500000003,212.18770940487204L158.203165,213.7596153846154L158.88603500000002,213.4157649920537L159.56890500000003,210.12458119025598L160.251775,213.4157649920537L160.93464500000002,209.7316068502573L161.95895000000002,207.07901712564322L162.64182000000002,211.45087605256302L163.32469,205.9983247610239L164.00756,202.90363674897415L164.69043000000002,205.45798719846286L165.3733,206.98076923076925L166.05617,208.89653422282294L166.73904000000002,207.2263803482056L168.446215,202.90363674897415L169.129085,200.2019230769231L171.177695,194.06166238051196L171.860565,197.10722644512472L173.56774000000001,195.68269230769232L174.25061000000002,193.4721922507653L175.61635000000004,196.714252105126L176.98209000000003,190.9178504210252L177.66496000000004,192.14590600820688L178.34783000000002,192.5388803482056L179.37213500000001,189.00209404872015L180.05500500000002,189.2477051661565L180.73787500000003,188.51087181384747L182.10361500000002,186.49686754666843L182.78648500000003,184.97408551436206L183.469355,187.23370089897745L184.15222500000002,187.2828162266658L185.85940000000002,179.71802139282227L186.54227,184.53197860717773L187.22514,175.05142740102917L187.90801000000002,181.28991875281702L188.59088,176.5250768661499L189.27375,178.58821370051456L189.95662000000002,182.71447012974667L191.663795,176.3285983158992L192.346665,175.78826075333816L193.71240500000002,170.4339487369244L194.39527500000003,175.10054272871753L195.76101500000001,174.7566837164072L196.78532,171.02341886667105L197.46819000000002,171.1707820892334L198.83393,175.3952691738422L199.51680000000002,172.3005897815411L200.19967000000003,168.8620341374324L201.56541,166.3076923076923L202.589715,165.325247837947L203.27258500000002,171.21989741692178L203.95545500000003,166.01296586256763L205.32119500000002,162.32879910102258L206.00406500000003,166.20944441281833L206.686935,164.68666238051196L207.369805,165.52174362769495L208.39411,162.8691539030809L209.07698000000002,161.14987608102652L209.75985,163.40949146564193L210.44272,161.6410983158992L211.12559000000002,162.67265811333291L212.49133000000003,164.78491027538595L213.17420000000004,159.23411970872147L215.56424500000003,157.85870089897745L218.29572500000003,157.41659399179312L218.978595,155.7464487369244L220.68577000000002,153.63419657487137L221.36864000000003,156.43414952204776L222.05151,152.5043888825637L223.41725000000002,149.90091448563797L224.10012,156.28678629948544L224.78299,153.29033756256104L225.807295,152.4061409876897L226.49016500000002,153.24122223487268L228.53877500000002,150.44126928769626L229.221645,153.97805558718167L229.904515,147.64129910102258L230.587385,149.16408113332898L231.61169000000004,144.98870937640854L232.29456000000002,143.76065378922684L232.97743000000003,141.94314531179577L233.66030000000003,148.32901712564322L234.34317000000004,148.86935468820425L235.02604000000002,145.97115384615384L235.70891000000003,147.19920943333554L236.39178000000004,150.7851110605093L238.09895500000002,140.22386748974142L238.78182500000003,142.13962386204648L239.46469500000003,144.05539747384879L240.83043500000002,140.0273889394907L241.51330500000003,139.24142301999606L242.196175,147.34657265589786L243.22048,137.0309402025663L243.90335000000002,137.7186409876897L244.58622000000003,141.30455985436075L245.26909,140.12561959486743L246.63483000000002,136.93269230769235L247.3177,137.37479921487662L249.024875,133.69063245333157L249.70774500000005,133.83799567589395L250.39061500000003,135.70463672051065L251.75635500000004,133.93624357076794L252.43922500000002,135.1642991579496L253.12209500000003,133.98537613795358L253.80496500000004,137.6203930928157L254.82927000000004,128.8766752389761L255.51214000000002,129.95735036409818L256.19501,129.80998714153586L256.87788,130.20296148153454L257.56075000000004,128.9749231338501L258.24362,133.19941021845895L258.92649,132.3643462107732L259.60936000000004,127.74686754666843L260.633665,127.20652998410739L261.999405,128.5328162266658L262.682275,128.2380897815411L263.36514500000004,125.73286327948938L264.048015,127.20652998410739L265.41375500000004,127.79598287435681L266.43806000000006,121.95046586256763L267.12093000000004,120.18207271282492L268.48667000000006,122.39255553025467L269.85241,123.27675210512601L271.21815000000004,123.91533756256104L272.242455,122.53991875281702L272.925325,119.15049567589398L273.608195,116.54703851846551L274.291065,119.73996580564057L275.656805,116.89088029127856L276.339675,117.82420943333551L277.022545,118.16806844564587L278.04685,114.82776069641113L278.72972000000004,115.61370937640851L279.41259,112.22428629948541L280.09546,117.48035042102521L280.77833000000004,117.1364914087149L284.53411500000004,114.09092734410211L285.89985500000006,112.17517097179706L286.58272500000004,113.01023497948285L287.94846500000006,110.75061959486743L288.63133500000004,110.5541410446167L289.65564,103.7261623235849L290.33851,103.67704699589655L291.02138,108.09802987025336L291.70425,106.57524783794696L292.38712,111.83131195948675L293.06999,105.24896159538861L293.75286,105.74018383026123L294.43573,110.06291880974408L295.460035,101.17182049384485L297.508645,100.63148293128381L298.19151500000004,103.52968377333423L298.874385,107.01735474513129L299.557255,101.27006838871881L300.24012500000003,105.05246580564057L301.94730000000004,100.18937602409954L302.63017,101.51567950615521L303.31304000000006,97.97889320666974L303.99591000000004,101.17182049384485L304.67878,100.28762391897351L305.36165000000005,100.72973082615778L306.04452000000003,99.94376490666315L307.068825,93.361414542565L307.751695,92.91930763538068L308.434565,99.69815378922686L309.117435,93.95088467231164L309.800305,95.81750847743109L310.483175,98.51923076923077L311.166045,98.66659399179315L311.848915,97.24205985436078L312.87322,90.02110679333026L314.23896,92.72282908512994L314.92183000000006,91.8386325102586L316.28757,94.09824789487396L317.65331000000003,93.55789309281573L319.36048500000004,85.40364536872272L320.0433550000001,89.57901712564325L320.72622500000006,86.18959404872015L321.40909500000004,87.81062397590051L322.0919650000001,92.23160685025726L322.77483500000005,91.29827770820032L323.45770500000003,90.51232902820294L324.48201,88.00710252615124L325.16488000000004,86.04223082615778L325.84775,86.04223082615778L326.53062,87.7614914087149L327.21349000000004,84.47031622666577L327.89636,86.77904693896954L328.57923,87.02465805640588L329.26210000000003,86.53345306103046L330.28640500000006,80.49142301999603L330.96927500000004,81.4738674897414L331.652145,80.09844867999738L332.33501500000006,80.58967091487006L333.01788500000004,82.94753419435943L333.700755,83.14402998410736L334.38362500000005,87.12290595127985L335.06649500000003,82.35806406461273L336.09080000000006,76.95463672051062L336.77367000000004,77.93708119025592L337.4565400000001,79.70547433999866L338.13941000000005,83.24226063948407L338.82228000000003,79.85283756256104L339.50515000000007,85.10890168410077L340.18802000000005,80.49142301999603L340.87089000000003,80.83528203230634L341.895195,73.95818798358624L343.260935,81.27738893949066L343.943805,77.29849573282092L345.309545,76.95463672051062L345.992415,78.23180763538068L346.67528500000003,76.65991027538593L347.69959000000006,74.10556844564582L348.38246000000004,73.76170943333551L349.06533,73.12312397590046L349.74820000000005,77.4458589553833L351.11394,75.48097001589264L351.79681000000005,74.74415390308087L353.503985,70.07754267179047L354.18685500000004,70.32315378922681L354.8697250000001,69.19334609691913L355.55259500000005,71.40384615384613L356.23546500000003,74.10556844564582L357.60120500000005,73.56521364358753L358.28407500000003,77.83883329538196L359.30838,69.48808978154108L359.99125000000004,70.07754267179047L361.35699,69.78281622666577L362.03986000000003,67.1302265020517L362.72273,71.30559825897217L363.4056,72.63190174102783L364.08847000000003,73.41785042102521L365.79564500000004,66.196914599492L366.478515,69.5863376764151L367.16138500000005,68.45652998410736L368.527125,71.69857259897083L369.20999500000005,71.50209404872015L370.91717,65.8530555871817L372.28291,67.7196966317984L372.96578000000005,65.75480769230768L373.64865000000003,66.14778203230634L375.01439000000005,69.73370089897742L375.69726,67.86705985436072L376.721565,65.50919657487134L378.087305,65.06710690718427L378.77017500000005,65.16533756256104L379.45304500000003,69.78281622666577L380.135915,69.29159399179309L380.81878500000005,66.835500056927L381.501655,67.08111117436334L382.52596000000005,63.93729921487659L383.89170000000007,63.593440202566285L385.25744000000003,66.00041880974402L386.62318000000005,68.75125642923206L388.330355,64.08466243743896L390.378965,63.93729921487659L391.06183500000003,62.90572217794562L392.42757500000005,66.24602992718036L393.1104450000001,66.68811959486737L394.13475000000005,63.446076980003966L394.81762000000003,63.053085400507996L395.50049,62.70924362769489L396.86623000000003,63.64255553025464L397.5491,61.67768383026123L398.23197000000005,64.18289309281568L398.91484,69.68456833179181L399.93914500000005,66.4916410446167L400.62201500000003,63.69168809744025L401.30488500000007,62.70924362769489L401.98775500000005,64.18289309281568L402.67062500000003,64.13377776512732L403.35349500000007,62.610995732820925L404.03636500000005,64.03552987025336L404.719235,67.22847439692572L406.42641000000003,62.70924362769489L407.10928,63.347829085129945L407.79215,63.20046586256757L408.47502000000003,62.16888882563666L409.15789,65.80392301999603L409.84076,67.17934182974005L410.5236300000001,63.69168809744025L411.54793500000005,61.77591448563794L412.23080500000003,61.481188040513246L412.913675,61.33382481795087L413.59654500000005,62.80749152256891L414.27941500000003,63.102217967693605L414.962285,62.365384615384585L415.64515500000005,62.26713672051062L416.328025,61.874162380511905L417.35233000000005,63.593440202566285L418.03520000000003,61.235576923076906L418.71807000000007,60.744354688204226L419.40094000000005,60.498743570767886L420.76668000000006,63.78991875281696L421.44955000000004,62.56188040513257L424.522465,62.80749152256891L425.205335,64.03552987025336L425.888205,62.31626928769623L426.571075,63.15133329538196L427.253945,64.18289309281568L427.936815,65.36183335230902L428.96112000000005,61.77591448563794L429.64399000000003,61.67768383026123L431.00973000000005,59.56543166820819L431.6926,60.302265020517154L432.37547,60.744354688204226L434.76551500000005,61.67768383026123L435.44838500000003,61.13732902820294L436.81412500000005,61.03908113332892L438.86273500000004,59.516299101022526L439.545605,60.007521335895206L440.56991,60.05665390308087L441.25278000000003,60.40049567589392L441.93565,60.2531324533316L442.61852000000005,59.516299101022526L443.30139,59.90927344102124L443.98426,59.46718377333417L444.66713000000004,59.81104278564453L445.35,60.105769230769226L446.37430500000005,59.81104278564453L447.74004500000007,61.235576923076906L448.42291500000005,60.94085047795221L449.105785,60.69523936051587L449.78865500000006,60.2531324533316L450.47152500000004,59.76191021845892L451.154395,59.81104278564453L452.17870000000005,59.71279489077057L453.54444000000007,59.31982055077185L454.22731000000005,59.516299101022526L454.9101800000001,59.418068445645815L455.59305000000006,59.90927344102124L460.03170500000004,61.972410275385926L461.397445,61.5303033682016L462.08031500000004,60.15488455845758L462.763185,58.68123509333685L463.78749000000005,59.6636623235849L464.47036,59.71279489077057L465.15323000000006,59.368935878460206L465.83610000000004,58.97596153846149L466.51897,59.27068798358624L467.20184000000006,58.82859831589917L467.88471000000004,59.56543166820819L468.56758,60.20401712564319L469.59188500000005,61.235576923076906L470.2747550000001,59.614546995896546L470.95762500000006,59.27068798358624L471.64049500000004,59.90927344102124L472.3233650000001,59.27068798358624L473.00623500000006,60.105769230769226L474.3719750000001,59.76191021845892L475.39628000000005,59.27068798358624L476.07915,60.40049567589392L477.44489000000004,59.76191021845892L478.12776,59.56543166820819L478.81063,60.20401712564319L479.49350000000004,61.57943593538727L480.17637,60.498743570767886L481.20067500000005,58.926846210773135L481.883545,58.877713643587526L482.56641500000006,59.27068798358624L483.24928500000004,60.596991465641906L483.932155,59.71279489077057L484.61502500000006,60.44962824307953L485.29789500000004,60.20401712564319L485.980765,59.46718377333417L487.00507000000005,58.82859831589917L487.6879400000001,58.82859831589917L488.37081000000006,58.97596153846149L489.05368000000004,59.27068798358624L489.7365500000001,59.81104278564453L490.41942000000006,60.79347001589264L491.10229000000004,60.84260258307819L492.80946500000005,59.46718377333417L493.492335,59.76191021845892L494.175205,59.71279489077057L494.85807500000004,58.926846210773135L495.540945,59.07420943333551L496.223815,58.68123509333685L496.90668500000004,59.22157265589789L497.589555,61.43207271282489L498.61386000000005,59.614546995896546L499.29673,59.07420943333551L499.97960000000006,59.07420943333551L500.66247000000004,58.288260753338136L501.34534,58.877713643587526L502.02821000000006,59.860158113332886L503.39395,59.56543166820819L504.418255,60.44962824307953L505.1011250000001,59.90927344102124L506.4668650000001,59.516299101022526L507.1497350000001,61.77591448563794L507.83260500000006,60.20401712564319L508.5154750000001,59.95840600820685L509.1983450000001,59.71279489077057L510.22265000000004,59.71279489077057L510.90552,58.48473930358887L511.58839000000006,58.68123509333685L512.27126,58.48473930358887L512.9541300000001,58.877713643587526L513.6370000000001,61.13732902820294L514.31987,60.40049567589392L516.027045,58.97596153846149L517.392785,59.516299101022526L518.0756550000001,58.877713643587526L518.7585250000001,59.17245732820953L520.807135,59.56543166820819L523.88005,59.123324761023866L524.5629200000001,58.877713643587526L525.24579,58.877713643587526L525.92866,59.17245732820953L526.61153,59.17245732820953L527.635835,59.0250768661499L528.318705,59.71279489077057L529.0015750000001,59.22157265589789L531.050185,59.22157265589789L531.733055,59.860158113332886L532.415925,59.614546995896546L533.44023,60.105769230769226L534.80597,60.007521335895206L535.4888400000001,60.79347001589264L536.17171,59.31982055077185L537.53745,58.877713643587526L538.22032,59.27068798358624L539.244625,58.926846210773135L539.9274950000001,59.123324761023866L540.610365,58.926846210773135L541.2932350000001,58.82859831589917L541.9761050000001,59.22157265589789L542.658975,58.877713643587526L543.341845,60.302265020517154L544.0247150000001,59.31982055077185L545.04902,59.614546995896546L545.7318900000001,59.76191021845892L546.41476,58.82859831589917L547.0976300000001,58.73035042102521L547.7805000000001,58.82859831589917L548.46337,58.82859831589917L550.853415,59.46718377333417L551.536285,59.860158113332886L552.2191550000001,60.05665390308087L552.902025,59.31982055077185L553.5848950000001,61.088213700514586L554.267765,59.17245732820953L554.950635,58.97596153846149L555.633505,59.17245732820953L556.65781,60.351380348205566L557.34068,59.418068445645815L558.0235500000001,58.58298719846283L558.70642,58.68123509333685L559.3892900000001,58.632102526151186L560.07216,58.23912818615253L561.4379,58.877713643587526L562.4622050000002,58.82859831589917L563.145075,59.17245732820953L563.8279450000001,59.516299101022526L564.5108150000001,59.27068798358624L565.1936850000001,58.926846210773135L565.876555,58.82859831589917L566.5594250000001,58.877713643587526L567.242295,59.07420943333551L568.2666,58.53385463127722L568.94947,58.435623975900455L569.63234,58.82859831589917L570.3152100000001,59.123324761023866L570.99808,59.614546995896546L571.68095,59.31982055077185L572.36382,58.926846210773135L573.04669,58.68123509333685L574.070995,58.435623975900455L574.7538650000001,59.27068798358624L575.436735,58.926846210773135L576.8024750000001,58.77946574871356L578.168215,58.97596153846149L579.87539,58.48473930358887L581.9240000000001,58.53385463127722L582.6068700000001,59.368935878460206L583.28974,59.81104278564453L583.97261,59.31982055077185L584.6554800000001,59.6636623235849L585.679785,59.123324761023866L586.362655,58.3864914087149L587.0455250000001,59.0250768661499L587.728395,59.0250768661499L588.4112650000001,59.516299101022526L589.094135,58.877713643587526L589.777005,59.17245732820953L590.459875,60.351380348205566L592.8499200000001,58.435623975900455L593.53279,58.48473930358887L594.2156600000001,58.53385463127722L595.5814,58.288260753338136L596.26427,58.33737608102649L597.288575,58.23912818615253L597.971445,58.140880291278506L598.654315,58.97596153846149L599.3371850000001,58.77946574871356L600.0200550000001,58.73035042102521L600.702925,59.0250768661499L601.3857950000001,58.288260753338136L603.09297,57.99351706871619L603.7758400000001,58.19001285846417L604.45871,58.09176496359015L605.1415800000001,58.19001285846417L605.8244500000001,58.140880291278506L607.19019,58.09176496359015L607.8730600000001,58.09176496359015L608.897365,58.435623975900455L609.5802350000001,58.33737608102649L610.263105,58.435623975900455L610.9459750000001,60.007521335895206L611.6288450000001,58.877713643587526L612.311715,58.33737608102649L612.994585,58.288260753338136L613.6774550000001,58.09176496359015L614.70176,58.58298719846283L615.38463,58.48473930358887L616.0675000000001,58.68123509333685L616.75037,59.22157265589789L618.11611,59.614546995896546L618.79898,58.58298719846283L619.4818500000001,58.435623975900455L620.506155,58.042649635901796L621.189025,58.19001285846417L621.8718950000001,58.288260753338136L622.554765,58.140880291278506L623.2376350000001,57.89526917384222L625.286245,58.632102526151186L626.3105500000001,58.33737608102649L627.6762900000001,58.77946574871356L628.3591600000001,59.22157265589789L629.0420300000001,58.77946574871356L629.7249,57.94440174102783L630.4077700000001,58.58298719846283L631.09064,58.58298719846283L632.797815,58.33737608102649L633.480685,58.435623975900455L634.1635550000001,59.516299101022526L634.846425,58.877713643587526L635.529295,59.27068798358624L636.212165,58.926846210773135L636.895035,59.123324761023866L637.91934,58.23912818615253L639.28508,59.0250768661499L639.9679500000001,58.58298719846283L640.6508200000001,59.46718377333417L641.33369,58.632102526151186L642.01656,58.3864914087149L642.6994300000001,58.3864914087149L643.723735,58.09176496359015L644.4066050000001,57.94440174102783L645.089475,57.99351706871619L645.7723450000001,58.3864914087149L646.4552150000001,59.17245732820953L647.138085,58.73035042102521L647.820955,58.33737608102649L648.5038250000001,58.97596153846149L649.52813,59.0250768661499L650.211,58.632102526151186L650.8938700000001,58.73035042102521L651.57674,58.33737608102649L652.2596100000001,58.288260753338136L652.94248,58.33737608102649L653.62535,58.435623975900455L654.30822,58.632102526151186L655.332525,58.632102526151186L656.6982650000001,58.68123509333685L657.381135,58.877713643587526L658.0640050000001,59.17245732820953L658.746875,58.288260753338136L659.429745,59.0250768661499L660.112615,58.68123509333685L661.1369200000001,59.368935878460206L661.81979,58.73035042102521L663.1855300000001,59.17245732820953L663.8684000000001,59.31982055077185L664.55127,59.46718377333417L665.2341400000001,58.53385463127722L665.91701,58.48473930358887L666.941315,58.140880291278506L668.307055,58.288260753338136L668.9899250000001,57.99351706871619L669.6727950000001,57.94440174102783L670.355665,58.140880291278506L671.7214050000001,58.58298719846283L672.74571,58.3864914087149L673.4285800000001,58.435623975900455L674.11145,58.97596153846149L675.4771900000001,59.27068798358624L676.16006,59.22157265589789L676.84293,58.82859831589917L677.5258000000001,58.53385463127722L678.550105,57.99351706871619L679.2329750000001,58.288260753338136L679.9158450000001,58.140880291278506L680.5987150000001,58.042649635901796L681.2815850000001,58.23912818615253L681.9644550000002,58.53385463127722L682.647325,58.48473930358887L683.3301950000001,58.140880291278506L684.3545,58.09176496359015L685.7202400000001,57.89526917384222L686.40311,57.99351706871619L687.76885,57.99351706871619L688.45172,57.99351706871619L689.13459,57.99351706871619L690.1588950000001,57.84615384615387L691.5246350000001,57.99351706871619L692.2075050000001,57.84615384615387L692.8903750000001,57.89526917384222L693.573245,57.94440174102783L694.938985,57.99351706871619L696.64616,58.042649635901796L698.0119000000001,58.23912818615253L698.6947700000001,58.3864914087149L699.37764,58.73035042102521L700.0605100000001,59.07420943333551L700.74338,58.632102526151186L703.8162950000001,58.09176496359015L704.4991650000001,57.99351706871619L705.182035,58.19001285846417L705.864905,58.3864914087149L706.5477750000001,58.632102526151186L708.2549500000001,58.288260753338136L708.93782,58.09176496359015L709.6206900000001,58.19001285846417L710.3035600000001,58.435623975900455L710.98643,58.73035042102521L711.6693,58.77946574871356L712.3521700000001,58.58298719846283L713.376475,58.140880291278506L714.0593450000001,58.48473930358887L714.7422150000001,59.27068798358624L716.1079550000001,58.73035042102521L716.7908250000002,59.0250768661499L717.473695,58.48473930358887L718.1565650000001,58.435623975900455L719.18087,58.09176496359015L719.86374,58.3864914087149L720.5466100000001,59.123324761023866L721.22948,60.105769230769226L721.9123500000001,59.6636623235849L722.59522,59.07420943333551L723.27809,58.48473930358887L723.96096,60.105769230769226L724.9852650000001,59.81104278564453L725.668135,58.82859831589917L726.3510050000001,58.632102526151186L727.0338750000001,58.82859831589917L727.7167450000001,58.33737608102649L729.0824850000001,58.042649635901796L729.765355,58.288260753338136L730.78966,57.99351706871619L731.4725300000001,58.58298719846283L732.1554000000001,58.53385463127722L732.8382700000001,58.82859831589917L733.5211400000002,58.33737608102649L734.20401,58.288260753338136L734.8868800000001,58.042649635901796L735.5697500000001,57.84615384615387L736.594055,57.89526917384222L737.2769250000001,57.89526917384222L738.6426650000001,57.89526917384222L739.3255350000001,58.09176496359015L740.008405,58.042649635901796L740.691275,57.89526917384222L742.39845,58.09176496359015L743.0813200000001,58.09176496359015L743.7641900000001,58.288260753338136L744.4470600000001,58.48473930358887L745.1299300000001,59.368935878460206L745.8128000000002,58.58298719846283L747.1785400000001,59.614546995896546L748.202845,58.48473930358887L749.5685850000001,57.99351706871619L750.251455,58.288260753338136L750.9343250000001,58.3864914087149L751.6171950000002,58.3864914087149L752.300065,58.3864914087149L752.9829350000001,58.3864914087149L754.69011,58.288260753338136L756.0558500000001,58.48473930358887L757.42159,58.19001285846417L758.1044600000001,58.288260753338136L758.78733,58.288260753338136L759.8116350000001,60.596991465641906L760.494505,58.877713643587526L761.8602450000001,57.99351706871619L762.5431150000001,58.53385463127722L763.225985,58.58298719846283L764.591725,58.19001285846417L765.61603,57.99351706871619L766.2989000000001,57.89526917384222L766.98177,58.042649635901796L768.34751,57.89526917384222L769.03038,58.042649635901796L769.7132500000001,58.19001285846417L770.3961200000001,57.94440174102783L771.420425,58.042649635901796L772.1032950000001,58.09176496359015L772.786165,57.89526917384222L773.4690350000001,58.140880291278506L774.151905,58.23912818615253L774.834775,58.042649635901796L775.517645,57.94440174102783L776.2005150000001,57.89526917384222L777.9076900000001,57.84615384615387L779.2734300000001,57.89526917384222L779.9563,57.89526917384222L781.32204,57.89526917384222L782.0049100000001,57.99351706871619L783.029215,59.17245732820953L783.712085,57.99351706871619L784.3949550000001,58.19001285846417L785.077825,58.09176496359015L785.760695,58.140880291278506L786.443565,58.042649635901796L787.126435,58.042649635901796L787.809305,57.89526917384222L788.8336100000001,58.3864914087149L789.51648,58.48473930358887L790.8822200000001,59.0250768661499L791.56509,58.68123509333685L792.24796,58.632102526151186L792.9308300000001,58.23912818615253L793.6137,58.09176496359015L794.6380050000001,58.09176496359015L796.0037450000001,58.3864914087149L797.3694850000002,58.042649635901796L798.052355,58.09176496359015L799.4180950000001,58.632102526151186L800.4424,58.58298719846283L801.1252700000001,58.77946574871356L801.80814,58.48473930358887L802.4910100000001,58.58298719846283L803.17388,58.58298719846283L803.85675,58.33737608102649L805.2224900000001,58.48473930358887L806.246795,58.09176496359015L806.9296650000001,57.89526917384222L808.2954050000001,58.09176496359015L808.978275,57.94440174102783L809.6611450000001,57.94440174102783L810.344015,57.89526917384222L812.05119,58.042649635901796L812.7340600000001,58.140880291278506L813.4169300000001,57.84615384615387L814.0998000000001,57.89526917384222L815.4655400000001,57.99351706871619L816.14841,58.042649635901796L816.8312800000001,58.042649635901796L817.8555850000001,58.288260753338136L818.538455,58.53385463127722L819.2213250000001,58.33737608102649L819.9041950000001,58.33737608102649L821.269935,58.877713643587526L821.9528050000001,58.09176496359015L822.635675,58.33737608102649L823.6599800000001,58.140880291278506L824.34285,58.23912818615253L825.0257200000001,58.042649635901796L825.7085900000001,57.89526917384222L826.39146,58.042649635901796L827.07433,57.99351706871619L827.7572000000001,57.99351706871619L828.44007,57.94440174102783L829.4643750000001,57.89526917384222L830.1472450000001,57.89526917384222L830.8301150000001,57.84615384615387L831.5129850000001,57.84615384615387L832.1958550000002,57.94440174102783L832.878725,58.140880291278506L834.2444650000001,57.89526917384222L835.26877,57.99351706871619L835.9516400000001,58.140880291278506L836.63451,58.042649635901796L837.3173800000001,58.33737608102649L838.00025,58.77946574871356L839.36599,59.860158113332886L840.0488600000001,58.58298719846283L841.073165,58.140880291278506L841.7560350000001,58.48473930358887L842.4389050000001,58.140880291278506L845.170385,58.68123509333685L845.8532550000001,58.73035042102521L846.87756,58.042649635901796L847.5604300000001,57.94440174102783L848.2433000000001,57.99351706871619L848.9261700000001,57.94440174102783L849.60904,58.435623975900455L850.2919100000001,58.77946574871356L850.97478,58.73035042102521L851.6576500000001,58.73035042102521L852.6819550000001,58.140880291278506L853.364825,58.140880291278506L854.0476950000001,58.042649635901796L854.7305650000001,58.042649635901796L855.413435,57.89526917384222L856.096305,57.99351706871619L856.7791750000001,57.94440174102783L857.462045,58.042649635901796L858.4863500000001,58.042649635901796L859.1692200000001,58.58298719846283L859.8520900000001,58.68123509333685L860.5349600000001,58.19001285846417L861.2178300000002,57.99351706871619L861.9007,58.140880291278506L862.5835700000001,58.042649635901796L864.2907450000001,58.288260753338136L865.6564850000001,57.89526917384222L866.3393550000001,58.042649635901796L867.0222250000002,57.99351706871619L867.705095,57.84615384615387L868.3879650000001,58.042649635901796L870.09514,58.19001285846417L871.4608800000001,57.94440174102783L872.1437500000001,58.140880291278506L872.82662,58.58298719846283L873.5094900000001,58.58298719846283L874.8752300000001,58.288260753338136L875.899535,58.435623975900455L876.5824050000001,57.99351706871619L877.2652750000001,57.99351706871619L877.9481450000001,57.89526917384222L879.3138850000001,57.99351706871619L879.996755,58.140880291278506L880.6796250000001,57.89526917384222L881.7039300000001,58.19001285846417L883.0696700000001,58.877713643587526L883.7525400000002,58.632102526151186L884.43541,58.632102526151186L886.4840200000001,58.877713643587526L887.5083250000001,58.23912818615253L888.191195,58.09176496359015L888.8740650000001,58.19001285846417L889.5569350000001,57.94440174102783L890.239805,57.89526917384222L890.922675,58.09176496359015L891.6055450000001,57.89526917384222L892.288415,57.99351706871619L893.3127200000001,58.53385463127722L893.9955900000001,58.435623975900455L894.6784600000001,58.435623975900455L895.3613300000001,58.33737608102649L896.72707,57.99351706871619L897.4099400000001,58.09176496359015L898.0928100000001,58.09176496359015L899.7999850000001,57.89526917384222L900.482855,57.94440174102783L901.1657250000001,58.23912818615253L901.848595,58.632102526151186L902.531465,58.33737608102649L903.2143350000001,57.99351706871619L903.8972050000001,57.89526917384222L904.92151,58.19001285846417L905.6043800000001,57.84615384615387L906.2872500000001,57.89526917384222L906.9701200000001,58.48473930358887L908.3358600000001,58.09176496359015L909.01873,57.99351706871619L909.7016000000001,58.09176496359015L910.725905,57.94440174102783L911.4087750000001,57.84615384615387L912.0916450000001,57.84615384615387L912.7745150000001,58.042649635901796L913.457385,57.89526917384222L914.1402550000001,58.042649635901796L914.823125,58.19001285846417L915.5059950000001,58.68123509333685L916.5303000000001,58.288260753338136L917.21317,58.58298719846283L917.8960400000001,58.926846210773135L919.26178,58.435623975900455L919.94465,58.140880291278506L920.6275200000001,58.33737608102649L921.3103900000001,58.435623975900455L922.3346950000001,58.140880291278506L923.0175650000001,57.94440174102783L923.7004350000001,57.89526917384222L926.4319150000001,58.140880291278506L927.1147850000001,58.042649635901796L928.1390900000001,58.19001285846417L928.8219600000001,58.09176496359015L930.1877000000001,58.09176496359015L930.8705700000002,57.89526917384222L931.55344,57.89526917384222L932.2363100000001,57.99351706871619L932.9191800000001,58.09176496359015L934.6263550000001,57.84615384615387L935.3092250000001,57.89526917384222L935.9920950000001,58.140880291278506L936.674965,58.435623975900455L937.3578350000001,58.435623975900455L938.040705,58.632102526151186L938.7235750000001,58.140880291278506L939.74788,58.68123509333685L940.4307500000001,57.99351706871619L941.1136200000001,58.33737608102649L941.7964900000001,58.09176496359015L942.47936,58.23912818615253L943.1622300000001,58.3864914087149L943.8451,58.33737608102649L944.5279700000001,58.3864914087149" style="fill: none;" fill="none"></path></g></g></g></g></g></g><g transform="translate(52, 376)" clip-path="url(#clip_1)"><clipPath id="clip_1"><rect width="1039" height="24"></rect></clipPath><g><g><line x1="0" y1="0" x2="0" y2="5" style="visibility: inherit;" fill="rgb(0, 0, 0)" stroke="rgb(204, 204, 204)" stroke-width="1px"></line><line x1="74.22500000000001" y1="0" x2="74.22500000000001" y2="5" style="visibility: inherit;" fill="rgb(0, 0, 0)" stroke="rgb(204, 204, 204)" stroke-width="1px"></line><line x1="148.45000000000002" y1="0" x2="148.45000000000002" y2="5" style="visibility: inherit;" fill="rgb(0, 0, 0)" stroke="rgb(204, 204, 204)" stroke-width="1px"></line><line x1="222.675" y1="0" x2="222.675" y2="5" style="visibility: inherit;" fill="rgb(0, 0, 0)" stroke="rgb(204, 204, 204)" stroke-width="1px"></line><line x1="296.90000000000003" y1="0" x2="296.90000000000003" y2="5" style="visibility: inherit;" fill="rgb(0, 0, 0)" stroke="rgb(204, 204, 204)" stroke-width="1px"></line><line x1="371.12500000000006" y1="0" x2="371.12500000000006" y2="5" style="visibility: inherit;" fill="rgb(0, 0, 0)" stroke="rgb(204, 204, 204)" stroke-width="1px"></line><line x1="445.35" y1="0" x2="445.35" y2="5" style="visibility: inherit;" fill="rgb(0, 0, 0)" stroke="rgb(204, 204, 204)" stroke-width="1px"></line><line x1="519.575" y1="0" x2="519.575" y2="5" style="visibility: inherit;" fill="rgb(0, 0, 0)" stroke="rgb(204, 204, 204)" stroke-width="1px"></line><line x1="593.8000000000001" y1="0" x2="593.8000000000001" y2="5" style="visibility: inherit;" fill="rgb(0, 0, 0)" stroke="rgb(204, 204, 204)" stroke-width="1px"></line><line x1="668.0250000000001" y1="0" x2="668.0250000000001" y2="5" style="visibility: inherit;" fill="rgb(0, 0, 0)" stroke="rgb(204, 204, 204)" stroke-width="1px"></line><line x1="742.2500000000001" y1="0" x2="742.2500000000001" y2="5" style="visibility: inherit;" fill="rgb(0, 0, 0)" stroke="rgb(204, 204, 204)" stroke-width="1px"></line><line x1="816.475" y1="0" x2="816.475" y2="5" style="visibility: inherit;" fill="rgb(0, 0, 0)" stroke="rgb(204, 204, 204)" stroke-width="1px"></line><line x1="890.7" y1="0" x2="890.7" y2="5" style="visibility: inherit;" fill="rgb(0, 0, 0)" stroke="rgb(204, 204, 204)" stroke-width="1px"></line><line x1="964.9250000000001" y1="0" x2="964.9250000000001" y2="5" style="visibility: inherit;" fill="rgb(0, 0, 0)" stroke="rgb(204, 204, 204)" stroke-width="1px"></line><line x1="1039.15" y1="0" x2="1039.15" y2="5" style="visibility: inherit;" fill="rgb(0, 0, 0)" stroke="rgb(204, 204, 204)" stroke-width="1px"></line></g><g transform="translate(0, 8)"><text x="0" y="0" dx="0em" dy="0.95em" style="text-anchor: middle; visibility: hidden; font-family: &quot;Helvetica Neue&quot;, sans-serif; font-size: 12px; font-weight: 200;" fill="rgb(50, 49, 63)" stroke="none" stroke-width="1px">-5k</text><text x="74.22500000000001" y="0" dx="0em" dy="0.95em" style="text-anchor: middle; visibility: inherit; font-family: &quot;Helvetica Neue&quot;, sans-serif; font-size: 12px; font-weight: 200;" fill="rgb(50, 49, 63)" stroke="none" stroke-width="1px">0</text><text x="148.45000000000002" y="0" dx="0em" dy="0.95em" style="text-anchor: middle; visibility: inherit; font-family: &quot;Helvetica Neue&quot;, sans-serif; font-size: 12px; font-weight: 200;" fill="rgb(50, 49, 63)" stroke="none" stroke-width="1px">5k</text><text x="222.675" y="0" dx="0em" dy="0.95em" style="text-anchor: middle; visibility: inherit; font-family: &quot;Helvetica Neue&quot;, sans-serif; font-size: 12px; font-weight: 200;" fill="rgb(50, 49, 63)" stroke="none" stroke-width="1px">10k</text><text x="296.90000000000003" y="0" dx="0em" dy="0.95em" style="text-anchor: middle; visibility: inherit; font-family: &quot;Helvetica Neue&quot;, sans-serif; font-size: 12px; font-weight: 200;" fill="rgb(50, 49, 63)" stroke="none" stroke-width="1px">15k</text><text x="371.12500000000006" y="0" dx="0em" dy="0.95em" style="text-anchor: middle; visibility: inherit; font-family: &quot;Helvetica Neue&quot;, sans-serif; font-size: 12px; font-weight: 200;" fill="rgb(50, 49, 63)" stroke="none" stroke-width="1px">20k</text><text x="445.35" y="0" dx="0em" dy="0.95em" style="text-anchor: middle; visibility: inherit; font-family: &quot;Helvetica Neue&quot;, sans-serif; font-size: 12px; font-weight: 200;" fill="rgb(50, 49, 63)" stroke="none" stroke-width="1px">25k</text><text x="519.575" y="0" dx="0em" dy="0.95em" style="text-anchor: middle; visibility: inherit; font-family: &quot;Helvetica Neue&quot;, sans-serif; font-size: 12px; font-weight: 200;" fill="rgb(50, 49, 63)" stroke="none" stroke-width="1px">30k</text><text x="593.8000000000001" y="0" dx="0em" dy="0.95em" style="text-anchor: middle; visibility: inherit; font-family: &quot;Helvetica Neue&quot;, sans-serif; font-size: 12px; font-weight: 200;" fill="rgb(50, 49, 63)" stroke="none" stroke-width="1px">35k</text><text x="668.0250000000001" y="0" dx="0em" dy="0.95em" style="text-anchor: middle; visibility: inherit; font-family: &quot;Helvetica Neue&quot;, sans-serif; font-size: 12px; font-weight: 200;" fill="rgb(50, 49, 63)" stroke="none" stroke-width="1px">40k</text><text x="742.2500000000001" y="0" dx="0em" dy="0.95em" style="text-anchor: middle; visibility: inherit; font-family: &quot;Helvetica Neue&quot;, sans-serif; font-size: 12px; font-weight: 200;" fill="rgb(50, 49, 63)" stroke="none" stroke-width="1px">45k</text><text x="816.475" y="0" dx="0em" dy="0.95em" style="text-anchor: middle; visibility: inherit; font-family: &quot;Helvetica Neue&quot;, sans-serif; font-size: 12px; font-weight: 200;" fill="rgb(50, 49, 63)" stroke="none" stroke-width="1px">50k</text><text x="890.7" y="0" dx="0em" dy="0.95em" style="text-anchor: middle; visibility: inherit; font-family: &quot;Helvetica Neue&quot;, sans-serif; font-size: 12px; font-weight: 200;" fill="rgb(50, 49, 63)" stroke="none" stroke-width="1px">55k</text><text x="964.9250000000001" y="0" dx="0em" dy="0.95em" style="text-anchor: middle; visibility: inherit; font-family: &quot;Helvetica Neue&quot;, sans-serif; font-size: 12px; font-weight: 200;" fill="rgb(50, 49, 63)" stroke="none" stroke-width="1px">60k</text><text x="1039.15" y="0" dx="0em" dy="0.95em" style="text-anchor: middle; visibility: hidden; font-family: &quot;Helvetica Neue&quot;, sans-serif; font-size: 12px; font-weight: 200;" fill="rgb(50, 49, 63)" stroke="none" stroke-width="1px">65k</text></g><line x1="0" y1="0" x2="1039.15" y2="0" fill="rgb(0, 0, 0)" stroke="rgb(204, 204, 204)" stroke-width="1px"></line></g></g></g></g></svg>